<svg xmlns="http://www.w3.org/2000/svg" xmlns:xlink="http://www.w3.org/1999/xlink" version="1.1" id="layer" x="0px" y="0px" style="enable-background:new 0 0 652 652;" xml:space="preserve" viewBox="25.3 280.7 599.9 90.2">
<style type="text/css">
	.st0{fill:#008FCC;}
</style>
<polyline class="st0" points="89.9,280.7 50.8,280.7 50.8,306.5 25.3,306.5 25.3,345.4 50.8,345.4 50.8,370.9 89.9,370.9   89.9,345.4 115.4,345.4 115.4,306.5 89.9,306.5 89.9,280.7 "/>
<path class="st0" d="M276.8,309.2c-1.2-0.9-2.9-1.6-5.1-2.1c-2.1-0.4-5.4-0.6-9.6-0.6h-13.6c-4.3,0-7.5,0.2-9.6,0.6  c-2.1,0.4-3.7,1.1-5.1,2.1c-1.5,1.1-2.5,2.5-3.2,4.4c-0.7,1.9-1,4.4-1,7.6v10.4c0,2.9,0.3,5.3,1,7.1c0.6,1.7,1.7,3.1,3.2,4.3  c1.3,1,2.9,1.6,5,2c2,0.4,5.3,0.6,9.7,0.6h13.6c4.3,0,7.6-0.2,9.6-0.6c2.1-0.4,3.8-1.1,5.1-2c1.4-1.1,2.4-2.5,3.1-4.4  c0.7-1.8,1-4.2,1-7.1v-10.5c0-3-0.3-5.3-1-7.1C279.3,311.7,278.2,310.2,276.8,309.2 M269.1,328.6c0,2.8-0.7,4.8-2,5.8  c-1.4,1.1-4.1,1.6-8.2,1.6h-7.3c-4.1,0-6.8-0.5-8.2-1.6c-1.4-1-2-2.9-2-5.6v-5.3c0-3,0.6-4.9,2-5.9c1.2-1.1,4-1.6,8.2-1.6h7.4  c4.1,0,6.8,0.5,8.2,1.6c1.3,1,2,3,2,5.8V328.6"/>
<rect x="286" y="306.9" class="st0" width="11.5" height="38.1"/>
<polyline class="st0" points="353.1,306.9 339.2,306.9 327.3,320.3 315.6,306.9 301.1,306.9 318.3,325.7 299.7,345.1 314.8,345.1   327.3,331.7 339.6,345.1 354.6,345.1 336.4,325.7 353.1,306.9 "/>
<path class="st0" d="M176.7,330.3H165v0.4c0,2.1-0.6,3.5-1.7,4.2c-1.1,0.7-3.6,1.1-7.3,1.1h-6.7c-3.7,0-6.2-0.5-7.4-1.6  c-1.3-1-1.9-2.9-1.9-5.6v-5.3c0-3,0.6-5.1,1.6-6.1c1.1-0.9,3.7-1.4,7.7-1.4h9.3c2,0,3.6,0.3,4.6,1c1,0.7,1.5,1.8,1.5,3.3v0.4h11.6  c0.1-0.3,0.1-0.6,0.1-0.9c0-0.2,0-0.7,0-1.2c0-2.4-0.2-4.4-0.8-5.9c-0.6-1.6-1.5-2.8-2.7-3.7c-1.1-0.9-2.7-1.6-4.7-1.9  c-2-0.4-5-0.6-9.1-0.6h-13c-6.7,0-11.4,1.1-14,3.2c-2.6,2.2-3.9,6-3.9,11.4v10.4c0,2.7,0.4,4.9,1.1,6.7c0.7,1.7,1.8,3.2,3.3,4.4  c1.3,1,2.9,1.7,4.7,2.1c1.9,0.5,4.8,0.7,8.7,0.7h13c4,0,7-0.2,9.1-0.6c2-0.4,3.7-1.1,5-2c1.3-1,2.2-2.2,2.9-3.8  c0.6-1.6,0.9-3.6,0.9-6.1c0-0.6,0-1.4-0.1-2.5C176.7,330.4,176.7,330.4,176.7,330.3"/>
<path class="st0" d="M225.1,326.7c1-1.6,1.5-3.9,1.5-7.2c0-4.8-1.1-8.1-3.3-9.9c-2.2-1.8-6.3-2.7-12.3-2.7h-30.4v38.1h11.6v-9.8  h17.2c2,0,3.4,0.2,4.2,0.8c0.7,0.6,1.1,1.6,1.1,3.1v5.8h11.6v-7.9c0-1.9-0.5-3.5-1.6-4.7c-1-1.2-2.4-2-4.5-2.5  C222.5,329.4,224.1,328.4,225.1,326.7 M213.9,324.6c-0.7,0.7-1.7,1.1-3.3,1.1h-18.4v-9.2h18.4c1.5,0,2.5,0.3,3.2,1.1  c0.7,0.7,1,1.7,1,3.2C214.8,322.6,214.4,323.9,213.9,324.6"/>
<path class="st0" d="M412.1,325.6c1.9-0.7,3.3-1.6,4.2-3c0.9-1.3,1.3-3,1.3-5c0-3.6-1.1-6.2-3.1-8c-2.1-1.8-5.2-2.7-9.5-2.7h-33.9  v38.1h35.7c4.2,0,7.3-0.9,9.2-2.5c1.9-1.6,2.9-4.3,2.9-7.9c0-2.8-0.6-4.8-1.6-6.3C416.1,326.9,414.4,326,412.1,325.6 M382.6,315.6  h20.2c0.9,0,1.6,0.2,2.1,0.8c0.6,0.6,0.8,1.3,0.8,2.3c0,1-0.2,1.8-0.7,2.3c-0.5,0.6-1.2,0.8-2.2,0.8h-20.2V315.6z M406.2,335.4  c-0.5,0.6-1.3,0.9-2.3,0.9h-21.3v-6.8h21.3c0.9,0,1.7,0.2,2.3,0.9c0.6,0.6,0.8,1.4,0.8,2.5C407,334,406.8,334.9,406.2,335.4"/>
<polyline class="st0" points="459.7,335.8 434.5,335.8 434.5,306.9 423,306.9 423,345.1 459.7,345.1 459.7,335.8 "/>
<polyline class="st0" points="574.8,329.9 602.8,329.9 602.8,322.1 574.8,322.1 574.8,316.3 604.5,316.3 604.5,306.9 563.3,306.9   563.3,345.1 604.9,345.1 604.9,335.8 574.8,335.8 574.8,329.9 "/>
<path class="st0" d="M513.6,342.8c2.6,1.8,7.3,2.7,14.2,2.7h12.9c5.9,0,10-0.9,12.4-2.8c2.4-1.9,3.6-5.1,3.6-9.5v-26.2h-11.5v22.6  c0,2.5-0.6,4.2-1.6,5.1c-1.2,0.9-3.3,1.4-6.5,1.4h-6.5c-3.9,0-6.4-0.5-7.6-1.3c-1.1-0.9-1.7-2.6-1.7-5.2v-22.6h-11.5v26.2  C509.6,337.7,510.9,341,513.6,342.8"/>
<polyline class="st0" points="475.3,329.9 503.2,329.9 503.2,322.1 475.3,322.1 475.3,316.3 504.9,316.3 504.9,306.9 463.7,306.9   463.7,345.1 505.4,345.1 505.4,335.8 475.3,335.8 475.3,329.9 "/>
<polyline class="st0" points="609.9,306.9 611.7,306.9 613.8,312.6 613.8,312.6 615.7,306.9 617.5,306.9 617.5,314.2 616.3,314.2   616.3,308.6 616.3,308.6 614.3,314.2 613.2,314.2 611.2,308.6 611.2,308.6 611.2,314.2 609.9,314.2 609.9,306.9 "/>
<path class="st0" d="M619,306.9h3c2.2,0,3.2,1.6,3.2,3.6c0,2-1,3.6-3.2,3.6h-3V306.9 M620.3,313.2h1.3c2,0,2.4-1.1,2.4-2.6  c0-1.5-0.4-2.6-2.4-2.6h-1.3V313.2z"/>
<polyline class="st0" points="442.3,351.8 451,351.8 457.4,363.8 463.8,351.8 472.5,351.8 472.5,370.5 467,370.5 467,357.1   467,357.1 459.5,370.5 455.3,370.5 447.9,357.1 447.8,357.1 447.8,370.5 442.3,370.5 442.3,351.8 "/>
<polyline class="st0" points="475.9,351.8 496.1,351.8 496.1,356.1 481.6,356.1 481.6,359.1 495.4,359.1 495.4,363 481.6,363   481.6,366 496.5,366 496.5,370.5 475.9,370.5 475.9,351.8 "/>
<path class="st0" d="M499,351.8h17.1c5.7,0,7.7,1.9,7.7,6.5v5.7c0,4.6-2,6.5-7.7,6.5H499V351.8 M504.7,365.7h10.1  c2.4,0,3.4-0.7,3.4-3.4v-2.5c0-2.7-0.9-3.4-3.4-3.4h-10.1V365.7z"/>
<path class="st0" d="M533.4,351.8h7.4l10.2,18.7h-6.3l-1.8-3.3h-11.5l-1.7,3.3h-6.3L533.4,351.8 M533.5,363.2h7.2l-3.7-7  L533.5,363.2z"/>
<polyline class="st0" points="545.9,351.8 552.1,351.8 559.4,365.7 566.6,351.8 572.8,351.8 562.9,370.5 555.9,370.5 545.9,351.8   "/>
<rect x="574.8" y="351.8" class="st0" width="5.7" height="18.7"/>
<polyline class="st0" points="584.1,351.8 604.3,351.8 604.3,356.1 589.8,356.1 589.8,359.1 603.6,359.1 603.6,363 589.8,363   589.8,366 604.7,366 604.7,370.5 584.1,370.5 584.1,351.8 "/>
</svg>