<svg xmlns="http://www.w3.org/2000/svg" fill="none" viewBox="0 0 616.33 72.01">
<g clip-path="url(#clip0_7041_14284)">
<path d="M386.997 60.1765C386.872 60.4924 386.681 60.7681 386.445 60.9988C386.205 61.2244 385.919 61.3999 385.588 61.5253C385.247 61.6456 384.861 61.7108 384.44 61.7108H382.118V56.491H384.44C384.866 56.491 385.252 56.5511 385.588 56.6815C385.924 56.8069 386.205 56.9773 386.445 57.208C386.676 57.4286 386.862 57.7145 386.997 58.0304C387.132 58.3513 387.192 58.7123 387.192 59.1034C387.192 59.4945 387.132 59.8656 386.997 60.1815M387.293 56.2754C386.927 55.9444 386.5 55.6887 386.024 55.5132C385.553 55.3377 385.041 55.2524 384.51 55.2524H380.829V62.9694H384.51C385.021 62.9694 385.528 62.8792 386.004 62.7037C386.485 62.5282 386.917 62.2724 387.278 61.9465C387.644 61.6156 387.93 61.2094 388.15 60.728C388.371 60.2467 388.486 59.7001 388.486 59.0984C388.486 58.4967 388.381 57.9501 388.165 57.4838C387.95 57.0074 387.659 56.6013 387.298 56.2703" fill="#56227D"/>
<path d="M374.787 61.4096L371.959 55.3323L371.924 55.2471H370.109V62.964H371.322V56.7664L374.17 62.8888L374.21 62.964H375.319L378.142 56.7664V62.964H379.38V55.2471H377.595L374.787 61.4096Z" fill="#56227D"/>
<path d="M393.791 57.263H395.852C396.203 57.263 396.489 57.3582 396.704 57.5488C396.915 57.7443 397.02 58.0001 397.02 58.336C397.02 58.672 396.915 58.9327 396.709 59.1183C396.494 59.3088 396.203 59.4041 395.852 59.4041H393.791V57.268V57.263ZM398.088 58.336C398.088 58.0251 398.028 57.7393 397.913 57.4836C397.798 57.2329 397.637 57.0072 397.437 56.8317C397.236 56.6512 396.995 56.5058 396.73 56.4106C396.464 56.3153 396.173 56.2651 395.862 56.2651H392.728V61.6053H393.796V60.3969H396.023L396.709 61.6053H397.908L397.04 60.1161C397.326 59.9657 397.567 59.7551 397.757 59.4943C397.978 59.1784 398.098 58.7873 398.098 58.341" fill="#56227D"/>
<path d="M395.165 63.7617C392.578 63.7617 390.467 61.6607 390.467 59.0884C390.467 56.5161 392.573 54.4101 395.165 54.4101C397.757 54.4101 399.853 56.511 399.853 59.0884C399.853 61.6657 397.752 63.7617 395.165 63.7617ZM395.165 53.4824C392.061 53.4824 389.539 55.9946 389.539 59.0834C389.539 62.1722 392.061 64.6843 395.165 64.6843C398.269 64.6843 400.791 62.1671 400.791 59.0834C400.791 55.9996 398.264 53.4824 395.165 53.4824Z" fill="#56227D"/>
<path d="M120.102 57.7496H121.937L125.407 66.1485H116.517L120.097 57.7496H120.102ZM118.197 54.9165L110.891 71.604H114.19L115.318 69.0116H126.701L127.834 71.604H131.063L123.948 54.9165H118.202H118.197Z" fill="#878686"/>
<path d="M119.836 57.3484H122.198L126.014 66.5396H115.92L119.841 57.3484H119.836ZM118.452 55.3076L111.508 71.1979H113.919L115.053 68.6105H126.962L128.085 71.1979H130.451L123.677 55.3076H118.452Z" fill="#878686"/>
<path d="M150.378 71.9999C147.059 71.9999 144.612 71.3079 142.215 69.6883L141.904 69.4727L143.448 66.9856L143.794 67.2112C145.966 68.6554 147.931 69.217 150.809 69.217C152.289 69.217 155.718 68.9713 155.718 66.7148C155.718 65.8373 155.387 64.9047 152.961 64.669L147.816 64.0924C144.246 63.6812 142.501 62.192 142.501 59.5294C142.501 56.4506 145.414 54.5352 150.112 54.5352C152.961 54.5352 155.367 54.8862 157.93 56.6161L158.251 56.8367L156.731 59.1483L156.4 58.9527C154.445 57.8095 152.63 57.3432 150.107 57.3432C147.064 57.3432 145.519 58.0702 145.519 59.4993C145.519 60.5122 146.181 60.9284 148.137 61.144L153.216 61.7457C157.774 62.3123 158.732 64.7242 158.732 66.6547C158.732 70.0945 155.759 71.9949 150.368 71.9949" fill="#878686"/>
<path d="M156.611 58.6166C154.65 57.4684 152.775 56.9469 150.117 56.9469C146.196 56.9469 145.128 58.1553 145.128 59.5042C145.128 60.9433 146.312 61.3444 148.107 61.545L153.181 62.1517C156.41 62.5528 158.346 63.9869 158.346 66.6595C158.346 70.0743 155.172 71.6036 150.383 71.6036C147.239 71.6036 144.872 71.0019 142.446 69.3622L143.574 67.5471C145.82 69.0413 147.876 69.618 150.814 69.618C154.044 69.618 156.12 68.6402 156.12 66.7147C156.12 65.1853 155.082 64.4733 153.011 64.2727L147.876 63.6961C144.872 63.3501 142.917 62.257 142.917 59.5292C142.917 56.3402 146.201 54.9312 150.122 54.9312C152.981 54.9312 155.292 55.3072 157.709 56.9419L156.621 58.6116L156.611 58.6166Z" fill="#878686"/>
<path d="M178.348 71.9999C175.028 71.9999 172.591 71.3079 170.195 69.6883L169.879 69.4727L171.423 66.9856L171.764 67.2112C173.935 68.6554 175.906 69.217 178.784 69.217C180.263 69.217 183.698 68.9713 183.698 66.7148C183.698 65.8373 183.367 64.9047 180.94 64.669L175.796 64.0924C172.225 63.6812 170.48 62.192 170.48 59.5294C170.48 56.4506 173.399 54.5352 178.092 54.5352C180.935 54.5352 183.347 54.8862 185.904 56.6161L186.235 56.8367L184.711 59.1483L184.38 58.9527C182.424 57.8095 180.604 57.3432 178.092 57.3432C175.048 57.3432 173.504 58.0702 173.504 59.4993C173.504 60.5122 174.166 60.9284 176.121 61.144L181.196 61.7457C185.759 62.3123 186.717 64.7242 186.717 66.6547C186.717 70.0945 183.743 71.9949 178.353 71.9949" fill="#878686"/>
<path d="M184.586 58.6166C182.62 57.4684 180.75 56.9469 178.087 56.9469C174.166 56.9469 173.098 58.1553 173.098 59.5042C173.098 60.9433 174.281 61.3444 176.071 61.545L181.146 62.1517C184.38 62.5528 186.31 63.9869 186.31 66.6595C186.31 70.0743 183.136 71.6036 178.348 71.6036C175.204 71.6036 172.837 71.0019 170.415 69.3622L171.543 67.5471C173.79 69.0413 175.846 69.618 178.779 69.618C182.008 69.618 184.089 68.6402 184.089 66.7147C184.089 65.1853 183.046 64.4733 180.975 64.2727L175.841 63.6961C172.832 63.3501 170.882 62.257 170.882 59.5292C170.882 56.3402 174.166 54.9312 178.087 54.9312C180.945 54.9312 183.257 55.3072 185.674 56.9419L184.586 58.6116V58.6166Z" fill="#878686"/>
<path d="M207.1 71.9998C201.81 71.9998 198.646 68.8007 198.646 63.4404V54.9111H201.699V63.4705C201.699 66.0679 202.632 69.1617 207.1 69.1617C210.56 69.1617 212.465 67.141 212.465 63.4705V54.9111H215.544V63.4404C215.544 68.8007 212.39 71.9998 207.1 71.9998Z" fill="#878686"/>
<path d="M201.298 55.3125V63.4757C201.298 67.1211 203.088 69.5681 207.1 69.5681C211.111 69.5681 212.866 67.1211 212.866 63.4757V55.3125H215.143V63.4457C215.143 68.7006 211.999 71.6039 207.1 71.6039C202.201 71.6039 199.052 68.7006 199.052 63.4457V55.3125H201.298Z" fill="#878686"/>
<path d="M237.607 64.8795C239.958 64.8795 241.417 63.5206 241.417 61.3444C241.417 59.1683 239.928 57.7743 237.607 57.7743H230.998V64.8795H237.607ZM240.374 71.5986L238.208 67.7477H230.998V71.5986H227.944V54.9111H237.637C241.588 54.9111 244.461 57.6138 244.461 61.3444C244.461 63.8416 243.248 65.8523 241.107 66.9203L243.769 71.5936H240.369L240.374 71.5986Z" fill="#878686"/>
<path d="M230.597 65.2809H237.607C240.089 65.2809 241.819 63.8217 241.819 61.3447C241.819 58.8676 240.089 57.3784 237.607 57.3784H230.597V65.2809ZM237.637 55.3125C241.242 55.3125 244.07 57.7244 244.07 61.3497C244.07 63.9621 242.656 65.8575 240.55 66.7501L243.087 71.2027H240.605L238.444 67.3518H230.592V71.2027H228.34V55.3125H237.632H237.637Z" fill="#878686"/>
<path d="M264.894 57.7496H266.724L270.194 66.1485H261.309L264.894 57.7496ZM262.979 54.9165L255.683 71.604H258.977L260.106 69.0116H271.493L272.621 71.604H275.85L268.73 54.9165H262.984H262.979Z" fill="#878686"/>
<path d="M264.633 57.3484H266.995L270.801 66.5396H260.712L264.638 57.3484H264.633ZM263.244 55.3076L256.29 71.1979H258.712L259.845 68.6105H271.754L272.887 71.1979H275.249L268.469 55.3076H263.255H263.244Z" fill="#878686"/>
<path d="M301.714 54.9111V67.1961L290.703 54.9111H287.639V71.6037H290.658V59.2886L301.644 71.6037H304.738V54.9111H301.714Z" fill="#878686"/>
<path d="M302.115 55.3125V68.2393L290.517 55.3125H288.04V71.1977H290.261V58.2408L301.824 71.1977H304.337V55.3125H302.115Z" fill="#878686"/>
<path d="M326.048 72.0002C320.533 72.0002 316.817 68.4802 316.817 63.2403C316.817 58.0004 320.613 54.5405 326.048 54.5405C329.513 54.5405 332.371 55.9295 334.106 58.4517L334.352 58.8027L331.86 60.2668L331.639 59.986C330.325 58.2561 328.475 57.4137 325.958 57.4137C322.278 57.4137 319.896 59.7002 319.896 63.2503C319.896 66.8004 322.388 69.1722 325.958 69.1722C328.475 69.1722 330.23 68.3599 331.639 66.5347L331.855 66.2589L334.382 67.7181L334.136 68.0741C332.301 70.6815 329.583 72.0053 326.048 72.0053" fill="#878686"/>
<path d="M331.96 59.7355C330.631 57.9856 328.701 57.0078 325.958 57.0078C322.037 57.0078 319.495 59.4748 319.495 63.2455C319.495 67.0163 322.117 69.5685 325.958 69.5685C328.756 69.5685 330.571 68.5607 331.96 66.7806L333.805 67.8436C332.136 70.2254 329.593 71.6094 326.048 71.6094C320.944 71.6094 317.223 68.4203 317.223 63.2455C317.223 58.0708 321.034 54.9419 326.048 54.9419C329.453 54.9419 332.136 56.2957 333.775 58.6775L331.96 59.7406V59.7355Z" fill="#878686"/>
<path d="M346.171 54.9111V71.6037H361.479V68.7305H349.229V64.4734H359.84V61.6303H349.229V57.7492H361.053V54.9111H346.171Z" fill="#878686"/>
<path d="M346.577 55.3125V71.1977H361.088V69.1318H348.828V64.0775H359.443V62.0366H348.828V57.3483H360.652V55.3125H346.577Z" fill="#878686"/>
<path d="M86.0199 19.8618C85.5937 23.8331 82.7406 26.7815 79.6418 26.4505C76.5429 26.1196 74.3667 22.6497 74.798 18.6784C75.2142 14.7121 78.0773 11.7637 81.1711 12.0947C84.275 12.4206 86.4361 15.9005 86.0199 19.8618ZM47.6156 24.8911C44.1457 25.0816 41.092 21.5065 40.8012 16.9134C40.5053 12.3253 43.0676 8.44427 46.5475 8.24871C50.0124 8.05817 53.0611 11.6283 53.3619 16.2214C53.6578 20.8145 51.0855 24.6955 47.6156 24.8861M17.9812 30.2463C15.5794 30.4269 13.3981 27.7944 13.0973 24.3796C12.8065 20.9549 14.5113 18.0416 16.9132 17.8661C19.315 17.6956 21.5062 20.3231 21.8021 23.7378C22.0979 27.1575 20.3881 30.0759 17.9812 30.2514M91.5356 0.145639H7.35594C3.29939 0.145639 0.0100286 3.435 0 7.4715V38.199C0.235671 38.1188 0.471342 38.0435 0.69197 37.9633C0.927641 37.8881 1.14827 37.8179 1.38394 37.7477C48.3326 22.6648 79.9827 27.669 97.5076 33.7864C97.7383 33.8666 97.9639 33.9469 98.1946 34.0271C98.4252 34.1073 98.6609 34.1926 98.8866 34.2778V7.4715C98.8866 3.42999 95.5872 0.140625 91.5306 0.140625" fill="#56227D"/>
<path d="M97.5126 38.0885C93.8071 37.4567 90.0664 36.9352 86.3057 36.5391C85.7792 42.2804 84.1997 59.2136 83.8036 63.8167L80.8301 63.7867C80.4942 57.4837 80.5193 52.665 79.8122 46.7181C78.1876 46.7181 78.5888 46.7181 76.9792 46.7281C76.3474 49.496 75.8109 53.1464 74.2414 63.7816L71.8446 63.7917C71.654 59.6098 70.7615 40.6608 70.4155 35.441C65.7873 35.2855 61.1892 35.2655 56.6363 35.3507C55.9994 42.6565 54.5252 60.1513 54.3447 63.8318L51.9379 63.8167C51.0102 56.7366 50.6091 51.5418 49.8269 46.4573C48.8792 46.4874 47.9415 46.5175 47.0038 46.5576C46.3821 51.968 46.1313 56.8619 45.319 63.8167L42.3305 63.8518C41.9645 59.8555 40.029 43.178 39.2518 36.168C34.5233 36.519 29.9352 36.9603 25.5528 37.4617C25.4374 43.539 25.0062 60.7029 25.0413 63.8167L22.6695 63.8318C22.0779 59.324 21.2505 49.7216 20.4332 47.8463C19.8967 47.8764 19.3501 47.9014 18.8186 47.9365C18.3723 49.511 18.0213 58.281 17.8558 63.8318H15.8852C15.5593 60.6377 13.2728 43.7797 12.661 39.1465C8.59949 39.7532 4.81872 40.375 1.38394 40.9867C1.14827 41.0218 0.922627 41.067 0.69197 41.1071C0.461313 41.1572 0.235671 41.1923 0 41.2324V64.4335C0 68.475 3.29939 71.7644 7.35594 71.7644H91.5356C95.5872 71.7644 98.8916 68.475 98.8916 64.4335V38.3292C98.6609 38.2891 98.4303 38.2489 98.1996 38.2038C97.9689 38.1637 97.7383 38.1236 97.5126 38.0835" fill="#56227D"/>
<path d="M153.291 0H147.781C146.638 0 145.71 0.927641 145.71 2.06087V15.9755H122.163V2.06087C122.163 0.922627 121.24 0 120.092 0H114.656C113.513 0 112.581 0.927641 112.581 2.06087V40.4803C112.581 41.6185 113.503 42.5461 114.651 42.5461H120.092C121.235 42.5461 122.163 41.6185 122.163 40.4803V25.1065H145.71V40.4803C145.71 41.6185 146.638 42.5461 147.781 42.5461H153.291C154.44 42.5461 155.367 41.6185 155.367 40.4803V2.06087C155.367 0.922627 154.44 0 153.291 0Z" fill="#56227D"/>
<path d="M202.537 0H197.026C195.883 0 194.955 0.927641 194.955 2.06087L194.945 21.7971C194.945 27.5685 192.889 34.4531 183.076 34.4531C175.149 34.4531 171.132 30.191 171.132 21.7971V2.06087C171.132 0.922627 170.205 0 169.061 0H163.616C162.473 0 161.545 0.927641 161.545 2.06087V21.7218C161.545 35.1701 169.798 43.5189 183.081 43.5189C196.364 43.5189 204.608 35.1701 204.608 21.7218L204.618 2.06087C204.618 0.922627 203.68 0 202.537 0Z" fill="#56227D"/>
<path d="M263.851 0H254.921C254.144 0 253.422 0.441256 253.066 1.14827L238.549 30.2511L223.717 1.12821C223.361 0.436242 222.649 0 221.867 0H212.801C211.648 0 210.725 0.927641 210.725 2.06087V40.4803C210.725 41.6185 211.648 42.5461 212.801 42.5461H218.171C219.314 42.5461 220.242 41.6185 220.242 40.4803V14.6718L233.896 41.4229C234.252 42.1149 234.964 42.5512 235.746 42.5512H241.122C241.904 42.5512 242.626 42.1099 242.977 41.4029L256.275 14.8021V40.4853C256.275 41.6235 257.202 42.5512 258.351 42.5512H263.856C265 42.5512 265.932 41.6235 265.932 40.4853V2.06087C265.932 0.922627 265 0 263.856 0" fill="#56227D"/>
<path d="M287.007 27.1623L294.729 9.05578H297.693L305.179 27.1623H287.007ZM304.542 1.25357C304.216 0.486385 303.464 0 302.632 0H290.006C289.183 0 288.431 0.481371 288.105 1.23853L271.297 39.6579C271.017 40.2947 271.082 41.0368 271.463 41.6135C271.844 42.1951 272.501 42.5562 273.198 42.5562H279.055C279.882 42.5562 280.629 42.0598 280.955 41.3026L283.131 36.2933H309.21L311.392 41.3026C311.718 42.0598 312.465 42.5562 313.292 42.5562H319.008C319.705 42.5562 320.357 42.1951 320.738 41.6235C321.119 41.0469 321.19 40.3198 320.919 39.673L304.542 1.25357Z" fill="#56227D"/>
<path d="M367.777 0H362.412C361.264 0 360.336 0.927641 360.336 2.06087V27.9045L335.921 0.686956C335.52 0.250714 334.959 0 334.377 0H328.375C327.227 0 326.299 0.927641 326.299 2.06087V40.4803C326.299 41.6185 327.222 42.5461 328.375 42.5461H333.74C334.894 42.5461 335.816 41.6185 335.816 40.4803V14.5815L360.16 41.8542C360.547 42.2954 361.118 42.5512 361.705 42.5512H367.772C368.92 42.5512 369.848 41.6235 369.848 40.4853V2.06087C369.848 0.922627 368.92 0 367.772 0" fill="#56227D"/>
<path d="M383.968 0H378.523C377.374 0 376.452 0.927641 376.452 2.06087V40.4803C376.452 41.6185 377.374 42.5461 378.523 42.5461H383.963C385.111 42.5461 386.039 41.6185 386.039 40.4803V2.06087C386.039 0.922627 385.111 0 383.968 0Z" fill="#56227D"/>
<path d="M407.114 27.1623L414.841 9.06581H417.8L425.291 27.1623H407.114ZM441.036 39.673L424.654 1.25357C424.328 0.486385 423.566 0 422.744 0H410.118C409.29 0 408.543 0.481371 408.212 1.23853L391.409 39.6579C391.124 40.2947 391.189 41.0368 391.575 41.6135C391.956 42.1951 392.613 42.5512 393.305 42.5512H399.172C399.989 42.5512 400.746 42.0598 401.072 41.3026L403.248 36.2933H429.327L431.509 41.3026C431.835 42.0598 432.587 42.5512 433.409 42.5512H439.125C439.817 42.5512 440.469 42.2002 440.855 41.6235C441.246 41.0469 441.306 40.3198 441.036 39.673Z" fill="#56227D"/>
<path d="M518.867 69.498H514.294L513.537 71.6843H511.12L515.247 60.1865H517.93L522.056 71.6843H519.624L518.867 69.498ZM518.241 67.6578L516.581 62.8541L514.921 67.6578H518.246H518.241Z" fill="#56227D"/>
<path d="M533.424 71.6843H531.122L525.907 63.8068V71.6843H523.606V60.1865H525.907L531.122 68.084V60.1865H533.424V71.6843Z" fill="#56227D"/>
<path d="M537.495 71.3883C536.854 71.1125 536.347 70.7214 535.976 70.205C535.605 69.6885 535.409 69.0818 535.399 68.3798H537.866C537.897 68.8511 538.067 69.2222 538.368 69.4979C538.669 69.7737 539.085 69.9091 539.611 69.9091C540.138 69.9091 540.569 69.7787 540.88 69.523C541.186 69.2673 541.341 68.9263 541.341 68.5101C541.341 68.1692 541.236 67.8884 541.03 67.6727C540.82 67.4521 540.564 67.2816 540.248 67.1563C539.937 67.0309 539.506 66.8905 538.96 66.7351C538.212 66.5144 537.606 66.2988 537.139 66.0832C536.673 65.8676 536.272 65.5467 535.941 65.1105C535.61 64.6742 535.44 64.0976 535.44 63.3755C535.44 62.6936 535.61 62.1019 535.951 61.6005C536.292 61.094 536.768 60.7079 537.38 60.4422C537.997 60.1714 538.694 60.041 539.486 60.041C540.669 60.041 541.632 60.3268 542.374 60.9035C543.116 61.4801 543.523 62.2824 543.603 63.3153H541.071C541.046 62.9192 540.88 62.5933 540.569 62.3376C540.258 62.0818 539.842 61.9515 539.326 61.9515C538.874 61.9515 538.518 62.0668 538.248 62.2974C537.977 62.5281 537.846 62.8641 537.846 63.3003C537.846 63.6062 537.947 63.8619 538.152 64.0675C538.358 64.2681 538.609 64.4335 538.909 64.5589C539.21 64.6842 539.636 64.8296 540.183 64.9951C540.93 65.2157 541.537 65.4314 542.008 65.652C542.48 65.8726 542.886 66.1985 543.227 66.6398C543.568 67.0811 543.738 67.6527 543.738 68.3697C543.738 68.9815 543.578 69.5531 543.262 70.0796C542.941 70.6061 542.48 71.0273 541.863 71.3382C541.246 71.6491 540.519 71.8045 539.677 71.8045C538.874 71.8045 538.152 71.6691 537.515 71.3933L537.495 71.3883Z" fill="#56227D"/>
<path d="M551.275 68.1892C550.924 67.9886 550.648 67.7078 550.442 67.3568C550.237 67.0058 550.136 66.6197 550.136 66.2035C550.136 65.7874 550.237 65.3862 550.442 65.0352C550.643 64.6842 550.924 64.4084 551.275 64.2028C551.626 64.0023 552.012 63.897 552.428 63.897C552.844 63.897 553.245 63.9973 553.601 64.2028C553.957 64.4084 554.238 64.6842 554.439 65.0352C554.639 65.3862 554.744 65.7773 554.744 66.2035C554.744 66.6298 554.644 67.0058 554.439 67.3568C554.233 67.7078 553.957 67.9836 553.601 68.1892C553.245 68.3948 552.854 68.4951 552.428 68.4951C552.002 68.4951 551.626 68.3948 551.275 68.1892Z" fill="#56227D"/>
<path d="M570.57 60.2065L566.688 67.6929V71.6892H564.387V67.6929L560.486 60.2065H563.083L565.55 65.4565L568.002 60.2065H570.57Z" fill="#56227D"/>
<path d="M574.205 62.0619V64.9401H578.071V66.7653H574.205V69.8089H578.567V71.6843H571.903V60.1865H578.567V62.0619H574.205Z" fill="#56227D"/>
<path d="M587.693 69.498H583.12L582.363 71.6843H579.946L584.073 60.1865H586.756L590.882 71.6843H588.45L587.693 69.498ZM587.066 67.6578L585.407 62.8541L583.747 67.6578H587.071H587.066Z" fill="#56227D"/>
<path d="M598.354 71.6844L595.821 67.2116H594.733V71.6844H592.432V60.2017H596.744C597.632 60.2017 598.389 60.3571 599.016 60.668C599.642 60.9789 600.109 61.4051 600.425 61.9366C600.735 62.4681 600.891 63.0648 600.891 63.7217C600.891 64.4788 600.67 65.1608 600.234 65.7675C599.793 66.3742 599.141 66.7954 598.273 67.0261L601.021 71.6793H598.359L598.354 71.6844ZM594.733 65.4817H596.659C597.286 65.4817 597.752 65.3313 598.058 65.0304C598.364 64.7296 598.519 64.3084 598.519 63.7718C598.519 63.2353 598.364 62.8392 598.058 62.5483C597.752 62.2575 597.286 62.1121 596.659 62.1121H594.733V65.4867V65.4817Z" fill="#56227D"/>
<path d="M604.777 71.3883C604.135 71.1125 603.629 70.7214 603.258 70.205C602.886 69.6885 602.691 69.0818 602.681 68.3798H605.148C605.178 68.8511 605.348 69.2222 605.649 69.4979C605.95 69.7737 606.366 69.9091 606.893 69.9091C607.419 69.9091 607.851 69.7787 608.161 69.523C608.467 69.2673 608.623 68.9263 608.623 68.5101C608.623 68.1692 608.518 67.8884 608.312 67.6727C608.101 67.4521 607.846 67.2816 607.53 67.1563C607.219 67.0309 606.788 66.8905 606.241 66.7351C605.494 66.5144 604.887 66.2988 604.421 66.0832C603.955 65.8676 603.553 65.5467 603.222 65.1105C602.886 64.6792 602.721 64.0976 602.721 63.3755C602.721 62.6936 602.891 62.1019 603.232 61.6005C603.573 61.094 604.05 60.7079 604.662 60.4422C605.278 60.1714 605.975 60.041 606.767 60.041C607.951 60.041 608.914 60.3268 609.656 60.9035C610.398 61.4801 610.804 62.2824 610.884 63.3153H608.352C608.327 62.9192 608.161 62.5933 607.851 62.3376C607.54 62.0818 607.124 61.9515 606.607 61.9515C606.156 61.9515 605.8 62.0668 605.529 62.2974C605.258 62.5281 605.128 62.8641 605.128 63.3003C605.128 63.6062 605.228 63.8619 605.434 64.0675C605.639 64.2681 605.89 64.4335 606.191 64.5589C606.492 64.6842 606.918 64.8296 607.464 64.9951C608.212 65.2157 608.818 65.4314 609.29 65.652C609.761 65.8726 610.167 66.1985 610.508 66.6398C610.849 67.0811 611.02 67.6527 611.02 68.3697C611.02 68.9815 610.859 69.5531 610.543 70.0796C610.222 70.6061 609.761 71.0273 609.144 71.3382C608.528 71.6491 607.8 71.8045 606.958 71.8045C606.156 71.8045 605.434 71.6691 604.797 71.3933L604.777 71.3883Z" fill="#56227D"/>
<path d="M615.823 21.326C615.447 19.2049 614.876 17.1691 614.124 15.2687C613.883 14.662 613.627 14.0753 613.356 13.4937C612.955 12.6513 612.499 11.839 612.023 11.0517C611.712 10.5352 611.396 10.0238 611.055 9.5374C609.876 7.84759 608.523 6.34832 607.043 5.06466C603.508 2.00094 599.216 0.195801 594.578 0.195801C592.733 0.195801 590.948 0.486629 589.243 1.02316C588.511 1.25381 587.794 1.51957 587.092 1.83547C583.456 3.48517 580.267 6.30319 577.835 9.9235C575.097 13.9901 573.312 19.0695 572.911 24.6354C572.851 25.4327 572.826 26.2349 572.826 27.0473C572.826 27.8596 572.856 28.6117 572.911 29.3839C572.911 29.404 572.911 29.424 572.911 29.4491C572.996 30.6174 573.142 31.7657 573.342 32.8939C573.413 33.27 573.483 33.641 573.563 34.0121C576.05 45.4496 584.529 53.8987 594.578 53.8987C596.854 53.8987 599.046 53.4675 601.106 52.6602C606.567 50.5341 611.105 45.8157 613.768 39.6882C614.058 39.0113 614.324 38.3143 614.57 37.6073C614.79 36.9705 614.996 36.3237 615.182 35.6668C615.292 35.2656 615.402 34.8595 615.497 34.4483C615.663 33.7263 615.798 32.9892 615.914 32.242C616.179 30.5623 616.33 28.8273 616.33 27.0523C616.33 25.0867 616.149 23.1762 615.823 21.331V21.326ZM600.75 38.535C600.75 38.535 600.745 38.54 600.745 38.545C600.71 38.5901 600.67 38.6302 600.635 38.6703C600.475 38.8659 600.309 39.0615 600.134 39.242C598.549 40.9468 596.619 41.9597 594.578 41.9597C593.505 41.9597 592.467 41.6839 591.494 41.1775C589.869 40.3301 588.425 38.8458 587.297 36.9254C586.921 36.2936 586.585 35.6066 586.284 34.8846C585.582 33.2048 585.086 31.3144 584.88 29.3037C584.845 28.9577 584.815 28.6067 584.795 28.2507C584.775 27.8495 584.76 27.4484 584.76 27.0372C584.76 23.5022 585.622 20.2128 587.036 17.6204C587.768 16.2766 588.651 15.1283 589.639 14.2358C590.22 13.7093 590.837 13.258 591.484 12.922C591.695 12.8117 591.91 12.7164 592.131 12.6262C592.166 12.6111 592.196 12.5961 592.231 12.5811C592.261 12.571 592.286 12.566 592.316 12.556C593.049 12.2802 593.811 12.1298 594.588 12.1298C597.245 12.1298 599.692 13.8396 601.483 16.5524C602.195 17.6304 602.801 18.864 603.273 20.2128C603.358 20.4485 603.418 20.6992 603.493 20.9449C603.579 21.2307 603.674 21.5065 603.749 21.7973C603.864 22.2285 603.955 22.6748 604.04 23.1261C604.085 23.3618 604.13 23.5974 604.16 23.8381C604.321 24.8761 604.406 25.9391 604.406 27.0372C604.406 31.5952 602.967 35.7671 600.765 38.5299L600.75 38.535Z" fill="white"/>
<path d="M526.815 10.3848C526.815 9.19137 526.604 8.04812 526.213 6.98509C524.834 3.18427 521.189 0.476562 516.912 0.476562H505.8V12.4156H514.891V31.9361C514.891 31.9361 514.886 31.9361 514.881 31.9411C514.881 31.9411 514.886 31.9411 514.891 31.9411V54.1193C515.277 54.1193 515.658 54.0992 516.034 54.0641C516.305 54.0391 516.566 53.9939 516.831 53.9488C516.937 53.9338 517.042 53.9237 517.147 53.9037C522.252 52.9309 526.198 48.7039 526.765 43.464C526.79 43.2233 526.79 42.9726 526.8 42.7218C526.81 42.5413 526.83 42.3608 526.83 42.1803V28.1102V10.3848H526.815Z" fill="white"/>
<path d="M568.619 35.6116C568.549 33.9519 568.253 32.3573 567.762 30.8531C567.15 28.9627 566.217 27.2127 565.034 25.6633H565.029C561.749 21.3711 556.535 18.6282 550.633 18.6282H545.719V12.4105H554.81C558.104 12.4105 561.088 11.0767 563.249 8.91559C565.41 6.75444 566.744 3.76593 566.744 0.476562H533.785V21.712C533.785 23.5523 534.346 25.2571 535.309 26.6711C536.222 28.025 537.5 29.1031 539.005 29.78C540.113 30.2814 541.341 30.5572 542.635 30.5572H550.638C553.872 30.5572 556.595 33.0593 556.705 36.1331C556.76 37.7226 556.184 39.2319 555.085 40.3702C554.052 41.4382 552.689 42.06 551.214 42.1302C548.156 41.9747 545.719 39.4425 545.719 36.3437H533.785C533.785 43.0578 537.54 48.9145 543.061 51.913C544.681 52.8005 546.446 53.4374 548.316 53.7783C549.164 53.9338 550.026 54.029 550.914 54.0591L551.51 54.0692V54.0591C556.133 53.9087 560.436 52.0033 563.67 48.6537C564.492 47.7963 565.219 46.8737 565.846 45.9009C567.782 42.8873 568.754 39.3723 568.624 35.7019C568.624 35.6668 568.624 35.6417 568.619 35.6066V35.6116Z" fill="white"/>
<g opacity="0.35">
<path d="M526.815 10.3846V42.2002C526.815 42.6315 526.79 43.0627 526.75 43.4789C526.108 49.4659 521.043 54.1292 514.881 54.1292V12.4154H505.79V0.481445H516.902C521.179 0.481445 524.819 3.18915 526.203 6.98998C526.594 8.04799 526.805 9.19626 526.805 10.3897L526.815 10.3846Z" fill="#B098C7"/>
<path d="M614.118 15.2687C613.873 14.662 613.622 14.0753 613.351 13.4937C612.684 12.0947 611.917 10.7609 611.05 9.5374C607.053 3.81611 601.152 0.195801 594.578 0.195801C591.94 0.195801 589.428 0.777457 587.092 1.83547C583.456 3.48517 580.262 6.30319 577.84 9.91848C574.706 14.5667 572.826 20.5387 572.826 27.0422C572.826 27.8495 572.856 28.6518 572.911 29.4441C572.996 30.6124 573.147 31.7607 573.342 32.8889C575.509 44.8881 584.203 53.8937 594.583 53.8937C596.859 53.8937 599.051 53.4625 601.111 52.6552C606.572 50.5291 611.11 45.8107 613.773 39.6832C614.485 38.0285 615.066 36.2685 615.497 34.4383C616.039 32.0916 616.33 29.6045 616.33 27.0422C616.33 22.8102 615.538 18.8188 614.124 15.2637L614.118 15.2687ZM594.578 41.9597C591.72 41.9597 589.097 39.9991 587.292 36.9304C586.044 34.8194 585.171 32.1819 584.875 29.3087C584.795 28.5716 584.75 27.8094 584.75 27.0473C584.75 20.6039 587.613 14.9428 591.474 12.9271C592.457 12.4106 593.5 12.1348 594.573 12.1348C598.283 12.1348 601.598 15.4643 603.263 20.2178C603.443 20.7293 603.599 21.2608 603.734 21.8023C603.904 22.4592 604.05 23.1461 604.15 23.8431V23.8532C604.306 24.8811 604.396 25.9491 604.396 27.0473C604.396 31.6002 602.962 35.7771 600.755 38.54C600.755 38.54 600.752 38.5433 600.745 38.55C600.55 38.7907 600.344 39.0264 600.134 39.247C598.549 40.9518 596.619 41.9647 594.578 41.9647V41.9597Z" fill="#C2D500"/>
<path d="M568.629 35.7168C568.759 39.3872 567.787 42.9072 565.851 45.9158C565.224 46.8886 564.497 47.8062 563.675 48.6636C560.441 52.0132 556.138 53.9186 551.515 54.069V54.0791L550.919 54.069C550.031 54.0389 549.169 53.9437 548.321 53.7882C546.451 53.4473 544.686 52.8104 543.066 51.9229C537.551 48.9244 533.79 43.0677 533.79 36.3536H545.724C545.724 39.4524 548.161 41.9846 551.219 42.1401C552.689 42.0648 554.052 41.4481 555.09 40.38C556.189 39.2368 556.765 37.7325 556.71 36.143C556.595 33.0692 553.877 30.5671 550.643 30.5671H542.64C541.346 30.5671 540.118 30.2863 539.01 29.7899C537.51 29.113 536.232 28.0349 535.314 26.681C534.351 25.267 533.79 23.5622 533.79 21.7219V0.481445H566.749C566.749 3.77081 565.415 6.75932 563.254 8.92047C561.093 11.0816 558.109 12.4154 554.815 12.4154H545.724V18.6331H550.638C556.535 18.6331 561.754 21.3759 565.034 25.6631H565.039C566.222 27.2126 567.155 28.9625 567.767 30.8579C568.263 32.3572 568.559 33.9568 568.624 35.6165C568.629 35.6566 568.629 35.6867 568.629 35.7168Z" fill="#54C0E8"/>
</g>
<path opacity="0.64" d="M526.815 10.3846V42.2002C526.815 42.6315 526.79 43.0627 526.75 43.4789C525.24 42.2554 523.761 40.9517 522.277 39.5878C519.584 37.0907 517.112 34.5234 514.886 31.951C514.876 31.951 514.871 31.941 514.871 31.941C514.881 31.931 514.886 31.931 514.886 31.931V12.4154H505.795V0.481445H516.907C521.184 0.481445 524.824 3.18915 526.208 6.98998C526.599 8.04799 526.81 9.19626 526.81 10.3897L526.815 10.3846Z" fill="#C2D500"/>
<path opacity="0.64" d="M565.846 45.9161C565.219 46.8889 564.492 47.8065 563.67 48.6639C560.436 52.0135 556.133 53.9189 551.51 54.0693V54.0794L550.914 54.0693C550.026 54.0393 549.164 53.944 548.316 53.7885C546.446 53.4476 544.681 52.8108 543.061 51.9232C537.545 48.9247 533.785 43.068 533.785 36.3539H545.719C545.719 39.4527 548.156 41.9849 551.214 42.1404C552.684 42.0652 554.047 41.4484 555.085 40.3804C556.184 39.2371 556.76 37.7328 556.705 36.1433C556.59 33.0695 553.872 30.5674 550.638 30.5674H542.635C541.341 30.5674 540.113 30.2866 539.005 29.7902C537.505 29.1133 536.227 28.0352 535.309 26.6814C534.346 25.2673 533.785 23.5625 533.785 21.7222V5.59131C535.269 6.58915 536.763 7.66722 538.257 8.80546C540.614 10.6106 542.966 12.5963 545.288 14.7424C545.428 14.8777 545.578 15.0081 545.719 15.1435V18.6284H549.254C551.355 20.7996 553.29 22.9959 555.035 25.1921C560.997 32.6634 564.823 40.0494 565.851 45.9111L565.846 45.9161Z" fill="#C2D500"/>
<path opacity="0.31" d="M568.629 35.7171C568.759 39.3876 567.787 42.9076 565.851 45.9162C565.224 46.8889 564.497 47.8066 563.675 48.664C560.441 52.0135 556.138 53.919 551.515 54.0694V54.0794L550.919 54.0694C550.031 54.0393 549.169 53.944 548.321 53.7886C547.469 52.9061 546.656 51.8631 545.884 50.6697C543.568 47.0895 541.627 42.1705 540.258 36.3539H545.724C545.724 39.4528 548.161 41.985 551.219 42.1404C552.689 42.0652 554.053 41.4484 555.09 40.3804C556.189 39.2371 556.765 37.7329 556.71 36.1433C556.595 33.0696 553.877 30.5675 550.643 30.5675H542.64C541.346 30.5675 540.118 30.2867 539.01 29.7903C538.844 28.6821 538.704 27.5489 538.578 26.4056C538.212 23.046 538.022 19.516 538.022 15.8806C538.022 15.289 538.027 14.7023 538.037 14.1257C538.067 12.3205 538.147 10.5455 538.263 8.81052C538.473 5.91728 538.804 3.13435 539.24 0.486816H566.749C566.749 3.77618 565.415 6.76469 563.254 8.92584C561.093 11.087 558.109 12.4208 554.815 12.4208H545.724V18.6385H550.638C556.535 18.6385 561.754 21.3813 565.034 25.6685H565.039C566.222 27.2179 567.155 28.9679 567.767 30.8633C568.263 32.3626 568.559 33.9621 568.624 35.6219C568.629 35.662 568.629 35.6921 568.629 35.7221V35.7171Z" fill="#54C0E8"/>
<path opacity="0.46" d="M616.325 27.0421C616.325 29.6044 616.034 32.0864 615.487 34.4331C615.061 36.2684 614.474 38.0233 613.757 39.6781C611.1 45.8105 606.562 50.5239 601.101 52.65C600.264 49.0347 600.104 44.4316 600.66 39.302C600.685 39.0513 600.71 38.7955 600.74 38.5398C600.74 38.5398 600.742 38.5365 600.745 38.5298C602.952 35.7669 604.386 31.595 604.386 27.0421C604.386 25.944 604.3 24.8809 604.14 23.848C604.396 23.0958 604.662 22.3638 604.937 21.6417C605.048 21.3509 605.153 21.0751 605.263 20.7893C606.497 17.6453 607.881 14.7671 609.365 12.2199C609.911 11.2772 610.473 10.3796 611.045 9.53223C611.902 10.7607 612.674 12.0895 613.341 13.4935C613.612 14.0651 613.868 14.6568 614.108 15.2585C615.522 18.8137 616.32 22.81 616.32 27.0371L616.325 27.0421Z" fill="#54C0E8"/>
<path opacity="0.31" d="M565.034 25.6682C566.217 27.2126 567.15 28.9625 567.762 30.8579C567.24 30.6523 566.714 30.4468 566.197 30.2362H566.192C562.226 28.6567 558.49 26.9568 555.03 25.1968C548.07 21.6567 542.244 17.8459 538.027 14.1203C536.347 12.6361 534.923 11.1719 533.78 9.74281V0.481445H566.739C566.739 3.77081 565.405 6.75932 563.244 8.92047C561.083 11.0816 558.099 12.4154 554.805 12.4154H545.714V18.6331H550.628C556.525 18.6331 561.744 21.3759 565.024 25.6631H565.029L565.034 25.6682Z" fill="#54C0E8"/>
<path opacity="0.46" d="M616.325 27.0422C616.325 29.6045 616.034 32.0866 615.487 34.4333C615.061 36.2685 614.475 38.0235 613.758 39.6782C609.972 39.9841 605.539 39.8587 600.66 39.3021C600.485 39.2771 600.309 39.262 600.134 39.242C600.344 39.0213 600.545 38.7857 600.74 38.545C600.74 38.545 600.742 38.5416 600.745 38.5349C602.952 35.7721 604.386 31.6002 604.386 27.0472C604.386 25.9491 604.301 24.8861 604.14 23.8531C604.045 23.1461 603.899 22.4642 603.729 21.8073C603.594 21.2608 603.433 20.7343 603.253 20.2228C601.593 15.4643 598.278 12.1348 594.563 12.1348C593.49 12.1348 592.442 12.4156 591.464 12.932C587.598 14.9478 584.74 20.6039 584.74 27.0472C584.74 27.8144 584.78 28.5716 584.86 29.3087C585.161 32.1819 586.029 34.8194 587.282 36.9304C582.829 35.8824 578.176 34.5486 573.453 32.934C573.413 32.919 573.368 32.9039 573.327 32.8939C573.127 31.7707 572.981 30.6224 572.896 29.4491C572.841 28.6568 572.811 27.8595 572.811 27.0472C572.811 20.5387 574.691 14.5717 577.825 9.92348C580.257 6.30317 583.446 3.48515 587.082 1.83545C595.516 4.88914 603.107 8.47937 609.365 12.225C610.513 12.912 611.621 13.5989 612.674 14.3009C613.171 14.6269 613.647 14.9428 614.114 15.2687C615.528 18.8238 616.325 22.8202 616.325 27.0472V27.0422Z" fill="#EA5C61"/>
<path opacity="0.46" d="M526.815 28.1304V42.2004C526.815 42.6317 526.79 43.0629 526.745 43.4841C526.103 49.4711 521.038 54.1344 514.881 54.1344V31.9563C514.881 31.9563 514.871 31.9513 514.871 31.9462C514.876 31.9412 514.881 31.9412 514.881 31.9412C518.195 30.5473 521.846 29.3438 525.737 28.3911C526.093 28.3009 526.459 28.2156 526.815 28.1354V28.1304Z" fill="#EA5C61"/>
<path opacity="0.46" d="M545.879 50.6695C544.972 51.1007 544.029 51.5219 543.061 51.923C537.545 48.9245 533.785 43.0678 533.785 36.3537H545.719C545.719 39.4525 548.156 41.9847 551.214 42.1402C552.684 42.065 554.047 41.4482 555.085 40.3802C556.184 39.2369 556.76 37.7326 556.705 36.1431C556.59 33.0693 553.872 30.5672 550.638 30.5672H542.635C541.341 30.5672 540.113 30.2864 539.005 29.79C537.505 29.1131 536.227 28.035 535.309 26.6811C536.417 26.5558 537.5 26.4655 538.573 26.4004C550.372 25.7084 559.438 28.5465 560.802 34.1123C562.115 39.4676 555.938 45.8808 545.879 50.6695Z" fill="#EA5C61"/>
<path opacity="0.26" d="M613.346 13.4985C613.131 13.7643 612.91 14.0351 612.674 14.3008C610.729 16.5472 608.222 18.7635 605.263 20.7943C605.018 20.9598 604.777 21.1253 604.531 21.2957C604.27 21.4662 604.005 21.6367 603.734 21.8072C603.599 21.2606 603.438 20.7341 603.258 20.2227C601.598 15.4641 598.283 12.1347 594.568 12.1347C593.495 12.1347 592.447 12.4155 591.469 12.9319C587.603 14.9477 584.745 20.6038 584.745 27.0471C584.745 27.8143 584.785 28.5715 584.865 29.3086C580.357 30.1459 576.226 30.1861 572.896 29.449C572.841 28.6567 572.811 27.8594 572.811 27.0471C572.811 20.5386 574.691 14.5716 577.825 9.92337C580.257 6.30306 583.446 3.48504 587.082 1.83534C589.418 0.777326 591.935 0.200684 594.568 0.200684C601.147 0.200684 607.053 3.82099 611.045 9.53727C611.902 10.7658 612.674 12.0945 613.341 13.4985H613.346Z" fill="#C2D500"/>
<path opacity="0.66" d="M615.492 34.4382C615.066 36.2734 614.48 38.0284 613.763 39.6831C611.105 45.8156 606.567 50.529 601.106 52.6551C599.046 53.4624 596.849 53.8936 594.573 53.8936C584.203 53.8936 575.509 44.898 573.337 32.8888C573.137 31.7656 572.991 30.6173 572.906 29.444C572.851 28.6517 572.821 27.8545 572.821 27.0421C572.821 20.5336 574.701 14.5666 577.835 9.91838C581.932 9.77798 586.65 10.8109 591.479 12.9219C587.613 14.9377 584.755 20.5938 584.755 27.0371C584.755 27.8043 584.795 28.5615 584.875 29.2986C585.176 32.1717 586.044 34.8093 587.297 36.9203C589.102 39.989 591.725 41.9546 594.578 41.9546C596.624 41.9546 598.549 40.9417 600.139 39.2369C600.349 39.0162 600.55 38.7806 600.745 38.5399C600.745 38.5399 600.747 38.5365 600.75 38.5298C602.957 35.767 604.391 31.5951 604.391 27.0421C604.391 25.944 604.306 24.881 604.145 23.848C604.05 23.141 603.904 22.4591 603.734 21.8022C603.599 21.2557 603.438 20.7292 603.258 20.2177C603.573 20.4784 603.894 20.7392 604.21 21.015C604.321 21.1052 604.421 21.1955 604.526 21.2958C604.662 21.4111 604.797 21.5264 604.937 21.6468C609.43 25.6131 613.005 30.0357 615.482 34.4382H615.492Z" fill="#54C0E8"/>
<path d="M526.208 6.98496C524.543 8.38896 522.788 9.7729 520.933 11.1217C518.917 12.5909 516.892 13.9448 514.881 15.1783V12.4154H505.79V0.481445H516.902C521.179 0.481445 524.819 3.18915 526.203 6.98998L526.208 6.98496Z" fill="#B8E0EE"/>
<path d="M474.035 0.220703H473.032V71.7794H474.035V0.220703Z" fill="#B198C8"/>
</g>
<defs>
<clipPath id="clip0_7041_14284">
<rect width="616.325" height="72" fill="white"/>
</clipPath>
</defs>
</svg>