<svg xmlns="http://www.w3.org/2000/svg" viewBox="0 0 30.55 5.6"><path d="M16.39609 3.43334l-.44168.0526c-.38417.0476-.72072.18415-.72072.51012 0 .23142.19967.38947.45755.38947.30515 0 .55739-.20003.71543-.40005v-.5521zm.0053 1.40441V4.5065c-.1577.18415-.41028.3997-.8576.3997-.51541 0-.94157-.32632-.94157-.8837 0-.67876.63641-.9257 1.2573-.99414l.242-.0265c.23672-.0212.32068-.1524.32068-.31009 0-.19473-.1838-.33655-.46249-.33655-.32103 0-.63147.23107-.74718.41522l-.3683-.43639c.22613-.29492.62618-.49988 1.14688-.49988.6731 0 1.06256.34713 1.06256.9257V4.8377zm1.87741.00018h-.647v-2.9351h.647v.33125c.23141-.2106.57855-.40005.95743-.40005.34713 0 .8202.20038.8202.91546v2.08844h-.64663V2.91776c0-.28928-.121-.53657-.42087-.53657-.2473 0-.56268.21025-.71014.34748zm4.0546-2.93526h.647v2.93511h-.66816V4.5224c-.17886.16827-.46813.38382-.84702.38382-.37853 0-.90452-.20003-.90452-.93627V1.90267h.647v1.85667c0 .3422.14746.57891.45226.57891.25258 0 .4893-.16334.67345-.3683zm2.00844 2.93526h-.647V.97678l.647-.6417zm1.3884-.00007h-.67346V1.90274h.67346zM25.39369.5823c.22083 0 .40992.18415.40992.41028 0 .22613-.18909.41557-.40992.41557-.22649 0-.41593-.18944-.41593-.41557s.18944-.41028.41593-.41028m2.3876 1.85684h-.6156v2.3989h-.64664v-2.3989h-.39476v-.53657h.39476v-.60502c0-.484.31009-.9204.9204-.9204.28398 0 .5207.0787.66251.1524l-.20496.50518c-.08961-.0526-.22613-.10513-.35772-.10513-.20532 0-.3736.1524-.3736.405v.56797h.768zm2.09317.61017c0-.35736-.22613-.69427-.62054-.69427-.37853 0-.67345.35772-.68403.69427zm-1.32539.4946c.0053.47342.34713.80997.75212.80997.30516 0 .62054-.20496.75742-.45226l.40499.37853c-.23672.34713-.69427.62583-1.22555.62583-.83644 0-1.35714-.63112-1.35714-1.536 0-.87277.56268-1.53564 1.37795-1.53564.77858 0 1.32574.51012 1.29399 1.70956zM10.88969 4.83793h-.70485V.7637h.7627L12.147 2.76818h.01058L13.35137.7637h.74718v4.07423h-.7105V1.95256h-.01022l-1.2365 2.05176-1.24106-2.05176h-.01058z"/><path d="M4.07395 1.01861v4.5833l1.01847-1.01883V.00014zm-2.0369 4.58315L3.0555 4.5833V0L2.03705 1.01847zM0 5.60176L1.01847 4.5833V0L0 1.01847z" fill="#00ac5b"/></svg>