<svg xmlns="http://www.w3.org/2000/svg" xmlns:xlink="http://www.w3.org/1999/xlink" version="1.1" id="layer" x="0px" y="0px" style="enable-background:new -153 -46 652 652;" xml:space="preserve" viewBox="-131.4 212.3 599.9 125.1">
<style type="text/css">
	.st0{fill:#0089B1;}
	.st1{fill:#94D7E8;}
	.st2{fill:#CDEAEF;}
	.st3{fill:#00428B;}
	.st4{fill:#646363;}
</style>
<polygon class="st0" points="91.5,247.6 58,247.6 74.7,212.4 "/>
<polygon class="st1" points="58,247.6 91.5,247.6 74.7,282.9 "/>
<polygon class="st2" points="58,247.6 74.7,282.9 70.6,291.3 54,255.9 "/>
<path class="st3" d="M-50.9,212.4h27.7v75.3c0,6.9-1.4,13.3-4.2,19.4c-2.8,6-6.7,11.3-11.6,15.8c-4.9,4.5-10.6,8-17.2,10.6  c-6.6,2.5-13.6,3.9-21.1,3.9s-14.6-1.3-21.1-3.9c-6.6-2.5-12.4-6.1-17.2-10.6c-4.9-4.5-8.8-9.7-11.6-15.8c-2.8-6-4.2-12.5-4.2-19.4  v-75.3h27.7v75.3c0,3.3,0.6,6.4,2,9.4c1.4,3,3.3,5.5,5.6,7.7c2.3,2.2,5.2,3.9,8.5,5.2s6.7,1.9,10.3,1.9c3.6,0,7-0.6,10.3-1.9  s6.1-3,8.5-5.2c2.3-2.2,4.2-4.7,5.6-7.7c1.4-3,2-6.1,2-9.4L-50.9,212.4L-50.9,212.4z M36.5,243.4l28,59l-0.6,0.9l-16.1,34l-59.2-125  h33.5L36.5,243.4z"/>
<polygon class="st3" points="74.7,212.4 108.2,212.4 91.5,247.6 "/>
<path class="st4" d="M118.4,290.2h3.4v45.3h-3.4V290.2z M135.2,335.5v-45.3h5.2c7,10.8,23.6,36.2,26.5,41l0,0  c-0.3-6.6-0.3-13.2-0.3-20.5v-20.5h3.6v45.3h-4.9c-6.7-10.5-23.5-36.8-26.8-41.7l0,0c0.3,6,0.3,12.5,0.3,20.7v21H135.2z   M183.1,323.3c1.4,6,5.3,9.6,12.8,9.6c8.3,0,11.4-4.1,11.4-9.1c0-5.2-2.2-8.3-12.2-10.6c-9.6-2.3-13.6-5.5-13.6-12.1  c0-6,4.4-11.4,13.9-11.4c10,0,14.1,6.1,14.7,11.6h-3.6c-1.1-4.9-4.2-8.3-11.3-8.3c-6.6,0-10,3-10,8.1c0,5,3,6.9,11.3,8.9  c12.7,3.1,14.6,8.3,14.6,13.6c0,6.6-4.9,12.4-15.3,12.4c-11.3,0-15.5-6.6-16.3-12.7C179.5,323.3,183.1,323.3,183.1,323.3z   M222.9,290.2v27.4c0,12.1,6.7,15,13.2,15c7.5,0,13.2-3.1,13.2-15v-27.4h3.6v27.3c0,14.1-7.5,18.5-16.9,18.5  c-8.9,0-16.6-4.9-16.6-18v-27.7H222.9z M269.1,311.1h11c8,0,11.6-3,11.6-8.9c0-5.5-3.6-8.8-10.6-8.8h-11.9V311.1z M269.1,314.3v21.1  h-3.6v-45.3h16.3c8.9,0,13.6,4.9,13.6,11.9c0,5.8-3.4,9.6-8.5,10.6c4.7,1.1,7.7,4.1,7.7,11.7v1.7c0,3.1-0.3,7.4,0.6,9.2h-3.6  c-0.8-1.9-0.6-5.5-0.6-9.4V325c0-7.4-2.2-10.5-10.8-10.5h-11.1V314.3z M329.5,316.5c-5-13.5-7.7-19.9-8.5-22.9l0,0  c-1.1,3.4-4.1,11.4-8.1,22.9H329.5z M311.5,319.8l-5.8,15.7h-3.6l16.6-45.3h4.1l17.4,45.3h-3.8l-6-15.7H311.5z M348.3,335.5v-45.3  h5.2c7,10.8,23.6,36.2,26.5,41l0,0c-0.3-6.6-0.3-13.2-0.3-20.5v-20.5h3.6v45.3h-4.9c-6.7-10.5-23.5-36.8-26.8-41.7l0,0  c0.3,6,0.3,12.5,0.3,20.7v21H348.3z M429.9,323.4c-2.2,7.2-7.4,12.5-16.9,12.5c-13,0-19.9-10.3-19.9-23c0-12.2,6.7-23.3,19.9-23.3  c9.7,0,15.5,5.5,16.9,13h-3.4c-2-6-6-9.7-13.6-9.7c-11.3,0-16,10.3-16,20c0,9.7,4.7,19.9,16.3,19.9c7.4,0,11.1-3.8,13.3-9.4H429.9z   M466.3,313.2h-23v19h25.2l-0.5,3.3h-28.3v-45.3h27.7v3.3h-24.1V310h23V313.2z"/>
</svg>