<svg version="1.2" xmlns="http://www.w3.org/2000/svg" viewBox="0 0 3710 3710" width="3710" height="3710">
	<title>20943565</title>
	<defs>
		<linearGradient id="g1" x2="1" gradientUnits="userSpaceOnUse" gradientTransform="matrix(-3468.069,-4307.124,4266.152,-3435.079,2768.106,6111.268)">
			<stop offset="0" stop-color="#dae3fe"/>
			<stop offset="1" stop-color="#e9effd"/>
		</linearGradient>
		<linearGradient id="g2" x2="1" gradientUnits="userSpaceOnUse" gradientTransform="matrix(4.877,-2510.62,3204.096,6.224,821.228,2940.054)">
			<stop offset="0" stop-color="#09005d"/>
			<stop offset="1" stop-color="#1a0f91"/>
		</linearGradient>
		<linearGradient id="g3" x2="1" gradientUnits="userSpaceOnUse" gradientTransform="matrix(-1670.683,-2348.242,-3284.352,2336.69,4719.234,2433.796)">
			<stop offset="0" stop-color="#4f52ff"/>
			<stop offset="1" stop-color="#4042e2"/>
		</linearGradient>
		<linearGradient id="g4" x2="1" gradientUnits="userSpaceOnUse" gradientTransform="matrix(911.269,1292.286,1292.283,-911.267,2233.705,1129.055)">
			<stop offset="0" stop-color="#4f52ff"/>
			<stop offset="1" stop-color="#4042e2"/>
		</linearGradient>
		<linearGradient id="g5" x2="1" gradientUnits="userSpaceOnUse" gradientTransform="matrix(860.527,1220.328,462.478,-326.121,2160.254,1101.791)">
			<stop offset="0" stop-color="#4f52ff"/>
			<stop offset="1" stop-color="#4042e2"/>
		</linearGradient>
		<linearGradient id="g6" x2="1" gradientUnits="userSpaceOnUse" gradientTransform="matrix(-751.977,1037.266,-1112.703,-806.665,2562.809,435.038)">
			<stop offset="0" stop-color="#09005d"/>
			<stop offset="1" stop-color="#1a0f91"/>
		</linearGradient>
		<linearGradient id="g7" x2="1" gradientUnits="userSpaceOnUse" gradientTransform="matrix(679.205,852.589,183.434,-146.131,1826.06,476.741)">
			<stop offset="0" stop-color="#09005d"/>
			<stop offset="1" stop-color="#1a0f91"/>
		</linearGradient>
		<linearGradient id="g8" x2="1" gradientUnits="userSpaceOnUse" gradientTransform="matrix(-26.111,-1168.505,168.769,-3.771,2181.649,1091.45)">
			<stop offset="0" stop-color="#09005d"/>
			<stop offset="1" stop-color="#1a0f91"/>
		</linearGradient>
		<linearGradient id="g9" x2="1" gradientUnits="userSpaceOnUse" gradientTransform="matrix(204.475,0,0,304.706,1743.772,2233.451)">
			<stop offset="0" stop-color="#4f52ff"/>
			<stop offset="1" stop-color="#4042e2"/>
		</linearGradient>
		<linearGradient id="g10" x2="1" gradientUnits="userSpaceOnUse" gradientTransform="matrix(-906.696,941.042,-10176.768,-9805.338,4593.666,2540.937)">
			<stop offset="0" stop-color="#09005d"/>
			<stop offset="1" stop-color="#1a0f91"/>
		</linearGradient>
		<linearGradient id="g11" x2="1" gradientUnits="userSpaceOnUse" gradientTransform="matrix(-927.753,962.897,-71.563,-68.951,3655.654,1563.401)">
			<stop offset="0" stop-color="#09005d"/>
			<stop offset="1" stop-color="#1a0f91"/>
		</linearGradient>
		<linearGradient id="g12" x2="1" gradientUnits="userSpaceOnUse" gradientTransform="matrix(-996.688,1034.443,-293.38,-282.672,3593.69,1314.391)">
			<stop offset="0" stop-color="#09005d"/>
			<stop offset="1" stop-color="#1a0f91"/>
		</linearGradient>
		<linearGradient id="g13" x2="1" gradientUnits="userSpaceOnUse" gradientTransform="matrix(229.466,0,0,572.637,1688.234,2589.02)">
			<stop offset="0" stop-color="#febbba"/>
			<stop offset="1" stop-color="#ff928e"/>
		</linearGradient>
		<linearGradient id="g14" x2="1" gradientUnits="userSpaceOnUse" gradientTransform="matrix(190.996,-121.776,119.237,187.014,1727.615,3072.245)">
			<stop offset="0" stop-color="#53d8ff"/>
			<stop offset="1" stop-color="#3840f7"/>
		</linearGradient>
		<linearGradient id="g15" x2="1" gradientUnits="userSpaceOnUse" gradientTransform="matrix(-579.192,-996.211,-1168.43,679.319,2162.165,2794.35)">
			<stop offset="0" stop-color="#febbba"/>
			<stop offset="1" stop-color="#ff928e"/>
		</linearGradient>
		<linearGradient id="g16" x2="1" gradientUnits="userSpaceOnUse" gradientTransform="matrix(-908.362,1095.96,-464.433,-384.935,3318.515,1279.34)">
			<stop offset="0" stop-color="#ff928e"/>
			<stop offset="1" stop-color="#fe7062"/>
		</linearGradient>
		<linearGradient id="g17" x2="1" gradientUnits="userSpaceOnUse" gradientTransform="matrix(178.768,-113.979,32.944,51.669,1444.979,3197.863)">
			<stop offset="0" stop-color="#53d8ff"/>
			<stop offset="1" stop-color="#3840f7"/>
		</linearGradient>
		<linearGradient id="g18" x2="1" gradientUnits="userSpaceOnUse" gradientTransform="matrix(168.72,570.433,-531.768,157.284,2139.504,1626.444)">
			<stop offset="0" stop-color="#ff928e"/>
			<stop offset="1" stop-color="#fe7062"/>
		</linearGradient>
		<linearGradient id="g19" x2="1" gradientUnits="userSpaceOnUse" gradientTransform="matrix(-28.439,-182.483,173.121,-26.98,1971.668,2257.338)">
			<stop offset="0" stop-color="#febbba"/>
			<stop offset="1" stop-color="#ff928e"/>
		</linearGradient>
		<linearGradient id="g20" x2="1" gradientUnits="userSpaceOnUse" gradientTransform="matrix(369.874,62.131,-68.432,407.39,1844.078,1868.912)">
			<stop offset="0" stop-color="#febbba"/>
			<stop offset="1" stop-color="#ff928e"/>
		</linearGradient>
		<linearGradient id="g21" x2="1" gradientUnits="userSpaceOnUse" gradientTransform="matrix(-266.406,764.375,-953.705,-332.393,2316.744,1479.583)">
			<stop offset="0" stop-color="#09005d"/>
			<stop offset="1" stop-color="#1a0f91"/>
		</linearGradient>
		<linearGradient id="g22" x2="1" gradientUnits="userSpaceOnUse" gradientTransform="matrix(460.773,77.4,-96.222,572.823,1762.931,1919.624)">
			<stop offset="0" stop-color="#febbba"/>
			<stop offset="1" stop-color="#ff928e"/>
		</linearGradient>
		<linearGradient id="g23" x2="1" gradientUnits="userSpaceOnUse" gradientTransform="matrix(454.868,0,0,101.085,2161.027,2444.982)">
			<stop offset="0" stop-color="#febbba"/>
			<stop offset="1" stop-color="#ff928e"/>
		</linearGradient>
		<linearGradient id="g24" x2="1" gradientUnits="userSpaceOnUse" gradientTransform="matrix(-335.403,962.34,-1212.539,-422.605,2604.759,1464.024)">
			<stop offset="0" stop-color="#09005d"/>
			<stop offset="1" stop-color="#1a0f91"/>
		</linearGradient>
		<linearGradient id="g25" x2="1" gradientUnits="userSpaceOnUse" gradientTransform="matrix(298.99,0,0,628.981,907.438,2567.436)">
			<stop offset="0" stop-color="#4f52ff"/>
			<stop offset="1" stop-color="#4042e2"/>
		</linearGradient>
		<linearGradient id="g26" x2="1" gradientUnits="userSpaceOnUse" gradientTransform="matrix(298.99,0,0,628.983,941.965,2567.434)">
			<stop offset="0" stop-color="#4f52ff"/>
			<stop offset="1" stop-color="#4042e2"/>
		</linearGradient>
		<linearGradient id="g27" x2="1" gradientUnits="userSpaceOnUse" gradientTransform="matrix(298.99,0,0,628.981,2030.382,2567.436)">
			<stop offset="0" stop-color="#4f52ff"/>
			<stop offset="1" stop-color="#4042e2"/>
		</linearGradient>
		<linearGradient id="g28" x2="1" gradientUnits="userSpaceOnUse" gradientTransform="matrix(298.99,0,0,628.983,2064.907,2567.434)">
			<stop offset="0" stop-color="#4f52ff"/>
			<stop offset="1" stop-color="#4042e2"/>
		</linearGradient>
		<linearGradient id="g29" x2="1" gradientUnits="userSpaceOnUse" gradientTransform="matrix(1618.073,0,0,67.312,820.447,2539.732)">
			<stop offset="0" stop-color="#4f52ff"/>
			<stop offset="1" stop-color="#4042e2"/>
		</linearGradient>
		<linearGradient id="g30" x2="1" gradientUnits="userSpaceOnUse" gradientTransform="matrix(208.366,0,0,15.012,1043.724,3160.252)">
			<stop offset="0" stop-color="#4f52ff"/>
			<stop offset="1" stop-color="#4042e2"/>
		</linearGradient>
		<linearGradient id="g31" x2="1" gradientUnits="userSpaceOnUse" gradientTransform="matrix(-72.002,497.471,-124.473,-18.016,1226.752,2666.15)">
			<stop offset="0" stop-color="#09005d"/>
			<stop offset="1" stop-color="#1a0f91"/>
		</linearGradient>
		<linearGradient id="g32" x2="1" gradientUnits="userSpaceOnUse" gradientTransform="matrix(56.378,0,0,48.541,1054.132,3080.695)">
			<stop offset="0" stop-color="#febbba"/>
			<stop offset="1" stop-color="#ff928e"/>
		</linearGradient>
		<linearGradient id="g33" x2="1" gradientUnits="userSpaceOnUse" gradientTransform="matrix(168.231,0,0,131.392,1370.537,3060.767)">
			<stop offset="0" stop-color="#4f52ff"/>
			<stop offset="1" stop-color="#4042e2"/>
		</linearGradient>
		<linearGradient id="g34" x2="1" gradientUnits="userSpaceOnUse" gradientTransform="matrix(-59.347,410.033,-296.053,-42.85,1547.008,2802.609)">
			<stop offset="0" stop-color="#09005d"/>
			<stop offset="1" stop-color="#1a0f91"/>
		</linearGradient>
		<linearGradient id="g35" x2="1" gradientUnits="userSpaceOnUse" gradientTransform="matrix(-602.86,1228.326,-1378.333,-676.483,1411.007,2765.705)">
			<stop offset="0" stop-color="#09005d"/>
			<stop offset="1" stop-color="#1a0f91"/>
		</linearGradient>
		<linearGradient id="g36" x2="1" gradientUnits="userSpaceOnUse" gradientTransform="matrix(67.307,0,0,76.187,1321.165,3071.617)">
			<stop offset="0" stop-color="#febbba"/>
			<stop offset="1" stop-color="#ff928e"/>
		</linearGradient>
		<linearGradient id="g37" x2="1" gradientUnits="userSpaceOnUse" gradientTransform="matrix(-1242.875,1409.175,-937.085,-826.498,2864.533,1169.556)">
			<stop offset="0" stop-color="#09005d"/>
			<stop offset="1" stop-color="#1a0f91"/>
		</linearGradient>
		<linearGradient id="g38" x2="1" gradientUnits="userSpaceOnUse" gradientTransform="matrix(311.722,514.867,940.714,-569.548,134.4,2369.72)">
			<stop offset="0" stop-color="#ff928e"/>
			<stop offset="1" stop-color="#fe7062"/>
		</linearGradient>
		<linearGradient id="g39" x2="1" gradientUnits="userSpaceOnUse" gradientTransform="matrix(120.445,0,0,184.889,754.868,1944.605)">
			<stop offset="0" stop-color="#febbba"/>
			<stop offset="1" stop-color="#ff928e"/>
		</linearGradient>
		<linearGradient id="g40" x2="1" gradientUnits="userSpaceOnUse" gradientTransform="matrix(-100.299,334.796,-442.574,-132.587,1066.506,1922.712)">
			<stop offset="0" stop-color="#febbba"/>
			<stop offset="1" stop-color="#ff928e"/>
		</linearGradient>
		<linearGradient id="g41" x2="1" gradientUnits="userSpaceOnUse" gradientTransform="matrix(192.164,-71.498,93.219,250.545,768.454,1859.802)">
			<stop offset="0" stop-color="#09005d"/>
			<stop offset="1" stop-color="#1a0f91"/>
		</linearGradient>
		<linearGradient id="g42" x2="1" gradientUnits="userSpaceOnUse" gradientTransform="matrix(108.106,-244.451,352.356,155.826,669.786,2186.733)">
			<stop offset="0" stop-color="#febbba"/>
			<stop offset="1" stop-color="#ff928e"/>
		</linearGradient>
		<linearGradient id="g43" x2="1" gradientUnits="userSpaceOnUse" gradientTransform="matrix(248.993,411.259,425.632,-257.696,524.074,2266.968)">
			<stop offset="0" stop-color="#ff928e"/>
			<stop offset="1" stop-color="#fe7062"/>
		</linearGradient>
		<linearGradient id="g44" x2="1" gradientUnits="userSpaceOnUse" gradientTransform="matrix(147.942,-119.039,186.217,231.431,669.616,2259.652)">
			<stop offset="0" stop-color="#e1473d"/>
			<stop offset="1" stop-color="#e9605a"/>
		</linearGradient>
		<linearGradient id="g45" x2="1" gradientUnits="userSpaceOnUse" gradientTransform="matrix(178.199,-143.384,134.448,167.093,587.294,2362.586)">
			<stop offset="0" stop-color="#e1473d"/>
			<stop offset="1" stop-color="#e9605a"/>
		</linearGradient>
		<linearGradient id="g46" x2="1" gradientUnits="userSpaceOnUse" gradientTransform="matrix(-211.955,551.082,-435.465,-167.486,1419.719,1723.859)">
			<stop offset="0" stop-color="#febbba"/>
			<stop offset="1" stop-color="#ff928e"/>
		</linearGradient>
	</defs>
	<style>
		.s0 { fill: url(#g1) } 
		.s1 { fill: #91b3fa } 
		.s2 { mix-blend-mode: soft-light;fill: #ffffff } 
		.s3 { opacity: .5;fill: #ffffff } 
		.s4 { fill: #bdd0fb } 
		.s5 { opacity: .4;fill: #ffffff } 
		.s6 { fill: url(#g2) } 
		.s7 { fill: url(#g3) } 
		.s8 { opacity: .8;fill: #ffffff } 
		.s9 { fill: url(#g4) } 
		.s10 { fill: url(#g5) } 
		.s11 { fill: #ffffff } 
		.s12 { opacity: .6;fill: #ffffff } 
		.s13 { opacity: .3;fill: #ffffff } 
		.s14 { fill: url(#g6) } 
		.s15 { fill: url(#g7) } 
		.s16 { fill: url(#g8) } 
		.s17 { fill: url(#g9) } 
		.s18 { fill: url(#g10) } 
		.s19 { fill: url(#g11) } 
		.s20 { fill: url(#g12) } 
		.s21 { fill: url(#g13) } 
		.s22 { fill: url(#g14) } 
		.s23 { fill: url(#g15) } 
		.s24 { fill: url(#g16) } 
		.s25 { fill: url(#g17) } 
		.s26 { fill: url(#g18) } 
		.s27 { fill: url(#g19) } 
		.s28 { fill: url(#g20) } 
		.s29 { fill: url(#g21) } 
		.s30 { fill: url(#g22) } 
		.s31 { fill: url(#g23) } 
		.s32 { fill: url(#g24) } 
		.s33 { fill: url(#g25) } 
		.s34 { fill: url(#g26) } 
		.s35 { fill: url(#g27) } 
		.s36 { fill: url(#g28) } 
		.s37 { fill: url(#g29) } 
		.s38 { fill: url(#g30) } 
		.s39 { fill: url(#g31) } 
		.s40 { fill: url(#g32) } 
		.s41 { fill: url(#g33) } 
		.s42 { fill: url(#g34) } 
		.s43 { fill: url(#g35) } 
		.s44 { fill: url(#g36) } 
		.s45 { fill: url(#g37) } 
		.s46 { fill: url(#g38) } 
		.s47 { fill: url(#g39) } 
		.s48 { fill: url(#g40) } 
		.s49 { fill: url(#g41) } 
		.s50 { fill: url(#g42) } 
		.s51 { fill: url(#g43) } 
		.s52 { fill: url(#g44) } 
		.s53 { fill: url(#g45) } 
		.s54 { fill: url(#g46) } 
	</style>
	<g id="Background">
		<g id="&lt;Group&gt;">
			<g id="&lt;Group&gt;">
			</g>
		</g>
	</g>
	<g id="Illustration">
		<g id="&lt;Group&gt;">
			<path id="&lt;Path&gt;" class="s0" d="m2940.8 2861.1c-58 60.3-113 99.1-156.4 129.8-510.1 360.9-1113.7 255.7-1242 230-189.4-37.9-555.6-111.2-820.3-418.2-400.5-464.3-338.2-1195.8-27.5-1678.7 56.8-88.4 357-578.6 967.1-657.3 369.3-47.5 799.7 48.4 1111.3 305.9 654.3 540.3 607.7 1632 167.8 2088.5z"/>
			<g id="&lt;Group&gt;">
				<path id="&lt;Path&gt;" class="s1" d="m3238.9 1583.7c2.5-10.4-12.2-17.3-21.1-10-91 73.7-309.5 294.5-255 680.4 68.3 484.2-48.5 660.9-193.9 768.7 0 0 199.7-50.7 325.3-230 308.5-440.1 101.3-1024.2 144.7-1209.1z"/>
				<path id="&lt;Path&gt;" class="s2" d="m3169.7 1734.9c-11.4 53.9-21.5 108-29.3 162.3-8.2 54.3-14.5 108.7-18.7 163.3-4.1 54.5-6.9 109.1-7.1 163.8-0.4 54.6 1.8 109.2 4.3 164 2.2 54.8 4.7 109.9 0.7 165.5-3.9 55.4-15.6 111.4-38.8 163.8-5.8 13.1-11.9 26.1-18.8 38.7-6.6 12.7-13.9 25.2-21.5 37.5-15.2 24.6-32.4 48.4-51.6 71-38.4 45-84.7 85-135.8 118.8-5.4 3.6-13.1 2.7-17.2-1.9-4-4.6-3.1-11.1 2-14.7 12.2-8.5 24.2-17.2 35.7-26.3 5.9-4.4 11.5-9.1 17.2-13.7 5.5-4.7 11.2-9.3 16.5-14.2 21.7-19.3 41.8-39.9 60-61.7 36.7-43.3 66-91.6 88.2-141.6 10.8-25.2 19.5-51 25.8-77.2 6.2-26.3 10.2-53.1 12.4-80 4.3-53.9 2.4-108.6 0.7-163.4-1.6-54.8-2.8-109.8-1.4-164.9q1-41.3 3.7-82.5c0.7-13.7 1.9-27.4 2.9-41.2q1.9-20.5 4-41.1c5.9-54.7 13.8-109.3 23.6-163.6 10.1-54.3 21.9-108.3 36.1-161.8 0.4-1.5 2.1-2.5 3.9-2.1 1.7 0.3 2.8 1.8 2.5 3.2z"/>
			</g>
			<g id="&lt;Group&gt;">
				<path id="&lt;Path&gt;" class="s1" d="m1466.8 2901.6c0 0 58.8-230.6-116.2-475.2-162.4-227.1-570.3-753.8-619.5-1037-2.2-12.5-22-9.8-25.8 3.6-41.4 143.8-115.7 505.6 41.8 876.4 203.2 478.1 719.7 632.2 719.7 632.2z"/>
				<path id="&lt;Path&gt;" class="s3" d="m747 1651.1c0 0-0.7 5.5-1.3 15.8-0.5 10.3-0.8 25.4-0.2 44.7 0.6 19.2 2.3 42.5 5.9 69 3.7 26.6 8.9 56.3 16.7 88.3 7.7 32 18.1 66.2 31.3 101.5 13.3 35.2 29 71.7 47.8 108.3 18.8 36.5 40.1 73.3 64 109.3q9.1 13.3 18.3 26.8 9.6 13.2 19.2 26.4c13 17.6 26.4 35.2 39.8 52.6 26.8 34.9 54.2 69.3 81.5 103 27.2 33.7 54.5 66.5 81.1 98.1 53.1 63.3 103.8 121.5 145.6 172.8 21 25.7 39.4 49.9 55 71.9 15.5 22 28.1 42 37.4 59 9.4 17 15.4 31 19.4 40.6 1.9 4.9 3.2 8.7 4.1 11.2 0.9 2.5 1.4 3.8 1.4 3.8 0.3 0.9-0.1 1.9-1 2.2-0.9 0.3-1.9-0.1-2.2-1v-0.1c0 0-0.6-1.2-1.5-3.7-1.1-2.4-2.4-6.1-4.5-10.8-4.2-9.4-10.7-23-20.4-39.6-9.6-16.5-22.5-36-38.5-57.5-15.9-21.5-35-44.9-56.2-70.2-42.4-50.6-93.9-108-147.9-170.7-26.9-31.4-54.4-64.1-81.9-97.7-27.6-33.6-55-68.3-81.9-103.2-13.5-17.6-26.8-35.1-39.9-52.8q-9.7-13.4-19.4-26.8-9.2-13.6-18.3-27.2c-23.9-36.5-45.5-73.8-63.9-111-18.4-37.3-34.2-74.3-46.7-110.3-12.5-36-22.2-70.7-29.3-103.1-7.2-32.5-11.8-62.6-14.4-89.4-2.7-26.9-3.6-50.4-3.6-69.7 0-19.3 1.1-34.5 2.1-44.8 1-10.3 2-15.7 2-15.7 0-0.2 0.1-0.2 0.2-0.2 0.1 0 0.2 0.1 0.2 0.2z"/>
			</g>
			<g id="&lt;Group&gt;">
				<path id="&lt;Path&gt;" class="s4" d="m1155.4 841.5c5.5-14.7 27.2-12.3 29.2 3.4 19.4 151.1 82.5 545.7 235.6 772.8 249.4 369.6 369.3 928 138.5 1174 0 0-1005.7-342.5-403.3-1950.2z"/>
				<path id="&lt;Path&gt;" class="s5" d="m1157.9 1053.4c0 0 0 1.5-0.1 4.6 0.1 3 0.1 7.4 0.3 13.3 0.3 11.8 1 29.1 2.1 51.2 1.2 22 2.7 48.8 5 79.4 2.1 30.7 5.2 65.3 8.4 102.9 3.6 37.7 7.5 78.5 12.6 121.6 4.8 43 10.9 88.3 17.3 135.2 6.7 46.8 13.9 95.1 22.4 144q3.1 18.4 6.3 36.8 3.5 18.5 6.9 37c4.5 24.7 9.7 49.4 14.6 74.1 4.9 24.7 10.7 49.2 15.9 73.8 5.6 24.5 11.3 48.8 17.1 73q4.5 18 9.1 35.9c3 11.9 5.9 23.8 9.2 35.5q4.9 17.6 9.6 34.9 2.4 8.7 4.8 17.3 2.5 8.6 5 17 5.1 17 10.1 33.7 2.5 8.3 5 16.6 2.7 8.2 5.3 16.3 5.2 16.2 10.3 32.1c1.8 5.3 3.4 10.6 5.1 15.7q2.8 7.8 5.4 15.5 5.4 15.3 10.6 30.2 2.6 7.5 5.2 14.8 2.7 7.3 5.4 14.4c7.3 19 14.1 37.5 21.2 55 7.2 17.5 14.2 34.2 20.8 50.1 6.8 15.8 13.8 30.6 20 44.6q4.8 10.5 9.2 20.3 4.8 9.7 9.2 18.6c5.9 11.9 11.4 22.8 16.3 32.7 2.3 5 4.9 9.5 7.3 13.8q3.5 6.5 6.6 12.1c4.1 7.6 7.5 14 10.3 19.2 5.7 10.4 8.7 15.9 8.7 15.9v0.1c0.5 0.8 0.2 1.8-0.7 2.3-0.8 0.4-1.8 0.1-2.3-0.7 0 0-3.1-5.4-9-15.7-2.9-5.2-6.6-11.5-10.8-19q-3.2-5.5-6.9-12c-2.4-4.3-5.1-8.8-7.6-13.7-5.1-9.8-10.7-20.7-16.8-32.5q-4.6-8.9-9.6-18.5-4.6-9.8-9.6-20.2c-6.5-14-13.7-28.7-20.8-44.5-6.8-15.9-13.9-32.6-21.4-50-7.3-17.5-14.3-36-21.8-55q-2.8-7.1-5.6-14.4-2.7-7.3-5.4-14.8-5.4-14.9-10.9-30.2c-14.6-40.9-28.6-84.6-42.1-130q-2.6-8.5-5.1-17.1-2.4-8.6-4.9-17.3-4.8-17.4-9.7-35c-3.4-11.7-6.3-23.7-9.4-35.6q-4.6-17.9-9.3-36c-5.9-24.2-11.6-48.6-17.4-73.1q-4-18.4-8-36.9c-2.6-12.4-5.4-24.7-7.8-37.1-4.9-24.8-10-49.6-14.4-74.4q-3.4-18.5-6.8-37-3.1-18.5-6.2-36.9c-8.4-49.1-15.4-97.5-22-144.4-6.2-47-11.7-92.4-16.2-135.6-4.7-43.2-8.3-84.1-11.5-121.8-6.1-75.6-9.1-138.6-10.8-182.8-0.7-22.1-1.2-39.5-1.2-51.3-0.2-5.9-0.1-10.6-0.1-13.7 0.1-3.1 0.2-4.6 0.2-4.6 0-1 0.8-1.7 1.7-1.7 1 0 1.7 0.8 1.7 1.8z"/>
			</g>
			<g id="&lt;Group&gt;">
				<path id="&lt;Path&gt;" class="s6" d="m2845 879.3l-1303.5 29.5c-71.9 1.7-129.9 59.4-131.9 131.3l-53.4 1892c-1.6 56.3 43.7 102.7 100 102.5l1494.6-6.7c52.9-0.3 95.3-43.9 94.1-96.7l-43.1-1902.1c-1.9-84.6-72.1-151.7-156.8-149.8z"/>
				<g id="&lt;Group&gt;">
					<path id="&lt;Path&gt;" class="s7" d="m2841.2 885.5c-177.5 28.2-787.9 116.7-1294.9 89.3-23.1-1.2-42.7 16.7-43.5 39.9l-57.8 1900.5c-0.8 26.1 19.6 47.9 45.6 48.9 213.1 7.7 1090.9 36.6 1402.8-3.3 19-2.4 33-18.7 32.7-37.9l-33.4-1994.1c-0.5-27.1-24.8-47.5-51.5-43.3z"/>
					<path id="&lt;Path&gt;" class="s1" d="m2823.2 935.2c-170.8 27.1-758.2 112.3-1246.1 85.9-22.2-1.2-41.1 16.1-41.8 38.4l-55.7 1829c-0.8 25.1 18.8 46 43.9 47 205.1 7.4 1049.8 35.2 1350-3.1 18.2-2.4 31.8-18.1 31.5-36.5l-32.2-1919.1c-0.4-26.1-23.8-45.7-49.6-41.6z"/>
					<path id="&lt;Path&gt;" class="s8" d="m2717.4 1121.2l-9.3 392.1c-0.3 13.1-10.6 23.6-23.6 24.3-72.5 3.7-298.4 14.3-426.2 10.6-14.4-0.5-26.1-11.9-26.9-26.3-4.1-73.4-14.3-287.1 0.4-376.8 2.4-14.5 14.6-25.4 29.2-26.2l428.4-24.7c15.5-0.9 28.4 11.6 28 27z"/>
					<path id="&lt;Path&gt;" class="s9" d="m2389.7 1268.8c1 46.5 39.6 83.3 86.1 82.3 46.5-1.1 83.3-39.6 82.3-86.1-1.1-46.5-39.6-83.4-86.1-82.3-46.5 1-83.4 39.6-82.3 86.1z"/>
					<path id="&lt;Path&gt;" class="s10" d="m2607.4 1511.2l-268.3 6c-16.4 0.4-26.7-17.5-18.1-31.6 21.9-36.2 68.4-89.6 151-89.1 79.7 0.5 127.9 46.7 152.4 80.1 10.3 14.2 0.5 34.2-17 34.6z"/>
					<g id="&lt;Group&gt;" style="opacity: .6">
						<path id="&lt;Path&gt;" class="s11" d="m1644 1179.7c-7.5 0.1-13.7-5.6-13.6-12.9 0-7.2 6.2-13.4 13.8-13.7l473-19.1c7.6-0.3 11.8 5.3 9.5 12.5l-3.1 9.3c-2.3 7.2-10.4 13.2-18 13.4z"/>
					</g>
					<g id="&lt;Group&gt;" style="opacity: .6">
						<path id="&lt;Path&gt;" class="s11" d="m2118.9 1207c7.5-0.3 11.8 5.3 9.4 12.5l-3 9.4c-2.4 7.1-10.5 13.2-18 13.3l-461.6 10.5c-7.6 0.2-13.7-5.6-13.7-12.8 0.1-7.3 6.3-13.4 13.8-13.7z"/>
					</g>
					<g id="&lt;Group&gt;" style="opacity: .6">
						<path id="&lt;Path&gt;" class="s11" d="m2120.5 1281.1c7.6-0.3 11.8 5.3 9.5 12.5l-3.1 9.3c-2.3 7.2-10.4 13.2-18 13.4l-461.5 10.5c-7.6 0.1-13.7-5.6-13.7-12.9 0.1-7.2 6.3-13.4 13.8-13.7z"/>
					</g>
					<path id="&lt;Path&gt;" class="s12" d="m1812.7 1352.9c-36.3-1.9-104.2-1.7-141.6-1.4-15.9 0.2-29.5 11.2-32.9 26.7-6.5 30.1-15.3 82.2-12.8 137.2 0.8 16.5 14.6 29.3 31 28.8l137.9-4.6c17-0.6 30.8-13.9 32-30.8l9.2-130c0.9-13.5-9.3-25.1-22.8-25.9z"/>
					<g id="&lt;Group&gt;" style="opacity: .6">
						<path id="&lt;Path&gt;" class="s11" d="m1898.6 1417c-7.5 0.2-13.8-5.6-13.8-12.8-0.1-7.3 6-13.5 13.6-14l219.8-12.9c7.5-0.4 12.8 5.3 11.7 12.8l-1.3 8.2c-1.1 7.4-8.2 13.7-15.7 13.9z"/>
					</g>
					<g id="&lt;Group&gt;" style="opacity: .6">
						<path id="&lt;Path&gt;" class="s11" d="m2120.7 1463.3c7.6-0.2 12.6 5.8 11.2 13.2l-1.5 8.1c-1.4 7.4-8.8 13.4-16.3 13.3l-214.3-3c-7.6-0.1-13.6-6.1-13.4-13.3 0.2-7.2 6.6-13.3 14.1-13.4z"/>
					</g>
					<g id="&lt;Group&gt;" style="opacity: .6">
						<path id="&lt;Path&gt;" class="s11" d="m1609.8 1685c-7.6 0.2-13.5-5.6-13.2-12.8 0.3-7.3 6.8-13.4 14.3-13.6l1104.3-33.7c7.6-0.3 10 4.5 5.4 10.5l-10.6 13.9c-4.6 6.1-14.5 11.1-22 11.3z"/>
					</g>
					<g id="&lt;Group&gt;" style="opacity: .6">
						<path id="&lt;Path&gt;" class="s11" d="m2716.9 1697.9c7.5-0.2 9.9 4.5 5.4 10.5l-10.6 14c-4.6 6-14.5 11-22.1 11.2l-1078.2 24.4c-7.5 0.2-13.4-5.6-13.1-12.8 0.3-7.2 6.7-13.4 14.3-13.6z"/>
					</g>
					<path id="&lt;Path&gt;" class="s13" d="m2723 1819.7c-26.5-1.4-76.1-1.2-103.4-1-11.6 0.1-21.5 8.2-24 19.5-4.8 21.9-11.2 60-9.4 100.2 0.6 12 10.7 21.4 22.7 21l100.7-3.4c12.4-0.4 22.5-10.1 23.3-22.4l6.8-95c0.6-9.8-6.8-18.3-16.7-18.9z"/>
					<g id="&lt;Group&gt;" style="opacity: .6">
						<path id="&lt;Path&gt;" class="s11" d="m2539.2 1862.8c7.5-0.5 12.9 5.2 12 12.7l-2.5 19.4c-1 7.4-7.9 13.7-15.5 13.9l-247.7 5.6c-7.6 0.2-13.8-5.9-13.9-13.4l-0.1-7.2c0-7.6 6.1-14.2 13.6-14.7z"/>
					</g>
					<path id="&lt;Path&gt;" class="s13" d="m2174.2 1832.2c-26.5-1.5-76.1-1.3-103.4-1.1-11.6 0.1-21.5 8.2-24 19.5-4.8 22-11.2 60.1-9.4 100.2 0.6 12.1 10.7 21.4 22.7 21l100.7-3.3c12.4-0.4 22.5-10.1 23.3-22.5l6.8-95c0.6-9.8-6.8-18.3-16.7-18.8z"/>
					<g id="&lt;Group&gt;" style="opacity: .6">
						<path id="&lt;Path&gt;" class="s11" d="m1990.4 1875.2c7.5-0.5 12.9 5.2 12 12.7l-2.5 19.4c-1 7.5-7.9 13.8-15.5 13.9l-247.7 5.6c-7.6 0.2-13.8-5.8-13.9-13.4l-0.1-7.2c0-7.6 6.1-14.1 13.6-14.6z"/>
					</g>
					<g id="&lt;Group&gt;" style="opacity: .6">
						<path id="&lt;Path&gt;" class="s11" d="m1679.9 2171.5c-7.6 0.2-13.5-5.6-13.2-12.8 0.3-7.3 6.7-13.4 14.3-13.6l1072.5-33c7.6-0.2 10.1 4.5 5.6 10.6l-10.1 13.7c-4.5 6.1-14.4 11.2-21.9 11.4z"/>
					</g>
					<g id="&lt;Group&gt;" style="opacity: .6">
						<path id="&lt;Path&gt;" class="s11" d="m2755.2 2185.1c7.5-0.2 10.1 4.6 5.6 10.6l-10.2 13.8c-4.5 6-14.3 11.1-21.9 11.3l-1047.2 23.7c-7.5 0.2-13.5-5.6-13.2-12.8 0.3-7.2 6.8-13.4 14.3-13.6z"/>
					</g>
					<g id="&lt;Group&gt;" style="opacity: .6">
						<path id="&lt;Path&gt;" class="s11" d="m2756.9 2259.2c7.5-0.2 10 4.5 5.5 10.6l-10.1 13.7c-4.5 6.1-14.3 11.2-21.9 11.4l-1047.2 23.7c-7.6 0.2-13.5-5.6-13.2-12.8 0.3-7.3 6.7-13.4 14.3-13.6z"/>
					</g>
				</g>
				<path id="&lt;Compound Path&gt;" class="s14" d="m2108.2 823.9l147.6-16.5 9.3-135.9c1.9-27.4-15.7-52.3-42.2-59.5-29-7.9-70-7.6-116.3 26.2-90.9 66.4 1.6 185.7 1.6 185.7zm28.2-113.7c-0.5-20.4 15.7-37.3 36.1-37.7 20.3-0.5 37.2 15.6 37.7 36 0.4 20.4-15.7 37.3-36.1 37.7-20.3 0.5-37.2-15.7-37.7-36z"/>
				<path id="&lt;Compound Path&gt;" class="s1" d="m2239.4 750.7c-2-0.1-3.5-1.8-3.4-3.8l1.5-21.6c0.2-2 1.8-3.5 3.8-3.4 2 0.2 3.5 1.9 3.4 3.8l-1.5 21.7c-0.2 1.8-1.7 3.3-3.5 3.3q-0.2 0-0.3 0zm2.9-42.4c-2-0.2-3.5-1.9-3.3-3.8l1.1-16.5c1.6-22.6-13.1-43.4-35-49.3-16.6-4.5-33.6-4.8-50.6-0.9-1.9 0.4-3.8-0.8-4.3-2.7-0.4-1.9 0.8-3.8 2.7-4.3 18.1-4.1 36.3-3.8 54.1 1 25.1 6.8 42 30.7 40.2 56.7l-1.1 16.5c-0.1 1.8-1.7 3.2-3.5 3.3q-0.2 0-0.3 0z"/>
				<path id="&lt;Path&gt;" class="s15" d="m2459.6 890.5l-1.5-68.2c-0.6-23.5-20.5-41.9-44-40.6l-469.9 26.8c-20.9 1.2-37.4 18-38.2 38.9l-2.4 65.6z"/>
				<path id="&lt;Path&gt;" class="s1" d="m2282.3 810.4l20.3-0.4c1.9-0.1 3.5-1.7 3.5-3.7-0.1-2-1.7-3.5-3.7-3.5l-20.2 0.5c-2 0-3.5 1.7-3.5 3.6 0 2 1.7 3.6 3.6 3.5z"/>
				<path id="&lt;Path&gt;" class="s1" d="m2433.7 869.7c1.9 0 3.5-1.7 3.5-3.6l-0.7-27.6c-0.5-21.4-18.2-38.3-39.5-37.8l-74.4 1.7c-1.9 0-3.5 1.6-3.5 3.6 0.1 2 1.7 3.5 3.7 3.5l74.3-1.7c17.4-0.4 31.9 13.4 32.3 30.8l0.6 27.6c0.1 2 1.7 3.5 3.7 3.5z"/>
				<path id="&lt;Path&gt;" class="s16" d="m2606.4 862.2l-822.4 18.7c-29.5 0.6-54.3 22.5-58.7 51.7l-0.6 4.1c-4.8 32 20.4 60.6 52.8 59.9l843.7-19.1c19.4-0.5 34.4-17 33.1-36.4l-2.7-37.7c-1.7-23.6-21.6-41.7-45.2-41.2z"/>
			</g>
			<g id="&lt;Group&gt;">
				<g id="&lt;Group&gt;">
					<path id="&lt;Path&gt;" class="s17" d="m1947.2 2508.1l-109.6-266.1c-2.1-5.2-7.1-8.5-12.7-8.5h-67.4c-10 0-16.6 10.3-12.5 19.4l127.1 277.2c2.7 5.9 9.1 9.1 15.5 7.7l49.9-11.1c8.3-1.8 13-10.7 9.7-18.6z"/>
					<g id="&lt;Group&gt;">
						<path id="&lt;Path&gt;" class="s18" d="m2115.9 3170.7h-32.3v-349h32.3z"/>
						<path id="&lt;Path&gt;" class="s19" d="m2241.1 3177.5h-282.7v-17.7c0-1.8 1.5-3.3 3.4-3.3h275.9c1.8 0 3.4 1.5 3.4 3.3z"/>
						<path id="&lt;Path&gt;" class="s20" d="m2283 2809.6c0 19.1-15.6 34.7-34.7 34.7h-286c-19.1 0-34.7-15.6-34.7-34.7v-31.4c0-19.1 15.6-34.7 34.7-34.7h286c19.1 0 34.7 15.6 34.7 34.7z"/>
					</g>
					<g id="&lt;Group&gt;">
						<path id="&lt;Path&gt;" class="s21" d="m1861.5 2589c0 0-48 7.5-101.9 43.5-8.5 5.7-13.1 15.6-11.9 25.7 6.5 51.1 33 216.6 120.6 378.3 4.6 8.5 5.9 18.5 3.9 27.9l-15.2 70.8-28.2 26.5h72.6l48.4-130.9-20.7-6.6c-16-5-27-19.8-27.3-36.6l-2.5-140.4c2.1-62.6-38.3-105.7-38.3-105.7l116-5.7z"/>
						<path id="&lt;Path&gt;" class="s22" d="m1800.4 3174.4c-6.6 8.7 71.2 20.1 110.5 1.2 0 0 54.5-94.9 54.5-143.7 0 0-4.3-9.9-36.3-7.7 0 0-18.3 112.3-37.6 124.9-19.3 12.6-54.1 1.3-54.1 1.3 0 0-27.2 11.2-37 24z"/>
						<path id="&lt;Path&gt;" class="s23" d="m1962.3 2743.5c-0.6-1-124.9-14.9-124.9-14.9 0 0 4.1 37.8-8.6 89.8-12.7 52-195.2 277.4-195.2 277.4l19.1 60.7c-59.1 20.6-117.3 23.9-174.6 10.5l118.6-71.2c0 0 111-378.2 178.9-445.7l124.6-43.1z"/>
						<path id="&lt;Path&gt;" class="s24" d="m2241.1 2523.5c0 0 71.6 106.5 77.4 155.1 5.9 48.5-19.6 68.3-94.7 71.5-75.1 3.3-275.7 3.2-275.7 3.2l-171.2-146.3c0 0 124.7-44.5 157.2-57.1 32.4-12.5 307-26.4 307-26.4z"/>
						<path id="&lt;Path&gt;" class="s25" d="m1645.5 3136c0 0 20.6 20 6.7 42.2 0 0-163.2 28.9-207.5 15.8 0 0 9.2-21 59.1-44.9l-3.7 2.8c-4.7 3.6-1.9 11 3.9 10.7 32.9-1.9 100.9-7.9 141.5-26.6z"/>
					</g>
					<g id="&lt;Group&gt;">
						<path id="&lt;Path&gt;" class="s26" d="m2047.4 2509.4c0 0-83.4-79.4-124.4-132-22.2-28.4-29.2-65.9-18.9-100.4 18.7-63.2 52-128.6 55.1-138.7 4.6-15.6 98.1-15 98.1-15 0 0 184 119.4 256.3 321.7l-81.2 25.3c0 0-48-80.6-95.5-131.9 0 0 82.1 108.5 85 152.9z"/>
						<path id="&lt;Path&gt;" class="s27" d="m1947.8 2051.1c1 3.2 25.4 84.1 27.3 85.8 1.9 1.7 53.6 4.4 77.8-12.2l-41.2-86.2z"/>
						<path id="&lt;Path&gt;" class="s28" d="m1917.7 1932.4c0 0-28.9 31.6-29.6 94.7-0.6 63 28.7 78.6 53.1 71.4 24.4-7.2 58.4-23.4 79.2-73.5 20.8-50.2-64.3-132-102.7-92.6z"/>
						<path id="&lt;Path&gt;" class="s29" d="m1983.4 2008.4c0 0-7.8-88.3-75.5-58.3l-10.7 18.3c0 0-44-30.7-12.7-69.4 31.3-38.7 99.9-48.5 142.2-1.9 42.3 46.7 48.4 86.6 31.7 125.9-16.7 39.3-42.1 15.1-42.1 15.1 0 0 4.4-31.6-7.9-41.8-12.4-10.1-19.8 12.4-19.8 12.4z"/>
						<path id="&lt;Path&gt;" class="s30" d="m1994.8 2013.4c0 0-4.3-45.3 21.1-38.2 25.5 7.2 1.8 43-8.1 55.6z"/>
						<path id="&lt;Path&gt;" class="s31" d="m1877.5 2515.3l61.3-59.1 84.7 35.8c0 0 84.4 13.1 132.7 0 48.3-13 48.3-13 48.3-13l109.1-34 17.1 48.4c4.4 12.3 0 26-10.6 33.5-9.5 6.7-20.5 14.1-27.6 17.2-14.4 6.3-354.2-4.4-354.2-4.4z"/>
						<path id="&lt;Path&gt;" class="s32" d="m2025.4 1908.1c-12.7-4.8-14-22.4-2.6-29.9 36.6-24.2 99.6-45.5 163.6 27.3 72.1 82 112.5 121.1 135.3 120.7 15-0.2 23.8 16.7 13.9 28-7.3 8.4-19.8 15.9-40.5 20.4-160.1 34.7-195.2-137.9-269.7-166.5z"/>
					</g>
					<g id="&lt;Group&gt;">
						<g id="&lt;Group&gt;">
							<path id="&lt;Path&gt;" class="s33" d="m920.4 3196.4c-1.7 0-3.4-0.3-5.1-1-6.6-2.7-9.6-10-6.8-16.3l273-604.2c2.8-6.3 10.4-9.2 17.1-6.5 6.6 2.8 9.6 10 6.8 16.3l-273 604.2c-2.1 4.7-6.9 7.5-12 7.5z"/>
							<path id="&lt;Path&gt;" class="s34" d="m1227.9 3196.4c-5 0-9.8-2.8-11.9-7.5l-273-604.2c-2.8-6.3 0.2-13.5 6.8-16.3 6.6-2.7 14.3 0.2 17.1 6.5l273 604.2c2.8 6.3-0.2 13.6-6.8 16.3-1.7 0.7-3.4 1-5.2 1z"/>
							<path id="&lt;Path&gt;" class="s35" d="m2043.4 3196.4c-1.7 0-3.5-0.3-5.1-1-6.6-2.7-9.7-10-6.9-16.3l273-604.2c2.8-6.3 10.5-9.2 17.1-6.5 6.6 2.8 9.6 10 6.8 16.3l-272.9 604.2c-2.2 4.7-7 7.5-12 7.5z"/>
							<path id="&lt;Path&gt;" class="s36" d="m2350.9 3196.4c-5.1 0-9.9-2.8-12-7.5l-272.9-604.2c-2.9-6.3 0.2-13.5 6.8-16.3 6.6-2.7 14.2 0.2 17.1 6.5l272.9 604.2c2.9 6.3-0.2 13.6-6.8 16.3-1.7 0.7-3.4 1-5.1 1z"/>
						</g>
						<path id="&lt;Path&gt;" class="s37" d="m2438.2 2556.1c0.9-4-0.3-8.2-3.3-11.4-2.9-3.1-7.4-5-12-5h-1584.4c-6.2 0-11.9 2.8-15.2 7.3-3.3 4.6-3.8 10.3-1.2 15.2l17.2 32.6c3.9 7.5 12.4 12.2 21.8 12.2h1550.9c8.7 0 16.2-5.4 17.9-12.9z"/>
					</g>
				</g>
				<g id="&lt;Group&gt;">
					<g id="&lt;Group&gt;">
						<path id="&lt;Path&gt;" class="s1" d="m640.4 2766.8c-9.6 14.2-47.7 334.9-53.6 453.3-0.4 8 6 14.7 14 14.7 6.9 0 12.8-5 13.9-11.9l69.6-445.9z"/>
						<path id="&lt;Path&gt;" class="s1" d="m946.2 2766.8c9.6 14.2 47.6 334.9 53.6 453.3 0.4 8-6 14.7-14 14.7-7 0-12.8-5-13.9-11.9l-69.6-445.9z"/>
						<path id="&lt;Path&gt;" class="s1" d="m582.8 2741.8v3.5c-0.3 25.2 21.4 45.8 48.6 46.3l321.6 5.4c26.7 0.5 49-18.8 50.3-43.6l0.2-3.2c1.3-25.8-20.6-47.6-48.5-48.1l-321.7-5.8c-27.6-0.5-50.3 20-50.5 45.5z"/>
					</g>
					<g id="&lt;Group&gt;">
						<g id="&lt;Group&gt;">
							<path id="&lt;Path&gt;" class="s38" d="m1127.5 3168.6c-51.1 0-73.7-4.4-83.8-8.3 2 8.3 9.5 15 18.9 15h180.7c6.1 0 9.9-5.9 8.5-11.1-20.6 1.6-64.4 4.4-124.3 4.4z"/>
							<path id="&lt;Path&gt;" class="s39" d="m1251.8 3164.2c-0.3-1.1-0.7-2.1-1.5-3.1-13.8-17.6-41.4-45.2-79-44.7-55.1 0.8-74.3 6.8-117.2 0.4l-10.1 33.5c-1 3.4-1 6.8-0.3 10 10.1 3.9 32.7 8.3 83.8 8.3 59.9 0 103.7-2.8 124.3-4.4z"/>
						</g>
						<path id="&lt;Path&gt;" class="s40" d="m1066.5 3080.7l-12.4 42.2c0 0 27.5 12.5 51.7 2.4l4.7-36.5z"/>
						<g id="&lt;Group&gt;">
							<path id="&lt;Path&gt;" class="s41" d="m1441.1 3142.1c-39.8 32-60.2 42.7-70.6 46 6.8 5.2 16.8 5.7 24.1-0.2l140.9-113.2c4.7-3.8 4.1-10.8-0.3-13.9-15.1 14.2-47.4 43.7-94.1 81.3z"/>
							<path id="&lt;Path&gt;" class="s42" d="m1535.2 3060.8c-0.9-0.7-1.9-1.2-3.1-1.5-21.7-5-60.5-9.1-89.4 14.9-42.5 35.1-53.8 51.8-91.1 73.6l12.9 32.3c1.4 3.3 3.5 6 6 8 10.4-3.3 30.8-14 70.6-46 46.7-37.6 79-67.1 94.1-81.3z"/>
						</g>
						<path id="&lt;Path&gt;" class="s43" d="m801.3 2600.2c0 0 305.8 25 368.5 54.5 62.8 29.5-51.2 443.5-51.2 443.5 0 0-17 8.2-55.1-3.6 0 0 39-305.5 10-371.7l-331.1-54.2z"/>
						<path id="&lt;Path&gt;" class="s44" d="m1321.2 3089.7c2.8 2.5 30.4 58.1 30.4 58.1 0 0 30.6-6.6 36.9-26l-27.6-50.2z"/>
						<path id="&lt;Path&gt;" class="s45" d="m617.1 2597.6c0 0-10 24-9.6 55.9 0.6 44.1 36 79.8 80 82l361.6 16.5c7.6 0.4 14.1 5.6 16 13 8.5 32.9 50 133.8 253 335.2 5.4 5.3 13.8 6.2 20.2 2.2l28.9-18.3c3.1-1.9 4-5.9 2.2-9l-210.5-359.4c-11-18.3-28.8-31.5-49.5-36.7l-308.1-78.8z"/>
						<path id="&lt;Path&gt;" class="s46" d="m616.1 2596.6c0 0-3.6-179.2 32.2-347.9 13.3-62.2 47.7-118 97.7-157.4l16.7-13.2 83.8 34.1 43.1 74.4c23.7 47.4 17.9 150.3 0 200.2-29.9 83.5-53.8 169.9-64 212.4 0 0-138.8 18.3-209.5-2.6z"/>
						<path id="&lt;Path&gt;" class="s47" d="m820.3 1944.6l-65.4 151.9c0 0 20.9 47.1 94.2 28.8l26.2-104.8z"/>
						<g id="&lt;Group&gt;">
							<path id="&lt;Path&gt;" class="s48" d="m950.1 1875.3c0.7 2.2 2.5 151.8 2.5 151.8l-85.5-0.8-22.7-141.6c0 0 92.4-44.9 105.7-9.4z"/>
							<path id="&lt;Path&gt;" class="s49" d="m869.5 1911.9l6.1 75.5q0.1 1.4 0.6 2.8c2.1 5.6 10.6 24.2 29.1 14.3 16.9-8.9 32.4-16.8 44.5-15.8 5.4 0.4 9.6 4.9 9.7 10.4 0.1 13.6-0.1 44.2-4.4 70.8-0.8 5.4-5.7 9.2-11.2 8.8-16.4-1.2-51-4.6-78.1-13.8-3.7-1.3-6.4-4.4-7.1-8.3-3.2-18.6-13.2-75.4-18.4-90.8-4.9-14.4-25-19.4-33.6-20.9-2.8-0.4-5.3-2-6.9-4.4-5.6-8.4-15.3-28.5 9.6-43 5.2-3 6.8-9.7 3.6-14.8-6.3-10.1-11.6-26.6 7.1-40.3 19-14 37.1-6.2 47.5 1.1 4.2 2.9 9.8 2.3 13.5-1.3 2.1-2 5.1-3.2 9.4-1.7 5.8 2.1 12-1.5 13.5-7.5 2.8-11.4 10.6-24.7 32-25.6 37.8-1.6 50.7 37.9 46.2 63.7-4.5 25.8-45.7 25.2-67.9 17.5-16.9-5.8-34.2 7.9-41.6 14.8-2.3 2.2-3.5 5.3-3.2 8.5z"/>
							<path id="&lt;Path&gt;" class="s50" d="m842.8 1993.3c0 0 5.9-45.3-11.7-52.3-17.7-6.9-39.4 3.4-27.8 32.7 14.5 36.5 39.5 19.6 39.5 19.6z"/>
						</g>
						<path id="&lt;Path&gt;" class="s51" d="m1022 2452.7c-215.8 67.7-204.3-236-205.7-238.2-85.5-130.7-133.6 43.5-125.3 68.1 75.9 274.7 267.2 261.1 341.7 207.1-9.3-14.4-11.4-27.1-10.7-37z"/>
						<path id="&lt;Path&gt;" class="s52" d="m856.6 2405.8c-1.2-0.4-2.3-1.1-3-2.3-32.7-50.9-41.9-121.7-43.9-172.1-0.1-3.1 2.2-5.6 5.3-5.7 3-0.2 5.5 2.2 5.7 5.2 1.5 40.2 9.1 115.2 42.1 166.7 1.7 2.5 0.9 5.9-1.6 7.6-1.4 0.9-3.1 1.1-4.6 0.6z"/>
						<path id="&lt;Path&gt;" class="s53" d="m796.3 2474.8q-1-0.3-1.9-1c-49.3-41.3-86.4-106.3-110.4-193-0.8-3 0.9-6 3.8-6.8 2.9-0.8 6 0.9 6.8 3.8 23.3 84.6 59.3 147.7 106.9 187.6 2.3 1.9 2.6 5.4 0.7 7.7-1.5 1.8-3.8 2.4-5.9 1.7z"/>
						<path id="&lt;Path&gt;" class="s54" d="m1149 2389.2c0 0-3.5 5.6-28.7 25.2-25.3 19.6-50.7 30.9-31.4 4 19.3-26.9 9.9-40.8-12.1-11.8-22.1 29-37.8 40.1-37.8 40.1q-8.7 3.4-17 6c-0.7 9.9 1.4 22.6 10.7 37 8.7-2.9 13.7-5 13.7-5 0 0 66.8-12.2 81.1-40.6 14.3-28.5 21.5-54.9 21.5-54.9z"/>
					</g>
				</g>
			</g>
			<g id="&lt;Group&gt;">
				<path id="&lt;Path&gt;" class="s11" d="m1637.3 2247.3c0 0-553.4-273.5-372.4-474.8 180.9-201.3 518.4-120.8 535.4 91 17.1 211.9-393.5 162.2-163 383.8z"/>
				<g id="&lt;Group&gt;">
					<path id="&lt;Path&gt;" class="s1" d="m1311.7 1830.1h244.2c3.1 0 5.6-2.5 5.6-5.6 0-3.1-2.5-5.6-5.6-5.6h-244.2c-3.1 0-5.6 2.5-5.6 5.6 0 3.1 2.5 5.6 5.6 5.6z"/>
					<path id="&lt;Path&gt;" class="s1" d="m1628.4 1830.1h72.5c3.1 0 5.6-2.5 5.6-5.6 0-3.1-2.5-5.6-5.6-5.6h-72.5c-3.1 0-5.5 2.5-5.5 5.6 0 3.1 2.4 5.6 5.5 5.6z"/>
					<path id="&lt;Path&gt;" class="s1" d="m1303.5 1879.5h91.7c3 0 5.5-2.5 5.5-5.5 0-3.1-2.5-5.6-5.5-5.6h-91.7c-3.1 0-5.6 2.5-5.6 5.6 0 3 2.5 5.5 5.6 5.5z"/>
					<path id="&lt;Path&gt;" class="s1" d="m1529.7 1879.5h163c3.1 0 5.6-2.5 5.6-5.5 0-3.1-2.5-5.6-5.6-5.6h-163c-3.1 0-5.6 2.5-5.6 5.6 0 3 2.5 5.5 5.6 5.5z"/>
					<path id="&lt;Path&gt;" class="s1" d="m1295.2 1929h243.8c3.1 0 5.6-2.5 5.6-5.6 0-3.1-2.5-5.6-5.6-5.6h-243.8c-3.1 0-5.6 2.5-5.6 5.6 0 3.1 2.5 5.6 5.6 5.6z"/>
					<path id="&lt;Path&gt;" class="s1" d="m1600 1929h84.4c3.1 0 5.6-2.5 5.6-5.6 0-3.1-2.5-5.6-5.6-5.6h-84.4c-3 0-5.5 2.5-5.5 5.6 0 3.1 2.5 5.6 5.5 5.6z"/>
				</g>
			</g>
		</g>
	</g>
</svg>