<svg xmlns="http://www.w3.org/2000/svg" version="1.2" viewBox="270.58 36.37 468.66 289.23">
	<title>4854714</title>
	<style>
		.s0 { fill: #e5e8fd } 
		.s1 { fill: #62b5c3 } 
		.s2 { fill: #ffffff } 
		.s3 { fill: #e1f1f4 } 
		.s4 { mix-blend-mode: multiply;fill: #e5e8fd } 
		.s5 { fill: #8084bc } 
		.s6 { fill: #656dae } 
		.s7 { fill: #3c3c3b } 
		.s8 { mix-blend-mode: multiply;fill: #ebf3f9 } 
		.s9 { fill: #a3dcb8 } 
		.s10 { fill: #ffb162 } 
		.s11 { fill: #e08a30 } 
		.s12 { fill: #f7c5b4 } 
		.s13 { fill: #bfdde9 } 
		.s14 { mix-blend-mode: multiply;fill: #bfdde9 } 
		.s15 { fill: #e89b8d } 
		.s16 { fill: #ebf3f9 } 
		.s17 { fill: #ffdc75 } 
		.s18 { fill: #8bc8d3 } 
	</style>
	<g id="BACKGROUND">
	</g>
	<g id="OBJECTS">
		<g id="&lt;Group&gt;">
			<g id="&lt;Group&gt;">
				<g id="&lt;Group&gt;">
					<g id="&lt;Group&gt;">
						<g id="&lt;Group&gt;">
						</g>
					</g>
				</g>
			</g>
			<g id="&lt;Group&gt;">
			</g>
			<g id="&lt;Group&gt;">
				<g id="&lt;Group&gt;">
				</g>
				<g id="&lt;Group&gt;">
				</g>
				<g id="&lt;Group&gt;">
				</g>
			</g>
			<g id="&lt;Group&gt;">
				<g id="&lt;Group&gt;">
					<g id="&lt;Group&gt;">
					</g>
					<g id="&lt;Group&gt;">
					</g>
					<g id="&lt;Group&gt;">
					</g>
					<g id="&lt;Group&gt;">
					</g>
				</g>
				<g id="&lt;Group&gt;">
				</g>
				<g id="&lt;Group&gt;">
					<g id="&lt;Group&gt;">
						<g id="&lt;Group&gt;">
							<g id="&lt;Group&gt;">
							</g>
							<g id="&lt;Group&gt;">
							</g>
						</g>
					</g>
					<g id="&lt;Group&gt;">
					</g>
					<g id="&lt;Group&gt;">
						<g id="&lt;Group&gt;">
						</g>
						<g id="&lt;Group&gt;">
						</g>
					</g>
				</g>
			</g>
			<g id="&lt;Group&gt;">
				<g id="&lt;Group&gt;">
					<g id="&lt;Group&gt;">
					</g>
				</g>
				<g id="&lt;Group&gt;">
					<g id="&lt;Group&gt;">
						<g id="&lt;Group&gt;">
						</g>
					</g>
					<g id="&lt;Group&gt;">
						<g id="&lt;Group&gt;">
						</g>
					</g>
					<g id="&lt;Group&gt;">
						<g id="&lt;Group&gt;">
						</g>
					</g>
					<g id="&lt;Group&gt;">
						<g id="&lt;Group&gt;">
						</g>
					</g>
				</g>
			</g>
			<g id="&lt;Group&gt;">
				<g id="&lt;Group&gt;">
					<g id="&lt;Group&gt;">
					</g>
					<g id="&lt;Group&gt;">
					</g>
					<g id="&lt;Group&gt;">
					</g>
					<g id="&lt;Group&gt;">
					</g>
					<g id="&lt;Group&gt;">
					</g>
					<g id="&lt;Group&gt;">
					</g>
				</g>
				<g id="&lt;Group&gt;">
					<g id="&lt;Group&gt;">
					</g>
					<g id="&lt;Group&gt;">
					</g>
					<g id="&lt;Group&gt;">
					</g>
					<g id="&lt;Group&gt;">
					</g>
					<g id="&lt;Group&gt;">
					</g>
				</g>
			</g>
			<g id="&lt;Group&gt;" style="mix-blend-mode: multiply">
			</g>
			<g id="&lt;Group&gt;" style="mix-blend-mode: multiply">
			</g>
			<g id="&lt;Group&gt;">
			</g>
			<g id="&lt;Group&gt;">
				<g id="&lt;Group&gt;">
				</g>
				<g id="&lt;Group&gt;">
				</g>
				<g id="&lt;Group&gt;">
				</g>
				<g id="&lt;Group&gt;">
				</g>
				<g id="&lt;Group&gt;">
				</g>
			</g>
		</g>
		<g id="&lt;Group&gt;">
			<path id="&lt;Path&gt;" class="s0" d="m549.9 58.4c25.7-10.4 53.2-16 80.9-16.7 18.1-0.4 37.1 1.7 52.1 11.8 21.5 14.4 29.9 41.6 34.3 67.1 4.3 25.4 6.2 51.6 0.4 76.7-5.9 25.1-20.2 49-42.4 62-11.3 6.6-24.1 10.2-37 12.8-25.7 5.1-52.3 6.4-78.1 1.8-51.2-9-98.3-40.5-150.3-38.8-22.9 0.8-46 8.2-68.4 3.2-28.7-6.4-49.6-31.9-60.6-59.1-8.9-22.1-12.8-46.6-8.4-70.1 4.5-23.4 17.9-45.5 38.1-58.2 16.8-10.6 37.2-14.1 57.1-14.5 28.4-0.5 56.9 5.2 83 16.4 14.8 6.4 29.9 15.7 45.9 18.6 18.6 3.4 36.6-6.3 53.4-13z"/>
			<g id="&lt;Group&gt;">
				<path id="&lt;Path&gt;" class="s1" d="m379.1 128.1h-32.3v-37.6h32.3z"/>
				<path id="&lt;Path&gt;" class="s2" d="m376.3 124.8h-26.7v-31h26.7z"/>
			</g>
			<g id="&lt;Group&gt;">
				<path id="&lt;Path&gt;" class="s1" d="m469 112.9h-41.9v-27.4h41.9z"/>
				<path id="&lt;Path&gt;" class="s2" d="m465.3 109.5h-34.6v-20.7h34.6z"/>
			</g>
			<g id="&lt;Group&gt;">
				<path id="&lt;Path&gt;" class="s1" d="m417.8 99.2h-32.3v-37.6h32.3z"/>
				<path id="&lt;Path&gt;" class="s2" d="m414.9 95.8h-26.5v-30.8h26.5z"/>
			</g>
			<g id="&lt;Group&gt;" style="mix-blend-mode: multiply">
				<path id="&lt;Path&gt;" class="s3" d="m639.3 73.7h-30.9v-10.5h30.9z"/>
				<path id="&lt;Path&gt;" class="s3" d="m639.3 102.2h-30.9v-10.4h30.9z"/>
				<path id="&lt;Path&gt;" class="s3" d="m621.2 87.9h-30.8v-10.4h30.8z"/>
				<path id="&lt;Path&gt;" class="s3" d="m658.6 87.9h-30.8v-10.4h30.8z"/>
			</g>
			<path id="&lt;Path&gt;" class="s4" d="m661.1 313.3c0 6.8-69.7 12.3-155.7 12.3-86 0-155.8-5.5-155.8-12.3 0-6.7 69.8-12.2 155.8-12.2 86 0 155.7 5.5 155.7 12.2z"/>
			<g id="&lt;Group&gt;">
				<path id="&lt;Path&gt;" class="s5" d="m378.1 195.7c0 0-6.1-38.1 8.8-47.1 15-9 104.8-8.3 104.8-8.3 0 0 123.4 3.6 144.5 8.3 21 4.7 9.8 47.1 9.8 47.1 0 0-6.9 37.6-13.2 49.2l-247-4.3z"/>
				<g id="&lt;Group&gt;">
					<path id="&lt;Path&gt;" class="s6" d="m636.2 220.7c-10.3-1.7-20.7-2.9-31.1-4l-7.8-0.8-7.8-0.6c-5.2-0.5-10.4-0.9-15.6-1.3-20.9-1.4-41.8-2.3-62.7-2.7-10.4 0-20.9-0.3-31.3-0.1-5.3 0.1-10.5 0.1-15.7 0.2l-15.7 0.4-7.8 0.2-7.9 0.3-15.6 0.7c-2.6 0.1-5.2 0.2-7.9 0.4l-7.8 0.4-15.6 1-0.2-1.7 15.7-1.2 7.8-0.6c2.6-0.2 5.2-0.4 7.9-0.6l15.6-0.8 7.9-0.4 7.8-0.3 15.7-0.5c5.3-0.1 10.5-0.1 15.8-0.2 10.4-0.2 20.9 0 31.4 0.1 20.9 0.5 41.9 1.4 62.8 3 20.8 1.7 41.7 3.9 62.4 7.5z"/>
				</g>
				<path id="&lt;Path&gt;" class="s6" d="m631.7 237.7l-7.2 53.6h-224.8l-7.8-51.8z"/>
				<path id="&lt;Path&gt;" class="s5" d="m624.5 291.3c0 0 5.7-94.6 31.7-100.2 26-5.6 25.3 28 12.7 55.2l-22.9 45z"/>
				<path id="&lt;Path&gt;" class="s5" d="m399.7 291.3c0 0-5.8-94.6-31.7-100.2-26-5.6-25.4 28-12.7 55.2l22.8 45z"/>
				<g id="&lt;Group&gt;">
					<path id="&lt;Path&gt;" class="s6" d="m399.7 291.3c-1.2-9-2.5-18-3.8-26.9-0.8-4.5-1.5-9-2.3-13.4-0.8-4.5-1.6-8.9-2.6-13.3q-1.4-6.6-3.2-13.2-1.7-6.5-4-12.8c-1.6-4.2-3.4-8.3-5.9-12.1-1.2-1.9-2.6-3.6-4.2-5.1-1.6-1.6-3.6-2.8-5.7-3.4 2.2 0.4 4.4 1.4 6.2 2.8 1.8 1.4 3.4 3.1 4.8 4.9 2.8 3.7 5 7.9 6.8 12.1 3.6 8.4 5.9 17.3 7.9 26.2 1.9 8.9 3.3 18 4.3 27 1 9.1 1.6 18.1 1.7 27.2z"/>
				</g>
				<path id="&lt;Path&gt;" class="s7" d="m617.1 291.3c2.5 25.3 7.4 23.2 7.4 23.2 5.2 0 0-23.2 0-23.2"/>
				<g id="&lt;Group&gt;">
					<path id="&lt;Path&gt;" class="s5" d="m618 266.7l-26.4 0.8-26.5 0.6q-26.5 0.5-53 0.8c-17.6 0.2-35.3 0.2-53 0-8.8 0-17.6-0.2-26.4-0.4l-13.3-0.5-13.2-0.6v-1.3l13.3 0.5 13.2 0.2c8.8 0.1 17.6 0.2 26.5 0.2q26.4 0.1 52.9-0.1 26.5-0.1 53-0.5l52.9-0.8z"/>
				</g>
				<g id="&lt;Group&gt;">
					<path id="&lt;Path&gt;" class="s6" d="m624.5 291.3c0-9.1 0.7-18.1 1.7-27.2 1-9 2.4-18.1 4.3-27 1.9-8.9 4.3-17.8 7.9-26.2 1.8-4.2 3.9-8.4 6.7-12.1 1.4-1.8 3-3.5 4.9-4.9 1.8-1.4 3.9-2.4 6.2-2.8-2.2 0.6-4.1 1.8-5.8 3.4-1.6 1.5-3 3.2-4.2 5.1-2.4 3.8-4.2 7.9-5.8 12.1q-2.4 6.3-4.1 12.8-1.8 6.6-3.2 13.2c-0.9 4.4-1.8 8.8-2.6 13.3-0.8 4.4-1.5 8.9-2.2 13.4-1.4 8.9-2.6 17.9-3.8 26.9z"/>
				</g>
				<path id="&lt;Path&gt;" class="s7" d="m399.7 291.3c0 0-5.2 23.2 0 23.2 0 0 4.8 2.1 7.4-23.2z"/>
				<g id="&lt;Group&gt;">
					<g id="&lt;Group&gt;">
						<path id="&lt;Path&gt;" class="s6" d="m671.5 201.7c0.9 0.3 1.6 1 2 1.8 0.5 0.8 0.8 1.8 0.6 2.8 0 0.5-0.5 0.8-1 0.7q-0.3 0-0.5-0.2l-0.1-0.1c-0.6-0.6-0.9-1.2-1.3-1.8-0.3-0.7-0.6-1.4-0.8-2.2l-0.1-0.1c-0.1-0.4 0.2-0.9 0.7-1q0.2 0 0.5 0.1z"/>
					</g>
					<g id="&lt;Group&gt;">
						<path id="&lt;Path&gt;" class="s6" d="m672 210.3c0.7 0.6 1.2 1.3 1.5 2.1 0.3 0.8 0.4 1.6 0.2 2.5-0.1 0.5-0.7 0.8-1.2 0.7q-0.2-0.1-0.4-0.3c-0.6-0.6-0.9-1.3-1.1-2-0.3-0.7-0.4-1.4-0.4-2.3 0-0.5 0.4-0.9 0.9-0.8q0.3 0 0.5 0.1z"/>
					</g>
					<g id="&lt;Group&gt;">
						<path id="&lt;Path&gt;" class="s6" d="m671.5 220.5c0.7 0.6 1.2 1.4 1.3 2.3 0.2 0.9 0.1 1.8-0.4 2.6-0.3 0.5-0.9 0.6-1.3 0.3q-0.2-0.2-0.3-0.4l-0.1-0.1c-0.3-0.7-0.4-1.3-0.5-1.9-0.1-0.7-0.2-1.3-0.1-2.1v-0.1c0.1-0.4 0.5-0.8 0.9-0.7q0.3 0 0.5 0.1z"/>
					</g>
					<g id="&lt;Group&gt;">
						<path id="&lt;Path&gt;" class="s6" d="m670.1 228.4c0.8 0.6 1.3 1.5 1.4 2.5 0.1 0.9 0 2-0.7 2.7-0.3 0.4-0.9 0.5-1.3 0.2q-0.2-0.2-0.3-0.5v-0.1c-0.2-0.8-0.3-1.4-0.3-2-0.1-0.7-0.2-1.3-0.1-2.1v-0.1c0-0.5 0.4-0.8 0.9-0.8q0.2 0 0.4 0.2z"/>
					</g>
					<g id="&lt;Group&gt;">
						<path id="&lt;Path&gt;" class="s6" d="m667.4 236.1c0.8 0.6 1.2 1.5 1.4 2.3 0.2 0.9 0.1 1.9-0.4 2.7-0.2 0.4-0.8 0.6-1.2 0.3q-0.3-0.2-0.4-0.4v-0.1c-0.4-0.7-0.5-1.3-0.6-2-0.1-0.6-0.2-1.3-0.1-2.1 0-0.5 0.4-0.9 0.9-0.8q0.2 0 0.4 0.1z"/>
					</g>
					<g id="&lt;Group&gt;">
						<path id="&lt;Path&gt;" class="s6" d="m353.2 204.3c-0.5 0.7-0.9 1.3-1.3 1.8-0.4 0.6-0.8 1.1-1.5 1.7v0.1c-0.4 0.3-1 0.3-1.3-0.1q-0.2-0.2-0.3-0.5c-0.1-1.1 0.4-2.1 1-2.8 0.7-0.8 1.5-1.4 2.6-1.5 0.4-0.1 0.9 0.2 0.9 0.7q0 0.3-0.1 0.5z"/>
					</g>
					<g id="&lt;Group&gt;">
						<path id="&lt;Path&gt;" class="s6" d="m353.3 212.5c-0.3 0.9-0.6 1.5-0.8 2.3-0.3 0.7-0.5 1.3-1 2.1v0.1c-0.2 0.5-0.8 0.6-1.2 0.4q-0.3-0.2-0.4-0.4c-0.5-1.1-0.3-2.3 0.1-3.3 0.4-1 1.2-1.9 2.2-2.3 0.4-0.2 0.9 0 1.1 0.5q0.1 0.2 0 0.5z"/>
					</g>
					<g id="&lt;Group&gt;">
						<path id="&lt;Path&gt;" class="s6" d="m354.5 221c-0.2 1-0.3 1.8-0.3 2.7-0.1 0.8-0.1 1.6-0.1 2.6v0.1c0 0.5-0.5 0.8-0.9 0.8q-0.4 0-0.6-0.3c-0.9-0.9-1.2-2.2-1.1-3.5 0.1-1.2 0.7-2.4 1.7-3.2 0.3-0.3 0.8-0.2 1.1 0.1q0.2 0.3 0.2 0.6z"/>
					</g>
					<g id="&lt;Group&gt;">
						<path id="&lt;Path&gt;" class="s6" d="m357.8 230.8c-0.2 0.9-0.4 1.6-0.5 2.3-0.2 0.7-0.2 1.3-0.4 2.2v0.1c-0.1 0.5-0.6 0.8-1.1 0.7q-0.3-0.1-0.5-0.3c-0.7-0.9-0.9-2.2-0.6-3.3 0.3-1.1 0.9-2.2 2-2.7 0.4-0.2 0.9 0 1.1 0.4q0.1 0.3 0 0.5z"/>
					</g>
					<g id="&lt;Group&gt;">
						<path id="&lt;Path&gt;" class="s6" d="m360.9 238.9c-0.2 1-0.3 1.7-0.5 2.5-0.1 0.9-0.2 1.6-0.4 2.6-0.1 0.5-0.6 0.8-1 0.7q-0.4-0.1-0.6-0.3c-0.7-1-0.8-2.3-0.6-3.4 0.2-1.2 0.8-2.3 1.8-3 0.4-0.2 0.9-0.1 1.1 0.2q0.2 0.3 0.2 0.6z"/>
					</g>
					<g id="&lt;Group&gt;">
						<path id="&lt;Path&gt;" class="s6" d="m406.3 149.2c-3.9 0.3-7.8 1-11.3 2.5-3.5 1.5-6.5 4.1-8.2 7.4q-1.4 2.5-2.1 5.3c-0.5 1.8-0.8 3.7-1 5.6-0.3 3.7-0.2 7.6-0.5 11.5 0 0.3-0.2 0.5-0.5 0.4-0.2 0-0.3-0.1-0.3-0.3-0.7-3.9-1-7.8-0.6-11.8 0.2-2 0.5-4 1.1-5.9 0.6-2 1.5-3.8 2.6-5.5 2.1-3.5 5.5-6.1 9.2-7.5 3.7-1.5 7.6-2.1 11.5-2.5 0.2-0.1 0.5 0.1 0.5 0.3 0 0.3-0.2 0.5-0.4 0.5q0 0 0 0z"/>
					</g>
					<g id="&lt;Group&gt;">
						<path id="&lt;Path&gt;" class="s6" d="m397.8 157c-1.4 0.4-2.6 1.2-3.7 2.1-1.1 1-2 2.2-2.6 3.4-0.7 1.3-1.2 2.6-1.6 3.9-0.4 1.3-0.7 2.7-1.1 4.1-0.1 0.3-0.3 0.4-0.6 0.3q-0.2 0-0.3-0.2c-0.5-1.6-0.4-3.2 0.1-4.8 0.4-1.5 1.2-2.9 2.2-4.1 2-2.5 4.5-4.4 7.3-5.5 0.2-0.1 0.5 0 0.6 0.2 0.1 0.2 0 0.5-0.2 0.5q-0.1 0.1-0.1 0.1z"/>
					</g>
				</g>
			</g>
			<g id="&lt;Group&gt;">
				<path id="&lt;Path&gt;" class="s8" d="m739 271.3c0 2.3-14.4 4.2-32.1 4.2-17.8 0-32.2-1.9-32.2-4.2 0-2.3 14.4-4.2 32.2-4.2 17.7 0 32.1 1.9 32.1 4.2z"/>
				<g id="&lt;Group&gt;">
					<path id="&lt;Path&gt;" class="s9" d="m700.7 122.7c-0.8-2.5-2.4-4.6-4-6.7q-5-6.5-10-12.9c-2.2-2.9-5.6-6-8.8-4.5-1.8 0.9-2.7 3.1-2.8 5.2 0 2 0.5 4 0.8 6.1 0.6 5-0.7 10.1-0.9 15.2-0.4 11.1 5.2 22.2 14.3 28.5 3 2.1 6.7 3.9 8.4 7.3 1.3 2.8 1.1 6.1 2.3 9 0.2 0.3 0.3 0.6 0.6 0.8 0.5 0.3 1.2 0 1.6-0.3 3.2-2.4 3.3-7.2 2.8-11.1-1-6.9-3.9-12.9-5.3-19.6-1.2-5.6 3.1-10.9 1-17z"/>
					<path id="&lt;Path&gt;" class="s9" d="m701.9 156.8c-0.5-5 0.3-10.1 0.3-15.1 0.1-5.7-0.8-11.4-0.5-17.1 0.2-5.7 1.7-11.6 5.6-15.7 1.4-1.4 3.5-2.6 5.3-1.8 0.9 0.3 1.5 1.1 2 1.8 2.5 3.8 2.4 8.7 1.8 13.1-0.6 4.5-1.7 9-0.8 13.4 0.6 3.4 2.4 6.5 3.3 9.9 1.9 6.8-0.1 14.5-4.7 19.9-2.5 2.9-4.9 5.6-8.1 2.5-2.7-2.7-3.9-7.2-4.2-10.9z"/>
					<path id="&lt;Path&gt;" class="s9" d="m713.5 143.5c2.1-2.8 4.6-5.2 6.6-8 5.3-7.6 5.9-17.8 11.2-25.4 0.7-1 1.5-2 2.6-2.3 2.4-0.7 4.6 1.9 4.8 4.3 0.1 2.5-1 4.8-1.5 7.2-2.5 10.3 4.6 21.6 1 31.5-1.1 3-3.1 5.6-5.1 8.2-2.7 3.3-5.4 6.7-8.7 9.3-3 2.4-7.2 4.6-11.1 4.4-3.9-0.2-4.4-2.5-5-6.1-1.6-8 0.3-16.6 5.2-23.1z"/>
					<path id="&lt;Path&gt;" class="s9" d="m689.5 151.6c-5.7-4.5-12.5-7.4-18.2-11.8-3-2.3-5.7-5-8.9-7-3.2-2-7.2-3.1-10.8-1.9-5.4 2.7 1.4 13.5 3.7 19.9 2 5.3 7.1 9.4 12.7 10.1 4.7 0.6 10-0.8 13.8 2 1.4 1.1 2.4 2.7 3.7 4 2.8 2.8 11.5 6.3 12.8 0.6 1.4-5.7-4.9-12.8-8.8-15.9z"/>
					<g id="&lt;Group&gt;">
						<path id="&lt;Path&gt;" class="s7" d="m730 117.1c-0.3 6.1-1.2 12.2-3.1 18-0.9 2.9-1.9 5.8-3.2 8.5-1.3 2.8-2.7 5.5-4.1 8.2-2.7 5.4-5 10.9-6.3 16.7q-1 4.4-1.5 8.9-0.5 4.4-0.6 8.9l-0.8 0.1c-0.8-6.1-0.4-12.3 1-18.3 0.8-3 1.7-5.9 2.9-8.8 1.2-2.8 2.6-5.5 4-8.2 1.5-2.6 3-5.2 4.4-7.9 1.3-2.7 2.5-5.5 3.4-8.4 1.9-5.7 3-11.7 3-17.7z"/>
					</g>
					<g id="&lt;Group&gt;">
						<path id="&lt;Path&gt;" class="s7" d="m708.9 116.5c0 5.8 0 11.7-0.1 17.6q0 8.8-0.2 17.6-0.1 4.3-0.3 8.7-0.2 4.4-0.5 8.8c-0.5 5.9-1.1 11.7-2.2 17.5l-0.8-0.1c0.2-5.9 0.6-11.7 1-17.5l0.7-8.8 0.6-8.7q0.6-8.8 0.9-17.6c0.1-5.8 0.2-11.7 0.1-17.5z"/>
					</g>
					<g id="&lt;Group&gt;">
						<path id="&lt;Path&gt;" class="s7" d="m655.8 135.5c1.3 2.6 3.5 4.8 5.9 6.6 2.5 1.7 5.2 3.1 7.9 4.4 5.5 2.6 11.3 4.7 16.5 8.1 5.1 3.5 9.2 8.4 12 13.9 2.8 5.5 4.5 11.6 4.2 17.9h-1.4c-0.3-3.2-0.5-6.4-0.6-9.7-0.1-3.2 0-6.5 0.1-9.7q0.1-2.4-0.2-4.7c-0.2-1.5-0.5-3.1-0.8-4.6-0.8-3.1-1.7-6.2-2.7-9.2q-1.6-4.5-3.5-8.9c-1.3-3-2.7-5.9-4-8.8l-4.1-8.7c-1.4-2.9-2.7-5.9-4-8.9l0.8-0.3 8.8 17.2c2.9 5.8 5.7 11.6 7.8 17.8 1 3.1 2 6.2 2.7 9.4 0.3 1.6 0.6 3.2 0.8 4.8 0.2 1.7 0.3 3.3 0.2 5-0.2 3.2-0.4 6.4-0.3 9.6 0 3.2 0.2 6.4 0.4 9.6h-1.4c0.3-5.9-1.1-12-3.8-17.4-2.6-5.3-6.5-10.2-11.4-13.6-5.1-3.4-10.9-5.5-16.4-8.1-2.8-1.3-5.5-2.7-8-4.5-2.5-1.8-4.8-4-6.2-6.8z"/>
					</g>
					<path id="&lt;Path&gt;" class="s10" d="m681.5 186.4h48.1l-4.6 78.5c-0.3 4.2-3.8 7.5-7.9 7.5h-20.5c-4.2 0-7.7-3.2-8.1-7.4z"/>
					<g id="&lt;Group&gt;">
						<g id="&lt;Group&gt;">
							<path id="&lt;Path&gt;" class="s11" d="m726.1 198.3c-0.5-0.8-1.4-1.4-2.3-1.6-1-0.3-2.1 0-2.9 0.6-1.7 1.2-2.7 3.3-4.7 4.5-2 1.1-4.6 1-6.6-0.1-1-0.6-1.8-1.6-2.4-2.5-0.6-0.9-1.3-1.5-2.2-1.7-0.9-0.2-1.9 0-2.8 0.4-0.9 0.4-1.7 1-2.5 1.7-1.6 1.3-3.2 3.1-5.5 3.9-1.2 0.4-2.5 0.3-3.7-0.1-1.1-0.4-2.1-1.1-2.9-2-1.6-1.7-2.3-3.9-3-5.9 0-0.2 0.1-0.4 0.3-0.4 0.1-0.1 0.3 0 0.3 0.1 1 1.9 1.9 3.9 3.4 5.3 1.4 1.4 3.3 2.2 5.1 1.5 1.9-0.5 3.4-2.1 5.1-3.5 0.9-0.7 1.8-1.4 2.9-1.8 1.1-0.4 2.4-0.6 3.6-0.3 0.6 0.2 1.1 0.5 1.6 0.9 0.5 0.4 0.8 0.9 1.1 1.4 0.6 0.9 1.2 1.7 2 2.2 1.7 1.1 4.1 1.3 5.9 0.3 1.8-1 2.8-3 4.7-4.4q0.7-0.5 1.5-0.7 0.9-0.2 1.8 0c1.1 0.2 2.2 0.9 2.8 1.9 0.1 0.2 0 0.4-0.1 0.4-0.2 0.1-0.4 0.1-0.5-0.1q0 0 0 0z"/>
						</g>
						<g id="&lt;Group&gt;">
							<path id="&lt;Path&gt;" class="s11" d="m725.6 204.9c-0.7-0.5-1.6-0.7-2.5-0.6-0.9 0.1-1.7 0.5-2.5 1-1.6 1-2.9 2.4-4.7 3.4-1.8 0.9-4 1.1-5.9 0.4-0.9-0.4-1.8-0.9-2.6-1.6-0.7-0.7-1.3-1.5-1.9-2-1.4-0.9-3.3-0.3-4.6 0.8-0.8 0.5-1.5 1.1-2.2 1.7-0.8 0.7-1.7 1.2-2.8 1.6-2 0.6-4.2 0.4-6.1-0.4q-1.4-0.7-2.5-1.7c-0.7-0.8-1.3-1.6-1.7-2.6 0-0.1 0.1-0.3 0.2-0.4 0.2 0 0.3 0 0.4 0.2 2 3.1 6 4.5 9.3 3.4 1.6-0.4 2.9-1.8 4.6-3 0.8-0.6 1.8-1 2.9-1.2 1-0.2 2.3 0 3.1 0.7 0.9 0.7 1.4 1.6 2 2.2 0.6 0.6 1.4 1.2 2.2 1.5 1.7 0.6 3.7 0.6 5.3-0.2 1.6-0.9 3-2.3 4.7-3.3 0.8-0.6 1.7-0.9 2.7-1.1 1-0.1 2.1 0.1 3 0.7 0.2 0.1 0.2 0.3 0.1 0.4-0.1 0.2-0.3 0.2-0.5 0.1q0 0 0 0z"/>
						</g>
						<g id="&lt;Group&gt;">
							<path id="&lt;Path&gt;" class="s11" d="m725.1 213.5c-0.7-0.5-1.5-0.5-2.4-0.3-0.8 0.1-1.6 0.6-2.3 1.1-0.7 0.5-1.3 1.1-2.1 1.7-0.7 0.5-1.6 1-2.4 1.3-1.8 0.6-3.8 0.6-5.6-0.1-0.9-0.3-1.8-0.8-2.5-1.4-0.7-0.6-1.4-1.2-2-1.6-1.4-0.9-3.1-0.5-4.5 0.4-1.5 0.8-2.9 2.1-4.8 2.8-3.8 1.2-8.2-0.3-10.2-3.6-0.1-0.1-0.1-0.3 0.1-0.4 0.1-0.1 0.3-0.1 0.4 0 2.4 2.6 6.1 3.6 9.2 2.5 1.6-0.4 2.9-1.6 4.6-2.5 0.8-0.5 1.8-0.8 2.8-0.9 1-0.1 2.1 0.1 3 0.7 0.8 0.6 1.4 1.3 2.1 1.9q0.9 0.8 2.1 1.3c1.6 0.7 3.4 0.8 5 0.3 1.7-0.5 3-1.8 4.5-2.9 0.7-0.5 1.6-1 2.5-1.2 0.9-0.2 2-0.2 2.9 0.3 0.1 0.1 0.2 0.3 0.1 0.5-0.1 0.1-0.3 0.2-0.5 0.1q0 0 0 0z"/>
						</g>
						<g id="&lt;Group&gt;">
							<path id="&lt;Path&gt;" class="s11" d="m724.8 220.4c-0.8-0.4-1.7-0.5-2.5-0.3-0.9 0.1-1.6 0.7-2.1 1.4-0.6 0.8-1.1 1.6-1.8 2.3-0.6 0.7-1.4 1.3-2.3 1.7-1.9 0.8-4 0.6-5.8 0-1-0.4-1.9-1-2.6-1.6-0.6-0.7-1.3-1.3-2.1-1.6-1.5-0.6-3.4-0.3-4.7 0.7-0.6 0.5-1.1 1.2-1.8 2-0.8 0.8-1.9 1.3-3 1.4-4.1 0.6-8.3-2.1-9.4-5.9-0.1-0.2 0-0.4 0.2-0.4 0.1-0.1 0.3 0 0.3 0.1 1.8 3.2 5.4 5.2 8.7 4.7 0.9-0.1 1.6-0.4 2.1-0.9 0.6-0.6 1.2-1.5 2.1-2.1 1.7-1.2 4.1-1.4 6-0.6q0.7 0.3 1.3 0.8c0.4 0.4 0.7 0.7 1 1.1 0.7 0.6 1.3 1.1 2.2 1.5 1.6 0.6 3.5 0.9 5.2 0.2 0.8-0.3 1.6-0.9 2.2-1.5 0.6-0.7 1.1-1.4 1.7-2.2 0.6-0.8 1.4-1.5 2.4-1.7 1-0.3 2.1-0.1 3 0.3 0.1 0.1 0.2 0.3 0.1 0.4 0 0.2-0.2 0.3-0.4 0.2q0 0 0 0z"/>
						</g>
					</g>
				</g>
			</g>
			<g id="&lt;Group&gt;">
				<g id="&lt;Group&gt;">
					<path id="&lt;Path&gt;" class="s12" d="m529.7 200c7.8 0.1 25.7-1.2 25.7-8.6 0-4.2-2.1-8.1-4-11.9-2-3.9-4.2-7.8-6.5-11.7l-8.7 11.5c1.8 2.9 5.6 8 5.6 8-4.1 1.2-9.2 4-13.2 5.9z"/>
				</g>
				<g id="&lt;Group&gt;">
					<path id="&lt;Path&gt;" class="s12" d="m483.6 200.9c-7.8 0-25.7-1.3-25.7-8.7 0-4.2 2.1-8.1 4-11.9 2-3.8 4.2-7.8 6.5-11.7l8.7 11.5c-1.8 2.9-5.7 8-5.7 8 4.2 1.3 9.3 4 13.3 5.9z"/>
				</g>
				<path id="&lt;Path&gt;" class="s7" d="m524.9 108.5c1.6 4.9-0.5 10.4 1.4 15.1 0.8 2.2 2.4 4 3.9 5.9 1.5 1.8 3 3.8 3.3 6.2 0.4 2.3-0.7 5.1-2.9 5.9-1.2 0.4-2.5 0.3-3.6 0.8-1.7 0.8-2.4 2.9-3.4 4.6-2.3 4-7.7 6-12.1 4.4-3.7-1.3-6.8-4.7-10.7-4.1-1.3 0.2-2.5 0.9-3.7 1.4-2.4 1-5.1 1.4-7.5 0.6-2.4-0.9-4.4-3.3-4.1-5.9 0.2-1.7 1.3-3.3 1.2-5.1 0-1.8-1.4-3.3-2.2-4.9-1-2-1.3-4.3-0.7-6.4 0.6-2.5 2.3-4.7 3.3-7.1 1.3-3 1.6-6.3 2.2-9.4 0.7-3.2 2-6.5 4.6-8.4 1.1-0.9 2.5-1.4 3.9-1.8 5.2-1.6 10.7-1.8 16-0.5 4.5 1 9.7 4.1 11.1 8.7z"/>
				<g id="&lt;Group&gt;">
					<path id="&lt;Path&gt;" class="s1" d="m466.7 167.7c3.6-9.6 22.6-19.7 29.2-20.6h21c6 0.4 26.4 13 29.8 20.6l-11.2 13.1h-60.1z"/>
				</g>
				<path id="&lt;Path&gt;" class="s13" d="m536.9 216.6h-61.1l-3.3-48h68.4z"/>
				<path id="&lt;Path&gt;" class="s14" d="m536.9 216.6h-61.1l-3.3-48c0 0 3.4 47.3 64.4 48z"/>
				<path id="&lt;Path&gt;" class="s7" d="m531.6 234.2c5.1 1.8 11.4 1.8 16.4 1.7 3.4-0.1 5.8-0.4 8.9-1.7 1.8-0.8 3.7-2.2 4.1-4.2 0.4-2.4-1.7-4.8-4-5.5-2.4-0.8-4.9-0.5-7.4-0.3-5.3 0.5-10.7 0.3-15.9-0.5z"/>
				<path id="&lt;Path&gt;" class="s12" d="m531.6 234.6c3.8 1.4 8.5 1.4 12.3 1.3 2.5-0.1 4.3-0.3 6.6-1.3 1.4-0.7 2.8-1.8 3.1-3.4 0.3-1.9-1.3-3.8-3-4.4-1.8-0.6-3.7-0.4-5.6-0.2-3.9 0.4-7.9 0.2-11.8-0.4z"/>
				<path id="&lt;Path&gt;" class="s7" d="m480 233.9c-5 1.8-11.3 1.8-16.4 1.7-3.3-0.1-5.7-0.4-8.8-1.7-1.9-0.8-3.8-2.2-4.1-4.2-0.5-2.4 1.6-4.8 4-5.5 2.3-0.8 4.9-0.5 7.4-0.3 5.3 0.5 10.6 0.3 15.9-0.5z"/>
				<path id="&lt;Path&gt;" class="s12" d="m480 234.3c-3.8 1.4-8.4 1.4-12.2 1.3-2.5-0.1-4.3-0.3-6.6-1.3-1.4-0.7-2.8-1.8-3.1-3.4-0.3-1.9 1.2-3.8 3-4.4 1.7-0.6 3.7-0.4 5.5-0.2 4 0.4 8 0.2 11.9-0.4z"/>
				<path id="&lt;Path&gt;" class="s10" d="m533.2 235.7c-21-2-41.8-5.5-62.2-10.7-8.5-2.2-17.4-4.9-23-11.5-2.6-3-4.4-7.2-3-10.9 0.9-2.5 3.2-4.4 5.8-5.3 2.5-1 5.3-1.2 8-1.1 6.2 0 12.3 0.9 18.2 2.6 7.5 2.2 14.5 5.6 21.5 9.1 11.8 5.7 23.7 11.4 36.5 14.4z"/>
				<path id="&lt;Path&gt;" class="s10" d="m478.2 235.7c21-2 41.8-5.5 62.2-10.7 8.5-2.2 17.4-4.9 23.1-11.5 2.5-3 4.3-7.2 3-10.9-1-2.5-3.3-4.4-5.8-5.3-2.6-1-5.4-1.2-8.1-1.1-6.1 0-12.3 0.9-18.1 2.6-7.5 2.2-14.6 5.6-21.6 9.1-11.8 5.7-23.7 11.4-36.5 14.4z"/>
				<g id="&lt;Group&gt;">
					<path id="&lt;Path&gt;" class="s7" d="m503.6 232.5l30.8-6q-3.8 1-7.6 1.9c-2.6 0.6-5.1 1.2-7.7 1.7-2.6 0.5-5.2 0.9-7.7 1.4q-3.9 0.6-7.8 1z"/>
				</g>
				<g id="&lt;Group&gt;">
					<path id="&lt;Path&gt;" class="s7" d="m518.7 205.1c-6.8 3.4-13.6 6.9-20.6 10-3.5 1.5-7 3-10.6 4.2-3.6 1.3-7.3 2.4-11 3.2l0.1-0.3 0.8 6.7 0.8 6.8-1-6.7-1-6.7c0-0.1 0.1-0.2 0.2-0.2q5.5-1.4 10.9-3.3 5.4-2 10.6-4.2c3.5-1.5 7-3.1 10.4-4.7 3.5-1.7 6.9-3.3 10.4-4.8z"/>
				</g>
				<g id="&lt;Group&gt;">
					<g id="&lt;Group&gt;">
						<path id="&lt;Path&gt;" class="s12" d="m512.1 135.2l0.9 11.2 3.9 0.7c0 0-1.4 6.3-10.6 6.3-9.2 0.1-10.4-6.3-10.4-6.3l1-0.2q0.7-0.2 1.5-0.2l1.2-0.2c0.5-3.7 0.6-7.1 1.1-11.4"/>
					</g>
					<path id="&lt;Path&gt;" class="s12" d="m491.3 108.7c-1.1 6.7 0.2 16.8 1.7 22.1 0.6 2.1 1.3 4.4 2.7 6.1 6.9 8.6 16.1 5.7 19 3.7 2.4-1.6 4.2-3.7 5.3-6.4 2.7-6.6 3.7-14 3-21.1 0 0-0.6-16.3-17.5-14.9 0 0-12.3-0.6-14.2 10.5z"/>
					<path id="&lt;Path&gt;" class="s7" d="m500 140.7c4.6 2.8 9.5 2.1 12.6 1 0 0-0.9 2-6.4 1.8-5-0.2-6.2-2.8-6.2-2.8z"/>
					<g id="&lt;Group&gt;">
						<path id="&lt;Path&gt;" class="s7" d="m498.2 127.1c0 0.6 0.5 1 1.1 1 0.6-0.1 1-0.6 1-1.2-0.1-0.6-0.6-1-1.2-1-0.6 0.1-1 0.6-0.9 1.2z"/>
						<path id="&lt;Path&gt;" class="s7" d="m514.3 127.1c0 0.6 0.6 1 1.1 1 0.6-0.1 1.1-0.6 1-1.2 0-0.6-0.5-1-1.1-1-0.6 0.1-1.1 0.6-1 1.2z"/>
						<g id="&lt;Group&gt;">
							<path id="&lt;Path&gt;" class="s7" d="m501.7 124c-2.1-0.3-4.2 0.1-6 1.2-0.1 0-0.2 0-0.3-0.1 0-0.1 0-0.2 0.1-0.3 1.7-1.5 4.2-1.9 6.3-1.1 0.1 0 0.1 0.1 0.1 0.2 0 0.1-0.1 0.2-0.2 0.1z"/>
						</g>
						<g id="&lt;Group&gt;">
							<path id="&lt;Path&gt;" class="s7" d="m512.4 124c2-1 4.6-0.7 6.4 0.7 0.1 0.1 0.1 0.2 0 0.3 0 0.1-0.2 0.1-0.2 0-1.9-0.9-4-1.2-6.1-0.7-0.1 0-0.2 0-0.2-0.1 0-0.1 0-0.2 0.1-0.2z"/>
						</g>
						<path id="&lt;Path&gt;" class="s15" d="m508.3 123.4c0.4 2 0.3 4.1 0.4 6.1 0 0.1 0 0.2-0.1 0.3-0.1 0.2-0.4 0.2-0.7 0.2q-0.7 0-1.4 0c-0.2 0-0.5 0-0.6-0.1-0.1-0.1-0.1-0.2-0.1-0.3q-0.1-3 0.6-6c0-0.2 0-0.4 0.2-0.5 0.2-0.3 0.7-0.4 1-0.3 0 0 0.6 0.2 0.7 0.6z"/>
						<g id="&lt;Group&gt;">
							<path id="&lt;Path&gt;" class="s7" d="m509.6 131.3c-0.4 0.4-1 0.6-1.6 0.8-0.6 0.1-1.2 0-1.8-0.2q-0.1-0.1-0.1-0.2 0.1-0.1 0.2 0c1.1 0.2 2.2 0 3.2-0.6q0 0 0.1 0 0 0.1 0 0.2z"/>
						</g>
					</g>
					<path id="&lt;Path&gt;" class="s7" d="m489.9 117.1q-0.3-2.6-0.1-5.2c0.2-4.4 2.7-14.4 15.6-15 2.4-0.2 4.9 0 7.2 0.7 2.3 0.7 4.4 2.1 5.8 4.1 0 0 1 1 0.3 2.8-0.2 0.6-0.5 1.1-0.6 1.6-0.2 0.9-0.5 1.7-0.8 2.5-0.5 1-1.3 1.9-2.1 2.7-6.6 6.8-14.8 9.4-24.1 11.4-0.5-2.2-1-3.3-1.2-5.6z"/>
					<g id="&lt;Group&gt;">
						<path id="&lt;Path&gt;" class="s12" d="m492.9 127.6c-0.5 0.7-1.5 0.9-2.2 0.6-0.6-0.2-1.1-0.6-1.5-1.2-1-1.3-1.6-3-1.2-4.7 0.1-0.4 0.3-0.8 0.6-1 0.6-0.5 1.4-0.4 2-0.1 0.4 0.2 1 0.8 1.5 1.6"/>
						<g id="&lt;Group&gt;">
							<g id="&lt;Group&gt;">
								<path id="&lt;Path&gt;" class="s7" d="m489.5 122.6c0.8 0.2 1.4 0.7 2 1.2 0.5 0.6 0.9 1.2 1.1 2q0 0.1 0 0.1-0.1 0-0.2 0c-0.3-0.7-0.7-1.3-1.2-1.9-0.5-0.5-1.1-0.9-1.8-1.2q0-0.1 0-0.2 0-0.1 0.1 0z"/>
							</g>
							<g id="&lt;Group&gt;">
								<path id="&lt;Path&gt;" class="s7" d="m491.6 124.2c-0.3 0.5-0.5 0.9-0.6 1.4-0.1 0.4-0.1 0.9-0.1 1.4q0 0.1-0.1 0.1-0.1 0-0.1-0.1c-0.2-0.5-0.1-1 0-1.5 0.1-0.5 0.4-1 0.7-1.4q0.1 0 0.2 0 0 0.1 0 0.1z"/>
							</g>
						</g>
					</g>
					<path id="&lt;Path&gt;" class="s7" d="m523.7 123.3c2.6-4 2.2-9.3 0.9-14-0.5-1.9-1.3-3.9-2.6-5.4-4.1-4.9-11.7-1.4-9.9 4.8 1.6 5.3 6.2 12.6 11.6 14.6z"/>
					<g id="&lt;Group&gt;">
						<path id="&lt;Path&gt;" class="s12" d="m521.7 127.7c0.5 0.6 1.5 0.9 2.2 0.6 0.6-0.2 1.1-0.7 1.5-1.2 1-1.3 1.6-3.1 1.2-4.7-0.1-0.4-0.3-0.8-0.6-1-0.6-0.5-1.4-0.5-2-0.2-0.4 0.3-1 0.9-1.5 1.7"/>
						<g id="&lt;Group&gt;">
							<g id="&lt;Group&gt;">
								<path id="&lt;Path&gt;" class="s7" d="m525.1 122.8c-0.6 0.4-1.2 0.8-1.7 1.3-0.5 0.5-0.9 1.2-1.2 1.8q-0.1 0.1-0.2 0.1-0.1-0.1 0-0.1c0.2-0.8 0.6-1.5 1.1-2 0.6-0.6 1.2-1 2-1.3q0.1 0 0.1 0.1 0 0.1-0.1 0.1z"/>
							</g>
							<g id="&lt;Group&gt;">
								<path id="&lt;Path&gt;" class="s7" d="m523.2 124.2c0.3 0.4 0.6 0.9 0.7 1.4 0.1 0.5 0.2 1 0 1.5q0 0.1-0.1 0.1-0.1 0-0.1-0.1c0-0.5 0-1-0.1-1.5-0.1-0.4-0.4-0.9-0.6-1.3q0-0.1 0-0.1 0.1-0.1 0.2 0z"/>
							</g>
						</g>
					</g>
				</g>
			</g>
			<g id="&lt;Group&gt;">
				<path id="&lt;Path&gt;" class="s16" d="m344.8 292.3c0 1.4-9.4 2.6-21 2.6-11.6 0-21-1.2-21-2.6 0-1.4 9.4-2.6 21-2.6 11.6 0 21 1.2 21 2.6z"/>
				<path id="&lt;Path&gt;" class="s7" d="m327.2 290.5h-5.6v-204.9h5.6z"/>
				<path id="&lt;Path&gt;" class="s17" d="m355.6 100.6c0 0-33.4 7-62.4 0l22.6-47.8h17.3z"/>
				<path id="&lt;Path&gt;" class="s18" d="m337.8 292.6h-28.1v-5.7h28.1z"/>
				<g id="&lt;Group&gt;">
					<path id="&lt;Path&gt;" class="s11" d="m330.1 56.7q1.8 5.2 3.5 10.4l3.4 10.5 3.2 10.4c1.1 3.5 2.1 7.1 3.1 10.6 0.1 0.2-0.1 0.5-0.3 0.6-0.3 0-0.5-0.1-0.6-0.3-1.2-3.5-2.4-7-3.5-10.4l-3.3-10.5-3.3-10.5q-1.5-5.2-3-10.5c-0.1-0.3 0-0.5 0.3-0.6 0.2 0 0.4 0.1 0.5 0.3z"/>
				</g>
				<g id="&lt;Group&gt;">
					<path id="&lt;Path&gt;" class="s11" d="m325.1 57.9q0.2 5.3 0.3 10.5l0.1 10.4-0.1 10.4c0 3.5-0.1 6.9-0.2 10.4 0 0.3-0.3 0.5-0.5 0.4-0.3 0-0.5-0.2-0.5-0.4-0.1-3.5-0.1-6.9-0.2-10.4v-10.4-10.4q0.1-5.2 0.3-10.5c0-0.2 0.2-0.4 0.4-0.4 0.2 0 0.4 0.2 0.4 0.4z"/>
				</g>
				<g id="&lt;Group&gt;">
					<path id="&lt;Path&gt;" class="s11" d="m319.4 58.1q-1.4 5-2.9 10l-2.9 10-3.2 9.9c-1 3.3-2.1 6.5-3.3 9.8 0 0.3-0.3 0.4-0.5 0.3-0.3-0.1-0.4-0.3-0.3-0.6 0.9-3.3 1.8-6.6 2.8-9.9l3-10 3.2-9.9q1.6-4.9 3.3-9.8c0-0.2 0.3-0.4 0.5-0.3 0.2 0.1 0.3 0.3 0.3 0.5z"/>
				</g>
			</g>
		</g>
		<g id="&lt;Group&gt;">
			<g id="&lt;Group&gt;">
				<g id="&lt;Group&gt;">
					<g id="&lt;Group&gt;">
						<g id="&lt;Group&gt;">
							<g id="&lt;Group&gt;">
								<g id="&lt;Group&gt;">
								</g>
							</g>
						</g>
						<g id="&lt;Group&gt;">
							<g id="&lt;Group&gt;">
								<g id="&lt;Group&gt;">
								</g>
								<g id="&lt;Group&gt;">
								</g>
							</g>
						</g>
						<g id="&lt;Group&gt;">
							<g id="&lt;Group&gt;">
								<g id="&lt;Group&gt;">
								</g>
							</g>
						</g>
					</g>
					<g id="&lt;Group&gt;">
					</g>
					<g id="&lt;Group&gt;">
					</g>
				</g>
			</g>
			<g id="&lt;Group&gt;" style="mix-blend-mode: multiply">
			</g>
			<g id="&lt;Group&gt;" style="mix-blend-mode: multiply">
			</g>
			<g id="&lt;Group&gt;">
				<g id="&lt;Group&gt;">
					<g id="&lt;Group&gt;">
					</g>
					<g id="&lt;Group&gt;">
					</g>
					<g id="&lt;Group&gt;">
					</g>
					<g id="&lt;Group&gt;">
					</g>
				</g>
				<g id="&lt;Group&gt;">
				</g>
				<g id="&lt;Group&gt;">
					<g id="&lt;Group&gt;">
					</g>
					<g id="&lt;Group&gt;">
						<g id="&lt;Group&gt;">
						</g>
						<g id="&lt;Group&gt;">
						</g>
						<g id="&lt;Group&gt;">
						</g>
					</g>
					<g id="&lt;Group&gt;">
					</g>
					<g id="&lt;Group&gt;">
						<g id="&lt;Group&gt;">
							<g id="&lt;Group&gt;">
							</g>
							<g id="&lt;Group&gt;">
							</g>
						</g>
					</g>
				</g>
				<g id="&lt;Group&gt;">
				</g>
			</g>
			<g id="&lt;Group&gt;">
				<g id="&lt;Group&gt;">
				</g>
				<g id="&lt;Group&gt;">
					<g id="&lt;Group&gt;">
					</g>
					<g id="&lt;Group&gt;">
					</g>
					<g id="&lt;Group&gt;">
					</g>
				</g>
			</g>
			<g id="&lt;Group&gt;">
			</g>
			<g id="&lt;Group&gt;">
				<g id="&lt;Group&gt;">
				</g>
			</g>
		</g>
	</g>
</svg>