<svg xmlns="http://www.w3.org/2000/svg" version="1.2" viewBox="1210.03 548.2 2019.97 1451.8">
	<title>home-background-svg</title>
	<style>
		.s0 { fill: #b3c5ff } 
		.s1 { fill: #0c0861 } 
		.s2 { fill: #7f95db } 
		.s3 { fill: #95a6db } 
		.s4 { fill: #c9d6ff } 
		.s5 { fill: #0b0754 } 
		.s6 { fill: #6a86ce } 
		.s7 { fill: #060534 } 
		.s8 { fill: #3662c1 } 
		.s9 { fill: #fb9491 } 
		.s10 { fill: #f589a3 } 
		.s11 { fill: #e85348 } 
		.s12 { fill: #ffffff } 
		.s13 { fill: #607edb } 
		.s14 { fill: #4a6edb } 
		.s15 { fill: #fd7166 } 
		.s16 { fill: #000000 } 
		.s17 { fill: #d65736 } 
		.s18 { fill: #db6258 } 
		.s19 { fill: #fd857c } 
		.s20 { fill: #0f0970 } 
		.s21 { fill: #ebebeb } 
		.s22 { fill: #dbdbdb } 
		.s23 { fill: #d15432 } 
		.s24 { fill: #ce502e } 
		.s25 { fill: #090647 } 
	</style>
	<g id="Слой 2">
		<g id="&lt;Group&gt;">
			<g id="&lt;Group&gt;">
			</g>
			<g id="&lt;Group&gt;">
				<g id="&lt;Group&gt;">
				</g>
			</g>
			<g id="&lt;Group&gt;">
			</g>
			<g id="&lt;Group&gt;">
			</g>
			<g id="&lt;Group&gt;">
			</g>
		</g>
		<g id="&lt;Group&gt;">
			<g id="&lt;Group&gt;">
				<path id="&lt;Path&gt;" fill-rule="evenodd" class="s0" d="m2552.6 1395.4h-41.1v-134.6l18.6-29.4c0.9-1.4 3-1.4 3.9 0l18.6 29.4z"/>
				<path id="&lt;Path&gt;" fill-rule="evenodd" class="s0" d="m2471.4 1395.4h-41.1v-134.6l18.6-29.4c0.9-1.4 3-1.4 3.9 0l18.6 29.4z"/>
				<path id="&lt;Path&gt;" fill-rule="evenodd" class="s0" d="m2390.2 1395.4h-41.1v-134.6l18.6-29.4c0.9-1.4 3-1.4 3.9 0l18.6 29.4z"/>
				<path id="&lt;Path&gt;" fill-rule="evenodd" class="s0" d="m2309 1395.4h-41.1v-134.6l18.6-29.4c0.9-1.4 3-1.4 3.9 0l18.6 29.4z"/>
				<path id="&lt;Path&gt;" fill-rule="evenodd" class="s0" d="m2227.8 1395.4h-41.1v-134.6l18.6-29.4c0.9-1.4 3-1.4 3.9 0l18.6 29.4z"/>
				<path id="&lt;Path&gt;" fill-rule="evenodd" class="s0" d="m2146.6 1395.4h-41.1v-134.6l18.6-29.4c0.9-1.4 3-1.4 3.9 0l18.6 29.4z"/>
				<path id="&lt;Path&gt;" fill-rule="evenodd" class="s0" d="m2065.4 1395.4h-41.1v-134.6l18.6-29.4c0.9-1.4 3-1.4 3.9 0l18.6 29.4z"/>
				<path id="&lt;Path&gt;" fill-rule="evenodd" class="s0" d="m1984.2 1395.4h-41.1v-134.6l18.6-29.4c0.9-1.4 3-1.4 3.9 0l18.6 29.4z"/>
				<path id="&lt;Path&gt;" fill-rule="evenodd" class="s0" d="m1903 1395.4h-41.1v-134.6l18.6-29.4c0.9-1.4 3-1.4 3.9 0l18.6 29.4z"/>
				<path id="&lt;Path&gt;" fill-rule="evenodd" class="s0" d="m1821.8 1395.4h-41.1v-134.6l18.6-29.4c0.9-1.4 3-1.4 4 0l18.5 29.4z"/>
				<path id="&lt;Path&gt;" fill-rule="evenodd" class="s0" d="m1740.6 1395.4h-41.1v-134.6l18.6-29.4c0.9-1.4 3-1.4 4 0l18.5 29.4z"/>
				<path id="&lt;Path&gt;" fill-rule="evenodd" class="s0" d="m1659.4 1395.4h-41.1v-134.6l18.6-29.4c0.9-1.4 3-1.4 4 0l18.5 29.4z"/>
				<path id="&lt;Path&gt;" fill-rule="evenodd" class="s0" d="m1497 1395.4h-41.1v-134.6l18.6-29.4c0.9-1.4 3-1.4 4 0l18.5 29.4z"/>
				<path id="&lt;Path&gt;" fill-rule="evenodd" class="s0" d="m2540.6 1311.4v21.1h-1095.1v-21.1z"/>
			</g>
			<g id="&lt;Group&gt;">
				<g id="&lt;Group&gt;">
					<path id="&lt;Path&gt;" fill-rule="evenodd" class="s1" d="m2559.3 1112l79.5 1.6 81.9-319.2-52.2-33.7z"/>
				</g>
				<g id="&lt;Group&gt;">
					<path id="&lt;Path&gt;" fill-rule="evenodd" class="s2" d="m3230 1083.1v318h-438.9v-318z"/>
				</g>
				<g id="&lt;Group&gt;">
					<path id="&lt;Path&gt;" fill-rule="evenodd" class="s3" d="m2580.5 1114.6v286.5h210.6v-310.6l-110-290.6z"/>
				</g>
				<path id="&lt;Path&gt;" fill-rule="evenodd" class="s1" d="m3230 760.7v334.1h-442l-81.6-228.1-2.5-7-35.4-99z"/>
				<g id="&lt;Group&gt;">
					<path id="&lt;Path&gt;" fill-rule="evenodd" class="s4" d="m2957.3 1170.2v143.8h-73.9v-143.8z"/>
					<path id="&lt;Path&gt;" fill-rule="evenodd" class="s4" d="m3120.5 1170.2v143.8h-81.7v-143.8z"/>
					<path id="&lt;Path&gt;" fill-rule="evenodd" class="s4" d="m2718.9 1170.2v143.8h-81.6v-143.8z"/>
				</g>
				<path id="&lt;Path&gt;" fill-rule="evenodd" class="s4" d="m2685.9 1060.4c-12.7 0-22.9-10.2-22.9-22.8 0-12.6 10.2-22.8 22.9-22.8 12.6 0 22.8 10.2 22.8 22.8 0 12.6-10.2 22.8-22.8 22.8z"/>
				<g id="&lt;Group&gt;">
					<path id="&lt;Path&gt;" fill-rule="evenodd" class="s5" d="m3174.6 845.4h-72.5l-38-58.5v-83.6h110.5z"/>
					<path id="&lt;Path&gt;" fill-rule="evenodd" class="s5" d="m3189.3 693.9v30.9h-139.8v-30.9z"/>
				</g>
			</g>
			<path id="&lt;Path&gt;" fill-rule="evenodd" class="s6" d="m2098.5 1388.8q0 3.3 0.4 6.6h187.6c0-23.4-19-42.4-42.4-42.4-11.9 0-22.6 5-30.3 12.9-9-21.7-30.4-37-55.4-37-33.1 0-59.9 26.8-59.9 59.9z"/>
			<path id="&lt;Path&gt;" fill-rule="evenodd" class="s6" d="m3230 1387.5v7.9h-224.6c0-28 22.6-50.6 50.5-50.6 14.3 0 27.1 5.9 36.3 15.3 10.8-25.9 36.3-44.2 66.2-44.2 29.2 0 54.3 17.5 65.5 42.6 3.9 8.9 6.1 18.7 6.1 29z"/>
			<g id="&lt;Group&gt;">
				<path id="&lt;Path&gt;" fill-rule="evenodd" class="s6" d="m2809.5 1641.7c3.5 13.6 15.8 34.6 15.8 34.6 0 0 0.8-24.3-2.7-38-3.5-13.6-8.9-23.9-12.9-22.9-4 1-3.7 12.7-0.2 26.3z"/>
				<path id="&lt;Path&gt;" fill-rule="evenodd" class="s6" d="m2797.1 1659.2c8.4 8.9 26.8 19.5 26.8 19.5 0 0-9.9-18.8-18.3-27.6-8.5-8.9-17-14.5-19.6-12-2.6 2.5 2.6 11.3 11.1 20.1z"/>
				<path id="&lt;Path&gt;" fill-rule="evenodd" class="s6" d="m2862.5 1693.3c-13.7-3.2-34.9-15.2-34.9-15.2 0 0 24.4-1.2 38 2.1 13.7 3.2 24.2 8.4 23.2 12.5-0.9 4-12.6 3.9-26.3 0.6z"/>
				<path id="&lt;Path&gt;" fill-rule="evenodd" class="s6" d="m2845.2 1706.1c-9-8.3-20-26.5-20-26.5 0 0 19 9.5 28 17.8 9 8.3 14.7 16.7 12.3 19.4-2.5 2.6-11.3-2.4-20.3-10.7z"/>
				<path id="&lt;Path&gt;" fill-rule="evenodd" class="s7" d="m2812.7 1685.5c-10.6 10.7-19.1 19.5-16.9 21.6 2.1 2.2 10.7-6.5 21.3-17.2 10.6-10.8 19.1-19.5 16.9-21.7-2.2-2.1-10.8 6.6-21.3 17.3z"/>
				<path id="&lt;Path&gt;" fill-rule="evenodd" class="s7" d="m2831.9 1663.2c-1.9 2-1.9 5.2 0.1 7.1 1.9 2 5.1 1.9 7.1 0 1.9-2 1.9-5.2-0.1-7.1-2-2-5.2-2-7.1 0z"/>
			</g>
			<g id="&lt;Group&gt;">
				<path id="&lt;Path&gt;" fill-rule="evenodd" class="s8" d="m3187.1 2000h-17.3c-9-15.4-19.8-31.1-33.4-47.8-24.8-30.4-54.7-58.2-89.7-81.7-20.8-13.8-43.7-26-68.2-35.8-23.1-9.4-51.6-17.6-81.5-22.3-9.8-1.5-18.8-2.5-28.5-3.4-0.8 0-1.4-0.7-1.4-1.5 0-1 0.8-1.7 1.6-1.6 9.4 0.5 18.9 1.3 28.2 2.4 30.6 3.8 59.5 10.9 87.1 21.2 22.5 8.4 45.3 19.5 67.7 33.3 35.6 22.2 67.3 49.6 94.2 80.5 19.1 21.9 34.1 43.8 41.2 56.7z"/>
				<path id="&lt;Path&gt;" fill-rule="evenodd" class="s8" d="m2848 1787.4c14.5 4.2 21.8 22.8 21.8 22.8 0 0-16.1 11.8-30.6 7.6-14.5-4.2-21.9-22.8-21.9-22.8 0 0 16.2-11.8 30.7-7.6z"/>
				<path id="&lt;Path&gt;" fill-rule="evenodd" class="s8" d="m2896.9 1777.6c7.4 13.2-0.3 31.6-0.3 31.6 0 0-19.8-2.9-27.2-16-7.4-13.2 0.3-31.6 0.3-31.6 0 0 19.8 2.9 27.2 16z"/>
				<path id="&lt;Path&gt;" fill-rule="evenodd" class="s8" d="m2866.5 1818.7c10.2-11.1 30.1-9.5 30.1-9.5 0 0 3.4 19.7-6.8 30.8-10.2 11.1-30.1 9.5-30.1 9.5 0 0-3.4-19.7 6.8-30.8z"/>
				<path id="&lt;Path&gt;" fill-rule="evenodd" class="s8" d="m2945.8 1782c4 17.5-11 35.8-11 35.8 0 0-21.5-10-25.5-27.5-4-17.4 11.1-35.8 11.1-35.8 0 0 21.5 10 25.4 27.5z"/>
				<path id="&lt;Path&gt;" fill-rule="evenodd" class="s8" d="m2901.4 1835c9.7-15.1 33.4-17.2 33.4-17.2 0 0 7.9 22.4-1.9 37.5-9.7 15.1-33.3 17.1-33.3 17.1 0 0-7.9-22.3 1.8-37.4z"/>
				<path id="&lt;Path&gt;" fill-rule="evenodd" class="s8" d="m3000.6 1795.6c0.1 21.6-22.4 39.3-22.4 39.3 0 0-22.7-17.4-22.8-39-0.2-21.7 22.4-39.4 22.4-39.4 0 0 22.7 17.5 22.8 39.1z"/>
				<path id="&lt;Path&gt;" fill-rule="evenodd" class="s8" d="m2939.8 1858.9c10.2-19.1 38.4-24 38.4-24 0 0 11.8 26.1 1.6 45.2-10.1 19.1-38.4 24-38.4 24 0 0-11.7-26.1-1.6-45.2z"/>
				<path id="&lt;Path&gt;" fill-rule="evenodd" class="s8" d="m3049.6 1818.6c-5 21.1-31 33-31 33 0 0-18-22.2-13.1-43.3 5-21.1 31-33 31-33 0 0 18 22.3 13.1 43.3z"/>
				<path id="&lt;Path&gt;" fill-rule="evenodd" class="s8" d="m2984.3 1881.2c7.2-20.5 34.3-29.6 34.3-29.6 0 0 15.6 24 8.4 44.5-7.1 20.4-34.2 29.5-34.2 29.5 0 0-15.6-24-8.5-44.4z"/>
				<path id="&lt;Path&gt;" fill-rule="evenodd" class="s8" d="m3097.4 1844.1c-5 21-31 32.9-31 32.9 0 0-18-22.2-13.1-43.3 5-21.1 31-33 31-33 0 0 18 22.3 13.1 43.4z"/>
				<path id="&lt;Path&gt;" fill-rule="evenodd" class="s8" d="m3028.3 1901.5c12.4-17.8 41-19.2 41-19.2 0 0 8.5 27.3-3.8 45-12.4 17.8-41 19.3-41 19.3 0 0-8.5-27.3 3.8-45.1z"/>
				<path id="&lt;Path&gt;" fill-rule="evenodd" class="s8" d="m3148.8 1885.1c-4.9 21.1-31 33-31 33 0 0-18-22.3-13-43.3 4.9-21.1 31-33 31-33 0 0 18 22.3 13 43.3z"/>
				<path id="&lt;Path&gt;" fill-rule="evenodd" class="s8" d="m3074 1933.3c17.4-12.9 45-5.2 45-5.2 0 0-0.6 28.6-18 41.5-17.3 13-44.9 5.3-44.9 5.3 0 0 0.6-28.6 17.9-41.6z"/>
				<path id="&lt;Path&gt;" fill-rule="evenodd" class="s8" d="m3160.4 1979.1c0 0-0.2 1-0.8 2.7q-0.1 0.6-0.3 1.3c-1.4 4-3.9 10.5-8 16.9h-58.1c3.9-8.7 10.9-20.1 22.2-25.2 10.7-4.9 23.1-3.2 32.1-0.6q0.1 0 0.1 0c2.8 0.8 5.3 1.7 7.3 2.4 3.4 1.4 5.5 2.5 5.5 2.5z"/>
			</g>
			<g id="&lt;Group&gt;">
				<path id="&lt;Path&gt;" fill-rule="evenodd" class="s5" d="m3230 1876.4v61.3c-13-65.5-49-147.3-98.7-211.8-24.3-31.9-53.4-61.6-87-88.2-24.5-19.2-50.1-35.8-76.3-50-0.8-0.4-3-1.3-1.8-3.4 0.5-1 1.8-1.4 2.8-0.9 26.9 13.4 53.9 29.6 79.4 48.5 33.6 24.6 65.1 54.6 92.8 88.4 37.5 46.1 67.7 99.6 88.8 156.1z"/>
				<path id="&lt;Path&gt;" fill-rule="evenodd" class="s5" d="m2953.1 1549.2c15.8 13.1 14.9 40.2 14.9 40.2 0 0-26.4 5.9-42.2-7.2-15.8-13-14.9-40.1-14.9-40.1 0 0 26.4-5.9 42.2 7.1z"/>
				<path id="&lt;Path&gt;" fill-rule="evenodd" class="s5" d="m3019.3 1563.5c2.2 20.4-17.4 39.1-17.4 39.1 0 0-23-14.3-25.2-34.6-2.1-20.4 17.4-39.1 17.4-39.1 0 0 23.1 14.2 25.2 34.6z"/>
				<path id="&lt;Path&gt;" fill-rule="evenodd" class="s5" d="m2959.3 1598.1c18.7-8.3 42.6 4.5 42.6 4.5 0 0-6.4 26.3-25.2 34.7-18.7 8.3-42.5-4.5-42.5-4.5 0 0 6.4-26.3 25.1-34.7z"/>
				<path id="&lt;Path&gt;" fill-rule="evenodd" class="s5" d="m3077.9 1595.4c-4.5 23.9-33.2 38.6-33.2 38.6 0 0-21.3-24.1-16.8-48 4.5-23.9 33.1-38.6 33.1-38.6 0 0 21.4 24.1 16.9 48z"/>
				<path id="&lt;Path&gt;" fill-rule="evenodd" class="s5" d="m2994 1637.3c20.2-13.5 50.7-3.3 50.7-3.3 0 0-2.3 32.1-22.5 45.6-20.2 13.5-50.8 3.3-50.8 3.3 0 0 2.3-32.1 22.6-45.6z"/>
				<path id="&lt;Path&gt;" fill-rule="evenodd" class="s5" d="m3138.7 1641.9c-11.5 27-49.1 36.8-49.1 36.8 0 0-18.9-33.9-7.4-60.9 11.6-27 49.2-36.8 49.2-36.8 0 0 18.8 33.9 7.3 60.9z"/>
				<path id="&lt;Path&gt;" fill-rule="evenodd" class="s5" d="m3028.9 1687.8c22.9-18.3 60.7-9.1 60.7-9.1 0 0 0.5 38.9-22.5 57.2-23 18.3-60.7 9.1-60.7 9.1 0 0-0.5-38.9 22.5-57.2z"/>
				<path id="&lt;Path&gt;" fill-rule="evenodd" class="s5" d="m3187.2 1697.1c-17.6 23.5-56.4 24.2-56.4 24.2 0 0-10.4-37.4 7.2-60.9 17.5-23.6 56.4-24.3 56.4-24.3 0 0 10.3 37.4-7.2 61z"/>
				<path id="&lt;Path&gt;" fill-rule="evenodd" class="s5" d="m3072.2 1739.6c19.9-21.6 58.6-18.3 58.6-18.3 0 0 6.4 38.4-13.5 59.9-20 21.6-58.7 18.3-58.7 18.3 0 0-6.4-38.4 13.6-59.9z"/>
				<path id="&lt;Path&gt;" fill-rule="evenodd" class="s5" d="m3230 1694.5v63.5c-13.9 15.1-37 19.2-47.7 20.4-3.6 0.4-5.8 0.4-5.8 0.4 0 0-1.5-5.4-2.4-13.3-1.5-13.1-1.3-33.1 9.6-47.7 11.9-15.9 33.6-21.4 46.3-23.3z"/>
				<path id="&lt;Path&gt;" fill-rule="evenodd" class="s5" d="m3115.9 1788.7c25-15.4 61.4-1.8 61.4-1.8 0 0-4.1 38.6-29.1 54-25 15.5-61.4 1.9-61.4 1.9 0 0 4.1-38.7 29.1-54.1z"/>
				<path id="&lt;Path&gt;" fill-rule="evenodd" class="s5" d="m3230 1791.7v64.8c-2.9 0.5-5.5 0.8-7.5 1-2.6 0.2-4.1 0.2-4.1 0.2 0 0-1.9-6.6-2.7-16.1-1.1-13-0.3-31.2 9.8-44.8q2.1-2.8 4.5-5.1z"/>
				<path id="&lt;Path&gt;" fill-rule="evenodd" class="s5" d="m3155.6 1853c28.6-6.7 58.7 17.8 58.7 17.8 0 0-16.1 35.3-44.7 42-28.6 6.7-58.8-17.8-58.8-17.8 0 0 16.2-35.3 44.8-42z"/>
				<path id="&lt;Path&gt;" fill-rule="evenodd" class="s5" d="m3230 1947.9v18.1c-9.3 9.2-25.5 22-44.3 22.3q-2.4 0-4.7-0.2c-7.3-0.7-14.1-3.1-20.3-6.3q-0.9-0.4-1.9-0.9 0-0.1 0-0.1c-3.7-2-7.1-4.3-10.2-6.6-10.2-7.7-16.6-15.7-16.6-15.7 0 0 2-2.6 5.5-6.3 2.4-2.6 5.6-5.7 9.4-8.9 9.5-8 22.9-16.1 37.8-16.4 18.9-0.3 35.7 12.1 45.3 21z"/>
			</g>
			<path id="&lt;Path&gt;" fill-rule="evenodd" class="s3" d="m1555.1 657.8h-339.5c-4.1 0-6.8-4.4-5-8.1 10.8-21.9 33.3-37 59.4-37 7.1 0 14 1.2 20.5 3.3q-0.2-2.8-0.2-5.6c0-34.3 27.8-62.2 62.2-62.2 24.3 0 45.3 14 55.6 34.3q5.7-0.9 11.7-0.9c27.8 0 51.8 15.9 63.5 39.1 8-5 17.4-8 27.6-8 23.7 0 43.7 16.1 49.7 38 0.9 3.6-1.8 7.1-5.5 7.1z"/>
			<path id="&lt;Path&gt;" fill-rule="evenodd" class="s3" d="m2350 732h248.6c3 0 5-3.2 3.6-6-7.9-16-24.3-27-43.4-27-5.2 0-10.3 0.8-15 2.4q0.1-2 0.1-4.1c0-25.2-20.3-45.6-45.5-45.6-17.8 0-33.2 10.3-40.7 25.2q-4.2-0.7-8.6-0.7c-20.3 0-37.9 11.6-46.5 28.6-5.8-3.7-12.7-5.8-20.1-5.8-17.4 0-32.1 11.8-36.4 27.8-0.7 2.6 1.2 5.2 3.9 5.2z"/>
			<path id="&lt;Path&gt;" fill-rule="evenodd" class="s3" d="m1761.3 736.8c-11.1-18.6-31.2-23.5-50.4-29.5 18.7 11.3 38.7 22.7 53.2 38.6 5.1-18.5 8.8-35.5 16.9-54-14.9 13-15.5 24.9-19.7 44.9z"/>
			<path id="&lt;Path&gt;" fill-rule="evenodd" class="s3" d="m1843 649c-8.3-13.9-23.4-17.5-37.6-22 13.9 8.4 28.8 16.9 39.6 28.8 3.8-13.8 6.6-26.5 12.6-40.3-11.1 9.7-11.5 18.6-14.6 33.5z"/>
			<g id="&lt;Group&gt;">
				<g id="&lt;Group&gt;">
					<path id="&lt;Path&gt;" fill-rule="evenodd" class="s9" d="m1346.6 1678.3c-2.9 48.2-4.1 103.4-4.9 140.8 17.3 13.5 33.8 3.1 33.8 3.1 0 0 23.9-78.7 27-149.4-28.7-5.2-55.9 5.5-55.9 5.5z"/>
					<path id="&lt;Path&gt;" fill-rule="evenodd" class="s8" d="m1341.7 1819.4c-3.1 4.7-3.8 14.8-3.6 21.8 0.1 3.5 2.9 6.3 6.5 6.3h75.2c0-15.8-17.6-21.5-44.3-25.3-21.1-2.2-33.8-2.8-33.8-2.8z"/>
					<path id="&lt;Path&gt;" fill-rule="evenodd" class="s9" d="m1341.7 1819.4c3.3 11.7 38.8 13.6 45.6 11.7 6.7-2-7.6-6.5-11.8-8.9-3.2-1.8-33.8-2.8-33.8-2.8z"/>
					<path id="&lt;Path&gt;" fill-rule="evenodd" class="s9" d="m1419.8 1691.9c3.9 45.4 8.7 91.6 10.9 127.2 17.3 13.5 33.8 3.1 33.8 3.1 0 0 3.4-56 11.7-130.3-28.7-5.1-56.4 0-56.4 0z"/>
					<path id="&lt;Path&gt;" fill-rule="evenodd" class="s8" d="m1430.7 1819.4c-3.1 4.7-3.8 14.8-3.6 21.8 0.1 3.5 2.9 6.3 6.4 6.3h75.3c0-15.8-17.6-21.5-44.3-25.3-21.1-2.2-33.8-2.8-33.8-2.8z"/>
					<path id="&lt;Path&gt;" fill-rule="evenodd" class="s9" d="m1430.7 1819.4c3.8 11.7 38.8 13.6 45.5 11.7 6.8-2-7.5-6.5-11.7-8.9-3.2-1.8-33.8-2.8-33.8-2.8z"/>
					<path id="&lt;Path&gt;" fill-rule="evenodd" class="s10" d="m1278.6 1724.7c12.4 4.8 38.7 10.6 71.3 14.7 58 7.2 135.8 8.9 189.7-9.9-1.3-102-25.1-415.6-25.1-415.6l-152.9-6.8-25.2-1.2c-10.4 30-57.8 264.9-57.8 418.8z"/>
					<path id="&lt;Path&gt;" fill-rule="evenodd" class="s11" d="m1278.6 1724.7c12.4 4.8 38.7 10.6 71.3 14.7 4.8-148.9 39.1-412.6 39.1-412.6l-27.4-19.7-25.2-1.2c-10.4 30-57.8 264.9-57.8 418.8z"/>
					<path id="&lt;Path&gt;" fill-rule="evenodd" class="s12" d="m1474.8 889.2c12.3-21.8-8.3-50.5-43.8-45.3-35.5 5.2-46.1 35.6-28.5 47.7 17.6 12.1 72.3-2.4 72.3-2.4z"/>
					<path id="&lt;Path&gt;" fill-rule="evenodd" class="s13" d="m1379.7 1085.8l1.5 230.9 90.2-2.4 15.3-0.4 10.6-49 19.9-91.6-23.2-92.9c-29.6-6.5-84.2 0.7-84.2 0.7z"/>
					<path id="&lt;Path&gt;" fill-rule="evenodd" class="s9" d="m1470.5 888.9c22.6 3.8 52.8 32.5 42.9 88.9-9.9 56.6-40.1 68.9-54.8 67.6-17.9-1.5-57.4-12.1-67.5-60.5-10.1-48.5 1-109.1 79.4-96z"/>
					<path id="&lt;Path&gt;" fill-rule="evenodd" class="s14" d="m1485.3 1222.8l-13.9 91.5 19.2 0.2 6.7-49.6 8-73.8c-18.6 16.2-54.5 26.5-54.5 26.5z"/>
					<path id="&lt;Path&gt;" fill-rule="evenodd" class="s9" d="m1466.9 1035.5c0 0 2.2 42.4 16 42.4-7.5 16.1-38.7 48.7-73.1 3.2 12.2-14.2 13.1-49.9 13.1-49.9z"/>
					<path id="&lt;Path&gt;" fill-rule="evenodd" class="s15" d="m1502.4 1197.2c-3.4 33-15.8 138.3-15.8 138.3l23.2-12c0 0 3.5-65.4 15.8-101.4 12.2-36 22.9-29.6 14.4-61.8 58.6 10.1 125.2 31.6 125.2 31.6 0 0 5.2-2.5 15.1-10.8 8.2-7 13.5-26.7 27.6-43.7-98.3-11.1-182.7-50.9-228-60.3 0 0 37.4 54.2 25.3 100.3-1.3 4.8-2.3 14.7-2.8 19.8z"/>
					<path id="&lt;Path&gt;" fill-rule="evenodd" class="s15" d="m1246.3 1230.2c0.9 30.2 23.6 75.8 70.6 96.4 1.5-4.8 2.9-8.7 4.1-12 3.5-9.2 5.7-12.5 5.7-12.5 0 0-2.2-5.6-5.5-13.5-7.7-18.4-23.4-61.6-26.4-65.8 20.9-18.8 52.5-59.5 53.9-62-0.4 0.7-2.6 5.2-5.2 14.2-5.9 20.2-14 63.4-8.3 138.4 0.3 4.6 6.3 9.5 15 13.4 15.2 6.8 38.9 10.8 55.5 5.9-7.8-74.7 14.1-105.8 6.9-160-7.3-54.8-2.8-91.6-2.8-91.6-21.8-0.6-54.8-5.3-102.2 45.4-47.4 50.8-62.1 75.6-61.3 103.7z"/>
					<path id="&lt;Path&gt;" fill-rule="evenodd" class="s12" d="m1366.5 961.6c1.4 43.4 44.4 79.7 56.7 72-26.3-13.2-22.2-57.1-14.4-69.6 39.8-4 64-35.8 64.3-61.7 0-5.6-10.1-22.7-25.6-23.7-47.2-3.3-73.3 23.1-80.3 71.4q-0.9 5.9-0.7 11.6z"/>
					<path id="&lt;Path&gt;" fill-rule="evenodd" class="s12" d="m1468.7 914.4c4.8 10.2 33.6 40.4 42.9 43.3 1.9 12 2.3 29.9-8.6 54 11.4-6.9 20.7-25.2 22.6-47.2 1.3-14.9-0.8-31.4-8.1-47.1-17.9-38.9-57.8-37.3-59.5-35.5-1.8 1.7 10.7 32.5 10.7 32.5z"/>
					<path id="&lt;Path&gt;" fill-rule="evenodd" class="s16" d="m1442.9 976.1c-0.4 3.3 2 6.3 5.4 6.7 3.3 0.4 6.3-2 6.7-5.4 0.4-3.3-2-6.3-5.4-6.7-3.3-0.4-6.3 2-6.7 5.4z"/>
					<path id="&lt;Path&gt;" fill-rule="evenodd" class="s16" d="m1486.5 983.5c-0.3 3.3 2.1 6.3 5.4 6.7 3.4 0.4 6.4-2 6.8-5.3 0.3-3.4-2.1-6.4-5.4-6.8-3.4-0.4-6.4 2-6.8 5.4z"/>
					<g id="&lt;Group&gt;">
						<path id="&lt;Path&gt;" fill-rule="evenodd" class="s12" d="m1437.5 962.5c0.6 0 1.3-0.2 1.8-0.7 5.8-5.3 15.1-2.6 15.2-2.6 1.5 0.5 3-0.4 3.5-1.9 0.4-1.5-0.4-3-1.9-3.5-0.5-0.1-12.4-3.5-20.5 3.8-1.2 1-1.3 2.8-0.2 4 0.5 0.6 1.3 0.9 2.1 0.9z"/>
					</g>
					<g id="&lt;Group&gt;">
						<path id="&lt;Path&gt;" fill-rule="evenodd" class="s12" d="m1505.5 970.6c0.5 0 1.1-0.1 1.5-0.5 1.2-0.8 1.4-2.4 0.6-3.6-5.3-7.2-16-7.4-16.4-7.4-1.4 0-2.6 1.1-2.6 2.5 0 1.4 1.1 2.6 2.5 2.6 0.2 0 8.6 0.2 12.3 5.4 0.5 0.7 1.3 1 2.1 1z"/>
					</g>
					<g id="&lt;Group&gt;">
						<path id="&lt;Path&gt;" fill-rule="evenodd" class="s17" d="m1467.9 1010.2c2.3-0.3 4.6-1.1 6.2-3.1 4-5.1 0.7-13.6 0.5-14-0.3-0.9-1.4-1.3-2.3-0.9-0.9 0.3-1.3 1.4-0.9 2.3 0.7 1.9 2.2 7.5 0 10.4-2.6 3.3-9.7 1.1-9.8 1-0.9-0.3-1.9 0.2-2.2 1.1-0.3 1 0.2 2 1.1 2.3 0.3 0.1 3.8 1.2 7.4 0.9z"/>
					</g>
					<path id="&lt;Path&gt;" fill-rule="evenodd" class="s12" d="m1442.9 1011.8c-1.4-0.4-2.9 0.7-2.9 2.2 0 5.5 4.8 11.2 11.9 13.6 7.2 2.4 14.5 0.7 17.8-3.8 0.9-1.2 0.3-2.9-1.1-3.4 0 0-6.2-0.3-13.3-2.7-7.3-2.4-12.4-5.9-12.4-5.9z"/>
					<g id="&lt;Group&gt;">
						<g id="&lt;Group&gt;">
							<g id="&lt;Group&gt;">
								<path id="&lt;Compound Path&gt;" fill-rule="evenodd" class="s7" d="m1490.7 1001.3c-9-1.1-15.4-9.2-14.4-18.2 1-9 9.2-15.5 18.2-14.4 4.3 0.5 8.2 2.6 10.9 6.1 2.8 3.4 4 7.7 3.5 12-0.5 4.4-2.7 8.3-6.1 11-2.9 2.3-6.5 3.6-10.2 3.6q-0.9 0-1.9-0.1zm-10.3-17.7c-0.8 6.7 4.1 12.8 10.8 13.6 3.3 0.3 6.5-0.6 9-2.6 2.6-2.1 4.2-5 4.6-8.2 0.4-3.3-0.6-6.5-2.6-9.1-2-2.5-4.9-4.2-8.2-4.5q-0.7-0.1-1.4-0.1c-6.2 0-11.5 4.6-12.2 10.9z"/>
							</g>
						</g>
						<g id="&lt;Group&gt;">
							<g id="&lt;Group&gt;">
								<path id="&lt;Compound Path&gt;" fill-rule="evenodd" class="s7" d="m1447.1 994.4c-4.4-0.5-8.3-2.7-11-6.1-2.7-3.5-3.9-7.7-3.4-12.1 0.4-4.3 2.6-8.2 6-11 3.5-2.7 7.8-3.9 12.1-3.4 4.4 0.5 8.3 2.6 11 6.1 2.7 3.4 4 7.7 3.5 12-0.5 4.4-2.7 8.3-6.1 11-3 2.3-6.5 3.6-10.2 3.6q-1 0-1.9-0.1zm-5.8-25.9c-2.5 2-4.2 4.9-4.5 8.2-0.4 3.2 0.5 6.4 2.5 9 2.1 2.6 5 4.2 8.3 4.6 3.2 0.3 6.4-0.6 9-2.6 2.6-2.1 4.2-5 4.5-8.2 0.4-3.3-0.5-6.5-2.5-9.1-2.1-2.5-5-4.1-8.3-4.5q-0.7-0.1-1.4-0.1c-2.7 0-5.4 0.9-7.6 2.7z"/>
							</g>
						</g>
						<g id="&lt;Group&gt;">
							<path id="&lt;Path&gt;" fill-rule="evenodd" class="s7" d="m1433.1 975.5l1.1-4.7-27.4-6.9-1.1 4.7z"/>
						</g>
						<g id="&lt;Group&gt;">
							<path id="&lt;Path&gt;" fill-rule="evenodd" class="s7" d="m1478.5 983.2l0.6-4.1-15.5-2.3-0.6 4z"/>
						</g>
					</g>
					<path id="&lt;Path&gt;" fill-rule="evenodd" class="s9" d="m1391.4 982.8c3.6 8 11.8 12 18.3 9.1 6.6-3 8.9-11.9 5.2-19.9-3.6-8-11.5-13.3-18-10.3-6.5 2.9-9.2 13.1-5.5 21.1z"/>
					<g id="&lt;Group&gt;">
						<path id="&lt;Path&gt;" fill-rule="evenodd" class="s17" d="m1406.1 985c0.5 0.1 1-0.1 1.4-0.4 1.7-1.6 2.5-3.7 2.3-6.1-0.2-3.8-2.9-8-7.2-11.1-0.8-0.6-1.9-0.4-2.5 0.4-0.5 0.7-0.4 1.8 0.4 2.4 3.4 2.5 5.7 5.8 5.8 8.5q0.1 2-1.2 3.3c-0.7 0.6-0.8 1.8-0.1 2.5 0.3 0.3 0.7 0.5 1.1 0.5z"/>
					</g>
					<path id="&lt;Path&gt;" fill-rule="evenodd" class="s18" d="m1529.1 1218.7c12.3-36 17.5-26.9 8.9-59.1 58.6 10.1 125.2 31.6 125.2 31.6 0 0 12.5-22.2 22.3-30.6-20.8 0.9-120.3-21.5-161.5-30.5-4.1 14.9 3.9 37.3-3.9 51.1-1.2 4.8-3.2 73.5 9 37.5z"/>
					<path id="&lt;Path&gt;" fill-rule="evenodd" class="s18" d="m1343.5 1175c-5.9 20.2-14 63.4-8.3 138.4 0.3 4.6 6.3 9.5 15 13.4q5-0.1 11.1-0.9c-13.7-61.6 5.2-184.3 5.2-184.3l-17.8 19.1c-0.1 0.4-2.2 6-5.2 14.3z"/>
					<path id="&lt;Path&gt;" fill-rule="evenodd" class="s18" d="m1321 1314.6c3.5-9.2 5.7-12.5 5.7-12.5 0 0-2.2-5.6-5.5-13.5-0.1 12.6-0.2 23.5-0.2 26z"/>
					<path id="&lt;Path&gt;" fill-rule="evenodd" class="s9" d="m1316.9 1326.6c6.9 8.3 12 21.6 37.7 21.4 25.7-0.3 16.1-22-1-24.9-17.2-2.9-14.4-3.9-16.5-8.7-2.3-5.1-2.8-12.2-2.8-12.2 0 0 3.3-14.1-3.4-8.3-2.1 1.8-4.7 5.8-5.8 9.1-3.4 10.4-8.2 23.6-8.2 23.6z"/>
				</g>
				<g id="&lt;Group&gt;">
					<path id="&lt;Path&gt;" fill-rule="evenodd" class="s12" d="m2401.1 946.4c0.6 9.3 6.4 16.5 12.9 16 6.6-0.4 11.4-8.3 10.7-17.6-0.6-9.2-6.4-16.4-12.9-16-6.6 0.5-11.4 8.4-10.7 17.6z"/>
					<path id="&lt;Path&gt;" fill-rule="evenodd" class="s12" d="m2519.8 972.5c0.6 8.8 8.1 15.4 16.9 14.8 8.7-0.6 15.4-8.1 14.8-16.9-0.6-8.8-8.2-15.4-17-14.8-8.7 0.6-15.3 8.2-14.7 16.9z"/>
					<path id="&lt;Path&gt;" fill-rule="evenodd" class="s5" d="m2760.1 1367.5c0.9-5.4-14.1-26.3-27-24-12.9 2.3-13.5 36.2-13.5 36.2h-18.9c0 0-1.4-52.6 32.8-54.2 20.5-3 48 4 48 43.2-9.3 2.7-21.4-1.2-21.4-1.2z"/>
					<path id="&lt;Path&gt;" fill-rule="evenodd" class="s9" d="m2762.9 1306c9.8 3.3 38.2 27.9 12.5 48-26.7 20.9-55.7-8.7-40.9-10.3 23.1-2.7 10.6-18.8 2.7-18-20.7 1.9-25.7 13.6-25.7 13.6 0 0-4.7-9.9 3.8-23.8 2.7-2.9 7.1-11.3 17.9-13.3 12.7-2.5 29.7 3.8 29.7 3.8z"/>
					<path id="&lt;Path&gt;" fill-rule="evenodd" class="s19" d="m2341.2 1142.6l34 36.8 20.9-28.4c0 0 6.5 23 0.7 166.2-0.6 14.4 125.9 12.1 179 7.4 14-1.2 22.9-2.6 23.1-3.9 11.5-97.6-9.8-167.3-11.3-172.1v0.1l0.2 0.3v0.2l0.2 0.5 0.5 1.5 0.2 0.7 0.6 1.7q0.2 0.4 0.4 0.9c5.9 17 22.8 64.5 34.3 87.4 14.1 28.1 91.3 73.6 91.3 73.6 0 0 4.9-5.8 27.4-8.8 18.7-2.6 20.2-3.1 20.2-3.1l-84.7-83.5c0 0-9.4-52.6-44.9-116.7-35.4-64.1-68.6-61.6-111-68.5 0 0-25-2.8-71 10.4-63.6 18.4-110.1 97.3-110.1 97.3z"/>
					<path id="&lt;Path&gt;" fill-rule="evenodd" class="s9" d="m2409.2 955.1c2.9 43.1 42.2 75.5 70.7 73.6 28.1-1.9 63.1-39.4 60.2-82.5-2.9-43.1-34.3-71.8-70.4-69.3-36.2 2.4-63.4 35.1-60.5 78.2z"/>
					<path id="&lt;Path&gt;" fill-rule="evenodd" class="s10" d="m2569.7 1320.2c2 1.8 4 3.3 6.1 4.4 14-1.2 22.9-2.6 23.1-3.9 11.5-97.6-9.8-167.3-11.3-172.1l-0.1-0.2v-0.1l-15.3-17c0 0 15.9 75-2.5 188.9z"/>
					<path id="&lt;Path&gt;" fill-rule="evenodd" class="s9" d="m2524.4 985l3.4 49.6c0 0-17.7 52.4-46.1 76.2-14.3-27.3-30.4-65.4-30.4-65.4l9-38.5z"/>
					<path id="&lt;Path&gt;" fill-rule="evenodd" class="s5" d="m2598.9 1320.7c0 0 5.9 74.5-4.8 128.1-10.8 53.7-32.4 143.8-32.4 143.8l23.9 253.5-60.5 1.4-50.1-256.3 7.4-163-31.3 140.8-8.2 275.9h-69.4v-309.5l23.3-218.2z"/>
					<path id="&lt;Path&gt;" fill-rule="evenodd" class="s5" d="m2572.2 1044.4c-15.7 31.6-11.4 182.1-2.5 275.8h-23.4c0 0-24.2-189.8 5.1-280.9 12.5 0.7 20.8 5.1 20.8 5.1z"/>
					<path id="&lt;Path&gt;" fill-rule="evenodd" class="s5" d="m2435.3 1050.6c0 0-7.1 159.7 16 278.2-24.2 0.6-22.2-5.6-22.2-5.6 0 0-18.5-146.5-16.5-259.2 5.4-7 22.7-13.4 22.7-13.4z"/>
					<path id="&lt;Path&gt;" fill-rule="evenodd" class="s11" d="m2481.7 1110.8l-30.4-65.4c0 0-17.2 1-28.9 7.9 1 15.7 10.9 23.9 10.9 23.9l15.6-1.7-6.9 13.8z"/>
					<path id="&lt;Path&gt;" fill-rule="evenodd" class="s11" d="m2481.7 1110.8l46.1-76.2c0 0 19.8-3.8 30.8 4.2-2.4 15.5-26.8 41.7-26.8 41.7l-15.3-3 5.7 14.3z"/>
					<path id="&lt;Path&gt;" fill-rule="evenodd" class="s5" d="m2760.1 1841.7h21.4v-473.4l-21.4-1.5z"/>
					<path id="&lt;Path&gt;" fill-rule="evenodd" class="s11" d="m2470.7 1139.8c-3.3 0-5.9-2.6-5.9-5.9 0-3.3 2.6-5.9 5.9-5.9 3.3 0 5.9 2.6 5.9 5.9 0 3.3-2.6 5.9-5.9 5.9z"/>
					<path id="&lt;Path&gt;" fill-rule="evenodd" class="s11" d="m2474.2 1192.1c-3.3 0-5.9-2.6-5.9-5.9 0-3.3 2.6-5.9 5.9-5.9 3.3 0 5.9 2.6 5.9 5.9 0 3.3-2.6 5.9-5.9 5.9z"/>
					<path id="&lt;Path&gt;" fill-rule="evenodd" class="s11" d="m2477.8 1244.5c-3.3 0-5.9-2.6-5.9-5.9 0-3.3 2.6-5.9 5.9-5.9 3.3 0 5.9 2.6 5.9 5.9 0 3.3-2.6 5.9-5.9 5.9z"/>
					<path id="&lt;Path&gt;" fill-rule="evenodd" class="s11" d="m2481.3 1296.8c-3.3 0-5.9-2.6-5.9-5.9 0-3.3 2.6-5.9 5.9-5.9 3.3 0 5.9 2.6 5.9 5.9 0 3.3-2.6 5.9-5.9 5.9z"/>
					<path id="&lt;Path&gt;" fill-rule="evenodd" class="s12" d="m2516.1 918.8c0.6 8.7 8.2 15.3 17 14.7 8.7-0.5 15.3-8.1 14.7-16.9-0.5-8.7-8.1-15.4-16.9-14.8-8.7 0.6-15.4 8.2-14.8 17z"/>
					<path id="&lt;Path&gt;" fill-rule="evenodd" class="s12" d="m2506 933.3c0.4 6.5 6.1 11.5 12.6 11 6.6-0.4 11.5-6.1 11.1-12.6-0.5-6.5-6.1-11.5-12.7-11-6.5 0.4-11.4 6.1-11 12.6z"/>
					<path id="&lt;Path&gt;" fill-rule="evenodd" class="s12" d="m2532.9 931.5c0.6 8.7 8.2 15.4 16.9 14.8 8.8-0.6 15.4-8.2 14.8-17-0.6-8.7-8.1-15.3-16.9-14.7-8.8 0.5-15.4 8.1-14.8 16.9z"/>
					<path id="&lt;Path&gt;" fill-rule="evenodd" class="s12" d="m2535.1 946.3c-2.7 8.4 1.8 17.3 10.2 20 8.3 2.7 17.3-1.8 20-10.2 2.7-8.3-1.9-17.3-10.2-20-8.4-2.7-17.3 1.9-20 10.2z"/>
					<path id="&lt;Path&gt;" fill-rule="evenodd" class="s16" d="m2429.8 960.9c-3.4 0-6.1-2.7-6.1-6.1 0-3.5 2.7-6.2 6.1-6.2 3.5 0 6.2 2.7 6.2 6.2 0 3.4-2.7 6.1-6.2 6.1z"/>
					<path id="&lt;Path&gt;" fill-rule="evenodd" class="s16" d="m2477.5 957.7c-3.4 0-6.1-2.7-6.1-6.2 0-3.4 2.7-6.1 6.1-6.1 3.5 0 6.2 2.7 6.2 6.1 0 3.5-2.7 6.2-6.2 6.2z"/>
					<g id="&lt;Group&gt;">
						<path id="&lt;Path&gt;" fill-rule="evenodd" class="s12" d="m2491.1 938.2q1.1-0.3 1.8-1.2c1.2-1.5 1-3.7-0.5-4.9-8.6-7-21.2-1.7-21.7-1.5-1.8 0.8-2.6 2.8-1.9 4.6 0.8 1.8 2.9 2.7 4.7 1.9 0 0 9.2-3.8 14.4 0.5 1 0.7 2.2 0.9 3.2 0.6z"/>
					</g>
					<g id="&lt;Group&gt;">
						<path id="&lt;Path&gt;" fill-rule="evenodd" class="s12" d="m2417.2 944.5c1.1 0.1 2.3-0.4 3.1-1.4 4-5.5 13-3 13.1-3 1.8 0.6 3.8-0.5 4.4-2.4 0.5-1.8-0.6-3.8-2.4-4.4-0.6-0.1-13.9-3.9-20.8 5.6-1.2 1.6-0.8 3.8 0.7 5 0.6 0.4 1.2 0.6 1.9 0.6z"/>
					</g>
					<g id="&lt;Group&gt;">
						<path id="&lt;Path&gt;" fill-rule="evenodd" class="s17" d="m2455.7 990.3c3.3-0.2 6.5-1 8.7-2.4 0.9-0.6 1.2-1.8 0.7-2.7-0.6-0.9-1.8-1.2-2.7-0.7-3.3 2-9.5 2.6-13.4 1.2-1.3-0.4-2.2-1-2.4-1.6-1-2.6 1.2-11.5 3.1-17 0.3-1-0.2-2.1-1.2-2.5-1.1-0.3-2.2 0.2-2.5 1.2-0.9 2.5-4.9 14.8-3.1 19.6 0.7 1.8 2.3 3.2 4.8 4 2.3 0.8 5.2 1.1 8 0.9z"/>
					</g>
					<path id="&lt;Path&gt;" fill-rule="evenodd" class="s12" d="m2416.7 987.3c-1.1-4.3-1.5-7.1-1.5-7.1 1.1 2.9 5.6 8.5 8.4 10.7 7.1 5.6 15.2 4.3 38.9 1.6 29.5-3.3 63 3 71.7-26.8l4.8-0.4c0 0 0.2 4.6-2.5 18.9 2 13.7-2.5 20.4-5.5 20.9-1.7 19.8-12.7 20-15.6 19.5-5.6 10.1-14.8 13.7-23 12.3-18.1 13.1-27.9 5.4-30.4 1.9-11 5.8-20.9-5.6-23.2-11.1-12 2-13.3-14-13.6-17.7-7.8-1.5-7.8-13.6-8.5-22.7z"/>
					<g id="&lt;Group&gt;">
						<path id="&lt;Path&gt;" fill-rule="evenodd" class="s16" d="m2463.2 1008.5c10.9-0.8 18.3-7.9 18.7-8.3 0.9-0.8 0.9-2.3 0.1-3.2-0.9-0.9-2.4-0.9-3.3 0-0.5 0.4-11.9 11.2-26.5 5.1-1.2-0.5-2.5 0-3 1.2-0.5 1.2 0.1 2.5 1.3 3 4.5 1.9 8.8 2.4 12.7 2.2z"/>
					</g>
					<g id="&lt;Group&gt;">
						<path id="&lt;Path&gt;" fill-rule="evenodd" class="s17" d="m2472.1 913.4c0.8-0.1 1.4-0.5 1.7-1.3 0.4-1-0.1-2.1-1.1-2.5-0.9-0.4-22.9-8.5-40.5 2.8-0.9 0.6-1.2 1.8-0.6 2.7 0.6 0.9 1.8 1.2 2.7 0.6 15.9-10.2 36.8-2.5 37-2.4q0.4 0.1 0.8 0.1z"/>
					</g>
					<g id="&lt;Group&gt;">
						<path id="&lt;Path&gt;" fill-rule="evenodd" class="s17" d="m2471.6 902.8c0.7-0.1 1.3-0.5 1.7-1.2 0.4-0.9 0-2.1-1-2.6-0.7-0.3-17.9-8.5-34.3 0.4-1 0.6-1.3 1.7-0.8 2.7 0.5 1 1.7 1.3 2.7 0.8 14.6-7.9 30.6-0.4 30.7-0.3q0.5 0.2 1 0.2z"/>
					</g>
					<g id="&lt;Group&gt;">
						<g id="&lt;Group&gt;">
							<path id="&lt;Compound Path&gt;" fill-rule="evenodd" class="s5" d="m2457.6 957.2l-0.5-6.5c-0.3-5.1 3.6-9.5 8.7-9.9l20.2-1.3c5.1-0.4 9.6 3.5 9.9 8.6l0.5 6.5c0.3 5.1-3.6 9.5-8.7 9.9l-20.3 1.3c-5.1 0.4-9.5-3.5-9.8-8.6zm8.5-11.6c-2.5 0.2-4.3 2.3-4.2 4.8l0.5 6.5c0.1 2.4 2.3 4.3 4.7 4.1l20.3-1.4c2.4-0.1 4.3-2.2 4.1-4.7l-0.4-6.5c-0.2-2.4-2.3-4.3-4.7-4.1z"/>
						</g>
					</g>
					<g id="&lt;Group&gt;">
						<g id="&lt;Group&gt;">
							<path id="&lt;Compound Path&gt;" fill-rule="evenodd" class="s5" d="m2409 960.7l-0.5-6.9c-0.3-5 3.4-9.3 8.4-9.6l18.7-1.3c5-0.3 9.3 3.4 9.6 8.4l0.5 6.9c0.3 5-3.5 9.3-8.4 9.6l-18.7 1.3c-5 0.3-9.3-3.5-9.6-8.4zm8.2-11.8c-2.4 0.1-4.2 2.2-4 4.6l0.4 6.9c0.2 2.3 2.3 4.1 4.6 4l18.8-1.3c2.4-0.1 4.2-2.2 4-4.6l-0.5-6.9c-0.1-2.4-2.2-4.2-4.6-4z"/>
						</g>
					</g>
					<g id="&lt;Group&gt;">
						<path id="&lt;Path&gt;" fill-rule="evenodd" class="s5" d="m2443.3 957.2l15.6-1-0.3-4.7-15.7 1.1z"/>
					</g>
					<g id="&lt;Group&gt;">
						<path id="&lt;Path&gt;" fill-rule="evenodd" class="s5" d="m2494.4 952.4l31-8.8-1.6-5.6-31 8.8z"/>
					</g>
					<path id="&lt;Path&gt;" fill-rule="evenodd" class="s9" d="m2521.7 940.5c-4.2 10.1-0.8 21.1 7.5 24.5 8.3 3.4 18.4-2 22.5-12.2 4.2-10.1 0.9-21.1-7.4-24.5-8.3-3.4-18.4 2.1-22.6 12.2z"/>
					<g id="&lt;Group&gt;">
						<path id="&lt;Path&gt;" fill-rule="evenodd" class="s17" d="m2532.1 957.7q0.4-0.1 0.9-0.3c0.9-0.5 1.2-1.8 0.7-2.7-1.6-2.7-1.9-5.4-0.8-7.9 1.6-4 5.8-6.9 9.2-7.8 1.1-0.3 1.7-1.4 1.4-2.5-0.3-1-1.4-1.6-2.4-1.3-4.2 1.1-9.7 4.7-11.9 10.1-1.5 3.7-1.1 7.7 1.1 11.4 0.4 0.7 1.1 1 1.8 1z"/>
					</g>
					<g id="&lt;Group&gt;">
						<path id="&lt;Path&gt;" fill-rule="evenodd" class="s11" d="m2493.3 1318.8l4.1 0.1-14-208.2-3.5 0.2z"/>
					</g>
				</g>
				<g id="&lt;Group&gt;">
					<path id="&lt;Path&gt;" fill-rule="evenodd" class="s19" d="m2279.8 1287.7l17.3-50.5 33.7 26.4-15.9 34.8z"/>
					<path id="&lt;Path&gt;" fill-rule="evenodd" class="s9" d="m2459.9 1388.7c13.5 29.6 21.5 35 24.8 49.3 3.4 14.4 14 123.1 14 123.1l-23.8-4.2c0 0-17.1-84.4-26.1-106.3-9-21.8-28-37.9-28-37.9z"/>
					<path id="&lt;Path&gt;" fill-rule="evenodd" class="s9" d="m2220.4 1345.3l-27.7 20.5-3.9 43.1 46.6-20.5z"/>
					<path id="&lt;Path&gt;" fill-rule="evenodd" class="s9" d="m2404.1 1507.7l-11.2 318.9-33.8 0.8-30-288.3z"/>
					<path id="&lt;Path&gt;" fill-rule="evenodd" class="s9" d="m2314.9 1617.9l-28.9 208.7-31.5 0.8-1.5-212.7z"/>
					<path id="&lt;Path&gt;" fill-rule="evenodd" class="s5" d="m2260.1 1501.6l-20.6 151.4h73.2l32.9-134.5z"/>
					<path id="&lt;Path&gt;" fill-rule="evenodd" class="s20" d="m2413.6 1495.7l6.9 147.4-92.7 6-17.2-146.9z"/>
					<path id="&lt;Path&gt;" fill-rule="evenodd" class="s13" d="m2234.3 1394.6l34.9-12c0 0-6.4 62-19.4 124.8 58.4 27.9 119.4 16.7 150.3 7.6 13-3.8 20.7-7.3 20.7-7.3l-18.2-108.3 20.6 27.7c0 0 25.2-12 49.3-36.1-43.6-94.4-90.2-101-109.3-100.8 0 0-25.4-1.3-48.3 0-48.8 2.8-96.2 49.1-96.2 49.1z"/>
					<path id="&lt;Path&gt;" fill-rule="evenodd" class="s9" d="m2281.1 1177c-5.6 26.8 5.7 92.5 46.3 92.5 28.6 0 58.3-27.6 64-84.5 5.7-56.9-95-81.5-110.3-8z"/>
					<path id="&lt;Path&gt;" fill-rule="evenodd" class="s9" d="m2361.7 1252.8c-0.8 17.6 2 42.8 2 42.8 0 0-25.6 23.2-48.8 2.8 1.2-28 6-41.9 6-41.9z"/>
					<path id="&lt;Path&gt;" fill-rule="evenodd" class="s7" d="m2362 1175.5c-11.2 10.1-56.2 18.3-95.8 5.2-39.6-13.1 0.3-23.1 14-19.8-28.6-3.3-32.3-13-15.9-19 16.4-6 23.3-4.1 23.3-4.1 0 0 9.3-26.7 51.2-29.6 32.8-2.2 82.4 19.7 73.3 85.3-5.7 40.9-39.4 51.8-41.7 51.9 6.1-7.1 9.8-37.2 9.8-37.2z"/>
					<path id="&lt;Path&gt;" fill-rule="evenodd" class="s9" d="m2370.5 1201.3c-5.1 8.7-3.8 18.9 2.8 22.7 6.6 3.8 16-0.2 21-8.9 5.1-8.7 3.8-18.8-2.8-22.6-6.6-3.8-16 0.1-21 8.8z"/>
					<path id="&lt;Path&gt;" fill-rule="evenodd" class="s14" d="m2393.4 1826.6v16c0 2.7-2.2 4.9-4.9 4.9h-77.7c0 0 1.5-18.8 32.7-19.7 31.1-1 49.9-1.2 49.9-1.2z"/>
					<path id="&lt;Path&gt;" fill-rule="evenodd" class="s14" d="m2286 1826.6v16c0 2.7-2.2 4.9-5 4.9h-77.6c0 0 1.4-18.8 32.6-19.7 31.2-1 50-1.2 50-1.2z"/>
					<path id="&lt;Path&gt;" fill-rule="evenodd" class="s16" d="m2335.9 1214.5c-2.8 0-5.1-2.3-5.1-5.1 0-2.8 2.3-5.1 5.1-5.1 2.8 0 5.1 2.3 5.1 5.1 0 2.8-2.3 5.1-5.1 5.1z"/>
					<path id="&lt;Path&gt;" fill-rule="evenodd" class="s16" d="m2297.1 1214.5c-2.8 0-5.1-2.3-5.1-5.1 0-2.8 2.3-5.1 5.1-5.1 2.8 0 5.1 2.3 5.1 5.1 0 2.8-2.3 5.1-5.1 5.1z"/>
					<g id="&lt;Group&gt;">
						<path id="&lt;Path&gt;" fill-rule="evenodd" class="s7" d="m2345.3 1201.2c0.4 0 0.9-0.2 1.2-0.5 0.7-0.7 0.7-1.8 0-2.5-6.4-6.2-14.4-4.2-14.7-4.1-0.9 0.3-1.5 1.2-1.2 2.1 0.2 1 1.1 1.5 2.1 1.3 0.2-0.1 6.4-1.6 11.4 3.2 0.3 0.3 0.8 0.5 1.2 0.5z"/>
					</g>
					<g id="&lt;Group&gt;">
						<path id="&lt;Path&gt;" fill-rule="evenodd" class="s7" d="m2289.9 1202.2c0.5 0 1-0.2 1.3-0.6 2.8-3.6 9.8-3 9.8-2.9 1 0 1.8-0.6 1.9-1.6 0.1-0.9-0.5-1.8-1.5-1.9-0.4 0-8.9-0.9-12.9 4.2-0.6 0.8-0.5 1.9 0.3 2.5 0.3 0.2 0.7 0.3 1.1 0.3z"/>
					</g>
					<g id="&lt;Group&gt;">
						<path id="&lt;Path&gt;" fill-rule="evenodd" class="s17" d="m2314.8 1239.1q1.5 0 3.3-0.3c1-0.2 1.7-1.2 1.5-2.2-0.2-1-1.2-1.7-2.2-1.5-5 0.9-7.7-1-8.7-2l2.5-10c0.3-1-0.3-2-1.3-2.3-1.1-0.2-2.1 0.4-2.3 1.4l-3 11.8 0.4 0.6c0.2 0.3 3 4.5 9.8 4.5z"/>
					</g>
					<g id="&lt;Group&gt;">
						<path id="&lt;Path&gt;" fill-rule="evenodd" class="s17" d="m2319.9 1255c17.1 0 20.6-12 20.7-12.1 0.3-1-0.3-2.1-1.3-2.4-1-0.2-2.1 0.3-2.4 1.3-0.1 0.5-3.3 10.6-19.9 9.3-1-0.1-1.9 0.7-2 1.7-0.1 1.1 0.7 2 1.7 2.1q1.7 0.1 3.2 0.1z"/>
					</g>
					<g id="&lt;Group&gt;">
						<path id="&lt;Path&gt;" fill-rule="evenodd" class="s17" d="m2378.4 1217.7q0.3 0 0.6-0.1c1-0.3 1.5-1.4 1.2-2.4q-1.5-4.1 0.1-6.7c2-3.1 6.9-3.7 6.9-3.7 1.1-0.1 1.8-1 1.7-2.1-0.1-1-1-1.8-2.1-1.7-0.2 0.1-6.7 0.8-9.7 5.5-1.7 2.7-1.9 6-0.5 9.9 0.2 0.8 1 1.3 1.8 1.3z"/>
					</g>
					<path id="&lt;Path&gt;" fill-rule="evenodd" class="s9" d="m2296.4 1293.3c-9.8 2.8-5.4 17.5-3.6 24.1 1.9 6.6-18.1 8.7-27.1-2.6-9.1-11.2 0.9-28.3 15-32.3 14-4.1 28.6-1.3 31.5 7.9-7.8 1.1-15.8 2.9-15.8 2.9z"/>
					<path id="&lt;Path&gt;" fill-rule="evenodd" class="s9" d="m2498.7 1561.1c3.1 4.3 6.2 23-6.5 25.9-12.8 3-30.4-14.4-25.2-22.3 5.1-8 7.8-8.2 7.8-8.2z"/>
					<path id="&lt;Path&gt;" fill-rule="evenodd" class="s14" d="m2385 1378.8l15.1 136.2c13-3.8 20.7-7.3 20.7-7.3l-18.2-108.3z"/>
				</g>
				<g id="&lt;Group&gt;">
					<path id="&lt;Path&gt;" fill-rule="evenodd" class="s12" d="m1693.2 1800.9l-0.4 19.5 63.4 1.7 1.3-21.2z"/>
					<path id="&lt;Path&gt;" fill-rule="evenodd" class="s8" d="m1692.8 1817.4v23c0 3.9 3.1 7.1 7 7.1h111.9c0 0-2.1-27.1-47-28.4-44.9-1.4-71.9-1.7-71.9-1.7z"/>
					<path id="&lt;Path&gt;" fill-rule="evenodd" class="s12" d="m1869.4 1800.9l-1.1 19.5 59.5 1.7v-20.9z"/>
					<path id="&lt;Path&gt;" fill-rule="evenodd" class="s14" d="m1961.1 1315.5l-33.3 485.7-59.5-0.3-25.9-495.8z"/>
					<path id="&lt;Path&gt;" fill-rule="evenodd" class="s13" d="m1749 1306.8l-55.8 494.1h64.3l132.6-494.1z"/>
					<path id="&lt;Path&gt;" fill-rule="evenodd" class="s9" d="m1685.6 1094.8l-108.7 149.4 26.3 36.9 119.4-141.5z"/>
					<path id="&lt;Path&gt;" fill-rule="evenodd" class="s6" d="m1668.9 1089.4c18.1 29.3 57.3 62 57.3 62 0 0 14.7-19.5 36.4-46.8-16.1 82.5-25.6 196.2-25.6 196.2 0 0 10.9 6.3 29.8 13.4 40.5 15.1 117.3 33.7 201.4 1.3-3-37.8-6-185.8-6-185.8l72.1 31.3 29.9-78.2-63.2-50.5c0 0-28.7-37.3-103.4-50-74.6-12.7-129.6-1.6-228.7 107.1z"/>
					<path id="&lt;Path&gt;" fill-rule="evenodd" class="s7" d="m1849.6 918.6c-12.5 1.7-32.2-0.2-39.7-19.7-8.1-21.2 1.6-35.3 1.8-55.2 0.2-19.9 0.7-33.5 0-43.5-0.7-10 41.1-1.8 41.1-1.8z"/>
					<path id="&lt;Path&gt;" fill-rule="evenodd" class="s9" d="m1951.3 861c-2.2 35.5-16.1 73.4-47.2 87.2-37.2 16.6-65.6-20.4-71.5-64.5-6-44.2 5.3-81.7 43.5-91.9 38.2-10.1 78.7 11.3 75.2 69.2z"/>
					<path id="&lt;Path&gt;" fill-rule="evenodd" class="s9" d="m1896 948.2l5.4 41.2c0 0-31.2 33.3-65.9-5.1 3.3-17.5 6-73.7 6-73.7z"/>
					<path id="&lt;Path&gt;" fill-rule="evenodd" class="s7" d="m1880.9 747.1c43.6 7.5 47.3 35.3 63.4 44.3 16.1 8.9 21-20.9 39-10.2 38.9 24.4 18.1 75-10 85.8-28 10.7-24.3-12.3-41.1-25.7-18.1-14.3-24.7-18.4-45.3-0.2-9.2 8.2-22.3 0.3-30.3-18-2.2 17.7-6.7 30.2-6.7 30.2l-21.2-21.7 5.2-16.6c-8 3.2-21.1-1.6-22-10.8-4.4-41 30.8-63.7 69-57.1z"/>
					<path id="&lt;Path&gt;" fill-rule="evenodd" class="s9" d="m1819.5 862c4.1 10.5 14.3 16.3 22.7 13 8.4-3.3 11.8-14.5 7.6-25-4.1-10.5-14.3-16.3-22.7-13-8.4 3.3-11.8 14.5-7.6 25z"/>
					<path id="&lt;Path&gt;" fill-rule="evenodd" class="s16" d="m1927.2 885.3c-3.5 0-6.4-2.9-6.4-6.4 0-3.5 2.9-6.4 6.4-6.4 3.5 0 6.4 2.9 6.4 6.4 0 3.5-2.9 6.4-6.4 6.4z"/>
					<path id="&lt;Path&gt;" fill-rule="evenodd" class="s16" d="m1882 881.5c-3.5 0-6.4-2.9-6.4-6.4 0-3.5 2.9-6.4 6.4-6.4 3.5 0 6.4 2.9 6.4 6.4 0 3.5-2.9 6.4-6.4 6.4z"/>
					<g id="&lt;Group&gt;">
						<path id="&lt;Path&gt;" fill-rule="evenodd" class="s7" d="m1942 873.5q0.8 0 1.5-0.5c1.2-0.8 1.6-2.4 0.8-3.6-7.5-11.5-18.2-11-18.6-11-1.5 0.1-2.6 1.3-2.6 2.8 0.1 1.5 1.4 2.6 2.8 2.5 0.4 0 8.2-0.2 13.9 8.6 0.5 0.8 1.4 1.2 2.2 1.2z"/>
					</g>
					<g id="&lt;Group&gt;">
						<path id="&lt;Path&gt;" fill-rule="evenodd" class="s7" d="m1869.8 866.1c0.9 0 1.7-0.4 2.2-1.1 6.6-9.5 17.9-5.6 18.4-5.4 1.4 0.5 2.9-0.2 3.4-1.6 0.5-1.4-0.2-2.9-1.6-3.4-5.4-2-17.4-3-24.5 7.4-0.9 1.2-0.6 2.8 0.6 3.7 0.5 0.3 1 0.4 1.5 0.4z"/>
					</g>
					<g id="&lt;Group&gt;">
						<path id="&lt;Path&gt;" fill-rule="evenodd" class="s17" d="m1906.9 908.9c2 0 3.9-0.3 5.2-1.2 1-0.6 1.7-1.6 1.9-2.7 0.8-4.6 0-20.8 0-21.5 0-1-0.9-1.8-1.9-1.7-1 0-1.7 0.9-1.7 1.8 0.3 4.6 0.7 17.2 0.1 20.7-0.1 0.1-0.1 0.3-0.3 0.4-1.7 1.1-6.9 0.4-10.1-0.4-1-0.2-1.9 0.4-2.2 1.3-0.2 1 0.3 1.9 1.3 2.2 1 0.2 4.4 1.1 7.7 1.1z"/>
					</g>
					<g id="&lt;Group&gt;">
						<path id="&lt;Path&gt;" fill-rule="evenodd" class="s17" d="m1901.7 927.2c4.4 0 7.5-0.8 7.5-0.8 1.5-0.3 2.3-1.8 2-3.2-0.4-1.4-1.8-2.3-3.3-1.9-0.7 0.1-17.7 4.1-26.2-9.4-0.8-1.3-2.4-1.6-3.7-0.9-1.2 0.8-1.6 2.5-0.8 3.7 6.6 10.5 17.3 12.5 24.5 12.5z"/>
					</g>
					<g id="&lt;Group&gt;">
						<path id="&lt;Path&gt;" fill-rule="evenodd" class="s17" d="m1836.2 868.7q0.4 0 0.7-0.2c3.7-1.7 5.8-4.8 5.9-8.8 0.2-6.2-4.8-13.5-9.2-15.9-0.9-0.4-2-0.1-2.5 0.8-0.4 0.9-0.1 2 0.8 2.4 3.4 1.8 7.5 7.8 7.4 12.7-0.1 2.6-1.4 4.4-3.9 5.6-0.9 0.4-1.3 1.5-0.8 2.4 0.3 0.6 0.9 1 1.6 1z"/>
					</g>
					<path id="&lt;Path&gt;" fill-rule="evenodd" class="s8" d="m1868.3 1814.8v23.1c0 3.9 3.1 7 7.1 7h111.8c0 0-2-27.1-47-28.4-44.9-1.3-71.9-1.7-71.9-1.7z"/>
					<path id="&lt;Path&gt;" fill-rule="evenodd" class="s8" d="m1737 1300.8c0 0 10.9 6.3 29.8 13.4 0.1-46.6 15.2-231.6 15.2-231.6l-19.4 22c-16.1 82.5-25.6 196.2-25.6 196.2z"/>
				</g>
				<g id="&lt;Group&gt;">
					<path id="&lt;Path&gt;" fill-rule="evenodd" class="s18" d="m2070.3 1815.2c5.1 7.6 5.1 20.3 4.1 25.4-24.8 3.5-62.4 3.6-84.3 1.7 0-18.6 22.6-18.4 50.2-24.7 24.7-2.5 30-2.4 30-2.4z"/>
					<path id="&lt;Path&gt;" fill-rule="evenodd" class="s9" d="m2070.3 1815.2c-3.1 5.8-44.2 14.7-51.4 10.7-3.3-1.8 14.2-6.6 22-8.1 9.4-1.8 29.4-2.6 29.4-2.6z"/>
					<path id="&lt;Path&gt;" fill-rule="evenodd" class="s5" d="m2087 865.9c-4.9 12.6-20.3 22.4-35.2 16.1-10.3 8.7-32.3 14.5-40.8-15.4-8.5-29.9 15.5-74.3 79.7-74.1 28.5 0 44.6 15.8 53.9 34.8 15-13.3 72.2-25.9 100.3 25.9 28.1 51.8-8.3 82.5-8.3 82.5 0 0 42.4-6.3 45.9 47 3.6 53.3-48.7 52.4-48.7 52.4 0 0 37.4 16.4 21.1 54.5-16.3 38-86.3 12.2-86.3 12.2 0 0-152.9-22.4-179.6-85.8-26.7-63.5 21.5-92.1 57.3-98.1-19.4-7.3-12.6-37.6 22.6-39.9 17.2-1.1 18.1-12.1 18.1-12.1z"/>
					<path id="&lt;Path&gt;" fill-rule="evenodd" class="s9" d="m2158.4 1612.8c-3.8 49-8.5 165.6-10.5 204-16.8 14.6-29.8 2-29.8 2 0 0-11.2-127.2-14.2-203.6 27.7-5.5 54.5-2.4 54.5-2.4z"/>
					<path id="&lt;Path&gt;" fill-rule="evenodd" class="s9" d="m2032.5 1610.3l8.4 207.5c0 0 20.8 4.8 29.4-2.6 10.1-70.2 18-200 18-200z"/>
					<path id="&lt;Path&gt;" fill-rule="evenodd" class="s18" d="m2147.5 1814.9c5.6 7.2 6.1 19.4 5.4 24.5-24.4 5.4-61.9 8.4-83.9 8.1-1.4-18.5 21.2-20 48.2-28.4 24.4-4.4 30.3-4.2 30.3-4.2z"/>
					<path id="&lt;Path&gt;" fill-rule="evenodd" class="s9" d="m2147.5 1814.9c-2.7 6-41.5 16.4-49 13-3.4-1.6 11.3-6.2 18.7-8.8 9-3.3 30.3-4.2 30.3-4.2z"/>
					<path id="&lt;Path&gt;" fill-rule="evenodd" class="s15" d="m2071.1 1028.2c-21.3 1.1-46.3 16.3-64.4 40.8-18.1 24.5-48.2 57.1-54 79-5.7 21.9 26.2 62.4 99 74.4 72.8 11.9 125.6 10.2 125.6 10.2l-35.7-205.8z"/>
					<path id="&lt;Path&gt;" fill-rule="evenodd" class="s9" d="m2058.8 886.7c-4.3 29.3-12.8 76.7 33.3 108.7 14.5 7.9 42-4.1 57.6-35.5 15.7-31.5 21.5-77.2 5.5-92.4-15.9-15.3-88.5-34.5-96.4 19.2z"/>
					<path id="&lt;Path&gt;" fill-rule="evenodd" class="s9" d="m2126.8 979.6c0 0-5.2 41.9 14.8 47.2-6.3 17.7-27.3 25.1-41.8 24.7-14.5-0.4-28.7-23.3-28.7-23.3 0 0 15.8 1.4 18.8-12.9 3.2-15.2 1.9-27.3 1.9-27.3z"/>
					<path id="&lt;Path&gt;" fill-rule="evenodd" class="s15" d="m2023.3 1649.7c7.3 3.3 16.8 5.8 27.4 7.7 42.3 7.5 102.7 4.5 120.5-7.7 39.2-136.1 19.4-357.5 6.4-381.2-11.4-20.7-154.2-66.6-154.4-64.5q0 1.2-0.2 2.3c-1.3 12.2-7.8 23.2-15 48.7-18.5 66.3-6.7 285.8 15.3 394.7z"/>
					<path id="&lt;Path&gt;" fill-rule="evenodd" class="s18" d="m2023.3 1649.7c7.3 3.3 16.8 5.8 27.4 7.7-5.5-38.6-26.3-188.7-28.7-272-2.8-96.1 16.8-165.5 16.8-165.5l-17.5-4.8c-3.5 10.3-6.1 14.4-13.3 39.9-18.5 66.3-6.7 285.8 15.3 394.7z"/>
					<path id="&lt;Path&gt;" fill-rule="evenodd" class="s5" d="m2182.6 890.6c0 0-89.8 34.9-123.7-45.4 32.2-7.5 89-9.2 123.7 45.4z"/>
					<g id="&lt;Group&gt;">
						<path id="&lt;Path&gt;" fill-rule="evenodd" class="s12" d="m1968.7 1118.2c8.4 13.8 19.4 29.1 32.2 43.9 18.9 21.7 41.8 42.3 66.3 54.9q7 3.6 14.1 6.3c9.6 3.6 19.4 5.9 29.3 6.4 57.6 2.9 81.5-27.6 38.9-84.4 0 0-32.6-36.2-68.9-64.5-19-14.7-38.9-27.4-55.7-31.5-49-12.1-84.2 23-56.2 68.9z"/>
						<path id="&lt;Path&gt;" fill-rule="evenodd" class="s21" d="m2067.2 1217c14 7.3 28.7 11.9 43.4 12.7 57.6 2.9 81.5-27.6 38.9-84.4 0 0-32.6-36.2-68.9-64.5 0 0 4.7 46-13.4 136.2z"/>
						<path id="&lt;Path&gt;" fill-rule="evenodd" class="s22" d="m2000.9 1162.1c18.9 21.7 41.8 42.3 66.3 54.9q7 3.6 14.1 6.3l-2.6-81.7c0 0-25.4 21.4-77.8 20.5z"/>
						<g id="&lt;Group&gt;">
							<path id="&lt;Path&gt;" fill-rule="evenodd" class="s9" d="m1989.7 1082.3c-11.3 15.2-6.7 37.6 10.1 50.1 16.8 12.5 39.6 10.3 50.9-4.9 11.3-15.1 6.7-37.6-10.1-50.1-16.9-12.5-39.6-10.3-50.9 4.9z"/>
							<g id="&lt;Group&gt;">
								<path id="&lt;Path&gt;" fill-rule="evenodd" class="s16" d="m2005.3 1120.7q4.7 0 7.1-2.7c2.7-3.1 1.6-7.6 1.6-7.7-0.2-0.9-1.1-1.4-2-1.2-0.8 0.2-1.4 1.1-1.2 1.9 0 0.1 0.7 3.1-0.9 4.9q-1.7 1.9-6.2 1.4c-0.9-0.1-1.7 0.6-1.8 1.5-0.1 0.9 0.5 1.7 1.4 1.8q1.1 0.1 2 0.1z"/>
							</g>
							<g id="&lt;Group&gt;">
								<path id="&lt;Path&gt;" fill-rule="evenodd" class="s16" d="m2023.8 1097.4q4.7 0 7-2.6c2.7-3.1 1.7-7.6 1.7-7.8-0.3-0.8-1.1-1.4-2-1.2-0.9 0.3-1.4 1.1-1.2 2 0 0.1 0.7 3.1-0.9 4.8q-1.7 2-6.3 1.5c-0.9-0.1-1.7 0.6-1.8 1.4-0.1 0.9 0.6 1.7 1.5 1.8q1 0.1 2 0.1z"/>
							</g>
							<path id="&lt;Path&gt;" fill-rule="evenodd" class="s7" d="m1997.3 1074.8c3.6 0.9-2.5 14.2 4 9.3-1.6 5.1-10.4 6.5-13.2 0.5-2.8-6.1 6.7-10.4 9.2-9.8z"/>
							<path id="&lt;Path&gt;" fill-rule="evenodd" class="s23" d="m2027.5 1106.4c-2.4-1.4-6.3 6.1-2.9 5.7 3.5-0.3 5.3-4.3 2.9-5.7z"/>
							<path id="&lt;Path&gt;" fill-rule="evenodd" class="s20" d="m2026.2 1119.8c0.3 5.4 5.1 9.6 10.5 9.2 5.5-0.4 9.6-5.1 9.2-10.5-0.3-5.5-5.1-9.6-10.5-9.2-5.5 0.3-9.6 5-9.2 10.5z"/>
							<path id="&lt;Path&gt;" fill-rule="evenodd" class="s13" d="m2036.1 1123.1c-2.2 0-4-1.8-4-4 0-2.1 1.8-3.9 4-3.9 2.1 0 3.9 1.8 3.9 3.9 0 2.2-1.8 4-3.9 4z"/>
							<g id="&lt;Group&gt;">
								<path id="&lt;Path&gt;" fill-rule="evenodd" class="s7" d="m1996.8 1116.4c0.4 0 0.8-0.2 1-0.6l4-6.7c0.4-0.6 0.2-1.4-0.4-1.7-0.6-0.4-1.3-0.2-1.7 0.4l-4 6.7c-0.3 0.6-0.1 1.4 0.5 1.7q0.3 0.2 0.6 0.2z"/>
							</g>
							<g id="&lt;Group&gt;">
								<path id="&lt;Path&gt;" fill-rule="evenodd" class="s7" d="m2016 1086.4q0.4 0 0.7-0.2l7.9-5.1c0.6-0.4 0.8-1.2 0.4-1.7-0.4-0.6-1.1-0.8-1.7-0.4l-7.9 5.1c-0.6 0.4-0.8 1.1-0.4 1.7 0.2 0.4 0.6 0.6 1 0.6z"/>
							</g>
						</g>
					</g>
					<path id="&lt;Path&gt;" fill-rule="evenodd" class="s18" d="m2022 1202.5q0.6 0.8 1.2 1.5c34.3 39.9 96.1 72.2 154.4 64.5-8.9-29.8-20.5-52-21-46-31.5-2.1-123.3-39.4-123.3-39.4 0 0-6.9 8.8-9.9 15.2-0.8 1.6-1.3 3.1-1.4 4.2z"/>
					<path id="&lt;Path&gt;" fill-rule="evenodd" class="s9" d="m2037.8 1179c-3.5-3.5-1.5-9.1-4.7-12.7-3.2-3.5-11-5.4-16-2.9-5 2.5 8.1 3.9 8.8 6.5 0.7 2.5-8.3 1.6-11-0.8-2.6-2.4-7.3-9.4-8.3-11.4-1.1-2.1-9.3-11.4-10.6-7.9-1.3 3.6-2.7 28 13.2 37 15.9 9 17.3 8.1 17.3 8.1z"/>
					<path id="&lt;Path&gt;" fill-rule="evenodd" class="s9" d="m2155.9 918.1c-8.7 5.9-12 16.1-7.5 22.9 4.6 6.8 15.3 7.6 24 1.8 8.7-5.9 12-16.1 7.4-22.9-4.5-6.8-15.3-7.6-23.9-1.8z"/>
					<path id="&lt;Path&gt;" fill-rule="evenodd" class="s15" d="m2141.6 1026.8c13.5 0 41.8 4.1 56.8 18.3 15 14.2 57.4 145.5-1.1 213.9-63.4 16.4-134.2-17-171.3-61.2 0.6-5.7 11.7-19.3 11.7-19.3 0 0 91.9 37.4 123.3 39.5 1.3-15.1-12.2-82.9-12.2-82.9z"/>
					<path id="&lt;Path&gt;" fill-rule="evenodd" class="s9" d="m2082.3 1195.5c12.5-1.6 16.1-4.9 22.2-8.2 6.2-3.2 13.3 9.1 1.8 16.8-8.4-2.9-24-8.6-24-8.6z"/>
					<path id="&lt;Path&gt;" fill-rule="evenodd" class="s16" d="m2072.5 930.1c-2.9 0-5.3-2.4-5.3-5.3 0-2.9 2.4-5.3 5.3-5.3 2.9 0 5.3 2.4 5.3 5.3 0 2.9-2.4 5.3-5.3 5.3z"/>
					<path id="&lt;Path&gt;" fill-rule="evenodd" class="s16" d="m2115.9 933.7c-3.3 0-6-2.7-6-6 0-3.3 2.7-6 6-6 3.3 0 6 2.7 6 6 0 3.3-2.7 6-6 6z"/>
					<path id="&lt;Path&gt;" fill-rule="evenodd" class="s12" d="m2086.6 964.5c-1.5 0.1-2.4 1.8-1.7 3.2 2.3 4.9 9 8.1 16.5 7.3 7.4-0.9 13.3-5.4 14.4-10.9 0.3-1.4-0.9-2.8-2.4-2.6 0 0-5.7 2.3-13.1 3.1-7.6 0.9-13.7-0.1-13.7-0.1z"/>
					<g id="&lt;Group&gt;">
						<path id="&lt;Path&gt;" fill-rule="evenodd" class="s17" d="m2159.4 935.8c1 0 1.8-0.7 2-1.7 0.4-2.7 2-5.1 4.5-6.5 1.9-1.1 3.8-1.4 5.3-0.8 1.1 0.4 2.2-0.1 2.7-1.2 0.4-1-0.1-2.2-1.2-2.6-2.6-1.1-5.9-0.7-8.9 1-3.5 2.1-5.9 5.6-6.5 9.5-0.1 1.1 0.7 2.1 1.8 2.3q0.1 0 0.3 0z"/>
					</g>
					<g id="&lt;Group&gt;">
						<path id="&lt;Path&gt;" fill-rule="evenodd" class="s17" d="m2092.9 953.9c1.1 0 1.9 0 2.2-0.1 0.9 0 1.7-0.9 1.6-1.9-0.1-1-1-1.7-2-1.6-2.2 0.1-9 0.1-10.9-2.7q-1.2-1.8 0.5-5.3v-0.2l2.9-7.7c0.4-0.9-0.1-2-1-2.3-0.9-0.4-2 0.1-2.3 1l-2.9 7.7c-1.7 3.5-1.7 6.5-0.1 8.8 2.6 3.8 8.6 4.3 12 4.3z"/>
					</g>
					<g id="&lt;Group&gt;">
						<path id="&lt;Path&gt;" fill-rule="evenodd" class="s5" d="m2129.4 921.5q0.6 0.1 1-0.2c1-0.6 1.4-1.8 0.8-2.8-4.5-8.1-13.3-8.3-17.3-7.2-1.1 0.3-1.8 1.4-1.5 2.5 0.3 1 1.4 1.7 2.5 1.4 0.3-0.1 8.6-2.1 12.8 5.3 0.3 0.7 1 1 1.7 1z"/>
					</g>
					<g id="&lt;Group&gt;">
						<path id="&lt;Path&gt;" fill-rule="evenodd" class="s5" d="m2064.6 917.8c0.8 0 1.5-0.5 1.9-1.2 2.7-5.5 7.9-4.1 8.5-3.9 1.1 0.3 2.2-0.3 2.6-1.3 0.3-1.1-0.3-2.2-1.3-2.6-3.2-1-10.1-1.1-13.5 6-0.5 1-0.1 2.3 1 2.8q0.4 0.2 0.8 0.2z"/>
					</g>
					<path id="&lt;Path&gt;" fill-rule="evenodd" class="s18" d="m2151.2 1147.7c0 0-2.7-24.4-5.1-35.6-4.2 13-6.7 22.5-6.7 22.5z"/>
				</g>
				<g id="&lt;Group&gt;">
					<path id="&lt;Path&gt;" fill-rule="evenodd" class="s5" d="m1626.9 1296.8c-8 0-14.5-7.7-14.5-17.2 0-9.5 6.5-17.2 14.5-17.2 7.9 0 14.4 7.7 14.4 17.2 0 9.5-6.5 17.2-14.4 17.2z"/>
					<path id="&lt;Path&gt;" fill-rule="evenodd" class="s5" d="m1491.8 1276.4c3.5 8.8 12.3 13.6 19.8 10.7 7.4-2.9 10.6-12.4 7.2-21.2-3.5-8.9-12.3-13.7-19.7-10.8-7.5 2.9-10.7 12.4-7.3 21.3z"/>
					<path id="&lt;Path&gt;" fill-rule="evenodd" class="s5" d="m1490.9 1243.5c0.4 9.5 7.2 16.9 15.2 16.5 8-0.3 14.1-8.3 13.7-17.8-0.4-9.4-7.3-16.8-15.2-16.5-8 0.4-14.2 8.3-13.7 17.8z"/>
					<path id="&lt;Path&gt;" fill-rule="evenodd" class="s9" d="m1658.1 1354.7l24.5 28.9c0 0 21.6-41.8 18.4-64.9-11-17.2-16.4-34.4-11.2-37.1 5.2-2.7 4.7 10.7 9 9.5 4.3-1.3 0.1-18.7 2.9-25.9 5.8-15.5 22.5-8.2 24.7 5.1 2.2 13.3 0.4 32.7-7.6 46 0.2 17 6 94-29.5 122.8-26.6-17.7-55.6-56.6-55.6-56.6z"/>
					<path id="&lt;Path&gt;" fill-rule="evenodd" class="s9" d="m1480.7 1346.6c0 0-38.2 49.4-43.3 69.1-6.1 23-1 121.4-1 121.4 0 0-13.2 11.3-3.7 40.9 5.2 16.1 15.6 7.1 17.3 1.8 2.9-9.7-7.2-23.7-2.9-27.6 6.6-5.9 8.4 14.1 13.2 8.4 4.1-4.6-7.4-24.8-7.4-24.8 0 0 9.4-86.8 16.1-105.4 5.5-14.9 39.8-51.5 39.8-51.5z"/>
					<path id="&lt;Path&gt;" fill-rule="evenodd" class="s5" d="m1626.9 1266.5c-8 0-14.5-7.7-14.5-17.2 0-9.5 6.5-17.2 14.5-17.2 7.9 0 14.4 7.7 14.4 17.2 0 9.5-6.5 17.2-14.4 17.2z"/>
					<path id="&lt;Path&gt;" fill-rule="evenodd" class="s9" d="m1512 1504.7v329.6l31.1-1.6 18.9-320.5z"/>
					<path id="&lt;Path&gt;" fill-rule="evenodd" class="s9" d="m1559.1 1505.8l27.6 325.6 27.2-4.4 8.9-322.3z"/>
					<path id="&lt;Path&gt;" fill-rule="evenodd" class="s5" d="m1586.4 1825.6c-2.5 4-2.9 11.2-2.6 16.5 0.1 3 2.6 5.4 5.7 5.4h61.1c-0.4-13.7-14.8-15.3-34.8-20.4-18.3-1.3-29.4-1.5-29.4-1.5z"/>
					<path id="&lt;Path&gt;" fill-rule="evenodd" class="s9" d="m1586.4 1825.6c2.5 4.2 28.4 10.1 34.2 8.2 5.8-1.9-1.1-4.8-4.8-6.7-2.8-1.5-29.4-1.5-29.4-1.5z"/>
					<path id="&lt;Path&gt;" fill-rule="evenodd" class="s5" d="m1512.2 1823.3c-2.6 4.2-3 12.9-2.7 18.9 0.2 3 2.7 5.3 5.7 5.3h60.9c-0.5-13.9-14.1-17.6-34.2-22.8-18.6-1.3-29.7-1.4-29.7-1.4z"/>
					<path id="&lt;Path&gt;" fill-rule="evenodd" class="s9" d="m1512.2 1823.3c2.5 4.2 28.6 10.1 34.5 8.2 5.8-1.9-1.1-4.9-4.8-6.8-2.9-1.5-29.7-1.4-29.7-1.4z"/>
					<path id="&lt;Path&gt;" fill-rule="evenodd" class="s19" d="m1586.6 1300.4c22 4.2 48.3 6.5 90.2 70.9-7 14.5-31.5 37.1-31.5 37.1l-27.4-26.5-3.5 75.7h-101.6l-4-78.7-17.5 26.9c0 0-28.7-5.8-37.7-26.9 19.2-27.4 44.9-73 93.4-78.5 15.5-0.7 39.6 0 39.6 0z"/>
					<path id="&lt;Path&gt;" fill-rule="evenodd" class="s9" d="m1497.5 1216.1q0 5.8 1 11.3c5.4 33.2 37.5 66.3 72.4 66.3 31.2 0 54.6-27.9 63.8-55.8 2.3-6.9 3.6-14.2 3.6-21.8 0-38.7-31.5-70-70.4-70-38.9 0-70.4 31.3-70.4 70z"/>
					<path id="&lt;Path&gt;" fill-rule="evenodd" class="s5" d="m1497.3 1216.1c0.5 6.2 0.2 21 5.9 26.8 27.2-6.7 56-27.5 66.8-50.9 13.5 27.5 63.7 49.5 63.7 49.5 3-6.8 4.3-17.8 4.3-25.4 0-38.7-31.5-70-70.4-70-38.8 0-73.7 31.5-70.3 70z"/>
					<path id="&lt;Path&gt;" fill-rule="evenodd" class="s9" d="m1586.6 1279.6v27.1c0 0-18 15.9-39.6 0-1.5-13.4 0-24.5 0-24.5z"/>
					<path id="&lt;Path&gt;" fill-rule="evenodd" class="s5" d="m1450.4 1632.2c14.3 7.5 30.3 12.6 47.1 16 66.7 13.3 146.4-1.9 185.1-16-16.4-40-67.9-180.5-67.9-180.5 0 0-62 1-92.6 1.2-3.7 0.1-6.9 0.1-9.5 0.1-12.6 45-43.6 121.7-62.2 179.2z"/>
					<path id="&lt;Path&gt;" fill-rule="evenodd" class="s5" d="m1626.8 1323.8c-6.7 0-12.1-6.5-12.1-14.5 0-7.9 5.4-14.4 12.1-14.4 6.8 0 12.2 6.5 12.2 14.4 0 8-5.4 14.5-12.2 14.5z"/>
					<path id="&lt;Path&gt;" fill-rule="evenodd" class="s5" d="m1626 1348.1c-6.2 0-11.2-6-11.2-13.4 0-7.4 5-13.4 11.2-13.4 6.3 0 11.3 6 11.3 13.4 0 7.4-5 13.4-11.3 13.4z"/>
					<path id="&lt;Path&gt;" fill-rule="evenodd" class="s5" d="m1497.1 1301c0.3 8 6.1 14.2 12.8 13.9 6.7-0.3 11.9-7 11.5-15-0.3-8-6.1-14.2-12.8-13.9-6.7 0.3-11.9 7-11.5 15z"/>
					<path id="&lt;Path&gt;" fill-rule="evenodd" class="s5" d="m1499.2 1327.1c0.3 7.4 5.6 13.1 11.8 12.9 6.2-0.3 11-6.5 10.6-13.9-0.3-7.4-5.6-13.1-11.8-12.8-6.2 0.2-11 6.4-10.6 13.8z"/>
					<path id="&lt;Path&gt;" fill-rule="evenodd" class="s5" d="m1615.6 1363.1c0 8.3 10.4 20.5 10.4 20.5 0 0 10.5-12.2 10.5-20.5 0-8.3-4.7-15-10.5-15-5.7 0-10.4 6.7-10.4 15z"/>
					<path id="&lt;Path&gt;" fill-rule="evenodd" class="s5" d="m1501.2 1353.2c0 8.3 10.5 20.5 10.5 20.5 0 0 10.4-12.2 10.4-20.5 0-8.4-4.7-15.1-10.4-15.1-5.8 0-10.5 6.7-10.5 15.1z"/>
					<path id="&lt;Path&gt;" fill-rule="evenodd" class="s16" d="m1601.8 1248.2c-3.1 0-5.7-2.6-5.7-5.8 0-3.1 2.6-5.7 5.7-5.7 3.2 0 5.8 2.6 5.8 5.8 0 3.1-2.6 5.7-5.8 5.7z"/>
					<path id="&lt;Path&gt;" fill-rule="evenodd" class="s16" d="m1549.9 1247.7c-3.2 0-5.8-2.6-5.8-5.8 0-3.1 2.6-5.7 5.8-5.7 3.2 0 5.8 2.6 5.8 5.8 0 3.1-2.6 5.7-5.8 5.7z"/>
					<g id="&lt;Group&gt;">
						<path id="&lt;Path&gt;" fill-rule="evenodd" class="s24" d="m1574.3 1267q0 0 0.1 0c4.8-0.1 7.9-1.3 9.2-3.8 1.2-2.3 0.7-5.2-1.5-8.9-0.6-0.8-1.7-1.1-2.5-0.5-0.9 0.5-1.1 1.6-0.6 2.5 1.5 2.3 2 4.2 1.4 5.2-0.6 1.1-2.8 1.8-6.1 1.9-1 0-1.8 0.8-1.8 1.8 0 1 0.8 1.8 1.8 1.8z"/>
					</g>
					<path id="&lt;Path&gt;" fill-rule="evenodd" class="s12" d="m1555.4 1273c-1.6-0.1-2.7 1.4-2.3 3 1.5 5.5 7.8 9.8 15.6 10.2 7.8 0.4 14.5-3.2 16.6-8.6 0.6-1.4-0.5-3-2-3.1 0 0-6.3 1.4-14 1-7.9-0.4-13.9-2.5-13.9-2.5z"/>
					<g id="&lt;Group&gt;">
						<path id="&lt;Path&gt;" fill-rule="evenodd" class="s5" d="m1539.6 1234.4c0.5 0 1-0.2 1.4-0.5 5-4.8 11.4-3.7 11.6-3.6 1.1 0.2 2.2-0.6 2.4-1.7 0.2-1.1-0.5-2.2-1.6-2.4-0.4-0.1-8.7-1.6-15.2 4.7-0.9 0.7-0.9 2.1-0.1 2.9q0.6 0.6 1.5 0.6z"/>
					</g>
					<g id="&lt;Group&gt;">
						<path id="&lt;Path&gt;" fill-rule="evenodd" class="s5" d="m1611.4 1236.8c0.5 0 1.1-0.2 1.5-0.6 0.8-0.8 0.7-2.1-0.1-2.9-7.3-7.1-15.8-5.2-16.1-5.1-1.2 0.3-1.8 1.4-1.6 2.5 0.3 1.1 1.4 1.8 2.5 1.5 0.3 0 6.7-1.4 12.3 4 0.4 0.4 1 0.6 1.5 0.6z"/>
					</g>
					<path id="&lt;Path&gt;" fill-rule="evenodd" class="s9" d="m1499.6 1249.2c4.6 6.7 11.5 9.9 15.4 7.2 4-2.7 3.5-10.3-1.1-16.9-4.5-6.7-11.4-9.9-15.4-7.2-3.9 2.7-3.4 10.3 1.1 16.9z"/>
					<g id="&lt;Group&gt;">
						<path id="&lt;Path&gt;" fill-rule="evenodd" class="s24" d="m1509.2 1252.2c0.6 0 1.1-0.3 1.3-0.9 1.1-2.8 0.8-6.1-0.8-9-1.4-2.5-3.6-4.3-5.7-4.7-0.7-0.2-1.4 0.3-1.6 1-0.1 0.8 0.4 1.5 1.1 1.6 1.3 0.3 2.8 1.6 3.8 3.4 1.2 2.2 1.5 4.7 0.7 6.8-0.3 0.7 0.1 1.5 0.8 1.7q0.2 0.1 0.4 0.1z"/>
					</g>
					<path id="&lt;Path&gt;" fill-rule="evenodd" class="s10" d="m1508.8 1378.9l8.4-8 4.9 82-9.5 0.1z"/>
					<path id="&lt;Path&gt;" fill-rule="evenodd" class="s15" d="m1511 1343c-3.6 0-6.5-1.5-6.5-3.3 0-1.7 2.9-3.2 6.5-3.2 3.5 0 6.4 1.5 6.4 3.3 0 1.7-2.9 3.2-6.4 3.2z"/>
					<path id="&lt;Path&gt;" fill-rule="evenodd" class="s15" d="m1626.4 1351.3c-3.6 0-6.5-1.5-6.5-3.3 0-1.7 2.9-3.2 6.5-3.2 3.5 0 6.4 1.5 6.4 3.3 0 1.7-2.9 3.2-6.4 3.2z"/>
					<path id="&lt;Path&gt;" fill-rule="evenodd" class="s25" d="m1450.4 1632.2c14.3 7.5 30.3 12.6 47.1 16l24.6-195.3c-3.7 0.1-6.9 0.1-9.5 0.1-12.6 45-43.6 121.7-62.2 179.2z"/>
				</g>
				<g id="&lt;Group&gt;">
					<path id="&lt;Path&gt;" fill-rule="evenodd" class="s15" d="m2610.7 1827.3l7.1 21c0 0 64.5-19.4 69.9-73.2 0.6-6.2 0.6-12 0.1-17.2-3.7-40.2-35.3-50.7-23.4-15.1 1.3 4 2.2 8 2.6 12 4.2 37-26.5 74.8-56.3 72.5z"/>
					<path id="&lt;Path&gt;" fill-rule="evenodd" class="s12" d="m2363.8 1600.5c1.9 13.7 18.8 28.8 39.9 37.4q4.9 2 9.9 3.5c11.1 3.2 22.9 4.6 34.1 3q4.2-0.5 8.2-1.4c32.6-7 55.6-27.8 52.8-48.7-1.7-12.2-11.9-22-26.6-27.6q-5.3-2-11.4-3.3c-10.3-2.2-22-2.7-34.3-1-7.9 1.1-16 2.4-23.7 4.1q-0.1 0-0.1 0c-27.9 6-51.2 16.3-48.8 34z"/>
					<path id="&lt;Path&gt;" fill-rule="evenodd" class="s12" d="m2405.7 1848.3h37.2c0 0 18.9-64.4 25.1-99.3 6.3 20.6 6.3 78.4 6.3 78.4 0 0-16 2.5-19.4 17.2-0.5 2.1 0.8 3.7 2.9 3.7h40.7c0 0 5.4-82.3-0.9-102 14.5 16.5 17.4 64 17.9 87.9 0.2 7.9 6.6 14.1 14.4 14.1h89.8c0 0 9.7-49.5-8.4-95.4-8.3-21.2-22.5-41.8-46.3-56.8-19.9-12.6-34.9-23.7-46.1-33.3-31.4-27-33.8-42-33.8-42l-49.8 18.8c3.1 11.7 7.6 114.1-7.6 187.8-15.9 0.9-21.9 2.7-26.9 13.2-1.7 3.6 1 7.7 4.9 7.7z"/>
					<path id="&lt;Path&gt;" fill-rule="evenodd" class="s15" d="m2487.6 1569c19-9.2 40.5-36.3 56.6-12 16.2 24.3 18 66.8 0 56.3-17.9-10.5-28.7-32.3-28.7-32.3l-9.6 8.6z"/>
					<path id="&lt;Path&gt;" fill-rule="evenodd" class="s15" d="m2465.3 1565.2c-0.9-18-8-44.9-30-35-22 9.9-11.9 16.1 0 21.5 11.9 5.5 15.7 9.9 15.7 9.9z"/>
					<path id="&lt;Path&gt;" fill-rule="evenodd" class="s16" d="m2377.5 1578.7c13.3 2 7.4 23.4-6 25.3-13.3 1.8-22.3-29.5 6-25.3z"/>
					<path id="&lt;Path&gt;" fill-rule="evenodd" class="s15" d="m2455.9 1643c32.6-7 55.6-27.8 52.8-48.7-1.7-12.2-11.9-22-26.6-27.6-12.6 4.9-32 20.5-28.7 30.2 7.2 21.1-9.8 40.8 2.5 46.1z"/>
					<path id="&lt;Path&gt;" fill-rule="evenodd" class="s15" d="m2412.7 1566.5c4.4-0.5 12.9 17 23.6 20.5 9.9 3.3 20-9.4 34.4-23.6-10.3-2.2-22-2.7-34.3-1-7.9 1.1-16 2.4-23.7 4.1z"/>
					<path id="&lt;Path&gt;" fill-rule="evenodd" class="s16" d="m2474.9 1601.3c-3.7 0-6.8-3.1-6.8-6.9 0-3.8 3.1-6.9 6.8-6.9 3.8 0 6.9 3.1 6.9 6.9 0 3.8-3.1 6.9-6.9 6.9z"/>
					<path id="&lt;Path&gt;" fill-rule="evenodd" class="s16" d="m2442.2 1576.5c-3 0-5.4-2.4-5.4-5.4 0-3 2.4-5.4 5.4-5.4 2.9 0 5.3 2.4 5.3 5.4 0 3-2.4 5.4-5.3 5.4z"/>
					<g id="&lt;Group&gt;">
						<path id="&lt;Path&gt;" fill-rule="evenodd" class="s16" d="m2403.7 1637.9q4.9 2 9.9 3.5 0.9 0 1.9 0c9.7-0.3 23-2.9 33.4-13.4 0.5-0.5 0.5-1.3 0-1.8-0.5-0.5-1.4-0.5-1.9 0-16.6 16.8-40.7 12.3-43.3 11.7z"/>
					</g>
					<path id="&lt;Path&gt;" fill-rule="evenodd" class="s15" d="m2523.5 1705c-4.9 10.1 23.5 48.6 36.6 33.8 13-14.8 21.9-5.9 35.6 5.9 5.3 4.7 10.8 7.2 15.6 8.2-8.3-21.2-22.5-41.8-46.3-56.8-19.9-12.6-34.9-23.7-46.1-33.3 8.6 14.9 9.6 32.1 4.6 42.2z"/>
					<path id="&lt;Path&gt;" fill-rule="evenodd" class="s12" d="m2692.3 1747.7q-0.2 0.8-0.5 1.5l0.5 3.7z"/>
					<path id="&lt;Path&gt;" fill-rule="evenodd" class="s12" d="m2664.4 1742.8c1.3 4 2.2 8 2.6 12 2.2 1.9 4.2 4 5.7 5.9 4.4 5.8 10.5 4.1 15.1-2.8-3.7-40.2-35.3-50.7-23.4-15.1z"/>
				</g>
			</g>
		</g>
	</g>
</svg>