<svg id="Layer_1" data-name="Layer 1" xmlns="http://www.w3.org/2000/svg" viewBox="0 0 128 128"><title>HEALTH INSURANCE</title><path fill="#0c0961" d="M110.242,30.143a1.747,1.747,0,0,0-1.232-1.487,403.97,403.97,0,0,1-44.289-16.1,1.744,1.744,0,0,0-1.442,0,403.97,403.97,0,0,1-44.289,16.1,1.747,1.747,0,0,0-1.232,1.487A113.457,113.457,0,0,0,20.67,66.085c6.257,25.127,21.05,42.22,42.779,49.43a1.75,1.75,0,0,0,1.1,0c21.729-7.21,36.522-24.3,42.779-49.43A113.457,113.457,0,0,0,110.242,30.143Zm-6.309,35.1C97.949,89.271,84.515,105,64,112.007c-20.487-7-33.912-22.694-39.909-46.672a113.508,113.508,0,0,1-2.949-33.676A415.982,415.982,0,0,0,64,16.06a416.235,416.235,0,0,0,42.858,15.6A113.251,113.251,0,0,1,103.933,65.239Z"/><path fill="#0c0961" d="M101.339,34.655c-17.382-5.5-30.426-10.754-36.655-13.4a1.755,1.755,0,0,0-1.368,0c-6.229,2.643-19.273,7.9-36.655,13.4a1.751,1.751,0,0,0-1.222,1.632,107.982,107.982,0,0,0,3.1,28.293c5.43,21.36,17.149,35.63,34.832,42.414a1.753,1.753,0,0,0,1.254,0C82.31,100.21,94.029,85.94,99.459,64.58a107.99,107.99,0,0,0,3.1-28.293A1.751,1.751,0,0,0,101.339,34.655ZM96.066,63.718C91,83.656,80.211,97.031,64,103.481c-16.211-6.45-27-19.825-32.066-39.763A105.715,105.715,0,0,1,28.92,37.61C45.235,32.4,57.629,27.453,64,24.769,70.371,27.453,82.765,32.4,99.08,37.61A105.725,105.725,0,0,1,96.066,63.718Z"/><path fill="#0c0961" d="M84,53.25H71.75V41A1.751,1.751,0,0,0,70,39.25H58A1.751,1.751,0,0,0,56.25,41V53.25H44A1.751,1.751,0,0,0,42.25,55V67A1.751,1.751,0,0,0,44,68.75H56.25V81A1.751,1.751,0,0,0,58,82.75H70A1.751,1.751,0,0,0,71.75,81V68.75H84A1.751,1.751,0,0,0,85.75,67V55A1.751,1.751,0,0,0,84,53.25Zm-1.75,12H70A1.751,1.751,0,0,0,68.25,67V79.25h-8.5V67A1.751,1.751,0,0,0,58,65.25H45.75v-8.5H58A1.751,1.751,0,0,0,59.75,55V42.75h8.5V55A1.751,1.751,0,0,0,70,56.75H82.25Z"/></svg>