<svg version="1.2" xmlns="http://www.w3.org/2000/svg" viewBox="0 0 1228 767" width="1228" height="767">
	<title>letter-cropped-svg</title>
	<style>
		.s0 { fill: #eeb27a } 
		.s1 { fill: #e69567 } 
		.s2 { fill: #33353a } 
		.s3 { fill: #fcf1e3 } 
		.s4 { fill: #be806c } 
		.s5 { fill: #fd7166 } 
		.s6 { fill: #e85348 } 
		.s7 { fill: #fd857c } 
		.s8 { fill: #44474e } 
		.s9 { fill: #fffff8 } 
		.s10 { fill: #a76452 } 
		.s11 { fill: #ffffff } 
	</style>
	<g id="221353356351_1">
		<g id="&lt;Group&gt;">
			<g id="&lt;Group&gt;">
			</g>
			<g id="&lt;Group&gt;">
			</g>
			<g id="&lt;Group&gt;">
			</g>
			<g id="&lt;Group&gt;">
			</g>
			<g id="&lt;Group&gt;">
			</g>
			<g id="&lt;Group&gt;">
			</g>
			<g id="&lt;Group&gt;">
				<g id="&lt;Group&gt;">
				</g>
				<g id="&lt;Group&gt;">
				</g>
			</g>
			<g id="&lt;Group&gt;">
				<g id="&lt;Group&gt;">
					<g id="&lt;Group&gt;">
					</g>
				</g>
				<g id="&lt;Group&gt;">
				</g>
				<g id="&lt;Group&gt;">
					<g id="&lt;Group&gt;">
					</g>
				</g>
				<g id="&lt;Group&gt;">
					<g id="&lt;Group&gt;">
					</g>
				</g>
				<g id="&lt;Group&gt;">
					<g id="&lt;Group&gt;">
					</g>
				</g>
				<g id="&lt;Group&gt;">
					<g id="&lt;Group&gt;">
					</g>
				</g>
			</g>
			<g id="&lt;Group&gt;">
				<g id="&lt;Group&gt;">
				</g>
			</g>
			<g id="&lt;Group&gt;">
				<g id="&lt;Group&gt;">
				</g>
				<g id="&lt;Group&gt;">
				</g>
				<g id="&lt;Group&gt;">
				</g>
				<g id="&lt;Group&gt;">
				</g>
				<g id="&lt;Group&gt;">
				</g>
			</g>
			<g id="&lt;Group&gt;">
				<g id="&lt;Group&gt;">
				</g>
				<g id="&lt;Group&gt;">
				</g>
			</g>
		</g>
		<g id="&lt;Group&gt;">
			<path id="&lt;Path&gt;" class="s0" d="m341.1 736.6h340.2v-195.2c0-94-76.2-170.1-170.1-170.1-93.9 0-170.1 76.1-170.1 170.1z"/>
			<path id="&lt;Path&gt;" class="s0" d="m778 371.3h-277.2v221.4h243.3z"/>
			<path id="&lt;Path&gt;" class="s1" d="m607.9 736.6h340.2v-195.2c0-94-76.2-170.1-170.1-170.1-93.9 0-170.1 76.1-170.1 170.1z"/>
			<path id="&lt;Path&gt;" class="s2" d="m626.2 717h303.6v-174.3c0-83.8-68-151.8-151.8-151.8-83.8 0-151.8 68-151.8 151.8z"/>
			<path id="&lt;Path&gt;" class="s1" d="m1218.2 736.6h-615.4c-5.4 0-9.8-4.4-9.8-9.8 0-5.4 4.4-9.8 9.8-9.8h615.4c5.4 0 9.8 4.4 9.8 9.8 0 5.4-4.4 9.8-9.8 9.8z"/>
			<path id="&lt;Path&gt;" class="s3" d="m580.9 754.7h144.2c5.1 0 9.2-4.2 9.2-9.3v-9.2h-163.1v8.7c0 5.4 4.3 9.8 9.7 9.8z"/>
			<g id="&lt;Group&gt;">
				<path id="&lt;Path&gt;" class="s2" d="m899.9 219.2c0 0-2.1-22.3 22.8-22.3 0 0-7.5 2.1-11.4 6.2 0 0 15.9-9.4 33.2 5 17.2 14.3 6.5 50.2 11.8 57.1 5.2 6.8 25.7 8.2 23.2 30.2-2.5 22.1-65 49.7-61 68 0 0-24.5-36-7-52.4 0 0-8.5 8-9.4 17.6 0 0-2.3-18.7 9.6-24.7 10.5-5.2 19.1-24.5 18.2-28-0.9-3.4-30-56.7-30-56.7z"/>
				<path id="&lt;Path&gt;" class="s4" d="m935 312.8c0 0-35.4 89.5-43.1 86.2-7.6-3.4-52.6-17.6-52.6-17.6l-3 10.9c0 0 42.9 33 64.9 34.5 22 1.4 51.9-63.5 51.9-63.5z"/>
				<g id="&lt;Group&gt;">
					<path id="&lt;Path&gt;" class="s5" d="m935.4 377l35 122.2c0.5 1.8 0.6 3.6 0.5 5.4-0.4 6.4-4.8 12.1-11.3 14l-212.2 60.7c-6.5 1.9-13.3-0.7-17.1-6-1-1.4-1.8-3-2.3-4.8l-34.9-122.1c-2.4-8.3 2.4-17 10.7-19.4l212.2-60.7c8.3-2.4 17 2.4 19.4 10.7z"/>
					<g id="&lt;Group&gt;">
						<path id="&lt;Path&gt;" class="s6" d="m970.9 504.6c-0.4 6.4-4.8 12.1-11.3 14l-212.2 60.7c-6.5 1.9-13.3-0.7-17.1-6l108.1-98.4z"/>
						<path id="&lt;Path&gt;" class="s7" d="m935.4 377l-95 117.9-145.5-42.2-1.8-6.3c-2.4-8.3 2.4-17 10.7-19.4l212.2-60.7c8.3-2.4 17 2.4 19.4 10.7z"/>
					</g>
				</g>
				<path id="&lt;Path&gt;" class="s4" d="m855 383.6c0 0-19.4-8.2-22.1 2.2-1.4 5.5-4.8 12.7 1.2 12.2 6-0.5 12-4.6 12.7-7.8 0.7-3.3 8.2-6.6 8.2-6.6z"/>
				<path id="&lt;Path&gt;" class="s8" d="m1099.3 461.5q-0.2 0.5-0.5 0.9c-4.1 7.1-13.4 24.5-23.7 43.4-4.9 9-10 18.4-14.8 27.2-8.3 15.3-15.9 28.8-20.3 36-4.5 7.3-7.9 12.4-9.2 14.4-0.4 0.7-0.5 1.4-0.4 2.1 0.4 6.5 0.3 12.9-0.3 19.1-6.2 61.8-47.9 94.9-47.9 94.9l-12.4 1.8c0 0 17.6-64.9 22.7-101.6 0.9-6.2 1.3-11.3 1-14.5-0.9-9.6 0.8-23.6 4-39.8 5.7-28.6 16.2-63.7 25.3-91.9 0.6-1.8 18-64.8 18-64.8 14.6 12.8 67.9 18.1 67.9 18.1 0 0 9 22-9.4 54.7z"/>
				<path id="&lt;Path&gt;" class="s2" d="m943.9 717h51.6c0 0 1.3-7.9-1.4-13.9-2.6-5.7-6.3-5.9-0.5-14.9-3.3 3.4-13.8 4.8-21.3 3.8-0.9 1.5-5.9 11.4-9 13.6-3.3 2.5-18.4 1.6-19.4 11.4z"/>
				<path id="&lt;Path&gt;" class="s2" d="m1099.3 461.5q-0.2 0.5-0.5 0.9c-4.1 7.1-26.1 47.8-36.4 66.8 11.9-49.1 3.6-98.1 3.6-98.1z"/>
				<path id="&lt;Path&gt;" class="s2" d="m906.9 216.1c-0.3-1.4 29.5 13.5 31 15.2 14 15.5 10 35.7 2 35.9-5.1 0.2-4.1 8.7-4.1 8.7l-57.2-24.2c0 0 6.9-40.2 28.3-35.6z"/>
				<path id="&lt;Path&gt;" class="s9" d="m926.1 314.7c0 0-7.6 7.9-7.6 31.5 0 0 10.5 16.6 37.8 20.8 0 0-23.5-52.3-30.2-52.3z"/>
				<path id="&lt;Path&gt;" class="s8" d="m1059 410.6l-0.2-9.6c19.3 2.4 66.4-23 66.4-23 0 0 20.2 13.4 22.9 51.6 1.4 18.7 9.9 97.7 10.8 121.3 0.4 8.5 0.5 14.6 0.5 17q0 0.1 0 0.1c0 0.7 0.4 1.4 0.8 2 4 5 7.5 10.4 10.5 16 29.4 54.6 14 128.9 14 128.9l-6.8-1.7c0 0-24.9-77-41.1-110.4-2.8-5.6-5.3-10-7.4-12.5-6.1-7.5-12.5-20-18.8-35.2-12-28.6-51.6-144.5-51.6-144.5z"/>
				<path id="&lt;Path&gt;" class="s2" d="m1143.6 717h51.7c0 0 1.2-7.9-1.5-13.9-2.6-5.7-6.6-8.3-5.6-15.3-3.3 3.4-8.7 7.2-16.2 6.2-0.9 1.5-5.9 9.4-8.9 11.6-3.4 2.5-18.5 1.6-19.5 11.4z"/>
				<path id="&lt;Path&gt;" class="s9" d="m959.8 378.1c6.9 1.2-1.2 6.7 8.4 7.7 13.6 1.5 27.6 2.5 34.9 5.5 2.7 1 4.5 2.3 5.1 4 3.1 9.6 23.3 26.1 23.3 26.1 90-4.1 93.7-43.4 93.7-43.4-58.4-56.8-112.1-90.2-153-94.6-7.1-0.8-15.9 3.7-22.3 6.5-14.3 6.4-23.8 24.8-23.8 24.8 0 0 7.3 58.9 33.7 63.4z"/>
				<path id="&lt;Path&gt;" class="s3" d="m968.2 385.8c13.6 1.5 27.6 2.5 34.9 5.5 3-44.9-18.1-78.7-18.1-78.7 0 0-13.9 56.2-16.8 73.2z"/>
				<path id="&lt;Path&gt;" class="s4" d="m956.4 305c0 0 34.2-1.8 40.3 19.6 6.1 21.5-11.4 107.1-15.2 115.9-6.8 16.1-40.2 62-40.2 62l-12.2-3.7c0 0 22.2-70.1 27.2-77.1 7.8-10.9-10.1-107.3 0.1-116.7z"/>
				<path id="&lt;Path&gt;" class="s4" d="m929.1 498.8c0 0-0.7 5.4-3 8.3-2.3 2.8-9 9.6-9.1 13.5 0 0 0.4 1.8 1.8 1.5 1.4-0.3 6.4-5.3 9-4.9 0 0-1.4 8-2.7 10.2-1.4 2.2-0.3 11.8 0.5 13.7 0.8 1.9 10.8-10.4 14.9-15.9 4.1-5.5 0-27.9 0-27.9z"/>
				<path id="&lt;Path&gt;" class="s9" d="m1003.4 353.3c-0.1 0.5-32.3 5.9-52.5-4.3 0 0-16.8-52.8 7.2-50.3 24.1 2.6 38.4 10.2 39 21.7 0.6 11.5 6.3 32.9 6.3 32.9z"/>
				<path id="&lt;Path&gt;" class="s4" d="m949.9 289.9c0 0-9.5 35.4-23.8 24.8 0.5-1.7-2-6.7-5-11.7-3.7-6.5-8.2-13.1-8.2-13.1l19.3-16.9 1.2-1c5.9 10.3 11.7 14.4 16.5 17.9z"/>
				<path id="&lt;Path&gt;" class="s10" d="m912.9 289.9c0 0 4.5 6.6 8.2 13.1 12-7.4 12-22.3 11.1-30z"/>
				<path id="&lt;Path&gt;" class="s4" d="m912.4 298.4c0 0 29.1-16.2 18.7-34.3-10.4-18-13.6-32.2-32.7-22.6-19 9.6-18.7 18.6-16.6 25.4 2 6.9 22.7 35.3 30.6 31.5z"/>
				<path id="&lt;Path&gt;" class="s2" d="m876.8 256.4c1.4-8 5.4-8.8 8.3-8.2 10.7-17.9 28.3-10.9 28.3-10.9 9.5 11.8 23 13.8 23 13.8 0 0-3.3 6.3-17.3 10.2-4.3 1.2-9.1 0.5-13.8-1.1 9.7 5.4 19.8 7.5 19.8 7.5-18.3 1.7-35.8-15.1-37.7-16.9-0.8 2.6-2.3 8-1.4 12 1.2 5.4 6 15.2 3.1 16.5 0 0-14.3-10.9-12.3-22.9z"/>
			</g>
			<g id="&lt;Group&gt;">
				<g id="&lt;Group&gt;">
					<path id="&lt;Path&gt;" class="s4" d="m519.7 519.2c1.8 2.1 2 4.4 1.2 6.9q-0.1 0-0.1 0c-1.6 4.6-7.1 9.7-13.5 14.9q-1.2 1-2.2 1.8-0.2 0.2-0.5 0.4-0.2 0.2-0.3 0.4c-6 5.4-3.7 6.7-14.4 17.8-12.2 12.7-20.6 12.9-23 11.8-2-1 2.1-7.7 6.6-15.3q0.4-0.5 0.7-1.1 0.9-1.5 1.8-3c5.3-9.1 4-13.4 2.7-26.9-1-11-17.1-61.5-17.1-61.5l23.3-4c0 0 7.1 40.2 14.8 46.4 4.2 3.3 8.8 3.3 12.8 5.7q0.4 0.3 0.8 0.6c2.3 1.5 4.6 3 6.4 5.1z"/>
					<path id="&lt;Path&gt;" class="s2" d="m519.7 519.2c1.8 2.1 2 4.4 1.2 6.9q-0.1 0-0.1 0c-2 4.6-7.4 9.7-13.5 14.8q-1.2 1-2.2 1.9-0.2 0.2-0.5 0.4-0.2 0.2-0.3 0.4c-6 5.4-3.7 6.7-14.4 17.8-12.2 12.7-20.6 12.9-23 11.8-2-1 2.1-7.7 6.6-15.3 2.4-0.9 13.4-5.3 21.8-16 7.3-9.4 12.2-21.4 17.2-28.4q0.4 0.3 0.8 0.6c2.3 1.5 4.6 3 6.4 5.1z"/>
					<path id="&lt;Path&gt;" class="s4" d="m331.4 504.6c-1.4 7.2-11.7 6-23.2 3.2-11.5-2.8-8.7 0.5-25.1-1.3-16.3-1.8-21.3-7.9-21.8-10.3-0.4-2.2 7.7-2.9 16.3-3.9q1.7-0.2 3.3-0.4c9.8-1.2 16.9-7.5 25.8-12.7 8.4-4.9 21-24.9 21-24.9l22.4 1.8c0 0-11.8 17.8-16.3 25.6-2.7 4.5-2.6 10.6-2.2 15.2 0.1 2.6 0.3 5.2-0.2 7.7z"/>
					<path id="&lt;Path&gt;" class="s2" d="m308.2 507.8c-11.5-2.8-8.7 0.5-25.1-1.3-16.3-1.8-21.3-7.9-21.8-10.3-0.4-2.2 7.7-2.9 16.3-3.9l0.1 0.2c0 0 9.8 6.9 23.4 7.2 11.1 0.3 22.8-2.9 30.5-2.8 0.1 2.6 0.3 5.2-0.2 7.7-1.4 7.2-11.7 6-23.2 3.2z"/>
					<path id="&lt;Path&gt;" class="s2" d="m417.3 361.3l20.9 56.4 27.4 73.6c0 0 7.4 0.7 14.5-1.3 6.5-1.9 14-6.9 14-6.9 0 0-7.6-79-21.7-124.3-3.7-11.7-7.7-21.1-12.2-26.4-22-26-42.9 28.9-42.9 28.9z"/>
					<path id="&lt;Path&gt;" class="s8" d="m438.6 271.8c13.7-4.4 52.8 1.3 92.1 9l8.3-13.6 84.9-6.6c0 0 28 62.1 12.7 101.7-2.3 5.8-6.8 9.6-14.4 9.7h-1.2c0 0-50.6 0-67 0-42.2 0-89.4-29.1-95.5-30.3-10-2-13.9 18-23.9 38.9-10 21-93.9 92.9-93.9 92.9 0 0-12.9 0.1-18.2-1.9-5.7-2.1-7.8-4.9-7.8-4.9 0 0 92.9-184.9 123.9-194.9z"/>
					<path id="&lt;Compound Path&gt;" class="s2" d="m515.3 149.1c26.8 21.8 91.3 59.6 91.7 59.4 0 0 20.6 12.4 34.7 6.3 23.5-10.1 41.6-45.6 9.1-84.8-16.2-19.6-29.7-26-26.5-52 3.4-28.2-9.3-63.6-41.8-65.1-2.7-0.1-19.1-2.3-30.8 1.4-29.9 9.3-79.8 120.4-36.4 134.8z"/>
					<path id="&lt;Path&gt;" class="s4" d="m603.1 116.2c0.2 0-6.5 14.6-16.2 18.1-10.3 3.8-24.9-2.4-24.8-2.4 1.8-1 3-7.7 2.3-15.6q0-0.6-0.1-1.1c-0.9-8.9-3.5-18.7-3.6-19.3l31.4-9 1.9-0.6c1.9 24.9 4.9 29.4 9.1 29.9z"/>
					<path id="&lt;Path&gt;" class="s10" d="m592.1 86.9c-3.1 9.1-10.8 25.6-27.8 28.3-0.9-8.9-3.5-18.7-3.6-19.3z"/>
					<path id="&lt;Path&gt;" class="s4" d="m555.4 105.3c0 0 42.4-2.8 40.2-29.1-2.1-26.4 1.9-44.5-25.2-43.8-27.2 0.7-31.6 11.1-33 20.1-1.4 9 7 52.9 18 52.8z"/>
					<path id="&lt;Path&gt;" class="s2" d="m547.8 31.9c0 0 10.6 30.9 35.5 34.5 18.3 2.6 25.5-2.3 25.5-2.3 0 0-10.2-9.7-15.7-24.6-1.6-4.4-5.4-7.6-10.1-8.3-12.9-2-29.7-10.6-35.2 0.7z"/>
					<path id="&lt;Path&gt;" class="s2" d="m556.8 37.4c0 0-7.6 3-12.8 14.3-2.9 6.2-5 20.9-3.2 26.9 0 0-12.2-28.1-3.4-40.8 9.4-13.5 19.4-0.4 19.4-0.4z"/>
					<path id="&lt;Path&gt;" class="s5" d="m638.4 213.5q-1.1 4.8-1.9 8.8c-0.9 4.4-1.5 8.2-1.9 11.5-1.3 10.4-0.9 16.6-1.8 23.3-0.4 3.8-1.3 7.7-3.1 12.7-1.8 4.8-47.7 9.1-73.8 7.4-8.3-0.6-14.6-1.7-16.9-3.7-9.3-8-8.3 9.8-9.6-75.4-0.6-41.6 35.2-78.6 35.2-78.6 0 0 2.9 17.8 38.5-3.3 1.2-0.8 15.2 20 28.7 45.5 14.9 28.2 10.8 34.2 6.6 51.8z"/>
					<path id="&lt;Path&gt;" class="s8" d="m438.2 417.7l27.4 73.6c0 0 7.4 0.7 14.5-1.3 6.5-1.9 14-6.9 14-6.9 0 0-7.6-79-21.7-124.3z"/>
					<path id="&lt;Path&gt;" class="s5" d="m564.6 119.5c0 0-36.6 6.2-40.9 22-4.3 15.8-34 103.9-34 103.9 0 0 23 7.8 31.6-0.7 8.6-8.6 29.9-79.8 29.9-79.8z"/>
					<path id="&lt;Path&gt;" class="s11" d="m562.5 88.4c0 0-1 4.6-5.6 5.3-4.7 0.8-6 0.3-7.1-0.5-1-0.9-2.2-2.6-2.2-2.6 0 0 7.4-2.8 14.9-2.2z"/>
					<path id="&lt;Path&gt;" class="s6" d="m634.6 233.8c-1.3 10.4-0.9 16.6-1.8 23.3-33.2 0.1-77.6-25.6-77.6-25.6z"/>
					<path id="&lt;Path&gt;" class="s6" d="m555.2 209.7c0 0 51.8-1.6 60.5-31 9.6-32.3 20.3 13.3 20.3 13.3l-5.7 29.1h-56.8z"/>
					<path id="&lt;Path&gt;" class="s9" d="m565.7 258.5l-80.3 0.7-39.6-92.9 80.4-0.7z"/>
					<path id="&lt;Path&gt;" class="s4" d="m555.2 216.5l-5.9-7.3c0 0-4-3.5-6.9-4.1-2.9-0.6-9-4.1-9.6-3.2-0.6 1 4.7 8.1 4.7 8.1l0.3 0.1c-6.1 4.5-21.4 0.5-23.3 2.4-2.3 2.2 3.2 7.1 6.1 9.8 2.9 2.8 11.3 7.3 17.8 5.3 4.7-1.5 12.2-3 12.2-3z"/>
					<path id="&lt;Path&gt;" class="s5" d="m603.1 116.2c0 0 33.6 2.2 42 15.3 8.4 13.1 18.8 79.6 14.4 102.5-4.3 22.8-112-4.4-112-4.4l3.5-19.8c0 0 62.1 0.4 65.6-7.7 4.7-10.8-13.5-85.9-13.5-85.9z"/>
					<path id="&lt;Path&gt;" class="s4" d="m451.9 182.7c0 0 5-5.8 8.2-3 3.2 2.7-0.8 16.3-3.9 14.9-3-1.4-6.1-10.3-4.3-11.9z"/>
				</g>
			</g>
			<g id="&lt;Group&gt;">
				<path id="&lt;Compound Path&gt;" class="s2" d="m73.6 160.5c-1.8-5.4 60-14 53.1 35.3 0 0 110.8 14.9 67.9-55-14.9-24.2-10.2-41.6-7-57.9 3.1-16.3-1.2-65.8-42.8-67.5 0 0-10-6.1-24.5-1.3-32.9 10.9-125.2 152.5-46.7 146.4z"/>
				<path id="&lt;Path&gt;" class="s9" d="m163.5 227c0 0 3.9 7.8 11.1 16.8 8.7 10.9 54-14.9 50.1-16.8-3.9-2-26.7-67.7-32.1-75.9-5.4-8.3-24-12.6-24-12.6z"/>
				<path id="&lt;Path&gt;" class="s2" d="m10.3 670.1c0 0-12.5 11.4-10.1 19.6 2.5 8.1 13.8 13.5 15.3 23.4 1.5 10 7.7 15.4 13.2 15.4 5.5 0 26.2 0 26.2 0 0 0 4-7-5.8-9.1-9.7-2.1-13.4-13.8-12.8-24.6 0.6-10.9-0.9-25.3-0.9-25.3l-20.8-4.8z"/>
				<path id="&lt;Path&gt;" class="s2" d="m116.3 675c0 0-4.5 48.4 1 51.1l70.4-0.1c0 0 0-8.2-11.3-10-11.3-1.8-31.1-8.4-34.5-23.1-3.4-14.8-25.6-17.9-25.6-17.9z"/>
				<path id="&lt;Path&gt;" class="s4" d="m66.2 327.5c14.5-32.4 23.3-41.8 21.6-51.8-1.2-7.5 3.9-139.9 3.9-139.9 1.7-0.6 5.1-1 7-1.5 6-1.3 10.9-5.5 12.9-11.2 2.5-6.9 4.5-17.1 4.4-29.9l1.9 0.4 31.2 6.2c0 0-0.8 9.8-0.8 19.1q0 0.1 0 0.2c0 8 5.3 15.1 13 17.3 3.9 1.2 7.3 2.1 7.3 2.1 0 0 11.5 32.7 13.7 66.3 2.2 33.6-20.8 48.2 0.2 115.4 21.4 68.5-124.3 25.3-116.3 7.3z"/>
				<path id="&lt;Path&gt;" class="s10" d="m149.1 99.8c0 0-0.8 9.8-0.8 19.1-17.4-0.5-26.7-16.5-30.4-25.3z"/>
				<path id="&lt;Path&gt;" class="s4" d="m150.9 112.8c0 0-40.9-5.8-36.8-31.2 4-25.4 1.4-43.3 27.7-40.6 26.3 2.6 29.8 13.1 30.5 21.9 0.7 8.8-10.6 50.8-21.4 49.9z"/>
				<path id="&lt;Path&gt;" class="s2" d="m160.5 43.3c0 0-15.9 28-33.8 29.7-17.8 1.7-24.5-4.1-24.5-4.1 0 0 14.8-8.3 20.4-26.1 0 0 31.7-15 37.9 0.5z"/>
				<path id="&lt;Path&gt;" class="s2" d="m157.3 45.3c0 0 7.8 4.4 10.3 11 2.3 6.4 3.9 14.7 1.7 24.2 0 0 11.7-18.9 4.1-31.9-8.1-13.8-16.1-3.3-16.1-3.3z"/>
				<path id="&lt;Path&gt;" class="s9" d="m62.2 194.3c0 0-1 14.8 0 32.6 0.7 11.7 12.6 27.5 14.3 31.4 4.2 9.7 9 11.3 9 11.3l37 9.1 12.9 3.2 41-12.3c0 0 18.7-52.1 11.2-81.4-7.5-29.3-19-49.7-19-49.7 0 0-33.4 32.8-76.9-2.7z"/>
				<path id="&lt;Path&gt;" class="s3" d="m58.7 227.3c0.7 11.7 16.1 27.1 17.8 31 4.2 9.7 9 11.3 9 11.3l37 9.1 9.8-13.9c0 0-59.8-16.6-48.5-69.4z"/>
				<path id="&lt;Path&gt;" class="s6" d="m173.8 277.5c0 0 20.3 63.2 21.6 84.7 1.3 21.5-38.8 305.5-40.4 315.4-1.5 9.3-13.1 15.3-13.1 15.3 0 0-5.3 3.1-13 1-10.5-3-13.9-6.6-13.9-6.6 0 0-15.7-202.5-6-274.9 9.8-72.3 9.9-134.9 9.9-134.9z"/>
				<path id="&lt;Path&gt;" class="s7" d="m87.8 275.7c0 0-30.9 41.5-33.8 69.6-2.9 28-4.5 126.6-10.7 154-6.1 27.4-28.7 80-28.7 165.4 0 0 2.4 4.9 9.6 7.5 2.3 0.8 5.4 1.6 8.4 2.3 6 1.4 12.2-1.5 14.9-7 15.3-30.8 63.9-129.9 66.4-150.5 1.7-14.6 17.1-111 50.6-167.5 8-13.6-4.9-67.6-4.9-67.6z"/>
				<path id="&lt;Path&gt;" class="s11" d="m145.4 96.5c0 0 0.2 3.1 7.7 3.8 0 0 6.3 0.6 6.7-2.7 0 0-5.7-3.3-14.4-1.1z"/>
				<path id="&lt;Path&gt;" class="s2" d="m177.1 267.8c0 0-8.2 6.4-24.4 6.8-19.3 0.3-67.2-5-67.2-5 0 0-2.1 6-2 12.3 0 0 58.5 14.7 92.4 2.1 0 0 4.3-8.2 1.2-16.2z"/>
				<g id="&lt;Group&gt;">
					<path id="&lt;Compound Path&gt;" class="s11" d="m148.5 281.2c0-5.5 4-10 8.9-10 4.8 0 8.8 4.5 8.8 10 0 5.5-4 10-8.8 10-4.9 0-8.9-4.5-8.9-10zm3 0c0 3.9 2.6 7.1 5.9 7.1 3.2 0 5.9-3.2 5.9-7.1 0-3.9-2.7-7-5.9-7-3.3 0-5.9 3.1-5.9 7z"/>
				</g>
				<path id="&lt;Path&gt;" class="s0" d="m115.1 309.4l87.9 0.8 43.3-101.7-87.9-0.8z"/>
				<path id="&lt;Path&gt;" class="s4" d="m126.6 263.4l6.4-7.9c0 0 4.4-3.9 7.6-4.5 3.1-0.7 9.8-4.6 10.5-3.5 0.6 1.1-5.2 8.9-5.2 8.9h-0.3c6.7 5 23.4 0.6 25.5 2.6 2.5 2.5-3.4 7.8-6.6 10.8-3.2 3-12.4 8-19.5 5.8-5.2-1.6-13.4-3.3-13.4-3.3z"/>
				<path id="&lt;Path&gt;" class="s4" d="m240.7 576.4c0 0-5.6-6.3-9.1-3.3-3.5 3.1 1 17.9 4.3 16.4 3.3-1.5 6.7-11.2 4.8-13.1z"/>
				<path id="&lt;Path&gt;" class="s9" d="m91.7 135.8c0 0-29.3 2-40.6 29.3-11.2 27.4-32.1 85.6-32.1 93.3 0 7.7 23.1 36.1 113.1 14.2 0 0 3-8.7-3-13 0 0-62.7-20.2-62.6-24.2 0.2-7.6 8.5-14.1 43.5-49.2 9.5-9.5-18.3-50.4-18.3-50.4z"/>
			</g>
			<g id="&lt;Group&gt;" style="opacity: .7">
				<path id="&lt;Path&gt;" class="s1" d="m1100.7 235.5l87.8 28.8-52.6-51.3-5.3 12.5-22.6 0.1z"/>
				<path id="&lt;Path&gt;" class="s0" d="m1188.5 264.3l-68.1-51.9-72.9-16.6z"/>
				<path id="&lt;Path&gt;" class="s0" d="m1135.9 213l52.6 51.3-35-71.9z"/>
			</g>
			<g id="&lt;Group&gt;" style="opacity: .7">
				<path id="&lt;Path&gt;" class="s3" d="m820.5 87.6l-92.7 13.2 61.5-41.9 3.1 13.5 22.6 4.1z"/>
				<path id="&lt;Path&gt;" class="s9" d="m727.8 100.8l77.1-39.7 75.6-3.8z"/>
				<path id="&lt;Path&gt;" class="s9" d="m789.3 58.9l-61.5 41.9 47.6-65.4z"/>
			</g>
			<g id="&lt;Group&gt;">
				<g id="&lt;Group&gt;">
				</g>
			</g>
			<g id="&lt;Group&gt;">
				<g id="&lt;Group&gt;">
				</g>
			</g>
		</g>
	</g>
</svg>