
<svg xmlns="http://www.w3.org/2000/svg" xmlns:xlink="http://www.w3.org/1999/xlink" version="1.1" width="1080" height="1080" viewBox="0 0 1080 1080" xml:space="preserve">
<desc>Created with Fabric.js 5.2.4</desc>
<defs>
</defs>
<g transform="matrix(1 0 0 1 540 540)" id="77504531-e85f-4e9b-8828-ba07726f5dd4"  >
<rect style="stroke: none; stroke-width: 1; stroke-dasharray: none; stroke-linecap: butt; stroke-dashoffset: 0; stroke-linejoin: miter; stroke-miterlimit: 4; fill: rgb(255,255,255); fill-rule: nonzero; opacity: 1; visibility: hidden;" vector-effect="non-scaling-stroke"  x="-540" y="-540" rx="0" ry="0" width="1080" height="1080" />
</g>
<g transform="matrix(1 0 0 1 540 540)" id="dfe6beb5-a353-420c-afbf-e2a11d5f0ee7"  >
</g>
<g transform="matrix(1.14 0 0 1.14 540.35 539.79)"  >
<g style="" vector-effect="non-scaling-stroke"   >
		<g transform="matrix(1 0 0 1 -761.17 23.03)" id="<Path>"  >
<path style="stroke: none; stroke-width: 1; stroke-dasharray: none; stroke-linecap: butt; stroke-dashoffset: 0; stroke-linejoin: miter; stroke-miterlimit: 4; fill: rgb(200,219,244); fill-rule: nonzero; opacity: 1;" vector-effect="non-scaling-stroke"  transform=" translate(-752.65, -1122.37)" d="M 666.7 1132.5 C 666.7 1132.5 632.8000000000001 1092.9 664.6 1067.8 C 664.6 1067.8 687.8000000000001 1053.7 706.8000000000001 1054.8999999999999 C 706.8000000000001 1054.8999999999999 679.9000000000001 1099.8999999999999 688.6 1104.3999999999999 C 697.3000000000001 1108.8999999999999 714.9 1051.9999999999998 714.9 1051.9999999999998 C 714.9 1051.9999999999998 767.8 1046.8999999999999 784.9 1055.0999999999997 C 784.9 1055.0999999999997 739.6 1092.0999999999997 749.1999999999999 1094.2999999999997 C 758.6999999999999 1096.4999999999998 807.4999999999999 1060.1999999999998 807.4999999999999 1060.1999999999998 C 807.4999999999999 1060.1999999999998 856.7999999999998 1068.4999999999998 854.1999999999999 1098.6 C 851.4999999999999 1128.6 834.5999999999999 1137.8999999999999 827.0999999999999 1137.1 C 819.5999999999999 1136.3 775.9999999999999 1119.6999999999998 775.0999999999999 1125.8 C 774.0999999999999 1131.8999999999999 800.3999999999999 1151.8 818.8 1152.8 C 818.8 1152.8 784.0999999999999 1191.1 761 1180 C 737.9 1169 735.9 1151.4 721.6 1144.9 C 707.2 1138.3000000000002 694.9 1138.3000000000002 700.8000000000001 1145 C 706.8000000000001 1151.7 732.8000000000001 1158.2 741.0000000000001 1172.8 C 749.3000000000001 1187.3 756.6000000000001 1197.1 732.8000000000001 1193.6 C 708.9000000000001 1190 670.1 1172.5 668.4000000000001 1152.5 C 666.7 1132.5 666.7 1132.5 666.7 1132.5 z" stroke-linecap="round" />
</g>
		<g transform="matrix(1 0 0 1 -780.37 39.44)" id="<Path>"  >
<path style="stroke: none; stroke-width: 1; stroke-dasharray: none; stroke-linecap: butt; stroke-dashoffset: 0; stroke-linejoin: miter; stroke-miterlimit: 4; fill: rgb(200,219,244); fill-rule: nonzero; opacity: 1;" vector-effect="non-scaling-stroke"  transform=" translate(-733.45, -1138.78)" d="M 830 1099.4 C 830 1099.4 696.2 1094.2 666.7 1132.5 C 666.7 1132.5 660.1 1152.1 640 1169.9 L 636.9 1178.4 C 636.9 1178.4 660.1 1154 668.4 1152.5 C 668.4 1152.5 655.4 1105.1 830 1099.4 z" stroke-linecap="round" />
</g>
		<g transform="matrix(1 0 0 1 -885.37 98.66)" id="<Path>"  >
<path style="stroke: none; stroke-width: 1; stroke-dasharray: none; stroke-linecap: butt; stroke-dashoffset: 0; stroke-linejoin: miter; stroke-miterlimit: 4; fill: rgb(200,219,244); fill-rule: nonzero; opacity: 1;" vector-effect="non-scaling-stroke"  transform=" translate(-628.45, -1198)" d="M 640 1169.9 C 640 1169.9 611.3 1191.1000000000001 609.3 1229 L 614.5999999999999 1229.5 C 614.5999999999999 1229.5 623.6999999999999 1190.3 640.3 1174.9 C 656.9 1159.6000000000001 640 1169.9 640 1169.9 z" stroke-linecap="round" />
</g>
		<g transform="matrix(1 0 0 1 -1046.95 -64.75)" id="<Path>"  >
<path style="stroke: none; stroke-width: 1; stroke-dasharray: none; stroke-linecap: butt; stroke-dashoffset: 0; stroke-linejoin: miter; stroke-miterlimit: 4; fill: rgb(200,219,244); fill-rule: nonzero; opacity: 1;" vector-effect="non-scaling-stroke"  transform=" translate(-466.87, -1034.59)" d="M 548.1 1082.7 C 548.1 1082.7 602 1052.5 576.9 1011.5 C 576.9 1011.5 556.6999999999999 986.3 535.1 979.8 C 535.1 979.8 546.6 1041 535.1 1042.3999999999999 C 523.6 1043.8999999999999 527.2 973.3999999999999 527.2 973.3999999999999 C 527.2 973.3999999999999 470.40000000000003 945.9999999999999 448.1 948.1999999999998 C 448.1 948.1999999999998 483.3 1007.8999999999999 471.8 1006.4999999999998 C 460.3 1004.9999999999998 420.7 944.5999999999998 420.7 944.5999999999998 C 420.7 944.5999999999998 362.5 933.7999999999998 353.1 968.2999999999998 C 343.8 1002.8999999999999 358.90000000000003 1020.0999999999998 367.5 1022.2999999999998 C 376.1 1024.4999999999998 431.5 1023.6999999999998 430.1 1030.8999999999999 C 428.70000000000005 1038.1 391.20000000000005 1049.6 370.40000000000003 1043.1999999999998 C 370.40000000000003 1043.1999999999998 393.40000000000003 1099.9999999999998 423.6 1097.1 C 453.8 1094.1999999999998 463.20000000000005 1075.5 481.90000000000003 1074.1 C 500.6 1072.6999999999998 514.3000000000001 1077.6999999999998 504.90000000000003 1082.6999999999998 C 495.6 1087.7999999999997 463.90000000000003 1084.3999999999999 448.8 1097.1999999999998 C 433.7 1110.1 421.5 1117.9999999999998 449.5 1123.6999999999998 C 477.6 1129.4999999999998 527.9 1125.8999999999999 538 1104.2999999999997 C 548.1 1082.6999999999998 548.1 1082.6999999999998 548.1 1082.6999999999998 z" stroke-linecap="round" />
</g>
		<g transform="matrix(1 0 0 1 -1042.72 -36.79)" id="<Path>"  >
<path style="stroke: none; stroke-width: 1; stroke-dasharray: none; stroke-linecap: butt; stroke-dashoffset: 0; stroke-linejoin: miter; stroke-miterlimit: 4; fill: rgb(200,219,244); fill-rule: nonzero; opacity: 1;" vector-effect="non-scaling-stroke"  transform=" translate(-471.1, -1062.55)" d="M 379.7 979.1 C 379.7 979.1 530.8 1028 548.1 1082.7 C 548.1 1082.7 547.4 1107.2 562.5 1135.2 L 562.5 1146 C 562.5 1146 546.6 1109.3 538 1104.3 C 538 1104.3 571.8 1056.8 379.7 979.0999999999999 z" stroke-linecap="round" />
</g>
		<g transform="matrix(1 0 0 1 -947.9 71.76)" id="<Path>"  >
<path style="stroke: none; stroke-width: 1; stroke-dasharray: none; stroke-linecap: butt; stroke-dashoffset: 0; stroke-linejoin: miter; stroke-miterlimit: 4; fill: rgb(200,219,244); fill-rule: nonzero; opacity: 1;" vector-effect="non-scaling-stroke"  transform=" translate(-565.92, -1171.1)" d="M 562.5 1135.2 C 562.5 1135.2 585.8 1170.6000000000001 572.5 1213.7 L 566.5 1212.1000000000001 C 566.5 1212.1000000000001 572.3 1164.6000000000001 560.1 1140.8000000000002 C 547.9 1116.9 562.5 1135.2000000000003 562.5 1135.2000000000003 z" stroke-linecap="round" />
</g>
		<g transform="matrix(1 0 0 1 -772.83 -121.73)" id="<Path>"  >
<path style="stroke: none; stroke-width: 1; stroke-dasharray: none; stroke-linecap: butt; stroke-dashoffset: 0; stroke-linejoin: miter; stroke-miterlimit: 4; fill: rgb(212,228,248); fill-rule: nonzero; opacity: 1;" vector-effect="non-scaling-stroke"  transform=" translate(-740.99, -977.61)" d="M 633.9 1041.1 C 633.9 1041.1 562.8 1001.1999999999999 596 947.1999999999999 C 596 947.1999999999999 622.5 913.9999999999999 651 905.4 C 651 905.4 635.8 986 651 987.9 C 666.2 989.8 661.4 896.9 661.4 896.9 C 661.4 896.9 736.3 860.9 765.6999999999999 863.6999999999999 C 765.6999999999999 863.6999999999999 719.3 942.4 734.4999999999999 940.4999999999999 C 749.5999999999999 938.5999999999999 801.7999999999998 858.9999999999999 801.7999999999998 858.9999999999999 C 801.7999999999998 858.9999999999999 878.5999999999998 844.6999999999999 890.8999999999999 890.2999999999998 C 903.2999999999998 935.7999999999998 883.2999999999998 958.4999999999999 871.9999999999999 961.3999999999999 C 860.5999999999999 964.1999999999998 787.5999999999999 963.2999999999998 789.4999999999999 972.7999999999998 C 791.3999999999999 982.2999999999998 840.6999999999999 997.3999999999999 868.1999999999999 988.8999999999999 C 868.1999999999999 988.8999999999999 837.8 1063.8 797.9999999999999 1059.9999999999998 C 758.1999999999999 1056.1999999999998 745.7999999999998 1031.5999999999997 721.1999999999999 1029.6999999999998 C 696.4999999999999 1027.7999999999997 678.4999999999999 1034.3999999999999 690.8 1041.1 C 703.1999999999999 1047.6999999999998 744.9 1043.1999999999998 764.8 1060.1999999999998 C 784.6999999999999 1077.1 800.8 1087.4999999999998 763.9 1095.1 C 726.9 1102.6999999999998 660.5 1098 647.1999999999999 1069.5 C 633.9 1041.1 633.9 1041.1 633.9 1041.1 z" stroke-linecap="round" />
</g>
		<g transform="matrix(1 0 0 1 -778.42 -84.84)" id="<Path>"  >
<path style="stroke: none; stroke-width: 1; stroke-dasharray: none; stroke-linecap: butt; stroke-dashoffset: 0; stroke-linejoin: miter; stroke-miterlimit: 4; fill: rgb(212,228,248); fill-rule: nonzero; opacity: 1;" vector-effect="non-scaling-stroke"  transform=" translate(-735.4, -1014.5)" d="M 855.8 904.5 C 855.8 904.5 656.6999999999999 969 633.9 1041.1 C 633.9 1041.1 634.9 1073.3 615 1110.3 L 615 1124.5 C 615 1124.5 635.8 1076.1 647.2 1069.5 C 647.2 1069.5 602.6 1006.9 855.8000000000001 904.5 z" stroke-linecap="round" />
</g>
		<g transform="matrix(1 0 0 1 -903.39 58.22)" id="<Path>"  >
<path style="stroke: none; stroke-width: 1; stroke-dasharray: none; stroke-linecap: butt; stroke-dashoffset: 0; stroke-linejoin: miter; stroke-miterlimit: 4; fill: rgb(212,228,248); fill-rule: nonzero; opacity: 1;" vector-effect="non-scaling-stroke"  transform=" translate(-610.43, -1157.56)" d="M 615 1110.3 C 615 1110.3 584.2 1156.8999999999999 601.8 1213.7 L 609.6999999999999 1211.6000000000001 C 609.6999999999999 1211.6000000000001 601.9999999999999 1149.0000000000002 618.0999999999999 1117.6000000000001 C 634.0999999999999 1086.1000000000001 614.9999999999999 1110.3000000000002 614.9999999999999 1110.3000000000002 z" stroke-linecap="round" />
</g>
		<g transform="matrix(1 0 0 1 -882.27 167.81)" id="<Path>"  >
<path style="stroke: none; stroke-width: 1; stroke-dasharray: none; stroke-linecap: butt; stroke-dashoffset: 0; stroke-linejoin: miter; stroke-miterlimit: 4; fill: rgb(212,228,248); fill-rule: nonzero; opacity: 1;" vector-effect="non-scaling-stroke"  transform=" translate(-631.55, -1267.15)" d="M 631.5 1336.8 C 708.5 1336.8 770.9 1274.3999999999999 770.9 1197.5 L 492.2 1197.5 C 492.2 1274.4 554.6 1336.8 631.5 1336.8 z" stroke-linecap="round" />
</g>
		<g transform="matrix(1 0 0 1 -882.27 235.96)" id="<Path>"  >
<path style="stroke: none; stroke-width: 1; stroke-dasharray: none; stroke-linecap: butt; stroke-dashoffset: 0; stroke-linejoin: miter; stroke-miterlimit: 4; fill: rgb(212,228,248); fill-rule: nonzero; opacity: 1;" vector-effect="non-scaling-stroke"  transform=" translate(-631.55, -1335.3)" d="M 772.8 1343.9 L 490.29999999999995 1343.9 C 490.29999999999995 1334.4 497.99999999999994 1326.7 507.49999999999994 1326.7 L 755.5999999999999 1326.7 C 765.0999999999999 1326.7 772.8 1334.4 772.8 1343.9 z" stroke-linecap="round" />
</g>
		<g transform="matrix(1 0 0 1 -883.02 100.31)" id="<Path>"  >
<path style="stroke: none; stroke-width: 1; stroke-dasharray: none; stroke-linecap: butt; stroke-dashoffset: 0; stroke-linejoin: miter; stroke-miterlimit: 4; fill: rgb(159,193,244); fill-rule: nonzero; opacity: 1;" vector-effect="non-scaling-stroke"  transform=" translate(-630.8, -1199.65)" d="M 774 1201.8 L 487.6 1201.8 L 487.6 1197.5 L 774 1197.5 z" stroke-linecap="round" />
</g>
		<g transform="matrix(1 0 0 1 -188.35 504.51)" id="<Path>"  >
<path style="stroke: none; stroke-width: 1; stroke-dasharray: none; stroke-linecap: butt; stroke-dashoffset: 0; stroke-linejoin: miter; stroke-miterlimit: 4; fill: rgb(140,180,244); fill-rule: nonzero; opacity: 1;" vector-effect="non-scaling-stroke"  transform=" translate(-1325.47, -1603.85)" d="M 1350.5 1796.4 L 1351.1 1796.4 C 1356.8 1796.3000000000002 1361.1 1791.7 1360.6 1786.4 L 1323 1411.3000000000002 L 1290.3 1414.2000000000003 L 1344.2 1791.3000000000002 C 1344.6000000000001 1794.3000000000002 1347.3 1796.4 1350.5 1796.4 z" stroke-linecap="round" />
</g>
		<g transform="matrix(1 0 0 1 -499.99 504.51)" id="<Path>"  >
<path style="stroke: none; stroke-width: 1; stroke-dasharray: none; stroke-linecap: butt; stroke-dashoffset: 0; stroke-linejoin: miter; stroke-miterlimit: 4; fill: rgb(140,180,244); fill-rule: nonzero; opacity: 1;" vector-effect="non-scaling-stroke"  transform=" translate(-1013.83, -1603.85)" d="M 988.8 1796.4 L 988.0999999999999 1796.4 C 982.4999999999999 1796.3000000000002 978.1999999999999 1791.7 978.6999999999999 1786.4 L 1016.1999999999999 1411.3000000000002 L 1049 1414.2000000000003 L 995.1 1791.3000000000002 C 994.7 1794.3000000000002 992 1796.4 988.8000000000001 1796.4 z" stroke-linecap="round" />
</g>
		<g transform="matrix(1 0 0 1 76.56 504.51)" id="<Path>"  >
<path style="stroke: none; stroke-width: 1; stroke-dasharray: none; stroke-linecap: butt; stroke-dashoffset: 0; stroke-linejoin: miter; stroke-miterlimit: 4; fill: rgb(140,180,244); fill-rule: nonzero; opacity: 1;" vector-effect="non-scaling-stroke"  transform=" translate(-1590.38, -1603.85)" d="M 1615.4 1796.4 L 1616.1000000000001 1796.4 C 1621.7 1796.3000000000002 1626.1000000000001 1791.7 1625.5000000000002 1786.4 L 1588.0000000000002 1411.3000000000002 L 1555.2000000000003 1414.2000000000003 L 1609.1000000000004 1791.3000000000002 C 1609.6000000000004 1794.3000000000002 1612.3000000000004 1796.4 1615.4000000000003 1796.4 z" stroke-linecap="round" />
</g>
		<g transform="matrix(1 0 0 1 -382.28 50.65)" id="<Path>"  >
<path style="stroke: none; stroke-width: 1; stroke-dasharray: none; stroke-linecap: butt; stroke-dashoffset: 0; stroke-linejoin: miter; stroke-miterlimit: 4; fill: rgb(140,180,244); fill-rule: nonzero; opacity: 1;" vector-effect="non-scaling-stroke"  transform=" translate(-1131.54, -1149.99)" d="M 1000 1356.7 L 933.3 1027.5 C 924.8 983 961.6999999999999 942.2 1009.6999999999999 943.3 L 1138.1999999999998 946.1999999999999 C 1182.6 947.1999999999999 1221.1999999999998 976.9 1233.4999999999998 1019.4999999999999 L 1330.9999999999998 1356.6999999999998 z" stroke-linecap="round" />
</g>
		<g transform="matrix(1 0 0 1 -341.94 50.65)" id="<Path>"  >
<path style="stroke: none; stroke-width: 1; stroke-dasharray: none; stroke-linecap: butt; stroke-dashoffset: 0; stroke-linejoin: miter; stroke-miterlimit: 4; fill: rgb(140,180,244); fill-rule: nonzero; opacity: 1;" vector-effect="non-scaling-stroke"  transform=" translate(-1171.88, -1149.99)" d="M 1040.3 1356.7 L 973.6999999999999 1027.5 C 965.0999999999999 983 1002.0999999999999 942.2 1050 943.3 L 1178.6 946.1999999999999 C 1222.8999999999999 947.1999999999999 1261.5 976.9 1273.8 1019.4999999999999 L 1371.3 1356.6999999999998 z" stroke-linecap="round" />
</g>
		<g transform="matrix(1 0 0 1 -240.92 287.41)" id="<Path>"  >
<path style="stroke: none; stroke-width: 1; stroke-dasharray: none; stroke-linecap: butt; stroke-dashoffset: 0; stroke-linejoin: miter; stroke-miterlimit: 4; fill: rgb(140,180,244); fill-rule: nonzero; opacity: 1;" vector-effect="non-scaling-stroke"  transform=" translate(-1272.9, -1386.75)" d="M 1018.6 1416.8 L 1527.2 1416.8 C 1537.5 1416.8 1545.8 1408.3999999999999 1545.8 1398.2 L 1545.8 1375.3 C 1545.8 1365.1 1537.5 1356.7 1527.2 1356.7 L 1000 1356.7 L 1000 1398.2 C 1000 1408.4 1008.4 1416.8 1018.6 1416.8 z" stroke-linecap="round" />
</g>
		<g transform="matrix(1 0 0 1 -94.42 287.41)" id="<Path>"  >
<path style="stroke: none; stroke-width: 1; stroke-dasharray: none; stroke-linecap: butt; stroke-dashoffset: 0; stroke-linejoin: miter; stroke-miterlimit: 4; fill: rgb(140,180,244); fill-rule: nonzero; opacity: 1;" vector-effect="non-scaling-stroke"  transform=" translate(-1419.4, -1386.75)" d="M 1257.3 1416.8 L 1581.5 1416.8 C 1589.8 1416.8 1596.5 1410 1596.5 1401.8 L 1596.5 1371.7 C 1596.5 1363.5 1589.8 1356.7 1581.5 1356.7 L 1257.3 1356.7 C 1249.1 1356.7 1242.3 1363.5 1242.3 1371.7 L 1242.3 1401.8 C 1242.3 1410 1249.1 1416.8 1257.3 1416.8 z" stroke-linecap="round" />
</g>
		<g transform="matrix(1 0 0 1 -873.37 258.71)" id="<Path>"  >
<path style="stroke: none; stroke-width: 1; stroke-dasharray: none; stroke-linecap: butt; stroke-dashoffset: 0; stroke-linejoin: miter; stroke-miterlimit: 4; fill: rgb(154,191,226); fill-rule: nonzero; opacity: 1;" vector-effect="non-scaling-stroke"  transform=" translate(-640.45, -1358.05)" d="M 848.2 1352.4 L 848.2 1363.7 C 848.2 1367.6000000000001 847 1370.8 845.4000000000001 1370.8 L 435.6000000000001 1370.8 C 434.00000000000006 1370.8 432.7000000000001 1367.6 432.7000000000001 1363.7 L 432.7000000000001 1352.4 C 432.7000000000001 1348.5 434.0000000000001 1345.3000000000002 435.6000000000001 1345.3000000000002 L 845.4000000000001 1345.3000000000002 C 847.0000000000001 1345.3000000000002 848.2 1348.5000000000002 848.2 1352.4 z" stroke-linecap="round" />
</g>
		<g transform="matrix(1 0 0 1 -830.87 258.71)" id="<Path>"  >
<path style="stroke: none; stroke-width: 1; stroke-dasharray: none; stroke-linecap: butt; stroke-dashoffset: 0; stroke-linejoin: miter; stroke-miterlimit: 4; fill: rgb(186,212,244); fill-rule: nonzero; opacity: 1;" vector-effect="non-scaling-stroke"  transform=" translate(-682.95, -1358.05)" d="M 848.2 1352.4 L 848.2 1363.7 C 848.2 1367.6000000000001 847.1 1370.8 845.6 1370.8 L 520.3 1370.8 C 518.8 1370.8 517.6999999999999 1367.6 517.6999999999999 1363.7 L 517.6999999999999 1352.4 C 517.6999999999999 1348.5 518.8 1345.3000000000002 520.3 1345.3000000000002 L 845.5999999999999 1345.3000000000002 C 847.0999999999999 1345.3000000000002 848.1999999999999 1348.5000000000002 848.1999999999999 1352.4 z" stroke-linecap="round" />
</g>
		<g transform="matrix(1 0 0 1 -914.82 483.51)" id="<Path>"  >
<path style="stroke: none; stroke-width: 1; stroke-dasharray: none; stroke-linecap: butt; stroke-dashoffset: 0; stroke-linejoin: miter; stroke-miterlimit: 4; fill: rgb(200,219,244); fill-rule: nonzero; opacity: 1;" vector-effect="non-scaling-stroke"  transform=" translate(-599, -1582.85)" d="M 744.5 1794.9 L 453.5 1794.9 L 453.5 1370.8000000000002 L 744.5 1370.8000000000002 z" stroke-linecap="round" />
</g>
		<g transform="matrix(1 0 0 1 -833.27 483.51)" id="<Path>"  >
<path style="stroke: none; stroke-width: 1; stroke-dasharray: none; stroke-linecap: butt; stroke-dashoffset: 0; stroke-linejoin: miter; stroke-miterlimit: 4; fill: rgb(223,235,253); fill-rule: nonzero; opacity: 1;" vector-effect="non-scaling-stroke"  transform=" translate(-680.55, -1582.85)" d="M 826 1794.9 L 535.1 1794.9 L 535.1 1370.8000000000002 L 826 1370.8000000000002 z" stroke-linecap="round" />
</g>
		<g transform="matrix(1 0 0 1 -833.27 477.81)" id="<Compound Path>"  >
<path style="stroke: none; stroke-width: 1; stroke-dasharray: none; stroke-linecap: butt; stroke-dashoffset: 0; stroke-linejoin: miter; stroke-miterlimit: 4; fill: rgb(183,211,243); fill-rule: nonzero; opacity: 1;" vector-effect="non-scaling-stroke"  transform=" translate(-680.55, -1577.15)" d="M 810.4 1771.5 L 550.7 1771.5 L 550.7 1382.8 L 810.4000000000001 1382.8 z M 553.5 1768.7 L 807.6 1768.7 L 807.6 1385.6 L 553.5 1385.6 z" stroke-linecap="round" />
</g>
		<g transform="matrix(1 0 0 1 -833.27 413.46)" id="<Path>"  >
<path style="stroke: none; stroke-width: 1; stroke-dasharray: none; stroke-linecap: butt; stroke-dashoffset: 0; stroke-linejoin: miter; stroke-miterlimit: 4; fill: rgb(183,211,243); fill-rule: nonzero; opacity: 1;" vector-effect="non-scaling-stroke"  transform=" translate(-680.55, -1512.8)" d="M 809 1514.2 L 552.1 1514.2 L 552.1 1511.4 L 809 1511.4 z" stroke-linecap="round" />
</g>
		<g transform="matrix(1 0 0 1 -833.27 544.56)" id="<Path>"  >
<path style="stroke: none; stroke-width: 1; stroke-dasharray: none; stroke-linecap: butt; stroke-dashoffset: 0; stroke-linejoin: miter; stroke-miterlimit: 4; fill: rgb(183,211,243); fill-rule: nonzero; opacity: 1;" vector-effect="non-scaling-stroke"  transform=" translate(-680.55, -1643.9)" d="M 809 1645.3 L 552.1 1645.3 L 552.1 1642.5 L 809 1642.5 z" stroke-linecap="round" />
</g>
		<g transform="matrix(1 0 0 1 -830.77 304.36)" id="<Path>"  >
<path style="stroke: none; stroke-width: 1; stroke-dasharray: none; stroke-linecap: butt; stroke-dashoffset: 0; stroke-linejoin: miter; stroke-miterlimit: 4; fill: rgb(183,211,243); fill-rule: nonzero; opacity: 1;" vector-effect="non-scaling-stroke"  transform=" translate(-683.05, -1403.7)" d="M 706.9 1407.9 L 659.1999999999999 1407.9 C 656.9 1407.9 654.9999999999999 1406 654.9999999999999 1403.7 C 654.9999999999999 1401.4 656.8999999999999 1399.5 659.1999999999999 1399.5 L 706.9 1399.5 C 709.1999999999999 1399.5 711.1 1401.4 711.1 1403.7 C 711.1 1406 709.2 1407.9 706.9 1407.9 z" stroke-linecap="round" />
</g>
		<g transform="matrix(1 0 0 1 -830.77 432.56)" id="<Path>"  >
<path style="stroke: none; stroke-width: 1; stroke-dasharray: none; stroke-linecap: butt; stroke-dashoffset: 0; stroke-linejoin: miter; stroke-miterlimit: 4; fill: rgb(183,211,243); fill-rule: nonzero; opacity: 1;" vector-effect="non-scaling-stroke"  transform=" translate(-683.05, -1531.9)" d="M 706.9 1536.1 L 659.1999999999999 1536.1 C 656.9 1536.1 654.9999999999999 1534.1999999999998 654.9999999999999 1531.8999999999999 C 654.9999999999999 1529.6 656.8999999999999 1527.6999999999998 659.1999999999999 1527.6999999999998 L 706.9 1527.6999999999998 C 709.1999999999999 1527.6999999999998 711.1 1529.6 711.1 1531.8999999999999 C 711.1 1534.1999999999998 709.2 1536.1 706.9 1536.1 z" stroke-linecap="round" />
</g>
		<g transform="matrix(1 0 0 1 -830.77 566.16)" id="<Path>"  >
<path style="stroke: none; stroke-width: 1; stroke-dasharray: none; stroke-linecap: butt; stroke-dashoffset: 0; stroke-linejoin: miter; stroke-miterlimit: 4; fill: rgb(183,211,243); fill-rule: nonzero; opacity: 1;" vector-effect="non-scaling-stroke"  transform=" translate(-683.05, -1665.5)" d="M 706.9 1669.7 L 659.1999999999999 1669.7 C 656.9 1669.7 654.9999999999999 1667.8 654.9999999999999 1665.5 C 654.9999999999999 1663.2 656.8999999999999 1661.3 659.1999999999999 1661.3 L 706.9 1661.3 C 709.1999999999999 1661.3 711.1 1663.2 711.1 1665.5 C 711.1 1667.8 709.2 1669.7 706.9 1669.7 z" stroke-linecap="round" />
</g>
		<g transform="matrix(1 0 0 1 384.48 -595.44)" id="<Path>"  >
<path style="stroke: none; stroke-width: 1; stroke-dasharray: none; stroke-linecap: butt; stroke-dashoffset: 0; stroke-linejoin: miter; stroke-miterlimit: 4; fill: rgb(192,216,251); fill-rule: nonzero; opacity: 1;" vector-effect="non-scaling-stroke"  transform=" translate(-1898.3, -503.9)" d="M 1990.5 608.3 L 1806.1 608.3 C 1797.6 608.3 1790.6999999999998 601.4 1790.6999999999998 592.9 L 1790.6999999999998 414.9 C 1790.6999999999998 406.4 1797.6 399.5 1806.1 399.5 L 1990.5 399.5 C 1999 399.5 2005.9 406.4 2005.9 414.9 L 2005.9 592.9 C 2005.9 601.4 1999 608.3 1990.5 608.3 z" stroke-linecap="round" />
</g>
		<g transform="matrix(1 0 0 1 384.48 -595.49)" id="<Path>"  >
<path style="stroke: none; stroke-width: 1; stroke-dasharray: none; stroke-linecap: butt; stroke-dashoffset: 0; stroke-linejoin: miter; stroke-miterlimit: 4; fill: rgb(223,235,253); fill-rule: nonzero; opacity: 1;" vector-effect="non-scaling-stroke"  transform=" translate(-1898.3, -503.85)" d="M 1982.5 599.2 L 1814.1 599.2 C 1806.3 599.2 1800 592.9000000000001 1800 585.2 L 1800 422.6 C 1800 414.90000000000003 1806.3 408.5 1814.1 408.5 L 1982.5 408.5 C 1990.3 408.5 1996.6 414.9 1996.6 422.6 L 1996.6 585.2 C 1996.6 592.9000000000001 1990.3 599.2 1982.5 599.2 z" stroke-linecap="round" />
</g>
		<g transform="matrix(1 0 0 1 384.48 -671.79)" id="<Path>"  >
<path style="stroke: none; stroke-width: 1; stroke-dasharray: none; stroke-linecap: butt; stroke-dashoffset: 0; stroke-linejoin: miter; stroke-miterlimit: 4; fill: rgb(183,211,243); fill-rule: nonzero; opacity: 1;" vector-effect="non-scaling-stroke"  transform=" translate(-1898.3, -427.55)" d="M 1893.8 427.6 C 1893.8 425.1 1895.8 423.1 1898.3 423.1 C 1900.8 423.1 1902.8 425.1 1902.8 427.6 C 1902.8 430 1900.8 432 1898.3 432 C 1895.8 432 1893.8 430 1893.8 427.6 z" stroke-linecap="round" />
</g>
		<g transform="matrix(1 0 0 1 419.88 -663.29)" id="<Path>"  >
<path style="stroke: none; stroke-width: 1; stroke-dasharray: none; stroke-linecap: butt; stroke-dashoffset: 0; stroke-linejoin: miter; stroke-miterlimit: 4; fill: rgb(183,211,243); fill-rule: nonzero; opacity: 1;" vector-effect="non-scaling-stroke"  transform=" translate(-1933.7, -436.05)" d="M 1929.8 433.9 C 1931 431.7 1933.7 431 1935.8999999999999 432.2 C 1937.9999999999998 433.3 1938.8 436.09999999999997 1937.6 438.2 C 1936.3999999999999 440.4 1933.6999999999998 441.09999999999997 1931.5 439.9 C 1929.4 438.7 1928.6 436 1929.8 433.9 z" stroke-linecap="round" />
</g>
		<g transform="matrix(1 0 0 1 449.23 -637.23)" id="<Path>"  >
<path style="stroke: none; stroke-width: 1; stroke-dasharray: none; stroke-linecap: butt; stroke-dashoffset: 0; stroke-linejoin: miter; stroke-miterlimit: 4; fill: rgb(183,211,243); fill-rule: nonzero; opacity: 1;" vector-effect="non-scaling-stroke"  transform=" translate(-1963.05, -462.11)" d="M 1960.6 458.4 C 1962.6999999999998 457 1965.5 457.59999999999997 1966.8 459.7 C 1968.1 461.8 1967.5 464.5 1965.5 465.9 C 1963.4 467.2 1960.6 466.59999999999997 1959.3 464.5 C 1958 462.5 1958.6 459.7 1960.6 458.4 z" stroke-linecap="round" />
</g>
		<g transform="matrix(1 0 0 1 462.08 -598.59)" id="<Path>"  >
<path style="stroke: none; stroke-width: 1; stroke-dasharray: none; stroke-linecap: butt; stroke-dashoffset: 0; stroke-linejoin: miter; stroke-miterlimit: 4; fill: rgb(183,211,243); fill-rule: nonzero; opacity: 1;" vector-effect="non-scaling-stroke"  transform=" translate(-1975.9, -500.75)" d="M 1975.9 496.3 C 1978.4 496.3 1980.4 498.3 1980.4 500.7 C 1980.4 503.2 1978.4 505.2 1975.9 505.2 C 1973.4 505.2 1971.4 503.2 1971.4 500.7 C 1971.4 498.3 1973.4 496.3 1975.9 496.3 z" stroke-linecap="round" />
</g>
		<g transform="matrix(1 0 0 1 451.13 -555.94)" id="<Path>"  >
<path style="stroke: none; stroke-width: 1; stroke-dasharray: none; stroke-linecap: butt; stroke-dashoffset: 0; stroke-linejoin: miter; stroke-miterlimit: 4; fill: rgb(183,211,243); fill-rule: nonzero; opacity: 1;" vector-effect="non-scaling-stroke"  transform=" translate(-1964.95, -543.4)" d="M 1968.1 540.2 C 1969.8 542 1969.8 544.8000000000001 1968.1 546.6 C 1966.3999999999999 548.3000000000001 1963.5 548.3000000000001 1961.8 546.6 C 1960.1 544.8000000000001 1960.1 542 1961.8 540.2 C 1963.5 538.5 1966.3999999999999 538.5 1968.1 540.2 z" stroke-linecap="round" />
</g>
		<g transform="matrix(1 0 0 1 423.13 -527.85)" id="<Path>"  >
<path style="stroke: none; stroke-width: 1; stroke-dasharray: none; stroke-linecap: butt; stroke-dashoffset: 0; stroke-linejoin: miter; stroke-miterlimit: 4; fill: rgb(183,211,243); fill-rule: nonzero; opacity: 1;" vector-effect="non-scaling-stroke"  transform=" translate(-1936.95, -571.49)" d="M 1940.1 568.3 C 1941.8 570.0999999999999 1941.8 572.9 1940.1 574.5999999999999 C 1938.3999999999999 576.3999999999999 1935.5 576.3999999999999 1933.8 574.5999999999999 C 1932.1 572.8999999999999 1932.1 570.0999999999999 1933.8 568.3 C 1935.5 566.5999999999999 1938.3999999999999 566.5999999999999 1940.1 568.3 z" stroke-linecap="round" />
</g>
		<g transform="matrix(1 0 0 1 384.48 -516.59)" id="<Path>"  >
<path style="stroke: none; stroke-width: 1; stroke-dasharray: none; stroke-linecap: butt; stroke-dashoffset: 0; stroke-linejoin: miter; stroke-miterlimit: 4; fill: rgb(183,211,243); fill-rule: nonzero; opacity: 1;" vector-effect="non-scaling-stroke"  transform=" translate(-1898.3, -582.75)" d="M 1893.8 582.8 C 1893.8 580.3 1895.8 578.3 1898.3 578.3 C 1900.8 578.3 1902.8 580.3 1902.8 582.8 C 1902.8 585.1999999999999 1900.8 587.1999999999999 1898.3 587.1999999999999 C 1895.8 587.1999999999999 1893.8 585.1999999999999 1893.8 582.8 z" stroke-linecap="round" />
</g>
		<g transform="matrix(1 0 0 1 348.89 -663.29)" id="<Path>"  >
<path style="stroke: none; stroke-width: 1; stroke-dasharray: none; stroke-linecap: butt; stroke-dashoffset: 0; stroke-linejoin: miter; stroke-miterlimit: 4; fill: rgb(183,211,243); fill-rule: nonzero; opacity: 1;" vector-effect="non-scaling-stroke"  transform=" translate(-1862.71, -436.05)" d="M 1866.6 433.9 C 1865.3999999999999 431.7 1862.6999999999998 431 1860.6 432.2 C 1858.3999999999999 433.3 1857.6 436.09999999999997 1858.8 438.2 C 1860 440.4 1862.8 441.09999999999997 1864.8999999999999 439.9 C 1867.1 438.7 1867.8 436 1866.6 433.9 z" stroke-linecap="round" />
</g>
		<g transform="matrix(1 0 0 1 319.58 -637.23)" id="<Path>"  >
<path style="stroke: none; stroke-width: 1; stroke-dasharray: none; stroke-linecap: butt; stroke-dashoffset: 0; stroke-linejoin: miter; stroke-miterlimit: 4; fill: rgb(183,211,243); fill-rule: nonzero; opacity: 1;" vector-effect="non-scaling-stroke"  transform=" translate(-1833.4, -462.11)" d="M 1835.8 458.4 C 1833.7 457 1831 457.59999999999997 1829.7 459.7 C 1828.3 461.8 1828.9 464.5 1831 465.9 C 1833.1 467.2 1835.8 466.59999999999997 1837.1 464.5 C 1838.5 462.5 1837.8999999999999 459.7 1835.8 458.4 z" stroke-linecap="round" />
</g>
		<g transform="matrix(1 0 0 1 306.73 -598.59)" id="<Path>"  >
<path style="stroke: none; stroke-width: 1; stroke-dasharray: none; stroke-linecap: butt; stroke-dashoffset: 0; stroke-linejoin: miter; stroke-miterlimit: 4; fill: rgb(183,211,243); fill-rule: nonzero; opacity: 1;" vector-effect="non-scaling-stroke"  transform=" translate(-1820.55, -500.75)" d="M 1820.6 496.3 C 1818.1 496.3 1816.1 498.3 1816.1 500.7 C 1816.1 503.2 1818.1 505.2 1820.6 505.2 C 1823 505.2 1825 503.2 1825 500.7 C 1825 498.3 1823 496.3 1820.6 496.3 z" stroke-linecap="round" />
</g>
		<g transform="matrix(1 0 0 1 317.68 -555.94)" id="<Path>"  >
<path style="stroke: none; stroke-width: 1; stroke-dasharray: none; stroke-linecap: butt; stroke-dashoffset: 0; stroke-linejoin: miter; stroke-miterlimit: 4; fill: rgb(183,211,243); fill-rule: nonzero; opacity: 1;" vector-effect="non-scaling-stroke"  transform=" translate(-1831.5, -543.4)" d="M 1828.3 540.2 C 1826.6 542 1826.6 544.8000000000001 1828.3 546.6 C 1830.1 548.3000000000001 1832.8999999999999 548.3000000000001 1834.7 546.6 C 1836.4 544.8000000000001 1836.4 542 1834.7 540.2 C 1832.9 538.5 1830.1000000000001 538.5 1828.3 540.2 z" stroke-linecap="round" />
</g>
		<g transform="matrix(1 0 0 1 345.67 -527.85)" id="<Path>"  >
<path style="stroke: none; stroke-width: 1; stroke-dasharray: none; stroke-linecap: butt; stroke-dashoffset: 0; stroke-linejoin: miter; stroke-miterlimit: 4; fill: rgb(183,211,243); fill-rule: nonzero; opacity: 1;" vector-effect="non-scaling-stroke"  transform=" translate(-1859.49, -571.49)" d="M 1856.3 568.3 C 1854.6 570.0999999999999 1854.6 572.9 1856.3 574.5999999999999 C 1858.1 576.3999999999999 1860.8999999999999 576.3999999999999 1862.6 574.5999999999999 C 1864.3999999999999 572.8999999999999 1864.3999999999999 570.0999999999999 1862.6 568.3 C 1860.8999999999999 566.5999999999999 1858.1 566.5999999999999 1856.3 568.3 z" stroke-linecap="round" />
</g>
		<g transform="matrix(1 0 0 1 387.73 -598.59)" id="<Path>"  >
<path style="stroke: none; stroke-width: 1; stroke-dasharray: none; stroke-linecap: butt; stroke-dashoffset: 0; stroke-linejoin: miter; stroke-miterlimit: 4; fill: rgb(183,211,243); fill-rule: nonzero; opacity: 1;" vector-effect="non-scaling-stroke"  transform=" translate(-1901.55, -500.75)" d="M 1897.1 500.7 C 1897.1 498.3 1899.1 496.3 1901.6 496.3 C 1904 496.3 1906 498.3 1906 500.7 C 1906 503.2 1904 505.2 1901.6 505.2 C 1899.1 505.2 1897.1 503.2 1897.1 500.7 z" stroke-linecap="round" />
</g>
		<g transform="matrix(1 0 0 1 387.73 -626.49)" id="<Path>"  >
<path style="stroke: none; stroke-width: 1; stroke-dasharray: none; stroke-linecap: butt; stroke-dashoffset: 0; stroke-linejoin: miter; stroke-miterlimit: 4; fill: rgb(183,211,243); fill-rule: nonzero; opacity: 1;" vector-effect="non-scaling-stroke"  transform=" translate(-1901.55, -472.85)" d="M 1902.2 500.7 L 1900.9 500.7 L 1900.9 445 L 1902.2 445 z" stroke-linecap="round" />
</g>
		<g transform="matrix(1 0 0 1 401.93 -610.29)" id="<Path>"  >
<path style="stroke: none; stroke-width: 1; stroke-dasharray: none; stroke-linecap: butt; stroke-dashoffset: 0; stroke-linejoin: miter; stroke-miterlimit: 4; fill: rgb(183,211,243); fill-rule: nonzero; opacity: 1;" vector-effect="non-scaling-stroke"  transform=" translate(-1915.75, -489.05)" d="M 1902.1 502.1 L 1899.8999999999999 499.20000000000005 L 1929.3999999999999 476.00000000000006 L 1931.6 478.90000000000003 z" stroke-linecap="round" />
</g>
		<g transform="matrix(1 0 0 1 -173.08 217.74)" id="<Path>"  >
<path style="stroke: none; stroke-width: 1; stroke-dasharray: none; stroke-linecap: butt; stroke-dashoffset: 0; stroke-linejoin: miter; stroke-miterlimit: 4; fill: rgb(35,56,98); fill-rule: nonzero; opacity: 1;" vector-effect="non-scaling-stroke"  transform=" translate(-1340.74, -1317.08)" d="M 1443.1 1287.8 C 1415.6 1335.7 1381 1354.2 1381 1354.2 L 1237 1354.2 C 1237 1354.2 1464.1 1251.3 1443.1 1287.8 z" stroke-linecap="round" />
</g>
		<g transform="matrix(1 0 0 1 175.14 628.45)" id="<Path>"  >
<path style="stroke: none; stroke-width: 1; stroke-dasharray: none; stroke-linecap: butt; stroke-dashoffset: 0; stroke-linejoin: miter; stroke-miterlimit: 4; fill: rgb(255,178,125); fill-rule: nonzero; opacity: 1;" vector-effect="non-scaling-stroke"  transform=" translate(-1688.95, -1727.79)" d="M 1620.7 1763.7 C 1619.2 1778.8 1640.2 1782.7 1664.6000000000001 1784.1000000000001 C 1688.9 1785.6000000000001 1681.5000000000002 1790.5000000000002 1714.8000000000002 1796.9 C 1748.2000000000003 1803.4 1761.7000000000003 1794.4 1764.2000000000003 1789.9 C 1766.4000000000003 1785.9 1750.9000000000003 1779.5 1734.4000000000003 1772.2 Q 1731.3000000000004 1770.8 1728.2000000000003 1769.4 C 1709.6000000000004 1761 1699.4000000000003 1744.2 1685.0000000000002 1728.6000000000001 C 1671.4000000000003 1713.7 1658.8000000000002 1666.6000000000001 1658.8000000000002 1666.6000000000001 L 1613.5000000000002 1656.4 C 1613.5000000000002 1656.4 1625.8000000000002 1698.8000000000002 1630.1000000000001 1717 C 1632.5000000000002 1727.6 1628.6000000000001 1739.4 1625.1000000000001 1748.4 C 1623.2 1753.3000000000002 1621.3000000000002 1758.3000000000002 1620.7 1763.7 z" stroke-linecap="round" />
</g>
		<g transform="matrix(1 0 0 1 178.7 674.45)" id="<Path>"  >
<path style="stroke: none; stroke-width: 1; stroke-dasharray: none; stroke-linecap: butt; stroke-dashoffset: 0; stroke-linejoin: miter; stroke-miterlimit: 4; fill: rgb(15,37,73); fill-rule: nonzero; opacity: 1;" vector-effect="non-scaling-stroke"  transform=" translate(-1692.52, -1773.79)" d="M 1664.6 1784.1 C 1688.8999999999999 1785.6 1681.5 1790.5 1714.8 1796.8999999999999 C 1748.2 1803.3999999999999 1761.7 1794.3999999999999 1764.2 1789.8999999999999 C 1766.4 1785.8999999999999 1750.9 1779.4999999999998 1734.4 1772.1999999999998 L 1734.1000000000001 1772.4999999999998 C 1734.1000000000001 1772.4999999999998 1710.6000000000001 1780.1999999999998 1683.5000000000002 1772.4999999999998 C 1661.5000000000002 1766.2999999999997 1640.2000000000003 1752.8999999999999 1625.1000000000001 1748.3999999999999 C 1623.2 1753.3 1621.3000000000002 1758.3 1620.7 1763.6999999999998 C 1619.2 1778.7999999999997 1640.2 1782.6999999999998 1664.6000000000001 1784.1 z" stroke-linecap="round" />
</g>
		<g transform="matrix(1 0 0 1 -117.47 304.33)" id="<Path>"  >
<path style="stroke: none; stroke-width: 1; stroke-dasharray: none; stroke-linecap: butt; stroke-dashoffset: 0; stroke-linejoin: miter; stroke-miterlimit: 4; fill: rgb(219,219,219); fill-rule: nonzero; opacity: 1;" vector-effect="non-scaling-stroke"  transform=" translate(-1396.35, -1403.67)" d="M 1552.1 1238.8 C 1527.6999999999998 1221.7 1366.3999999999999 1191.1 1284.1999999999998 1182.3 L 1193.1999999999998 1103.3999999999999 C 1193.1999999999998 1103.3999999999999 1115.7999999999997 1217.9999999999998 1115.1999999999998 1305.8 C 1114.8999999999999 1346.7 1133.6999999999998 1350.7 1133.6999999999998 1350.7 C 1133.6999999999998 1350.7 1425.2999999999997 1352.9 1438.1 1354.2 C 1459 1356.4 1486.6 1408.5 1493.5 1456 C 1500.4 1503.4 1622 1696.5 1622 1696.5 C 1622 1696.5 1647.3 1704.6 1659.1 1703.9 C 1671.6999999999998 1703.2 1677.5 1699 1677.5 1699 C 1677.5 1699 1607.1 1277.4 1552.1 1238.8 z" stroke-linecap="round" />
</g>
		<g transform="matrix(1 0 0 1 99.69 628.45)" id="<Path>"  >
<path style="stroke: none; stroke-width: 1; stroke-dasharray: none; stroke-linecap: butt; stroke-dashoffset: 0; stroke-linejoin: miter; stroke-miterlimit: 4; fill: rgb(255,178,125); fill-rule: nonzero; opacity: 1;" vector-effect="non-scaling-stroke"  transform=" translate(-1613.51, -1727.79)" d="M 1545.3 1763.7 C 1543.7 1778.8 1564.8 1782.7 1589.1 1784.1000000000001 C 1613.5 1785.6000000000001 1606.1 1790.5000000000002 1639.3999999999999 1796.9 C 1672.8 1803.4 1686.3 1794.4 1688.6999999999998 1789.9 C 1690.8999999999999 1785.9 1675.4999999999998 1779.5 1658.9999999999998 1772.2 Q 1655.8999999999999 1770.8 1652.7999999999997 1769.4 C 1634.1999999999998 1761 1623.8999999999996 1744.2 1609.5999999999997 1728.6000000000001 C 1595.9999999999998 1713.7 1583.3999999999996 1666.6000000000001 1583.3999999999996 1666.6000000000001 L 1538.0999999999997 1656.4 C 1538.0999999999997 1656.4 1550.3999999999996 1698.8000000000002 1554.5999999999997 1717 C 1557.0999999999997 1727.6 1553.1999999999996 1739.4 1549.5999999999997 1748.4 C 1547.7999999999997 1753.3000000000002 1545.7999999999997 1758.3000000000002 1545.2999999999997 1763.7 z" stroke-linecap="round" />
</g>
		<g transform="matrix(1 0 0 1 103.24 674.45)" id="<Path>"  >
<path style="stroke: none; stroke-width: 1; stroke-dasharray: none; stroke-linecap: butt; stroke-dashoffset: 0; stroke-linejoin: miter; stroke-miterlimit: 4; fill: rgb(35,56,98); fill-rule: nonzero; opacity: 1;" vector-effect="non-scaling-stroke"  transform=" translate(-1617.06, -1773.79)" d="M 1589.1 1784.1 C 1613.5 1785.6 1606.1 1790.5 1639.3999999999999 1796.8999999999999 C 1672.8 1803.3999999999999 1686.3 1794.3999999999999 1688.6999999999998 1789.8999999999999 C 1690.8999999999999 1785.8999999999999 1675.4999999999998 1779.4999999999998 1658.9999999999998 1772.1999999999998 L 1658.6999999999998 1772.4999999999998 C 1658.6999999999998 1772.4999999999998 1635.1 1780.1999999999998 1608.1 1772.4999999999998 C 1586.1 1766.2999999999997 1564.8 1752.8999999999999 1549.6 1748.3999999999999 C 1547.8 1753.3 1545.8 1758.3 1545.3 1763.6999999999998 C 1543.7 1778.7999999999997 1564.8 1782.6999999999998 1589.1 1784.1 z" stroke-linecap="round" />
</g>
		<g transform="matrix(1 0 0 1 -193.57 304.33)" id="<Path>"  >
<path style="stroke: none; stroke-width: 1; stroke-dasharray: none; stroke-linecap: butt; stroke-dashoffset: 0; stroke-linejoin: miter; stroke-miterlimit: 4; fill: rgb(235,235,235); fill-rule: nonzero; opacity: 1;" vector-effect="non-scaling-stroke"  transform=" translate(-1320.25, -1403.67)" d="M 1476 1238.8 C 1454.8 1223.8999999999999 1391.1 1212.3999999999999 1320.8 1203.8 C 1301.3999999999999 1201.5 1285.3999999999999 1187.3 1280.7 1168.3 L 1117.1000000000001 1103.3999999999999 C 1117.1000000000001 1103.3999999999999 1039.7 1217.9999999999998 1039.1000000000001 1305.8 C 1038.8000000000002 1346.7 1057.6000000000001 1350.7 1057.6000000000001 1350.7 C 1057.6000000000001 1350.7 1349.2000000000003 1352.9 1362 1354.2 C 1382.9 1356.4 1410.5 1408.5 1417.4 1456 C 1424.3000000000002 1503.4 1545.9 1696.5 1545.9 1696.5 C 1545.9 1696.5 1571.3000000000002 1704.6 1583 1703.9 C 1595.6 1703.2 1601.4 1699 1601.4 1699 C 1601.4 1699 1531 1277.4 1476 1238.8 z" stroke-linecap="round" />
</g>
		<g transform="matrix(1 0 0 1 -374.9 -288.62)" id="<Compound Path>"  >
<path style="stroke: none; stroke-width: 1; stroke-dasharray: none; stroke-linecap: butt; stroke-dashoffset: 0; stroke-linejoin: miter; stroke-miterlimit: 4; fill: rgb(0,0,0); fill-rule: nonzero; opacity: 1;" vector-effect="non-scaling-stroke"  transform=" translate(-1138.92, -810.72)" d="M 1257.1 626.9 C 1234.6999999999998 615.1 1200.5 613.5 1194.8999999999999 612.8 C 1128.3999999999999 603.8 1088.3999999999999 700.4 1086.1 729.6999999999999 C 1081.6999999999998 783.6999999999999 1053.1999999999998 791.9 1012.9999999999999 825.6999999999999 C 932.4999999999999 893.4 956.0999999999999 972.1999999999999 1000.0999999999999 1001.3999999999999 C 1026.6 1018.9999999999999 1073.1 1001.3999999999999 1073.1 1001.3999999999999 C 1073.8 1001.8999999999999 1200.5 930.5999999999999 1263 896.1999999999998 C 1356.7 882.7999999999998 1314.4 656.9999999999998 1257.1 626.8999999999999 z" stroke-linecap="round" />
</g>
		<g transform="matrix(1 0 0 1 -314.62 -278.06)" id="<Path>"  >
<path style="stroke: none; stroke-width: 1; stroke-dasharray: none; stroke-linecap: butt; stroke-dashoffset: 0; stroke-linejoin: miter; stroke-miterlimit: 4; fill: rgb(255,178,125); fill-rule: nonzero; opacity: 1;" vector-effect="non-scaling-stroke"  transform=" translate(-1199.2, -821.28)" d="M 1243.3 862.9 C 1243.6 863.1 1213.7 876.6 1192.2 869.5 C 1172 862.9 1154.1000000000001 832.4 1154.4 832.3 C 1163.2 831 1172.1000000000001 822.4 1174.6000000000001 771 L 1178.5000000000002 771.9 L 1244.0000000000002 788.5 C 1244.0000000000002 788.5 1241.4000000000003 809.2 1240.3000000000002 828.8 C 1239.4 845.3 1239.6000000000001 861 1243.3000000000002 862.9 z" stroke-linecap="round" />
</g>
		<g transform="matrix(1 0 0 1 -303.47 -305.09)" id="<Path>"  >
<path style="stroke: none; stroke-width: 1; stroke-dasharray: none; stroke-linecap: butt; stroke-dashoffset: 0; stroke-linejoin: miter; stroke-miterlimit: 4; fill: rgb(237,151,93); fill-rule: nonzero; opacity: 1;" vector-effect="non-scaling-stroke"  transform=" translate(-1210.35, -794.25)" d="M 1244 788.5 C 1244 788.5 1244 792.8 1241.5 812.1 C 1204.5 802.7 1188.2 790.4 1176.7 776.4 z" stroke-linecap="round" />
</g>
		<g transform="matrix(1 0 0 1 -298.9 -379.06)" id="<Path>"  >
<path style="stroke: none; stroke-width: 1; stroke-dasharray: none; stroke-linecap: butt; stroke-dashoffset: 0; stroke-linejoin: miter; stroke-miterlimit: 4; fill: rgb(255,178,125); fill-rule: evenodd; opacity: 1;" vector-effect="non-scaling-stroke"  transform=" translate(-1214.92, -720.28)" d="M 1257.9 791.1 C 1257.9 791.1 1171.4 805.2 1163.4 751.1 C 1155.5 697.1 1139 662.5 1193.9 651.2 C 1248.8000000000002 639.9000000000001 1262.6000000000001 659 1269.7 676.4000000000001 C 1276.7 693.8000000000001 1280.3 786.0000000000001 1257.9 791.1000000000001 z" stroke-linecap="round" />
</g>
		<g transform="matrix(1 0 0 1 -319.17 -412.24)" id="<Path>"  >
<path style="stroke: none; stroke-width: 1; stroke-dasharray: none; stroke-linecap: butt; stroke-dashoffset: 0; stroke-linejoin: miter; stroke-miterlimit: 4; fill: rgb(0,0,0); fill-rule: nonzero; opacity: 1;" vector-effect="non-scaling-stroke"  transform=" translate(-1194.65, -687.1)" d="M 1258 649 C 1258 649 1218.7 711 1183.6 725.7 C 1148.5 740.4000000000001 1131.3 733 1131.3 733 C 1131.3 733 1147.2 708.8 1151.3999999999999 676.2 C 1152.6 666.7 1158.8999999999999 658.4000000000001 1167.8 654.9000000000001 C 1193 644.8000000000001 1241.7 628.9000000000001 1258 649.0000000000001 z" stroke-linecap="round" />
</g>
		<g transform="matrix(1 0 0 1 -263.2 -414.85)" id="<Path>"  >
<path style="stroke: none; stroke-width: 1; stroke-dasharray: none; stroke-linecap: butt; stroke-dashoffset: 0; stroke-linejoin: miter; stroke-miterlimit: 4; fill: rgb(0,0,0); fill-rule: nonzero; opacity: 1;" vector-effect="non-scaling-stroke"  transform=" translate(-1250.62, -684.49)" d="M 1223.5 655 C 1223.5 655 1246.5 666.8 1256 677.9 C 1265.2 688.5 1275.8 717.5 1275 730.6 C 1275 730.6 1286.4 668.2 1262.7 646.7 C 1237.6000000000001 624 1223.5 655 1223.5 655 z" stroke-linecap="round" />
</g>
		<g transform="matrix(1 0 0 1 -317.93 -106.9)" id="<Path>"  >
<path style="stroke: none; stroke-width: 1; stroke-dasharray: none; stroke-linecap: butt; stroke-dashoffset: 0; stroke-linejoin: miter; stroke-miterlimit: 4; fill: rgb(255,255,255); fill-rule: nonzero; opacity: 1;" vector-effect="non-scaling-stroke"  transform=" translate(-1195.89, -992.44)" d="M 1312.5 995 C 1309.9 1170.9 1311.8 1134.2 1292.6 1150.9 C 1287.8999999999999 1154.9 1274.8999999999999 1157.3000000000002 1257.6999999999998 1158.4 C 1203.7999999999997 1162 1108.8999999999999 1153.1000000000001 1105.2999999999997 1143.1000000000001 C 1092.8999999999996 1108.6000000000001 1101.6999999999998 1097.9 1091.2999999999997 1045.1000000000001 C 1090.1999999999998 1039.5000000000002 1088.7999999999997 1033.4 1087.2999999999997 1026.8000000000002 C 1078.5999999999997 990.5000000000002 1070.1999999999998 978.1000000000001 1100.8999999999996 919.9000000000002 C 1128.7999999999997 867.1000000000003 1161.4999999999995 824.2000000000002 1164.0999999999997 825.7000000000002 C 1237.5999999999997 869.3000000000002 1240.0999999999997 832.8000000000002 1240.0999999999997 832.8000000000002 C 1240.0999999999997 832.8000000000002 1313.7999999999997 909.1000000000001 1312.4999999999998 995.0000000000002 z" stroke-linecap="round" />
</g>
		<g transform="matrix(1 0 0 1 -201.07 -131.28)" id="<Path>"  >
<path style="stroke: none; stroke-width: 1; stroke-dasharray: none; stroke-linecap: butt; stroke-dashoffset: 0; stroke-linejoin: miter; stroke-miterlimit: 4; fill: rgb(255,255,255); fill-rule: nonzero; opacity: 1;" vector-effect="non-scaling-stroke"  transform=" translate(-1312.75, -968.06)" d="M 1240.1 832.8 C 1240.1 832.8 1315.3 845.5 1324.1999999999998 878.0999999999999 C 1333.1 910.5999999999999 1385.3999999999999 1102 1385.3999999999999 1102 C 1385.3999999999999 1102 1346.8999999999999 1108.9 1329.1999999999998 1091.2 C 1311.3999999999999 1073.4 1267.3999999999999 926.4000000000001 1267.3999999999999 926.4000000000001 z" stroke-linecap="round" />
</g>
		<g transform="matrix(1 0 0 1 -339.32 -33.83)" id="<Path>"  >
<path style="stroke: none; stroke-width: 1; stroke-dasharray: none; stroke-linecap: butt; stroke-dashoffset: 0; stroke-linejoin: miter; stroke-miterlimit: 4; fill: rgb(235,243,255); fill-rule: nonzero; opacity: 1;" vector-effect="non-scaling-stroke"  transform=" translate(-1174.5, -1065.51)" d="M 1257.7 1158.4 C 1203.8 1162 1108.9 1153.1000000000001 1105.3 1143.1000000000001 C 1092.8999999999999 1108.6000000000001 1101.7 1097.9 1091.3 1045.1000000000001 L 1117.3 971.8000000000002 C 1117.3 971.8000000000002 1113 1053.4 1137.1 1074.9 C 1161.1 1096.3000000000002 1235.6 1116.3000000000002 1247.3 1134.3000000000002 C 1252.8999999999999 1142.9 1256.7 1151.5000000000002 1257.7 1158.4 z" stroke-linecap="round" />
</g>
		<g transform="matrix(1 0 0 1 -270.8 32.89)" id="<Path>"  >
<path style="stroke: none; stroke-width: 1; stroke-dasharray: none; stroke-linecap: butt; stroke-dashoffset: 0; stroke-linejoin: miter; stroke-miterlimit: 4; fill: rgb(255,178,125); fill-rule: nonzero; opacity: 1;" vector-effect="non-scaling-stroke"  transform=" translate(-1243.02, -1132.23)" d="M 1195.9 1124.1 C 1195.9 1124.1 1249.1000000000001 1112.1999999999998 1257.7 1117 C 1266.3 1121.7 1287.3 1138.9 1289.9 1144.9 C 1292.6000000000001 1150.9 1270.8000000000002 1140.3000000000002 1263.7 1138.4 C 1259.2 1137.2 1247.1000000000001 1141.4 1241.1000000000001 1143.4 C 1216.0000000000002 1151.8000000000002 1200.6000000000001 1147.5 1200.6000000000001 1147.5 z" stroke-linecap="round" />
</g>
		<g transform="matrix(1 0 0 1 -417.67 -104.4)" id="<Path>"  >
<path style="stroke: none; stroke-width: 1; stroke-dasharray: none; stroke-linecap: butt; stroke-dashoffset: 0; stroke-linejoin: miter; stroke-miterlimit: 4; fill: rgb(255,255,255); fill-rule: nonzero; opacity: 1;" vector-effect="non-scaling-stroke"  transform=" translate(-1096.15, -994.94)" d="M 1164.1 825.7 C 1164.1 825.7 1088.8 830.1 1064 864.6 C 1029.2 913.2 960.1 1120.3 999.7 1147.9 C 1044.3 1179 1202.7 1156 1202.7 1156 C 1202.7 1156 1207.9 1131.4 1200.6000000000001 1119.5 C 1193.3000000000002 1107.5 1074.1000000000001 1088.3 1068.6000000000001 1082.8 C 1063.1000000000001 1077.3 1137.4 975.5 1137.4 959 C 1137.4 942.5 1164.1000000000001 825.7 1164.1000000000001 825.7 z" stroke-linecap="round" />
</g>
		<g transform="matrix(1 0 0 1 -243.12 41.18)" id="<Path>"  >
<path style="stroke: none; stroke-width: 1; stroke-dasharray: none; stroke-linecap: butt; stroke-dashoffset: 0; stroke-linejoin: miter; stroke-miterlimit: 4; fill: rgb(255,178,125); fill-rule: nonzero; opacity: 1;" vector-effect="non-scaling-stroke"  transform=" translate(-1270.7, -1140.52)" d="M 1260.3 1131.8 C 1260.3 1131.8 1271.5 1146.2 1275.1 1147.8999999999999 C 1278.8 1149.6 1281.1 1149.1999999999998 1281.1 1149.1999999999998 L 1273.6 1135.6999999999998 z" stroke-linecap="round" />
</g>
		<g transform="matrix(1 0 0 1 -239.87 26.57)" id="<Path>"  >
<path style="stroke: none; stroke-width: 1; stroke-dasharray: none; stroke-linecap: butt; stroke-dashoffset: 0; stroke-linejoin: miter; stroke-miterlimit: 4; fill: rgb(255,178,125); fill-rule: nonzero; opacity: 1;" vector-effect="non-scaling-stroke"  transform=" translate(-1273.95, -1125.91)" d="M 1257.7 1117 L 1290.2 1132.7 C 1290.2 1132.7 1288.8 1135 1284.8 1134.8 C 1280.8 1134.6 1270.7 1130.8999999999999 1270.7 1130.8999999999999 z" stroke-linecap="round" />
</g>
		<g transform="matrix(1 0 0 1 -211.92 48.96)" id="<Path>"  >
<path style="stroke: none; stroke-width: 1; stroke-dasharray: none; stroke-linecap: butt; stroke-dashoffset: 0; stroke-linejoin: miter; stroke-miterlimit: 4; fill: rgb(219,98,88); fill-rule: nonzero; opacity: 1;" vector-effect="non-scaling-stroke"  transform=" translate(-1301.9, -1148.3)" d="M 1377.2 1154.3 L 1226.6000000000001 1154.3 C 1226.6000000000001 1147.7 1232.0000000000002 1142.3 1238.6000000000001 1142.3 L 1377.2 1142.3 z" stroke-linecap="round" />
</g>
		<g transform="matrix(1 0 0 1 -49.32 -27.04)" id="<Path>"  >
<path style="stroke: none; stroke-width: 1; stroke-dasharray: none; stroke-linecap: butt; stroke-dashoffset: 0; stroke-linejoin: miter; stroke-miterlimit: 4; fill: rgb(237,125,43); fill-rule: nonzero; opacity: 1;" vector-effect="non-scaling-stroke"  transform=" translate(-1464.5, -1072.3)" d="M 1376.8 990.3 L 1609.6 990.3 L 1553.8 1154.3 L 1319.3999999999999 1154.3 z" stroke-linecap="round" />
</g>
		<g transform="matrix(1 0 0 1 -45.87 -27.04)" id="<Path>"  >
<path style="stroke: none; stroke-width: 1; stroke-dasharray: none; stroke-linecap: butt; stroke-dashoffset: 0; stroke-linejoin: miter; stroke-miterlimit: 4; fill: rgb(253,113,102); fill-rule: nonzero; opacity: 1;" vector-effect="non-scaling-stroke"  transform=" translate(-1467.95, -1072.3)" d="M 1613.1 990.3 L 1557.1999999999998 1154.3 L 1322.7999999999997 1154.3 L 1380.1999999999998 990.3 z" stroke-linecap="round" />
</g>
		<g transform="matrix(1 0 0 1 -37.65 -28.59)" id="<Path>"  >
<path style="stroke: none; stroke-width: 1; stroke-dasharray: none; stroke-linecap: butt; stroke-dashoffset: 0; stroke-linejoin: miter; stroke-miterlimit: 4; fill: rgb(255,255,255); fill-rule: nonzero; opacity: 1;" vector-effect="non-scaling-stroke"  transform=" translate(-1476.17, -1070.75)" d="M 1487.5 1070.8 C 1486.1 1077 1479.8 1082.1 1473.5 1082.1 C 1467.3 1082.1 1463.4 1077 1464.8 1070.8 C 1466.3 1064.5 1472.5 1059.3999999999999 1478.8 1059.3999999999999 C 1485.1 1059.3999999999999 1489 1064.4999999999998 1487.5 1070.8 z" stroke-linecap="round" />
</g>
		<g transform="matrix(1 0 0 1 170.93 73.41)" id="<Path>"  >
<path style="stroke: none; stroke-width: 1; stroke-dasharray: none; stroke-linecap: butt; stroke-dashoffset: 0; stroke-linejoin: miter; stroke-miterlimit: 4; fill: rgb(186,212,244); fill-rule: nonzero; opacity: 1;" vector-effect="non-scaling-stroke"  transform=" translate(-1684.75, -1172.75)" d="M 1174.5 1191.2 L 2195 1191.2 C 2199.3 1191.2 2202.8 1187.7 2202.8 1183.4 L 2202.8 1162.1000000000001 C 2202.8 1157.8000000000002 2199.3 1154.3000000000002 2195 1154.3000000000002 L 1174.5 1154.3000000000002 C 1170.2 1154.3000000000002 1166.7 1157.8000000000002 1166.7 1162.1000000000001 L 1166.7 1183.4 C 1166.7 1187.7 1170.2 1191.2 1174.5 1191.2 z" stroke-linecap="round" />
</g>
		<g transform="matrix(1 0 0 1 652.82 386.79)" id="<Path>"  >
<path style="stroke: none; stroke-width: 1; stroke-dasharray: none; stroke-linecap: butt; stroke-dashoffset: 0; stroke-linejoin: miter; stroke-miterlimit: 4; fill: rgb(186,212,244); fill-rule: nonzero; opacity: 1;" vector-effect="non-scaling-stroke"  transform=" translate(-2166.64, -1486.13)" d="M 2220 1799.1 L 2220.4 1799.1 C 2225.7000000000003 1798.3999999999999 2229.4 1793.8 2228.7000000000003 1788.6 L 2137.8 1173.1 L 2104.5 1174 L 2211.5 1792.9 C 2212.2 1796.9 2215.9 1799.6000000000001 2220 1799.1000000000001 z" stroke-linecap="round" />
</g>
		<g transform="matrix(1 0 0 1 -320.1 386.79)" id="<Path>"  >
<path style="stroke: none; stroke-width: 1; stroke-dasharray: none; stroke-linecap: butt; stroke-dashoffset: 0; stroke-linejoin: miter; stroke-miterlimit: 4; fill: rgb(186,212,244); fill-rule: nonzero; opacity: 1;" vector-effect="non-scaling-stroke"  transform=" translate(-1193.72, -1486.13)" d="M 1140.3 1799.1 L 1139.8999999999999 1799.1 C 1134.6999999999998 1798.3999999999999 1130.9999999999998 1793.8 1131.6 1788.6 L 1222.6 1173.1 L 1255.8999999999999 1174 L 1148.8999999999999 1792.9 C 1148.1999999999998 1796.9 1144.3999999999999 1799.6000000000001 1140.3 1799.1000000000001 z" stroke-linecap="round" />
</g>
		<g transform="matrix(1 0 0 1 -109.56 386.79)" id="<Path>"  >
<path style="stroke: none; stroke-width: 1; stroke-dasharray: none; stroke-linecap: butt; stroke-dashoffset: 0; stroke-linejoin: miter; stroke-miterlimit: 4; fill: rgb(186,212,244); fill-rule: nonzero; opacity: 1;" vector-effect="non-scaling-stroke"  transform=" translate(-1404.26, -1486.13)" d="M 1350.9 1799.1 L 1350.4 1799.1 C 1345.2 1798.3999999999999 1341.5 1793.8 1342.2 1788.6 L 1433.1000000000001 1173.1 L 1466.4 1174 L 1359.4 1792.9 C 1358.7 1796.9 1355 1799.6000000000001 1350.9 1799.1000000000001 z" stroke-linecap="round" />
</g>
		<g transform="matrix(1 0 0 1 466.71 653.13)" id="<Path>"  >
<path style="stroke: none; stroke-width: 1; stroke-dasharray: none; stroke-linecap: butt; stroke-dashoffset: 0; stroke-linejoin: miter; stroke-miterlimit: 4; fill: rgb(35,56,98); fill-rule: nonzero; opacity: 1;" vector-effect="non-scaling-stroke"  transform=" translate(-1980.53, -1752.47)" d="M 1887.4 1798.6 L 2067.8 1798.6 C 2076.5 1788 2073.3 1748.8999999999999 2072 1736.1999999999998 C 2071.7 1733.6 2071.5 1732.1 2071.5 1732.1 C 2071.5 1732.1 2009.9 1682.8 2001.5 1720.6 Q 2001.1 1722.3 2000.5 1724.1 C 1989.9 1759.3999999999999 1942 1775.3999999999999 1914.4 1779.8999999999999 C 1896.5 1782.8 1889.8000000000002 1792.1 1887.4 1798.6 z" stroke-linecap="round" />
</g>
		<g transform="matrix(1 0 0 1 728.69 378.04)" id="<Path>"  >
<path style="stroke: none; stroke-width: 1; stroke-dasharray: none; stroke-linecap: butt; stroke-dashoffset: 0; stroke-linejoin: miter; stroke-miterlimit: 4; fill: rgb(219,219,219); fill-rule: nonzero; opacity: 1;" vector-effect="non-scaling-stroke"  transform=" translate(-2242.51, -1477.38)" d="M 2379.8 1212.3 C 2373.3 1212.3 2070.7000000000003 1269.1 2020.6000000000001 1331 C 1995.6000000000001 1362 1991.9 1719.4 1991.9 1719.4 C 1991.9 1719.4 2022.8000000000002 1757.8000000000002 2089.6 1735.5 C 2089.6 1735.5 2138.6 1491 2135 1416.8 C 2134 1396.3 2341.7 1413.8 2379.8 1404 C 2417.8 1394.1 2510.7000000000003 1311.4 2490.2000000000003 1271.1 C 2469.8 1230.8 2379.8 1212.3 2379.8 1212.3 z" stroke-linecap="round" />
</g>
		<g transform="matrix(1 0 0 1 451.77 40.57)" id="<Path>"  >
<path style="stroke: none; stroke-width: 1; stroke-dasharray: none; stroke-linecap: butt; stroke-dashoffset: 0; stroke-linejoin: miter; stroke-miterlimit: 4; fill: rgb(255,178,125); fill-rule: nonzero; opacity: 1;" vector-effect="non-scaling-stroke"  transform=" translate(-1965.59, -1139.91)" d="M 2021.9 1124.7 C 2021.9 1124.7 1960.9 1125.6000000000001 1946.4 1131.7 C 1932 1137.9 1902.7 1152.1000000000001 1910.6000000000001 1154.3 C 1918.4 1156.5 1955.8000000000002 1153.3999999999999 1963.9 1154.6 C 1971.9 1155.8999999999999 1981.9 1154.3 1986.8000000000002 1154.3 C 1991.8000000000002 1154.3 2014.9 1154.3 2014.9 1154.3 z" stroke-linecap="round" />
</g>
		<g transform="matrix(1 0 0 1 377.61 -161.78)" id="<Path>"  >
<path style="stroke: none; stroke-width: 1; stroke-dasharray: none; stroke-linecap: butt; stroke-dashoffset: 0; stroke-linejoin: miter; stroke-miterlimit: 4; fill: rgb(255,178,125); fill-rule: nonzero; opacity: 1;" vector-effect="non-scaling-stroke"  transform=" translate(-1891.43, -937.56)" d="M 1950.5 978.2 C 1950.5 978.2 1929.7 963.4000000000001 1909.5 960.5 C 1898 958.8 1886.8 956.8 1880 954.4 C 1861.4 947.8 1824.1 914.3 1826.9 910.4 C 1835.9 897.6999999999999 1879.5 924.4 1887.1000000000001 921.6 C 1894.7 918.7 1872.5000000000002 902.9 1880.2 897.3000000000001 C 1884.2 894.4000000000001 1893.7 909.0000000000001 1901.4 910.4000000000001 C 1911.8000000000002 912.4000000000001 1920 927.2 1923.1000000000001 927.9000000000001 C 1929.3000000000002 929.4000000000001 1956.1000000000001 949.4000000000001 1956.1000000000001 949.4000000000001 z" stroke-linecap="round" />
</g>
		<g transform="matrix(1 0 0 1 674.05 -119.89)" id="<Path>"  >
<path style="stroke: none; stroke-width: 1; stroke-dasharray: none; stroke-linecap: butt; stroke-dashoffset: 0; stroke-linejoin: miter; stroke-miterlimit: 4; fill: rgb(219,98,88); fill-rule: nonzero; opacity: 1;" vector-effect="non-scaling-stroke"  transform=" translate(-2187.87, -979.45)" d="M 2349.6 804.6 C 2349.6 804.6 2303.2 819 2257.4 945.1 C 2211.6 1071.1 2194.2000000000003 1077.9 2177.6 1082.9 C 2160.9 1087.8000000000002 2014.8999999999999 1116.9 2014.8999999999999 1116.9 L 2014.8999999999999 1154.3000000000002 L 2239.8999999999996 1154.3000000000002 C 2239.8999999999996 1154.3000000000002 2324.2999999999997 1074.0000000000002 2349.5999999999995 1020.0000000000002 C 2374.8999999999996 965.9000000000002 2349.5999999999995 804.6000000000003 2349.5999999999995 804.6000000000003 z" stroke-linecap="round" />
</g>
		<g transform="matrix(1 0 0 1 386.95 653.13)" id="<Path>"  >
<path style="stroke: none; stroke-width: 1; stroke-dasharray: none; stroke-linecap: butt; stroke-dashoffset: 0; stroke-linejoin: miter; stroke-miterlimit: 4; fill: rgb(27,48,81); fill-rule: nonzero; opacity: 1;" vector-effect="non-scaling-stroke"  transform=" translate(-1900.77, -1752.47)" d="M 1807.6 1798.6 L 1988.1 1798.6 C 1996.8 1788 1993.6 1748.8999999999999 1992.1999999999998 1736.1999999999998 C 1991.9999999999998 1733.6 1991.7999999999997 1732.1 1991.7999999999997 1732.1 C 1991.7999999999997 1732.1 1930.1999999999998 1682.8 1921.6999999999998 1720.6 Q 1921.2999999999997 1722.3 1920.7999999999997 1724.1 C 1910.0999999999997 1759.3999999999999 1862.2999999999997 1775.3999999999999 1834.6999999999998 1779.8999999999999 C 1816.6999999999998 1782.8 1810.1 1792.1 1807.6 1798.6 z" stroke-linecap="round" />
</g>
		<g transform="matrix(1 0 0 1 639.53 378.04)" id="<Path>"  >
<path style="stroke: none; stroke-width: 1; stroke-dasharray: none; stroke-linecap: butt; stroke-dashoffset: 0; stroke-linejoin: miter; stroke-miterlimit: 4; fill: rgb(235,235,235); fill-rule: nonzero; opacity: 1;" vector-effect="non-scaling-stroke"  transform=" translate(-2153.35, -1477.38)" d="M 2290.6 1212.3 C 2284.1 1212.3 1981.5 1269.1 1931.3999999999999 1331 C 1906.3999999999999 1362 1902.6999999999998 1719.4 1902.6999999999998 1719.4 C 1902.6999999999998 1719.4 1933.6999999999998 1757.8000000000002 2000.4999999999998 1735.5 C 2000.4999999999998 1735.5 2049.3999999999996 1491 2045.7999999999997 1416.8 C 2044.7999999999997 1396.3 2252.6 1413.8 2290.6 1404 C 2328.6 1394.1 2421.5 1311.4 2401.1 1271.1 C 2380.6 1230.8 2290.6 1212.3 2290.6 1212.3 z" stroke-linecap="round" />
</g>
		<g transform="matrix(1 0 0 1 836.27 -335.71)" id="<Path>"  >
<path style="stroke: none; stroke-width: 1; stroke-dasharray: none; stroke-linecap: butt; stroke-dashoffset: 0; stroke-linejoin: miter; stroke-miterlimit: 4; fill: rgb(255,178,125); fill-rule: nonzero; opacity: 1;" vector-effect="non-scaling-stroke"  transform=" translate(-2350.09, -763.63)" d="M 2309.5 844.5 C 2331.3 842.7 2354.1 836.9 2373.9 830.5 C 2398.5 822.5 2418.4 810.8 2405.6 788.3 C 2393.7999999999997 767.5 2374.7 721.0999999999999 2376 682.6999999999999 L 2330.1 719.6999999999999 L 2298.9 744.8 C 2298.9 744.8 2299 759.5999999999999 2302.4 785.5 Q 2303.4 792.6 2304.7000000000003 800.8 C 2305.3 805.1999999999999 2303.3 809.5999999999999 2299.5000000000005 812 Q 2299.2000000000003 812.2 2298.8000000000006 812.4 C 2283.3000000000006 822.1999999999999 2291.3000000000006 846 2309.5000000000005 844.5 z" stroke-linecap="round" />
</g>
		<g transform="matrix(1 0 0 1 812.3 -357.69)" id="<Path>"  >
<path style="stroke: none; stroke-width: 1; stroke-dasharray: none; stroke-linecap: butt; stroke-dashoffset: 0; stroke-linejoin: miter; stroke-miterlimit: 4; fill: rgb(237,151,93); fill-rule: nonzero; opacity: 1;" vector-effect="non-scaling-stroke"  transform=" translate(-2326.12, -741.65)" d="M 2298.9 738.7 C 2298.9 738.7 2297.3 744.1 2300.1 763.9000000000001 C 2327.7999999999997 759.4000000000001 2353.7999999999997 737.2 2353.7999999999997 737.2 C 2339.7 733.3000000000001 2334.4999999999995 718 2323.9999999999995 719.5 z" stroke-linecap="round" />
</g>
		<g transform="matrix(1 0 0 1 812.89 -443.48)" id="<Path>"  >
<path style="stroke: none; stroke-width: 1; stroke-dasharray: none; stroke-linecap: butt; stroke-dashoffset: 0; stroke-linejoin: miter; stroke-miterlimit: 4; fill: rgb(255,178,125); fill-rule: nonzero; opacity: 1;" vector-effect="non-scaling-stroke"  transform=" translate(-2326.71, -655.86)" d="M 2273.2 743.2 C 2273.2 743.2 2380.1 761 2390.1 694.2 C 2400.2 627.5 2420.7 584.8000000000001 2352.9 570.7 C 2285.1 556.5 2268 580 2259.2000000000003 601.5 C 2250.4 622.9 2245.7000000000003 736.9 2273.2000000000003 743.2 z" stroke-linecap="round" />
</g>
		<g transform="matrix(1 0 0 1 819.81 -455.78)" id="<Path>"  >
<path style="stroke: none; stroke-width: 1; stroke-dasharray: none; stroke-linecap: butt; stroke-dashoffset: 0; stroke-linejoin: miter; stroke-miterlimit: 4; fill: rgb(0,0,0); fill-rule: nonzero; opacity: 1;" vector-effect="non-scaling-stroke"  transform=" translate(-2333.63, -643.56)" d="M 2243.5 571.9 C 2238.9 588 2251.2 607.6 2271.8 614 C 2302.4 623.6 2295.6000000000004 661.1 2309.4 660.6 C 2323.2000000000003 660.1 2328.7000000000003 639 2341 655.9 C 2351.5 670.1999999999999 2332.3 687.1999999999999 2333.6 695.1 C 2335.9 708.6 2357.1 736.3000000000001 2376.2 734.9 C 2395.2 733.5 2430.8999999999996 642.8 2423.7999999999997 614.8 C 2416.7 586.6999999999999 2388.1 557.0999999999999 2361.1 553 C 2334 549 2296.5 560.6 2287.7999999999997 560.6 C 2279.1 560.6 2245.8999999999996 563.2 2243.4999999999995 571.9 z" stroke-linecap="round" />
</g>
		<g transform="matrix(1 0 0 1 859.8 -56.87)" id="<Path>"  >
<path style="stroke: none; stroke-width: 1; stroke-dasharray: none; stroke-linecap: butt; stroke-dashoffset: 0; stroke-linejoin: miter; stroke-miterlimit: 4; fill: rgb(253,113,102); fill-rule: nonzero; opacity: 1;" vector-effect="non-scaling-stroke"  transform=" translate(-2373.61, -1042.47)" d="M 2491.6 897.2 C 2476.2 835 2433.5 769.8000000000001 2404.6 769.8000000000001 C 2355.4 769.9000000000001 2284.7 782.9000000000001 2256.2 853.4000000000001 C 2235.1 905.2 2207.1 1203.7 2238.7999999999997 1224.9 C 2311.2999999999997 1273.4 2479.2 1372.4 2509.1 1271.4 C 2536.4 1178.9 2518.5 1005.1000000000001 2491.6 897.2 z" stroke-linecap="round" />
</g>
		<g transform="matrix(1 0 0 1 635.75 -167.69)" id="<Path>"  >
<path style="stroke: none; stroke-width: 1; stroke-dasharray: none; stroke-linecap: butt; stroke-dashoffset: 0; stroke-linejoin: miter; stroke-miterlimit: 4; fill: rgb(253,113,102); fill-rule: nonzero; opacity: 1;" vector-effect="non-scaling-stroke"  transform=" translate(-2149.57, -931.65)" d="M 2372.2 835.3 C 2358.1 798.8 2312.8999999999996 786.1999999999999 2282 810.1999999999999 C 2265.3 823.1999999999999 2244.8 841.6999999999999 2220.1 867.9999999999999 C 2128.2999999999997 965.7999999999998 2109.7 965.1999999999999 2092.4 963.0999999999999 C 2075.2000000000003 961.0999999999999 1929.5 930.1999999999999 1929.5 930.1999999999999 C 1929.5 930.1999999999999 1922.1 935.6999999999999 1917.7 944.5999999999999 C 1911.8 956.4999999999999 1914.8 964.5999999999999 1914.8 964.5999999999999 C 1909 960.8999999999999 1966.3999999999999 1000.3999999999999 1994.8999999999999 1016.1999999999999 C 2032.6 1037 2089.3999999999996 1056.5 2112.1 1063.8999999999999 C 2118.5 1065.9999999999998 2125.4 1065.8999999999999 2131.7 1063.6 C 2165.2999999999997 1051.5 2278.1 1007.3999999999999 2369.8999999999996 930.8999999999999 C 2394.0999999999995 910.6999999999998 2385.2 869.1999999999998 2372.2 835.2999999999998 z" stroke-linecap="round" />
</g>
		<g transform="matrix(1 0 0 1 831.98 -321.59)" id="<Path>"  >
<path style="stroke: none; stroke-width: 1; stroke-dasharray: none; stroke-linecap: butt; stroke-dashoffset: 0; stroke-linejoin: miter; stroke-miterlimit: 4; fill: rgb(255,255,255); fill-rule: nonzero; opacity: 1;" vector-effect="non-scaling-stroke"  transform=" translate(-2345.8, -777.75)" d="M 2409.6 770.4 L 2398.4 745.3 C 2398.4 745.3 2298.7000000000003 753.5 2282 810.1999999999999 C 2282 810.1999999999999 2359.3 771.6999999999999 2409.6 770.4 z" stroke-linecap="round" />
</g>
		<g transform="matrix(1 0 0 1 1112.8 504.51)" id="<Path>"  >
<path style="stroke: none; stroke-width: 1; stroke-dasharray: none; stroke-linecap: butt; stroke-dashoffset: 0; stroke-linejoin: miter; stroke-miterlimit: 4; fill: rgb(140,180,244); fill-rule: nonzero; opacity: 1;" vector-effect="non-scaling-stroke"  transform=" translate(-2626.62, -1603.85)" d="M 2651.6 1796.4 L 2652.2999999999997 1796.4 C 2657.9999999999995 1796.3000000000002 2662.2999999999997 1791.7 2661.7999999999997 1786.4 L 2624.2 1411.3000000000002 L 2591.3999999999996 1414.2000000000003 L 2645.3999999999996 1791.3000000000002 C 2645.7999999999997 1794.3000000000002 2648.4999999999995 1796.4 2651.5999999999995 1796.4 z" stroke-linecap="round" />
</g>
		<g transform="matrix(1 0 0 1 919.5 504.51)" id="<Path>"  >
<path style="stroke: none; stroke-width: 1; stroke-dasharray: none; stroke-linecap: butt; stroke-dashoffset: 0; stroke-linejoin: miter; stroke-miterlimit: 4; fill: rgb(140,180,244); fill-rule: nonzero; opacity: 1;" vector-effect="non-scaling-stroke"  transform=" translate(-2433.32, -1603.85)" d="M 2458.3 1796.4 L 2459 1796.4 C 2464.7 1796.3000000000002 2469 1791.7 2468.5 1786.4 L 2430.9 1411.3000000000002 L 2398.1 1414.2000000000003 L 2452.1 1791.3000000000002 C 2452.5 1794.3000000000002 2455.2 1796.4 2458.2999999999997 1796.4 z" stroke-linecap="round" />
</g>
		<g transform="matrix(1 0 0 1 606.61 504.51)" id="<Path>"  >
<path style="stroke: none; stroke-width: 1; stroke-dasharray: none; stroke-linecap: butt; stroke-dashoffset: 0; stroke-linejoin: miter; stroke-miterlimit: 4; fill: rgb(115,162,229); fill-rule: nonzero; opacity: 1;" vector-effect="non-scaling-stroke"  transform=" translate(-2120.43, -1603.85)" d="M 2095.4 1796.4 L 2094.7000000000003 1796.4 C 2089.1000000000004 1796.3000000000002 2084.8 1791.7 2085.3 1786.4 L 2122.9 1411.3000000000002 L 2155.6 1414.2000000000003 L 2101.7 1791.3000000000002 C 2101.2999999999997 1794.3000000000002 2098.6 1796.4 2095.3999999999996 1796.4 z" stroke-linecap="round" />
</g>
		<g transform="matrix(1 0 0 1 980.56 66.61)" id="<Path>"  >
<path style="stroke: none; stroke-width: 1; stroke-dasharray: none; stroke-linecap: butt; stroke-dashoffset: 0; stroke-linejoin: miter; stroke-miterlimit: 4; fill: rgb(140,180,244); fill-rule: nonzero; opacity: 1;" vector-effect="non-scaling-stroke"  transform=" translate(-2494.38, -1165.95)" d="M 2641 1358.2 L 2676.7 1044.9 C 2681.2999999999997 999.8000000000001 2666.2 955.6000000000001 2601.1 952.1000000000001 L 2486.5 945.2000000000002 C 2418.6 942.3000000000002 2387.9 998.9000000000002 2379.3 1042.4 L 2311.3 1386.8000000000002 z" stroke-linecap="round" />
</g>
		<g transform="matrix(1 0 0 1 853.73 287.41)" id="<Path>"  >
<path style="stroke: none; stroke-width: 1; stroke-dasharray: none; stroke-linecap: butt; stroke-dashoffset: 0; stroke-linejoin: miter; stroke-miterlimit: 4; fill: rgb(115,162,229); fill-rule: nonzero; opacity: 1;" vector-effect="non-scaling-stroke"  transform=" translate(-2367.55, -1386.75)" d="M 2621.9 1416.8 L 2113.2000000000003 1416.8 C 2103.0000000000005 1416.8 2094.6000000000004 1408.3999999999999 2094.6000000000004 1398.2 L 2094.6000000000004 1375.3 C 2094.6000000000004 1365.1 2103.0000000000005 1356.7 2113.2000000000003 1356.7 L 2640.5 1356.7 L 2640.5 1398.2 C 2640.5 1408.4 2632.1 1416.8 2621.9 1416.8 z" stroke-linecap="round" />
</g>
		<g transform="matrix(1 0 0 1 962.08 287.41)" id="<Path>"  >
<path style="stroke: none; stroke-width: 1; stroke-dasharray: none; stroke-linecap: butt; stroke-dashoffset: 0; stroke-linejoin: miter; stroke-miterlimit: 4; fill: rgb(140,180,244); fill-rule: nonzero; opacity: 1;" vector-effect="non-scaling-stroke"  transform=" translate(-2475.9, -1386.75)" d="M 2626 1416.8 L 2325.7 1416.8 C 2317.7 1416.8 2311.2999999999997 1410.3 2311.2999999999997 1402.3 L 2311.2999999999997 1371.2 C 2311.2999999999997 1363.2 2317.7 1356.7 2325.7 1356.7 L 2640.5 1356.7 L 2640.5 1402.3 C 2640.5 1410.3 2634 1416.8 2626 1416.8 z" stroke-linecap="round" />
</g>
</g>
</g>
</svg>