<svg xmlns="http://www.w3.org/2000/svg" version="1.2" viewBox="1251.51 608.46 1899.61 1086.05">
	<title>7090</title>
	<style>
		.s0 { fill: #dde8fd } 
		.s1 { fill: #95a6db } 
		.s2 { fill: #060534 } 
		.s3 { fill: #000000 } 
		.s4 { fill: #08074d } 
		.s5 { fill: #f37a50 } 
		.s6 { fill: #fd7166 } 
		.s7 { fill: #2d2c61 } 
		.s8 { fill: #de623c } 
		.s9 { fill: #ffffff } 
		.s10 { fill: #768fdb } 
		.s11 { fill: #d66056 } 
		.s12 { fill: #ffd0b7 } 
		.s13 { fill: #4661b3 } 
		.s14 { fill: #6a86ce } 
		.s15 { fill: #7c9af2 } 
		.s16 { fill: #55ab65 } 
		.s17 { fill: #070635 } 
		.s18 { fill: #809df2 } 
		.s19 { fill: #b4c2f0 } 
		.s20 { fill: #9eb7ff } 
		.s21 { fill: #bdcdff } 
		.s22 { fill: #cdd8fa } 
	</style>
	<g id="Слой 1">
		<g id="&lt;Group&gt;">
			<g id="&lt;Group&gt;">
			</g>
			<g id="&lt;Group&gt;">
				<g id="&lt;Group&gt;">
				</g>
			</g>
			<g id="&lt;Group&gt;">
			</g>
			<g id="&lt;Group&gt;">
			</g>
			<g id="&lt;Group&gt;">
			</g>
			<g id="&lt;Group&gt;">
			</g>
			<g id="&lt;Group&gt;">
			</g>
			<g id="&lt;Group&gt;">
			</g>
		</g>
		<g id="&lt;Group&gt;">
			<path id="&lt;Path&gt;" class="s0" d="m1331.1 1685.5c-154.4-219.8-66.3-440.8 111.6-566.2 180.8-127.5-23.3-391.3 336.6-498.6 186.1-55.6 349.8 95.9 532.3 102.5 163.5 5.8 332.7-127.7 498.7-65.8 111 35.6 222 135.5 213.7 255-4.3 61.8-42.1 134.9-2.9 181.8 165.5 198 148.4 371.2 83.6 588.6 0 0-1773.6 2.7-1773.6 2.7z"/>
			<path id="&lt;Path&gt;" class="s1" d="m3105.9 1693.7h-1791.6c-3.5 0-6.4-2.8-6.4-6.3 0-3.6 2.9-6.4 6.4-6.4h1791.6c3.5 0 6.4 2.8 6.4 6.4 0 3.5-2.9 6.3-6.4 6.3z"/>
			<g id="&lt;Group&gt;">
				<g id="&lt;Group&gt;">
					<path id="&lt;Path&gt;" class="s2" d="m2905 1204.6c-15.2 5.2-65.1 94.8-65.1 94.8l38.4 2.5 41.2-41.7z"/>
					<path id="&lt;Path&gt;" class="s3" d="m2956.4 1648c-14.2 19-49.1 7.3-48 33 53.1-0.4 75.2 0 75.2 0-0.1-5.9-1.1-19.9-2.4-25.4z"/>
					<path id="&lt;Path&gt;" class="s3" d="m3035.8 1648.5c-14.2 19-49.1 7.3-48 33 53.1-0.4 75.2 0 75.2 0-0.1-5.9-1.1-19.9-2.3-25.4z"/>
					<path id="&lt;Path&gt;" class="s2" d="m2925.9 1357.7c0 0-8.6 122.2-5.1 149.2 3.5 27 21.8 61.8 20.4 151.2 17.3 4.2 42.4 0 42.4 0 0 0 3.7-101-14.6-146.2 7.4-43.8 31.3-144.2 31.3-144.2z"/>
					<path id="&lt;Path&gt;" class="s4" d="m2978.5 1362c0 0 0.8 134.9 9.3 160.8 8.5 25.8 25.1 44.3 40.5 132.3 17.8 0.9 43.4 1.3 43.4 1.3 0 0-9.1-113.2-36.8-138.6-0.9-44.4 10.5-156.6 10.5-156.6z"/>
					<path id="&lt;Path&gt;" class="s1" d="m2935.8 1186.1l23-7.6 24.1 1.2-19.5 32.2z"/>
					<path id="&lt;Path&gt;" class="s5" d="m2944 1201.1c11.4 5.7 25.7 4.2 35.7-4.9l-4.6-36.3-33.7 4.9z"/>
					<path id="&lt;Path&gt;" class="s1" d="m2991.9 1190.9l-7.6-1.2-1.4-10-15.7 19.9-5.3 2.1-5.6-0.6-20.5-15 1.4 10-5.9 2.7-21.3 8.6 25.5 123.6 0.8 41c31.7 3.1 65.1 0.8 96.4-11.1l-10.7-41.7-4.5-125.4z"/>
					<path id="&lt;Path&gt;" class="s6" d="m2957.8 1215.3l3.7 97.2 9.8 9.4 8.6-9.7-14.7-97.5z"/>
					<path id="&lt;Path&gt;" class="s6" d="m2950.6 1204.1l8.7-2.9 10 1-4.1 12.7-7.4 0.7z"/>
					<g id="&lt;Group&gt;">
						<path id="&lt;Path&gt;" class="s4" d="m2934.3 1190.8l13.1 108.9 10.9 76.5c0 0-21 10.3-38.8-0.3l-14.8-171.3z"/>
						<path id="&lt;Path&gt;" class="s7" d="m2934.7 1189.6l13.8 117.6-27.6-89.3z"/>
					</g>
					<g id="&lt;Group&gt;">
						<path id="&lt;Path&gt;" class="s4" d="m2983.7 1180.7l16 193.8c0 0 40.5 2.5 55.5-10l-15.6-60.1-23.5-124z"/>
						<path id="&lt;Path&gt;" class="s7" d="m2983.3 1180.3l10.2 118.6 10.1-95.4z"/>
					</g>
					<g id="&lt;Group&gt;">
						<g id="&lt;Group&gt;">
							<path id="&lt;Path&gt;" class="s5" d="m2983.8 1132.7c-2.6 25.2-20.8 44.1-40.6 42-19.9-2-33.8-24.1-31.2-49.4 2.6-25.3 20.7-44.1 40.6-42.1 19.8 2.1 33.8 24.2 31.2 49.5z"/>
							<path id="&lt;Path&gt;" class="s3" d="m2922.4 1134.7c-1.9 0.8-4.1 0-4.9-1.9-0.9-1.9 0-4.1 1.9-4.9 1.9-0.9 4.1 0 4.9 1.9 0.8 1.9 0 4.1-1.9 4.9z"/>
							<path id="&lt;Path&gt;" class="s3" d="m2950.8 1131.2c-0.8 2-3 2.9-4.9 2.1-1.9-0.8-2.9-2.9-2.1-4.9 0.8-1.9 3-2.8 4.9-2 1.9 0.7 2.8 2.9 2.1 4.8z"/>
							<path id="&lt;Path&gt;" class="s8" d="m2930.8 1129.8c-1.9 6.4-4.5 14.2-4.5 14.2 0 0 3.5 5.2 11.1 3.3-3.6-0.5-7.3-1.8-7.1-6.4 0.2-4.7 0.5-11.1 0.5-11.1z"/>
							<g id="&lt;Group&gt;">
								<path id="&lt;Path&gt;" class="s4" d="m2955 1124.5c-0.7 0.4-1.6 0.3-2.1-0.3-0.2-0.2-3.4-3.5-6.8-1.5-0.8 0.4-1.9 0.1-2.3-0.7-0.5-0.8-0.2-1.9 0.6-2.3 4.6-2.7 9.2 0.2 11 2.1 0.6 0.7 0.6 1.8-0.1 2.4q-0.1 0.2-0.3 0.3z"/>
							</g>
							<g id="&lt;Group&gt;">
								<path id="&lt;Path&gt;" class="s4" d="m2914 1128.4c0.7 0.2 1.5-0.1 2-0.8 0.1-0.2 2.5-4.1 6.2-3 0.9 0.3 1.9-0.2 2.2-1.1 0.3-0.9-0.3-1.9-1.2-2.2-5-1.5-8.9 2.3-10.2 4.5-0.5 0.9-0.2 1.9 0.6 2.4q0.2 0.1 0.4 0.2z"/>
							</g>
							<path id="&lt;Path&gt;" class="s4" d="m2980.1 1134.1c-2-9-9.4-5.3-13-16.9-3.5-11.7-6.7-20.4-17.5-15.9-10.8 4.5-14.1 2.5-19.2 0.8-15.5-4.8-18.2 20.9-18.2 20.9 0 0-12.9-19-3.1-31.3 10.8-13.6 15.4-5.6 25.8-15.7 10.4-10.2 28.9-9.2 34.1-2.6 5.5 6.9 7.4 12.3 19.2 15.4 11.7 3 19.1 10.9 11.8 24.4-7.2 13.5 10.8 17.9-3.3 32.1-5.5 5.5-16.3 8.9-18.6 7-3-2.5 3.3-12.4 2-18.2z"/>
							<path id="&lt;Path&gt;" class="s4" d="m2912.2 1139c0 0 3.2 12 6.4 15.4 0.3-5.8 9.1-1.5 13.2-2.2 10-1.8 23.2-10.6 29.5 3.1 12.8 0 16.3-27.9 16.3-27.9 9.6 27.6-4.3 49.1-35 53.8-20.3 3.1-32.9-21.5-30.4-42.2z"/>
							<g id="&lt;Group&gt;">
								<path id="&lt;Path&gt;" class="s5" d="m2975.5 1128.4c-3.6 4.9-3.3 11.4 0.7 14.4 4.1 3 10.4 1.4 14-3.6 3.7-4.9 3.4-11.4-0.7-14.4-4-3-10.3-1.4-14 3.6z"/>
								<g id="&lt;Group&gt;">
									<path id="&lt;Path&gt;" class="s8" d="m2981.7 1140.1q-0.3-0.1-0.6-0.3c-2.5-1.9-3.4-4.5-2.4-7.1 0.9-2.6 3.5-4.4 6.2-4.2 0.7 0 1.3 0.6 1.2 1.4 0 0.7-0.6 1.3-1.4 1.3-1.4-0.1-3 1-3.5 2.5-0.5 1.4 0 2.8 1.6 4 0.6 0.4 0.7 1.3 0.2 1.9-0.3 0.4-0.8 0.6-1.3 0.5z"/>
								</g>
							</g>
							<g id="&lt;Group&gt;">
								<path id="&lt;Path&gt;" class="s8" d="m2938.7 1161q-1.2 0.4-2.5 0.6c-6.2 0.8-11.1-3-11.3-3.1-0.7-0.5-0.8-1.5-0.3-2.1 0.5-0.6 1.4-0.8 2.1-0.3 0 0.1 4.2 3.3 9.2 2.6 3.2-0.5 6.2-2.5 8.7-5.9 0.5-0.7 1.4-0.8 2.1-0.3 0.6 0.5 0.8 1.4 0.3 2q-3.7 5-8.3 6.5z"/>
							</g>
						</g>
					</g>
					<path id="&lt;Path&gt;" class="s9" d="m2959.3 1201.2l18.7 13.3 10.1-28.2-5.2-6.6z"/>
					<path id="&lt;Path&gt;" class="s9" d="m2959.3 1201.2l-11.6 15.4-15.1-22.7 3.2-7.8z"/>
				</g>
				<g id="с 2 ">
					<path id="с 16 " class="s10" d="m2722.5 1684h-6.9c-2.7 0-4.9-2.3-4.9-5v-141.5h16.7v141.5c0 2.8-2.2 5-4.9 5z"/>
					<path id="с 15 " class="s10" d="m2781.2 1684h-6.8c-2.8 0-5-2.3-5-5v-141.5h16.7v141.5c0 2.8-2.2 5-4.9 5z"/>
					<path id="с 8 " class="s10" d="m2863.2 1676.1c0 4.4-3.7 7.9-8.4 7.9-4.6 0-8.3-3.5-8.3-7.9v-138.6h16.7z"/>
					<path id="с 7 " class="s10" d="m2917 1684h-6.8c-2.8 0-5-2.3-5-5v-141.5h16.8v141.5c0 2.8-2.3 5-5 5z"/>
					<path id="с 6 " class="s1" d="m2821 1317.4v176.4c0 2-1.7 3.7-3.7 3.7h-109.4c-11 0-20 8.9-20 20 0 11 9 20 20 20h113.1 20c11 0 19.9-9 19.9-20v-20-180.1c0-11.1-8.9-20-19.9-20-11.1 0-20 8.9-20 20z"/>
					<path id="с 5 " class="s1" d="m2927.5 1500.7h-86.5v-203.3h86.5z"/>
					<path id="с 3 " class="s10" d="m2907.5 1317.4v176.4c0 2-1.6 3.7-3.7 3.7h-109.4c-11 0-20 8.9-20 20 0 11 9 20 20 20h113.1 20c11 0 20-9 20-20v-20-180.1c0-11.1-9-20-20-20-11.1 0-20 8.9-20 20z"/>
				</g>
				<g id="c 4 ">
					<path id="&lt;Path&gt;" class="s11" d="m2771 1289.9c-22.1 6.7-33 53.1-42.4 101.7-12.7 16.7-26.3 25.8-46.2 45.4 13.5 3.1 27.7-0.5 27.7-0.5 0 0 36.7 0.3 52.6-34.3 3.6-7.9 4.8-23.9 6.9-31 0.9-22.2 1.4-81.3 1.4-81.3z"/>
					<path id="&lt;Path&gt;" class="s5" d="m2642 1660l-19.9 5.1-8.1-17.7c0.9-0.6 2.2-12.4 3-21.4l32 4.5c-1.5 9-4.2 20.8-7 29.5z"/>
					<g id="&lt;Group&gt;">
						<g id="&lt;Group&gt;">
							<path id="&lt;Path&gt;" class="s2" d="m2607 1670.5c0 0-6.9-11.6-15.6-12.3 0 0-16.4 0.9-22.2 7.8-1.8 2.2-1.1 6.8-0.4 9.8 0.5 1.8 2 3.9 6.9 5.4 7.1 2.2 16.8 3.6 34.6-1 21.4-5.5 24.8-3.3 32.7-5.8 8.2-2.6 5.6-12.6 3.3-22.4 0 0-5.9 11.9-39.3 18.5z"/>
						</g>
						<g id="&lt;Group&gt;">
							<g id="&lt;Group&gt;">
								<path id="&lt;Path&gt;" class="s4" d="m2613.5 1645.6c0 0-9.5 5.8-22 8.7-7 1.6-25.6 5.2-22.6 17.6 0.5 1.8 2 3.9 6.9 5.4 7.1 2.2 16.8 3.6 34.6-1 21.4-5.5 24.8-3.3 32.7-5.8 8.2-2.6 4.4-14 2.2-23.7-0.2 2.4-1.4 8.9-16.2 14.7-4.4 1.8-0.8-17.8-15.6-15.9z"/>
							</g>
						</g>
						<g id="&lt;Group&gt;">
							<path id="&lt;Path&gt;" class="s7" d="m2616.3 1660.6c-0.7-0.1-1.4-0.6-1.6-1.3-1.5-6.1-7.7-6.5-8-6.5-0.9-0.1-1.6-0.9-1.6-1.8 0.1-0.9 0.9-1.6 1.8-1.6 3.1 0.2 9.4 2.3 11.1 9.1 0.2 0.9-0.3 1.8-1.2 2q-0.3 0.1-0.5 0.1z"/>
						</g>
						<g id="&lt;Group&gt;">
							<path id="&lt;Path&gt;" class="s7" d="m2608.4 1663.7c-0.7 0-1.3-0.5-1.5-1.3-1.5-6-7.8-6.4-8-6.5-1 0-1.7-0.8-1.6-1.7 0-1 0.8-1.7 1.7-1.6 3.2 0.1 9.5 2.2 11.2 9 0.2 0.9-0.3 1.9-1.2 2.1q-0.3 0-0.6 0z"/>
						</g>
					</g>
					<path id="&lt;Path&gt;" class="s5" d="m2719.6 1667.5l-19.5 6.4-9.3-17c0.8-0.7 3.6-13.1 3.7-22.1l30 2.7c-0.9 9.1-2.7 21.1-4.9 30z"/>
					<path id="&lt;Path&gt;" class="s2" d="m2751.9 1446c-44.4 8.1-107.4 36.9-113.6 43.4-12.8 13.5-19.1 59.9-25.2 142.7l38.8 2.5c14.4-64.6 27.9-92.7 30.1-119 0 0 34 2.4 85.2-17.4 25.2-9.7 51.5-21.1 43.9-43.9-6-18.1-16.9-16-59.2-8.3z"/>
					<path id="&lt;Path&gt;" class="s4" d="m2801.5 1449.9c-36.9 3.8-86 46-92.2 52.5-12.9 13.5-14.5 59.6-20.5 142.3l38.6 3.6c6.2-42.9 24.5-92 24.5-123.4 0 0 34.6-7.5 88.1-19.6 29.3-6.5 38.1-11.1 43.7-30.2 1.9-6.5 4.5-21.6 1.5-24.9-12.9-14.9-48.8-3.9-83.7-0.3z"/>
					<g id="&lt;Group&gt;">
						<g id="&lt;Group&gt;">
							<path id="&lt;Path&gt;" class="s2" d="m2685.4 1680.4c0 0-7.7-11.1-16.4-11.2 0 0-16.4 2.1-21.6 9.4-1.7 2.3-0.6 6.9 0.3 9.8 0.6 1.8 2.3 3.7 7.2 4.9 7.3 1.7 17.1 2.4 34.5-3.4 20.9-7.1 24.5-5 32.2-8.1 8-3.2 4.6-13 1.7-22.6 0 0-5.1 12.3-37.9 21.2z"/>
						</g>
						<g id="&lt;Group&gt;">
							<g id="&lt;Group&gt;">
								<path id="&lt;Path&gt;" class="s4" d="m2690.1 1655.2c0 0-9.1 6.4-21.3 10.1-6.9 2.1-25.2 7-21.3 19.2 0.6 1.8 2.3 3.7 7.2 4.9 7.3 1.7 17.1 2.4 34.5-3.4 21-7.1 24.5-5 32.2-8.1 8-3.2 3.4-14.3 0.5-23.9 0 2.5-0.7 9.1-15.1 15.9-4.3 2.1-2.1-17.7-16.7-14.7z"/>
							</g>
						</g>
						<g id="&lt;Group&gt;">
							<path id="&lt;Path&gt;" class="s7" d="m2697.2 1670.5c-0.7 0-1.3-0.5-1.5-1.3-1.5-6-7.8-6.5-8.1-6.5-0.9 0-1.6-0.8-1.5-1.7 0-1 0.8-1.7 1.7-1.6 3.1 0.1 9.5 2.2 11.2 9 0.2 0.9-0.4 1.8-1.3 2.1q-0.2 0-0.5 0z"/>
						</g>
						<g id="&lt;Group&gt;">
							<path id="&lt;Path&gt;" class="s7" d="m2689.4 1673.7c-0.7-0.1-1.4-0.6-1.5-1.3-1.6-6.1-7.8-6.5-8.1-6.5-0.9-0.1-1.6-0.9-1.6-1.8 0.1-0.9 0.9-1.6 1.8-1.6 3.1 0.1 9.4 2.2 11.1 9.1 0.3 0.9-0.3 1.8-1.2 2q-0.3 0.1-0.5 0.1z"/>
						</g>
					</g>
					<g id="&lt;Group&gt;">
						<path id="v-2 1 " class="s5" d="m2825.8 1252.8h-14.7l-3.3 34.7 17.1 9.1 18.3-9-2.9-34.8z"/>
						<g id="&lt;Group&gt;">
							<g id="&lt;Group&gt;">
								<path id="&lt;Path&gt;" class="s4" d="m2827.2 1248c13 3.6 22.5-12.2 22.5-12.2 8.3 0 8.2-8.3 8.2-8.3 4-0.6 9.8-3.9 9.3-11.5-0.5-6.4-6.6-7-6.2-14.4 0.3-5.9 6.7-19.5-11.7-23.5 0 0 1.2-10.9-9.5-15.2-13.2-5.4-17.9 2.3-24.1 2.9-7 0.6-20.4-7.9-24.7 7.4 0 0-9.6-1.3-15.1 4.9-5.1 5.9-4 14.5-1.7 18 0 0-8.1 1.4-11 8.4-1.9 4.7-1 11.3 3.4 15.1 2.7 2.4 5.6 3.1 5.6 3.1 3.1 1 2 9.4 4.5 11.4 4 3.3 8.5 5.9 13.2 8.1z"/>
								<path id="&lt;Path&gt;" class="s5" d="m2851.3 1227.5c-0.8 24.3-19.9 45.3-39 44.6-19.1-0.6-31.1-22.7-30.2-47.1 0.8-24.3 17-43.5 36.1-42.8 19.2 0.6 34 20.9 33.1 45.3z"/>
								<path id="&lt;Path&gt;" class="s3" d="m2793.2 1233.9c-0.5 1.8-2.3 2.8-4.1 2.4-1.7-0.5-2.8-2.3-2.3-4.1 0.5-1.8 2.3-2.8 4.1-2.4 1.7 0.5 2.8 2.3 2.3 4.1z"/>
								<path id="&lt;Path&gt;" class="s3" d="m2820.7 1232.9c-0.5 1.9-2.5 3-4.4 2.5-1.9-0.5-3-2.5-2.5-4.4 0.5-1.9 2.5-3 4.4-2.5 1.9 0.5 3 2.5 2.5 4.4z"/>
								<path id="&lt;Path&gt;" class="s8" d="m2803.9 1233.8c-3.1 4.8-6.9 10.8-6.9 10.8 0 0 1.8 5.1 8.5 5.2-2.8-1.2-5.7-3.1-4.5-7 1.2-3.8 2.9-9 2.9-9z"/>
								<g id="&lt;Group&gt;">
									<path id="&lt;Path&gt;" class="s4" d="m2824.2 1228.2q0.1 0 0.3-0.1c0.8-0.5 1-1.6 0.5-2.3-1.4-2.1-5.2-5.6-10-4-0.9 0.4-1.3 1.3-1 2.2 0.3 0.8 1.2 1.3 2.1 1 3.5-1.3 6.1 2.5 6.1 2.6 0.4 0.6 1.3 0.9 2 0.6z"/>
								</g>
								<g id="&lt;Group&gt;">
									<path id="&lt;Path&gt;" class="s4" d="m2792.3 1226.5q0.4-0.1 0.6-0.4c0.5-0.6 0.4-1.4-0.2-1.9-0.1-0.1-2.3-1.9-5-1.5q-2.8 0.5-4.8 3.7c-0.4 0.7-0.2 1.5 0.4 1.9 0.7 0.4 1.5 0.2 1.9-0.4q1.4-2.2 2.9-2.4c1.5-0.3 2.9 0.8 2.9 0.8 0.4 0.3 0.9 0.4 1.3 0.2z"/>
								</g>
								<path id="&lt;Path&gt;" class="s4" d="m2776.1 1200.8l40.9-26.9 42.3 30.3-10.6 32.3c1.1-15.5-9-12-13.2-17.2-4.2-5.2-5.2-12.6-17.7-8.1 0 0-8.4-7.9-14.6 0.5-4.8 6.5-9.6 4.4-14.7 4-6-0.5-5.5 5.5-9.1 4.7z"/>
								<g id="&lt;Group&gt;">
									<path id="&lt;Path&gt;" class="s5" d="m2846 1225.5c-3.8 4.4-4 10.4-0.4 13.4 3.5 3.1 9.4 2.1 13.2-2.3 3.7-4.3 3.9-10.3 0.4-13.4-3.6-3-9.5-2-13.2 2.3z"/>
									<g id="&lt;Group&gt;">
										<path id="&lt;Path&gt;" class="s8" d="m2850.8 1236.8q-0.3-0.1-0.5-0.3c-2.1-1.9-2.8-4.4-1.8-6.7 1.1-2.3 3.6-3.8 6.1-3.5 0.7 0.1 1.1 0.7 1.1 1.4-0.1 0.7-0.7 1.2-1.4 1.1-1.4-0.2-2.9 0.7-3.5 2-0.6 1.3-0.2 2.7 1.2 3.9 0.5 0.4 0.5 1.2 0.1 1.7-0.3 0.4-0.8 0.5-1.3 0.4z"/>
									</g>
								</g>
								<path id="&lt;Path&gt;" class="s9" d="m2798.1 1259c-0.7-0.7-0.2-1.9 0.8-1.9 2.4 0.1 6.5 0 10.3-0.4 3.9-0.5 7.9-1.3 10.3-1.9 0.9-0.2 1.7 0.8 1.2 1.6-1.5 2.6-4.8 6.7-10.6 7.3-5.9 0.7-10-2.5-12-4.7z"/>
							</g>
						</g>
					</g>
					<g id="v 1 ">
						<path id="v-25 1 " class="s12" d="m2856.7 1296.2c-10.7-3.6-21.9-5.3-33.2-4.9-38.1 0-44 9.6-44 9.4l28.3 77.7 15.7 7.8 17.2-5.1c0 0 22.2-82.6 16-84.9z"/>
						<path id="&lt;Path&gt;" class="s6" d="m2885.2 1450.8c0 0-30.7 3.2-59.6 3.4-28.8-0.2-59.6-5.8-59.6-5.8 0 0 3.9-53 3.5-73.3-0.6-23.4 1.5-54.3 1.5-85.2 0 0 20.4-3.3 32-4.7 1.9-0.2 3.5-0.4 4.8-0.5 0 0 6.5 13.8 35.2 0 1.5-0.2 3.4-0.2 5.4 0 12.1 0.7 31.5 5.2 31.5 5.2 0 30.8 1.2 61 0.8 84.3 1.3 20.8 4.5 76.6 4.5 76.6z"/>
					</g>
					<g id="c 5 ">
						<path id="&lt;Path&gt;" class="s5" d="m2809.4 1356.6l-7-4c0 0-2-9.9-13.2-10.2 1.3 4.2 3.2 10.2 3.2 10.2 0 0-5.6 4.3-18.6-3.1-12.8-2.8-7.4 6.5-11.6 7.2-6.3 0.9 4.6 13.2 17.3 15.1 16.6 2.5 18.5-0.9 18.5-0.9l9.4 3.2z"/>
						<path id="c 6 " class="s11" d="m2874 1367.2c-23.4-1.6-63.2-13.1-63.2-13.1-6.3 9.7-4.6 22.7-4.6 22.7 36.3 31.8 90.8 42 107.5 34.4 15.3-7 4.5-100-33.8-121.3l-1.4 0.1c-13.1 22.3-4.5 77.2-4.5 77.2z"/>
					</g>
					<path id="&lt;Path&gt;" class="s11" d="m2848.4 1284.7c-1.9 3.3-4.8 5.8-8.7 7.8-6.3 3.2-14.9 4.5-20.2 4.1-4.1-0.3-8.8-2-11.7-4.4-3.2-2.5-4.5-5.7-4.8-7 1.9-0.2 3.8-0.5 5.1-0.6 0 0 6.2 13.9 34.9 0.1 1.5-0.2 3.4-0.2 5.4 0z"/>
				</g>
				<g id="&lt;Group&gt;">
					<path id="&lt;Path&gt;" class="s13" d="m3017.5 1454.2h-491.8c-5.9 0-10.7-4.8-10.7-10.7 0-5.9 4.8-10.7 10.7-10.7h491.8c5.9 0 10.7 4.8 10.7 10.7 0 5.9-4.8 10.7-10.7 10.7z"/>
					<path id="&lt;Path&gt;" class="s13" d="m2542.1 1684h-7.6c-3.1 0-5.6-2.5-5.6-5.6v-225c0-3.1 2.5-5.6 5.6-5.6h7.6c3 0 5.5 2.5 5.5 5.6v225c0 3.1-2.5 5.6-5.5 5.6z"/>
					<path id="&lt;Path&gt;" class="s13" d="m3009.9 1684h-7.6c-3.1 0-5.5-2.5-5.5-5.6v-225c0-3.1 2.4-5.6 5.5-5.6h7.6c3.1 0 5.5 2.5 5.5 5.6v225c0 3.1-2.4 5.6-5.5 5.6z"/>
				</g>
				<g id="&lt;Group&gt;">
					<path id="&lt;Path&gt;" class="s14" d="m2754 1433h-123.3l-24.4-77.4c-1.1-3.6 1.6-7.3 5.3-7.3h111.7c2.5 0 4.6 1.6 5.3 3.9z"/>
					<path id="&lt;Path&gt;" class="s15" d="m2744.7 1433h-123.4l-24.3-77.4c-1.1-3.6 1.5-7.3 5.3-7.3h111.7c2.4 0 4.6 1.6 5.3 3.9z"/>
					<path id="&lt;Path&gt;" class="s16" d="m2672.1 1392.2c1.3 4.8-1.1 9.6-5.4 10.9-4.4 1.2-9-1.7-10.4-6.5-1.3-4.7 1.1-9.6 5.4-10.8 4.4-1.3 9 1.6 10.4 6.4z"/>
					<path id="&lt;Path&gt;" class="s14" d="m2824.1 1424.9h-79.4v7.9h87.3c0-4.4-3.5-7.9-7.9-7.9z"/>
				</g>
				<g id="&lt;Group&gt;">
					<path id="&lt;Path&gt;" class="s1" d="m2600.1 1432.8h-43.1v-44.3c0-4.9 4-9 9-9h25.1c5 0 9 4.1 9 9z"/>
					<g id="&lt;Group&gt;">
						<path id="&lt;Path&gt;" class="s1" d="m2560.2 1427.8h-9.7c-5 0-9-4.1-9-9.1v-17.5c0-5 4-9.1 9-9.1h8.1c2.2 0 4 1.8 4 4.1 0 2.2-1.8 4-4 4h-8.1c-0.5 0-1 0.4-1 1v17.5c0 0.6 0.5 1 1 1h9.7c2.3 0 4.1 1.8 4.1 4 0 2.3-1.8 4.1-4.1 4.1z"/>
					</g>
				</g>
				<g id="&lt;Group&gt;">
					<path id="&lt;Path&gt;" class="s5" d="m2908.8 1352.9c5.6-2.6 11.7-4.1 13.6-12 0 0 14.9-4 30.6-7.5 0 0-19.1-17.4-19.1-17.4-6.2 2.1-17.6 9.8-24.6 10-1.8 0-3.6 0-5.5 0-4.4 0-9-0.6-13.8 2.9-18.4 13.6-25.6 11.3-26.3 12.9-0.6 2.4 4.3 7.1 13.7 2.4 9.1-4.6 13.9-4.6 13.9-4.6 0 0-0.2 7.9 3 10.1 1.4 1.1 8.1 6.3 14.5 3.2z"/>
					<path id="&lt;Path&gt;" class="s2" d="m2926.9 1315.3c0 0 48.8-23.5 85.9-31.1-5.2-18.6 3.2-104.4 3.2-104.4 0 0 25.1 6.2 37.5 52.6 12.5 46.5-16.1 93.8-16.1 93.8 0 0-76.9 21.4-104.4 13.6-4.4-1.3-6.1-24.5-6.1-24.5z"/>
				</g>
			</g>
			<g id="&lt;Group&gt;">
				<g id="&lt;Group&gt;">
					<path id="&lt;Path&gt;" class="s3" d="m1403.1 1646.5c-13 17.4-45.6 9.7-44.5 33.2 48.6-0.3 69.8 0.1 69.8 0.1 0-5.4-1.4-25.6-2.5-30.6z"/>
				</g>
				<g id="&lt;Group&gt;">
					<path id="&lt;Path&gt;" class="s3" d="m1487.3 1646.5c13.1 17.4 45.7 9.7 44.6 33.2-48.7-0.3-69.9 0.1-69.9 0.1 0.1-5.4 1.4-25.6 2.6-30.6z"/>
				</g>
				<g id="&lt;Group&gt;">
					<path id="&lt;Path&gt;" class="s2" d="m1374.2 1172.2c0 0-39.6 21.5-64.8 41.3l-13.7 41.4c26.4-3.1 91.6-31.7 91.6-31.7z"/>
					<path id="&lt;Path&gt;" class="s5" d="m1287.9 1127.6c1.2 6.3 1.2 13 8.7 17 0 0-2.9 20.4-3.5 37.2 0 0 20.7-19.7 20.7-19.7-0.5-6.8-0.2-19.7 1.5-26.9 0.4-1.8 0.9-3.7 1.4-5.5 1.2-4.5 3-9.1 0.6-14.9-8.9-22.3-4.6-29-6-30.2-2.3-1.3-8.4 2.5-6.1 13.3 2.2 10.4 1 15.4 1 15.4 0 0-8-2.3-11.2 0.3-1.4 1.2-8.5 6.6-7.1 14z"/>
					<path id="&lt;Path&gt;" class="s2" d="m1290.7 1148.3l26.2 3.9 12.7 73.9-33.9 28.8c-7.3-14.5-13.6-74.4-5-106.6z"/>
				</g>
				<path id="&lt;Path&gt;" class="s2" d="m1494.6 1331.4c-33.4 4.1-67.3 4.2-101.6 0.3l-7.8 167.6c0 0 4.3 111 10.2 149.9l36.8-0.1c-2.4-45.3 4.6-149.9 4.6-149.9l7.4-95.6 7.3 95.6c0 0 7.3 104.6 5.1 149.8h38.4c5.6-39 8.1-149.9 8.1-149.9z"/>
				<path id="&lt;Path&gt;" class="s2" d="m1506.8 1172.8c0 0 22.5 45.6 36.2 74.6l-12.5 40.2c-22.1-14.5-58.2-75-58.2-75z"/>
				<path id="&lt;Path&gt;" class="s1" d="m1462.1 1161.9l-45.8 2.1-4.6 44.8 5 128 48.3-0.6 12.7-143.3z"/>
				<path id="&lt;Path&gt;" class="s4" d="m1411.8 1092.8c6.4-7.3 11.5-0.2 20.6-9.3 9.1-9 16.4-15.6 24.2-6 7.8 9.6 11.8 10.9 17.4 10.4 5.7-0.6 5.7 22.8 5.7 22.8 0 0 22.3-5.6 19.3-21.9-3.3-18.1-11.5-12.9-16.1-27.5-4.6-14.7-22.4-22.9-30.5-19.4-8.5 3.7-13 7.8-25.5 4.8-12.4-3.1-23.2 0.6-23.2 16.8 0.1 16.1-18.9 11.3-12.9 31.5 2.4 7.8 9 15 12.1 14.4 4.1-0.9 4.8-11.8 8.9-16.6z"/>
				<path id="&lt;Path&gt;" class="s7" d="m1464.3 1344.3h-45v-13.4h45z"/>
				<path id="&lt;Path&gt;" class="s8" d="m1423.8 1173.2l16 12.6 16.1-12.6 2.2-30.8h-36.4z"/>
				<g id="&lt;Group&gt;">
					<path id="&lt;Path&gt;" class="s4" d="m1374.1 1172.3l0.8 200.5c15.6 12.8 46.2 16.3 46.2 16.3l-5.6-222.2z"/>
					<path id="&lt;Path&gt;" class="s4" d="m1506.8 1172.3l-0.8 200.5c-15.6 12.8-46.2 16.3-46.2 16.3l5.6-222.2z"/>
				</g>
				<path id="&lt;Path&gt;" class="s7" d="m1393.1 1193.3l26.4 113.7-4-142.1z"/>
				<path id="&lt;Path&gt;" class="s7" d="m1489.2 1185.4l-27.1 122.9 3.3-141.4z"/>
				<path id="&lt;Path&gt;" class="s5" d="m1443.4 1062c-47-1.1-36.2 62.2-32.8 72.1 1.9 5.4 13.8 26.3 33 26.6 19.1-0.3 30.8-21.2 32.7-26.6 3.4-9.9 15.8-71.4-32.9-72.1z"/>
				<g id="&lt;Group&gt;">
					<path id="&lt;Path&gt;" class="s4" d="m1437.8 1103.9c0.5-0.3 0.9-0.7 1-1.3 0.4-1.1-0.2-2.3-1.3-2.7-0.4-0.1-8.5-2.7-15.9 2.6-1 0.7-1.2 2.1-0.5 3 0.7 1 2 1.2 3 0.5 5.6-4 11.9-2 12-2 0.6 0.2 1.2 0.1 1.7-0.1z"/>
				</g>
				<g id="&lt;Group&gt;">
					<path id="&lt;Path&gt;" class="s4" d="m1458.2 1103.3c-0.4-0.3-0.8-0.7-1-1.3-0.4-1.1 0.2-2.4 1.4-2.7 0.3-0.1 8.5-2.7 15.9 2.6 0.9 0.7 1.2 2 0.5 3-0.7 1-2.1 1.2-3.1 0.5-5.6-4-11.9-2-12-2-0.6 0.2-1.2 0.1-1.7-0.1z"/>
				</g>
				<path id="&lt;Path&gt;" class="s3" d="m1467.8 1111.2c0 2.1-1.8 3.8-3.9 3.8-2.1 0-3.8-1.7-3.8-3.8 0-2.1 1.7-3.8 3.8-3.8 2.1 0 3.9 1.7 3.9 3.8z"/>
				<path id="&lt;Path&gt;" class="s3" d="m1434.9 1111.2c0 2.1-1.7 3.8-3.9 3.8-2.1 0-3.8-1.7-3.8-3.8 0-2.1 1.7-3.8 3.8-3.8 2.2 0 3.9 1.7 3.9 3.8z"/>
				<path id="&lt;Path&gt;" class="s8" d="m1450.6 1114.9c3 4.9 7 10.8 7 10.8 0 0-1.8 5.2-8.7 5.3 2.9-1.2 5.8-3.1 4.6-7-1.2-3.8-2.9-9.1-2.9-9.1z"/>
				<g id="&lt;Group&gt;">
					<path id="&lt;Path&gt;" class="s6" d="m1443.9 1197.6l8.1 108-12.1 14.2-12-14.2 8.2-107.7z"/>
					<path id="&lt;Path&gt;" class="s6" d="m1448.3 1186l-8-2.1-8.2 2.5 4 11.7 7.9-0.1z"/>
					<path id="&lt;Path&gt;" class="s9" d="m1439.9 1183.9c0 0-5.3 7.8-14.7 12.2l-15.8-24 6.9-8.1z"/>
					<path id="&lt;Path&gt;" class="s9" d="m1439.9 1183.9c0 0 7.7 9 15.2 11.7l14.3-25.9-6.8-7.8z"/>
				</g>
				<path id="&lt;Path&gt;" class="s2" d="m1601.8 1239.2l-6.3-24-61.2 26.7-3.8 45.7c16.2-1.5 48.7-23.9 71.3-48.4z"/>
				<path id="&lt;Path&gt;" class="s9" d="m1459.7 1139.5c0.6-1 0.1-2.5-0.9-2.4-2.5 0.3-6.6 0.6-10.5 0.5-3.9-0.2-7.9-0.9-10.4-1.4-0.9-0.2-1.6 1.3-1.1 2.3 1.7 3.4 5.1 8.5 11.1 8.7 6 0.3 9.9-4.5 11.8-7.7z"/>
				<path id="&lt;Path&gt;" class="s4" d="m1406.3 1104.2c5.3 1.8 6.8-36.2 27.4-22.4 14.6 9.7 41.4 12.1 35.9-1 4.4 3.2 9.3 8.3 9.3 8.3l-7.6-25.4c0 0-39.5-12.4-53.5 0.2-14 12.5-11.5 40.3-11.5 40.3z"/>
				<path id="&lt;Path&gt;" class="s5" d="m1416.1 1108.5c3.1 6.2 1.3 13.4-4.1 16.1-5.4 2.7-12.3 0-15.4-6.1-3.1-6.2-1.3-13.4 4.1-16.1 5.3-2.7 12.2 0 15.4 6.1z"/>
				<g id="&lt;Group&gt;">
					<path id="&lt;Path&gt;" class="s8" d="m1407.9 1121.4q-0.2 0-0.4-0.1c-0.7-0.2-1.2-1-0.9-1.7 1.1-3.8 1-6.6-0.3-8.2-1.8-2.2-5.5-1.8-5.5-1.8-0.8 0-1.5-0.5-1.5-1.3-0.1-0.8 0.4-1.5 1.2-1.6 0.2 0 5.2-0.5 7.9 2.8 2.1 2.5 2.3 6.1 0.9 10.9-0.2 0.6-0.8 1-1.4 1z"/>
				</g>
				<g id="&lt;Group&gt;">
					<g id="&lt;Group&gt;">
						<g id="&lt;Group&gt;">
							<path id="&lt;Path&gt;" class="s6" d="m1644.4 1200.3l-3.3 13.1-4.6 18.3-3.5 14-27.5-3.3-0.2-14.3-0.2-19-0.2-13.5z"/>
						</g>
						<path id="&lt;Path&gt;" class="s11" d="m1601 1195.2l47.3 5.5-0.2-5-45.8-5.4z"/>
						<path id="&lt;Path&gt;" class="s11" d="m1644.5 1195.2l-38.6-4.5 1.4-4.7 37 4.3z"/>
						<path id="&lt;Path&gt;" class="s11" d="m1633 1245.7l-1.2 4.9-26.2-3.1-0.1-5.1z"/>
						<path id="&lt;Path&gt;" class="s11" d="m1641.1 1213.4l-4.6 18.3-31.2-3.6-0.2-19z"/>
					</g>
					<path id="c 3 " class="s5" d="m1631.8 1229.2q0.5-0.3 1-0.5-0.1-0.1-0.1-0.1c-2.1-2.9-2.1-6.5 0-8.1q0.5-0.3 1.1-0.5c-0.7-2.2-0.2-4.3 1.2-5.4 0.6-0.4 1.3-0.6 2.1-0.7-0.8-2.1-0.3-4.4 1.3-5.6 2.1-1.5 5.3-0.7 7.1 1.8 1.8 2.4 1.6 5.7-0.5 7.2q-0.9 0.6-1.8 0.7c1.5 2.7 1.4 5.8-0.5 7.2q-0.5 0.3-1.2 0.5c0.7 2.2 0.3 4.3-1.2 5.4q-0.9 0.6-1.9 0.7c0.8 1.9 0.4 3.9-1.1 5-1.7 1.3-4.4 0.6-5.9-1.5-1.5-2.1-1.3-4.9 0.4-6.1z"/>
					<path id="&lt;Path&gt;" class="s5" d="m1605.5 1220.1c2.1-0.8 4.6-3.4 6-8 1.3-4.7 12.3-7.7 8.3-10.2-3.9-2.5-15.9-0.4-20.5 10-2.6 2.7-3.8 3.3-3.8 3.3l5.6 21.6 4.3-0.9z"/>
				</g>
			</g>
			<g id="&lt;Group&gt;">
				<g id="&lt;Group&gt;">
					<path id="&lt;Path&gt;" class="s3" d="m1812.4 1084.5c-28.6-8.1-89.7 17.8-73.1 121.8 16.6 104.1 95.4 86.9 95.4 86.9 0 0 34.3-10.8 37.4-76.9 3.1-66.1-11.6-118.2-59.7-131.8z"/>
					<path id="&lt;Path&gt;" class="s11" d="m1788.5 1210.9c0 0-5.8 59.3-54.9 89.8-8.7-2.4-16.9-22.5-16.9-22.5l26.8-65c0 0 9.6-14.1 26.6-13.8 14.8 0.2 18.4 11.5 18.4 11.5z"/>
					<g id="&lt;Group&gt;">
						<g id="&lt;Group&gt;">
							<g id="&lt;Group&gt;">
								<path id="&lt;Path&gt;" class="s5" d="m1787.5 1179l21.3-3.2-1.7 19.8c0 0-10.8 19.5-21 16.1-10.2-3.3-5.2-11.9-5.2-11.9z"/>
							</g>
						</g>
					</g>
					<g id="&lt;Group&gt;">
						<path id="&lt;Path&gt;" class="s5" d="m1825.9 1146.9c-3.5 23.4-21.2 40.1-39.5 37.4-18.4-2.7-30.5-23.9-27-47.2 3.5-23.4 21.2-40.2 39.5-37.5 18.4 2.8 30.5 23.9 27 47.3z"/>
						<g id="&lt;Group&gt;">
							<path id="&lt;Path&gt;" class="s3" d="m1802.4 1140.4q-0.4-0.1-0.7-0.5c-2.4-3.4-7.2-3.3-7.2-3.3-0.7 0-1.2-0.5-1.3-1.1 0-0.7 0.5-1.3 1.2-1.3 0.3 0 6.2-0.2 9.3 4.4 0.4 0.5 0.2 1.3-0.3 1.7-0.3 0.2-0.7 0.2-1 0.1z"/>
						</g>
						<g id="&lt;Group&gt;">
							<path id="&lt;Path&gt;" class="s3" d="m1761.4 1139.7q-0.2 0-0.4-0.2c-0.5-0.4-0.5-1.2-0.1-1.7 3.4-4 8.1-2.8 8.3-2.8 0.6 0.2 1 0.8 0.8 1.5-0.1 0.6-0.8 1-1.4 0.9-0.2-0.1-3.5-0.8-5.8 2-0.4 0.4-0.9 0.5-1.4 0.3z"/>
						</g>
						<path id="&lt;Path&gt;" class="s8" d="m1778.3 1149.6c-1.5 1.9-2.8 3.8-4.3 5-0.5 0.4-0.6 1.1-0.3 1.6 1.5 2.2 5.5 3.8 7.9 4.6 0.3 0.1 0.6-0.4 0.3-0.6-2.5-1.9-3.7-3.3-4.2-4.1-0.2-0.4-0.3-0.9-0.1-1.3 0.4-1 1.2-3 1.7-4.7 0.2-0.5-0.6-0.9-1-0.5z"/>
						<path id="&lt;Path&gt;" class="s9" d="m1793.7 1167.3c0.5-0.7-0.1-1.6-0.9-1.5-2.2 0.4-5.7 1-9.1 1.2-3.4 0.2-7 0-9.2-0.1-0.8 0-1.3 0.9-0.8 1.6 1.7 2 5.2 5 10.4 4.7 5.2-0.3 8.2-3.7 9.6-5.9z"/>
						<path id="&lt;Path&gt;" class="s3" d="m1833.4 1144.8c-21.7-1-50.3-21.1-53.8-32.1 3-13.8 13.9-21.7 27-16.5 13 5.1 34.4 30.8 26.8 48.6z"/>
						<path id="&lt;Path&gt;" class="s3" d="m1784.6 1118.3c0 0-12.9 13.1-26 16.1 4.6-15.3 7.8-26.9 15.7-30.7 7.8-3.7 16.5-4.4 16.5-4.4z"/>
						<g id="&lt;Group&gt;">
							<path id="&lt;Path&gt;" class="s5" d="m1820.8 1143.3c-4 3.8-4.8 9.5-1.7 12.9 3.1 3.3 8.9 2.9 12.9-0.9 4.1-3.7 4.9-9.5 1.8-12.8-3.1-3.4-8.9-3-13 0.8z"/>
							<g id="&lt;Group&gt;">
								<path id="&lt;Path&gt;" class="s8" d="m1824.3 1154.7q-0.2-0.1-0.4-0.4c-1.9-2.1-2.3-4.5-1-6.6 1.2-2.2 3.8-3.3 6.2-2.8 0.6 0.2 1 0.8 0.9 1.5-0.2 0.6-0.8 1-1.5 0.9-1.3-0.3-2.8 0.4-3.5 1.6-0.7 1.2-0.5 2.5 0.7 3.8 0.4 0.5 0.4 1.3-0.1 1.7-0.4 0.3-0.8 0.4-1.3 0.3z"/>
							</g>
						</g>
						<path id="&lt;Path&gt;" class="s3" d="m1800 1144c0 2.1-1.7 3.7-3.7 3.7-2.1 0-3.7-1.6-3.7-3.7 0-2.1 1.6-3.7 3.7-3.7 2 0 3.7 1.6 3.7 3.7z"/>
						<path id="&lt;Path&gt;" class="s3" d="m1772.8 1144c0 2.1-1.7 3.7-3.7 3.7-2.1 0-3.7-1.6-3.7-3.7 0-2.1 1.6-3.7 3.7-3.7 2 0 3.7 1.6 3.7 3.7z"/>
					</g>
					<g id="&lt;Group&gt;">
						<path id="&lt;Path&gt;" class="s5" d="m1767.6 1627.2c1.4-14.3-6-122.6-6-122.6-20.7-95.3-12.6-163.5-12.6-163.5l35.7 2.5 14.1 53.8-6.7 90c0 0 2.5 6.9 3.9 12.4 7.1 30 0 65.9-4.4 89.8-2.1 11.1-5.3 34.4-5.3 39.7l8.9 11.6c0 0-32.4 35.9-37.4 36.1-9.7 0.5-6.9-9.2-6.9-9.2 13.4-13.7 16.2-36.5 16.7-40.6z"/>
						<path id="&lt;Path&gt;" class="s6" d="m1795.8 1653.6l-1.8 23.1-4.1 0.2-2.1-21.5c-11.1 2.8-19 22.9-19 22.9-7.6 2.7-27 4.6-33.8 1-1.7-6.7 16-11.4 16-11.4 1.5 1.9 11 3.3 14.3 1.3 12.3-10.5 18.3-25.8 21-39.9 0 0 19.4 1.3 9.5 24.3z"/>
					</g>
					<g id="&lt;Group&gt;">
						<path id="&lt;Path&gt;" class="s5" d="m1779.6 1348l50.4-6.9c19.2 43.5 25.5 119.3 30.7 146.4 21 35.1 27.6 141.8 27.6 141.8l9 11.6c0 0-32.5 35.9-37.5 36.1-9.7 0.5-6.8-9.2-6.8-9.2 13.3-13.7 15.9-31.9 16.8-35.9 1.3-6-40.7-124.3-40.7-124.3l-4.5-11.2c-51.3-84.8-59.8-148.9-59.8-148.9z"/>
						<path id="&lt;Path&gt;" class="s6" d="m1897.9 1653.6l-1.8 23.1-4.2 0.2-2.1-21.5c-11 2.8-18.9 22.9-18.9 22.9-7.6 2.7-27 4.6-33.9 1-1.6-6.7 16-11.4 16-11.4 1.6 1.9 11 3.3 14.4 1.3 12.3-10.5 18.3-25.8 20.9-39.9 0 0 19.5 1.3 9.6 24.3z"/>
					</g>
					<g id="&lt;Group&gt;">
						<g id="&lt;Group&gt;">
							<g id="&lt;Group&gt;">
								<g id="&lt;Group&gt;">
									<path id="&lt;Path&gt;" class="s17" d="m1873.2 1482.5c-5-16.8-2.9-137.1-47.2-169.9l-76.4 8.1c-17.6 28.5-11.1 102.8-5.2 164 35.9 12.8 64.4 17.9 128.8-2.2z"/>
								</g>
							</g>
						</g>
					</g>
					<g id="&lt;Group&gt;">
						<g id="&lt;Group&gt;">
							<g id="&lt;Group&gt;">
								<path id="&lt;Path&gt;" class="s6" d="m1748.7 1301.8c0-16.7-14.5-41.7-7.5-58.6 5-13.6 15-44.2 25.8-46.3 4.4-0.8 9.2 0.1 15.3-1.6 0 0-3.2 14.1 4 14.7 13.7 1.1 21-16.5 21-16.5 7.4-0.7 33.3 7 33.3 9.8-0.1 21.9-6.7 52.3-12.5 75.9-1.1 12.1 1.7 21.8 2.9 28.7 2.2 7.1 5.8 14.9 5.9 16.5 0 0-57 18.2-89.5 0.3 0 0 1.3-11.6 1.3-22.9z"/>
							</g>
						</g>
					</g>
					<path id="&lt;Path&gt;" class="s9" d="m1786.3 1210c-1.3 5.7 2.1 12.6 11.7 9.4 11.5-3.9 16.8-25.4 16.8-25.4l-7.2-3.9c0 0-5.4 14.9-21.3 19.9z"/>
					<path id="&lt;Path&gt;" class="s9" d="m1786.3 1210c-1.4 3-9.5 10.5-13.4 6-3.8-4.5 2-19.6 2-19.6l7.6-2.1c0 0-3.6 11.6 3.8 15.7z"/>
					<path id="&lt;Path&gt;" class="s11" d="m1840.2 1202.3c0 0 43.5 53.7 36.6 80.9-19.1 14-28.7-2.3-28.7-2.3l-25.3-41.5c0 0-10.6-14.4-2.6-28.6 7-12.4 20-8.5 20-8.5z"/>
					<g id="&lt;Group&gt;">
						<path id="&lt;Path&gt;" class="s9" d="m1781.4 1324.1h-19.2c-1.6 0-2.9-1.3-3-2.8l-2.8-44.5c-0.1-1 0.7-1.9 1.8-1.9h27.3c1 0 1.8 0.9 1.8 1.9l-2.9 44.5c-0.1 1.6-1.4 2.8-3 2.8z"/>
						<path id="&lt;Path&gt;" class="s18" d="m1785.1 1287l-2.1 33.1c-0.1 1.4-1.2 2.5-2.6 2.5h-17.1c-1.4 0-2.5-1.1-2.6-2.5l-2-32.3c3.5-1.2 8.3-2 13.1 0.5 4.5 2.4 10.8-0.1 13.3-1.3z"/>
					</g>
					<g id="&lt;Group&gt;">
						<path id="&lt;Path&gt;" class="s5" d="m1798.2 1298.9c0 0 29.9-14.4 39.7-19.9 10.3-5.8 22.7-13.4 38.9 4.2-5 19.4-29 30.4-79.1 29.6 0.9-7.2 0.5-13.9 0.5-13.9z"/>
						<path id="&lt;Path&gt;" class="s5" d="m1798.2 1298.9c-6.1-2.7-7-13.5-11.7-11.1-0.2 4.9-0.4 6.9-0.5 9.6-0.2 3.5-22.3 1.2-28.6-0.5-4.9 4.8-4.9 10.5-0.6 17.7 3.5 5.9 15.9 13.3 40.9-1.8 2-8.2 0.5-13.9 0.5-13.9z"/>
					</g>
					<g id="&lt;Group&gt;">
						<path id="&lt;Path&gt;" class="s5" d="m1660.6 1315.8c0 0 46.8-35.6 57.8-37.6 4.9-0.9 10.3 10.2 15.2 22.5-16.1 13.9-39.6 24.6-71.3 28.9-0.3-7.2-1.7-13.8-1.7-13.8z"/>
						<g id="&lt;Group&gt;">
							<g id="&lt;Group&gt;">
								<g id="&lt;Group&gt;">
									<g id="&lt;Group&gt;">
										<path id="&lt;Path&gt;" class="s5" d="m1653 1339.4c3.7-3.7 6-9.6 11.6-10.1l2.6-9.6-4.2-4.6c-16.6-3-34.2 10.4-35.7 11.9-4.2 3.8-6.3 5.3-6.1 6.2 0.3 0.8 3.1 5.1 9.2-0.2 7.8-6.8 9.3 3.7-10.3 13.8-4.9 2.6-9.6 11.5-4.4 11.4 5.7-0.1 20.1-2 37.3-18.8z"/>
									</g>
								</g>
							</g>
						</g>
					</g>
				</g>
			</g>
			<g id="&lt;Group&gt;">
				<g id="&lt;Group&gt;">
					<path id="&lt;Path&gt;" class="s18" d="m2036.5 1370.2h-66.8c-26.8 0-48.5-21.7-48.5-48.5v-124.2c0-26.8 21.7-48.5 48.5-48.5h66.8c26.7 0 48.4 21.7 48.4 48.5v124.2c0 26.8-21.7 48.5-48.4 48.5z"/>
					<g id="&lt;Group&gt;">
						<path id="&lt;Path&gt;" class="s10" d="m2084.3 1197h-162.4c-3 0-5.4-2.4-5.4-5.4 0-3 2.4-5.4 5.4-5.4h162.4c2.9 0 5.3 2.4 5.3 5.4 0 3-2.4 5.4-5.3 5.4z"/>
						<path id="&lt;Path&gt;" class="s10" d="m2084.3 1333h-162.4c-3 0-5.4-2.4-5.4-5.4 0-2.9 2.4-5.3 5.4-5.3h162.4c2.9 0 5.3 2.4 5.3 5.3 0 3-2.4 5.4-5.3 5.4z"/>
					</g>
					<path id="&lt;Path&gt;" class="s18" d="m2025.2 1376.8h-44.2v-8.2h44.2z"/>
				</g>
				<g id="&lt;Group&gt;">
					<path id="&lt;Path&gt;" class="s19" d="m2054.5 1679.5h-100.7c-16.7 0-30.3-13.6-30.3-30.3v-242.1c0-16.7 13.6-30.3 30.3-30.3h100.7c16.7 0 30.3 13.6 30.3 30.3v242.1c0 16.7-13.6 30.3-30.3 30.3z"/>
					<path id="&lt;Path&gt;" class="s10" d="m2050 1520.2h-90.5c-9.4 0-17-7.6-17-17v-76.6c0-9.4 7.6-17 17-17h90.5c9.4 0 17 7.6 17 17v76.6c0 9.4-7.6 17-17 17z"/>
					<path id="&lt;Path&gt;" class="s19" d="m2058.2 1425.1v79.6c0 4.2-3.4 7.7-7.7 7.7h-91.5c-4.2 0-7.6-3.5-7.6-7.7v-79.6c0-4.3 3.4-7.7 7.6-7.7h91.5c4.3 0 7.7 3.4 7.7 7.7z"/>
					<g id="&lt;Group&gt;">
						<path id="&lt;Path&gt;" class="s4" d="m1989.4 1447.1c0 5.5-4.5 10-10 10-5.6 0-10.1-4.5-10.1-10 0-5.6 4.5-10.1 10.1-10.1 5.5 0 10 4.5 10 10.1z"/>
						<path id="&lt;Path&gt;" class="s4" d="m1979.4 1466.1c-2.1 0-3.8-1.7-3.8-3.8v-9.1c0-2 1.7-3.7 3.8-3.7 2 0 3.7 1.7 3.7 3.7v9.1c0 2.1-1.7 3.8-3.7 3.8z"/>
						<path id="&lt;Path&gt;" class="s9" d="m1984 1426.3v12.3c0 2-1.7 3.7-3.7 3.7h-1.9c-2 0-3.6-1.7-3.6-3.7v-12.3c0-2 1.6-3.7 3.6-3.7h1.9c2 0 3.7 1.7 3.7 3.7z"/>
						<path id="&lt;Path&gt;" class="s6" d="m1984 1426.3v4.5h-9.2v-4.5c0-2 1.6-3.7 3.6-3.7h1.9c2 0 3.7 1.7 3.7 3.7z"/>
					</g>
					<g id="&lt;Group&gt;">
						<path id="&lt;Path&gt;" class="s4" d="m2033.5 1447.1c0 5.5-4.5 10-10.1 10-5.6 0-10.1-4.5-10.1-10 0-5.6 4.5-10.1 10.1-10.1 5.6 0 10.1 4.5 10.1 10.1z"/>
						<path id="&lt;Path&gt;" class="s4" d="m2023.4 1466.1c-2.1 0-3.7-1.7-3.7-3.8v-9.1c0-2 1.6-3.7 3.7-3.7 2.1 0 3.7 1.7 3.7 3.7v9.1c0 2.1-1.6 3.8-3.7 3.8z"/>
						<path id="&lt;Path&gt;" class="s9" d="m2028 1426.3v12.3c0 2-1.7 3.7-3.7 3.7h-1.8c-2.1 0-3.7-1.7-3.7-3.7v-12.3c0-2 1.6-3.7 3.7-3.7h1.8c2 0 3.7 1.7 3.7 3.7z"/>
						<path id="&lt;Path&gt;" class="s18" d="m2028 1426.3v4.5h-9.2v-4.5c0-2 1.6-3.7 3.7-3.7h1.8c2 0 3.7 1.7 3.7 3.7z"/>
					</g>
					<path id="&lt;Path&gt;" class="s4" d="m2058.2 1504.7c0 4.2-3.4 7.7-7.7 7.7h-91.5c-4.2 0-7.6-3.5-7.6-7.7z"/>
					<path id="&lt;Path&gt;" class="s10" d="m2062.3 1552.9h-116c-2.6 0-4.7-2.2-4.7-4.8 0-2.6 2.1-4.7 4.7-4.7h116c2.7 0 4.8 2.1 4.8 4.7 0 2.6-2.1 4.8-4.8 4.8z"/>
				</g>
				<path id="&lt;Path&gt;" class="s20" d="m1979.9 1298.3c2.3 2.2 2.3 5.9 0 8.1-2.2 2.2-5.8 2.2-8.1 0-2.2-2.2-2.2-5.9 0-8.1 2.3-2.3 5.9-2.3 8.1 0z"/>
				<path id="&lt;Compound Path&gt;" class="s20" d="m1966 1277.7c-1.2 0-2.4 0.5-3.4 1.4-1.8 1.9-1.8 4.9 0 6.7 1 1 2.2 1.4 3.4 1.4 1.2 0 2.4-0.4 3.3-1.4 1.9-1.8 1.9-4.8 0-6.7-0.9-0.9-2.1-1.4-3.3-1.4zm0 1.9c0.8 0 1.5 0.3 2 0.8 1.2 1.2 1.2 3 0 4.1-0.5 0.6-1.2 0.9-2 0.9-0.8 0-1.5-0.3-2-0.9-1.2-1.1-1.2-2.9 0-4.1 0.5-0.5 1.2-0.8 2-0.8z"/>
				<path id="&lt;Path&gt;" class="s20" d="m2015.6 1270.7c2.2 2.2 2.2 5.8 0 8.1-2.3 2.2-5.9 2.2-8.1 0-2.3-2.3-2.3-5.9 0-8.1 2.2-2.3 5.8-2.3 8.1 0z"/>
				<path id="&lt;Path&gt;" class="s20" d="m2035.5 1228.1c2.3 2.2 2.3 5.8 0 8.1-2.2 2.2-5.8 2.2-8.1 0-2.2-2.3-2.2-5.9 0-8.1 2.3-2.3 5.9-2.3 8.1 0z"/>
				<path id="&lt;Path&gt;" class="s20" d="m2020.4 1353.9c1.6 1.6 1.6 4.1 0 5.7-1.6 1.6-4.2 1.6-5.7 0-1.6-1.6-1.6-4.1 0-5.7 1.5-1.6 4.1-1.6 5.7 0z"/>
				<path id="&lt;Path&gt;" class="s20" d="m2028.8 1338.8c1.6 1.6 1.6 4.1 0 5.7-1.6 1.6-4.1 1.6-5.7 0-1.6-1.6-1.6-4.1 0-5.7 1.6-1.6 4.1-1.6 5.7 0z"/>
				<path id="&lt;Path&gt;" class="s20" d="m1984.8 1172.9c1.6 1.6 1.6 4.2 0 5.8-1.5 1.5-4.1 1.5-5.7 0-1.6-1.6-1.6-4.2 0-5.8 1.6-1.5 4.2-1.5 5.7 0z"/>
			</g>
			<g id="&lt;Group&gt;">
				<g id="&lt;Group&gt;">
					<path id="&lt;Path&gt;" class="s14" d="m2234.2 1638.9c9.4 39.3 42.9 17.7 35.9 42.5-0.6 1.9-2.3 3.1-4.2 3.2l-19.7 0.7c-1.9 0.1-3.7-0.5-5.3-1.5-10.4-7.1-17.4-17.1-39.8-18.3 0.2-9.6-0.3-23.3 2.9-28.1z"/>
					<path id="&lt;Path&gt;" class="s2" d="m2182.4 1362.9c0 0 57.2 87.2 65.1 114.3 7.9 27.1-8.6 73.1-5.7 165.7-17.8 4.7-41.6 0.7-41.6 0.7 0 0-14.4-116.2 2.5-143.6-25.3-38.6-88.8-122.8-88.8-122.8z"/>
				</g>
				<g id="&lt;Group&gt;">
					<path id="&lt;Path&gt;" class="s14" d="m2150.7 1651.6c14.6 19.8 50.9 8 49.4 34.6-55-0.9-77.9-0.7-77.9-0.7 0.1-6.1 1.4-20.6 2.7-26.3z"/>
					<path id="&lt;Path&gt;" class="s4" d="m2167.8 1345.3c0 0 18.2 142.2 14 170.2-4.2 27.9-17.3 49.8-17.7 142.4-18 4-45.6 7.6-45.6 7.6 0 0-11.6-111.8 12.3-142.6-6.8-45.6-39.1-160.3-39.1-160.3z"/>
				</g>
				<g id="&lt;Group&gt;">
					<path id="&lt;Path&gt;" class="s11" d="m2261.2 1282.6l22.2-24.9c0.5-0.5 1.2-0.8 1.9-0.8l18.3-0.2c0.5 0 2.1 2.9 1.8 3.3l-15.7 13.9q-0.1 0.2-0.3 0.2l-26.9 10c-0.5 0.2-1.7-1-1.3-1.5z"/>
					<path id="&lt;Path&gt;" class="s6" d="m2262.9 1284.3l21.1-23.5c0.5-0.5 1.2-0.8 1.9-0.9l18.9-0.3c0.5 0 0.8 0.6 0.4 1l-14.9 16.4q-0.1 0.2-0.2 0.2l-26.6 8.1c-0.6 0.2-1-0.5-0.6-1z"/>
					<path id="&lt;Path&gt;" class="s5" d="m2221 1305.7l15.3-7.5c0 0 15.1-15.3 17.4-18.7 3.3-1.7 9.7-5.9 11.1-6.1 1.5-0.2 4.4 0.3 4.4 0.3l-7.1 8c0 0 3.4 0.7 7.7-2 4.3-2.8 11.8-10.1 15.6-8.7 1.3 1.2 1.3 1.2 1.3 1.2 0 0 2.3-2.5 4.5-1.6 2.3 1-2.1 12-14.6 23.7-0.9 3.1-5 8.6-5 8.6l-25.2 8.9z"/>
					<path id="&lt;Path&gt;" class="s11" d="m2287.5 1264.4c-0.9 0.9-2.2 1-2.9 0.3-0.7-0.7-0.5-2 0.4-2.9 0.9-0.9 2.2-1 2.8-0.3 0.7 0.7 0.6 2-0.3 2.9z"/>
					<path id="&lt;Path&gt;" class="s5" d="m2149.7 1193.1c4.6 5.9-31 12.3-35.8 0.1-4.8-12.2 3.4-45.9 3.4-45.9l32.5 6.9c0 0-6 31.3-0.1 38.9z"/>
					<g id="&lt;Group&gt;">
						<path id="&lt;Path&gt;" class="s5" d="m2110.2 1119.8c-2.7 26 11.7 48.9 32.1 51 20.4 2.2 39.2-17.2 42-43.2 2.7-26-11.7-48.9-32.1-51-20.5-2.2-39.2 17.2-42 43.2z"/>
						<path id="&lt;Path&gt;" class="s3" d="m2172.2 1135.3c0.7 2 2.9 3 4.9 2.3 2.1-0.7 3.1-3 2.4-5-0.7-2-3-3-5-2.3-2 0.7-3 2.9-2.3 5z"/>
						<path id="&lt;Path&gt;" class="s3" d="m2146.8 1129.7c0.8 2.2 3.2 3.3 5.3 2.5 2.2-0.8 3.4-3.2 2.6-5.3-0.8-2.2-3.2-3.3-5.4-2.6-2.2 0.8-3.3 3.2-2.5 5.4z"/>
						<path id="&lt;Path&gt;" class="s8" d="m2164.8 1134.4c0.8 6.1 2 13.7 2 13.7 0 0-4.1 4.2-10.7 1.3 3.3 0.1 6.9-0.6 7.5-4.8 0.5-4.3 1.2-10.2 1.2-10.2z"/>
						<g id="&lt;Group&gt;">
							<path id="&lt;Path&gt;" class="s2" d="m2173.3 1126.4c0.5 0.3 1 0.3 1.5 0 0 0 1.7-0.8 3.2-0.2q1.6 0.6 2.5 3.1c0.3 0.7 1.2 1.1 1.9 0.9 0.8-0.3 1.2-1.2 0.9-2q-1.4-3.7-4.3-4.8c-2.8-1.1-5.5 0.4-5.6 0.4-0.7 0.4-1 1.3-0.6 2q0.2 0.4 0.5 0.6z"/>
						</g>
						<g id="&lt;Group&gt;">
							<path id="&lt;Path&gt;" class="s2" d="m2154 1122.2c-0.5 0.1-1-0.1-1.4-0.5 0 0-1.3-1.3-2.9-1.3q-1.7 0.1-3.4 2.1c-0.6 0.7-1.5 0.7-2.1 0.2-0.7-0.5-0.7-1.4-0.2-2.1q2.6-3.1 5.6-3.2c3 0 5.1 2.2 5.2 2.3 0.5 0.6 0.5 1.6-0.1 2.1q-0.3 0.3-0.7 0.4z"/>
						</g>
						<path id="&lt;Path&gt;" class="s2" d="m2117.8 1136.4c13.5-11.3 9.8-28.6 9.8-28.6 6.5 0.5 8.3 3.3 8.3 3.3 5.3-6.1 4-11.7 4-11.7 14.2-1.6 18.3 8.4 29.1 14.3 14.8 8.1 36.1 7.1 43.1-11.7 1-2.8-1.6-5.4-4.3-4.5-2.6 0.9-5.8 1.3-9.3 0.2 0 0 4.3-2.8 5.9-8 0.8-2.8-2.1-5.2-4.8-4-4 1.9-10.8 2.8-21.2-2.2-6.8-3.3-20.3-19.3-31.2-19.9-9-0.4-17.6 5-23.3 14.5 0 0-21.3-3.4-29.5 18.9-8.1 21.8 22.2 55.7 22.2 55.7 0 0-2.3-12.9 1.2-16.3z"/>
						<path id="&lt;Path&gt;" class="s9" d="m2163.1 1159.3c0.9-0.5 0.7-1.8-0.3-2.1-2.5-0.6-6.5-1.6-10.3-3-3.7-1.5-7.5-3.3-9.8-4.5-0.9-0.4-1.9 0.4-1.6 1.3 0.8 3 3.1 7.9 8.8 10 5.8 2.2 10.7 0 13.2-1.7z"/>
						<g id="&lt;Group&gt;">
							<path id="&lt;Path&gt;" class="s5" d="m2127.4 1121c4.4 4.3 5.1 10.8 1.5 14.3-3.5 3.6-9.9 3-14.3-1.3-4.4-4.3-5.1-10.7-1.5-14.3 3.5-3.6 9.9-3 14.3 1.3z"/>
							<g id="&lt;Group&gt;">
								<path id="&lt;Path&gt;" class="s8" d="m2123.2 1133.5q0.3-0.1 0.5-0.3c2.1-2.3 2.6-5 1.3-7.4-1.3-2.4-4.2-3.8-6.7-3.3-0.8 0.2-1.2 0.9-1.1 1.6 0.1 0.8 0.9 1.2 1.6 1.1 1.4-0.3 3.1 0.5 3.9 1.9 0.7 1.3 0.4 2.8-1 4.2-0.5 0.5-0.5 1.4 0.1 1.9 0.4 0.4 0.9 0.5 1.4 0.3z"/>
							</g>
						</g>
					</g>
					<path id="&lt;Path&gt;" class="s15" d="m2189.3 1373.3c-25.4 5.2-71 14.2-95.2 4.7-9.1-13.1-11.4-87.2-11.4-87.2-2.7-76.3 6.5-87.7 27.1-113.2 8.7 3.9 30.4 7.3 39.9 7.4 0 0 21.6 30 25.8 51.8 4.3 22 4.8 61.3 5.2 83.8 0.4 25 5.3 37 8.6 52.7z"/>
					<path id="&lt;Path&gt;" class="s14" d="m2106.8 1200.7c-14.8 28.9-11.5 60.9 31.7 123.9 30.2-2.6 36.2-27.8 36.2-27.8 0 0-8.3-31.3-19.1-70.6-10.8-39.4-42.3-38.1-48.8-25.5z"/>
					<path id="&lt;Path&gt;" class="s14" d="m2238.8 1290.8l-64.7 5.1c0 0-27.8-5-35.6 28.7 13.9 10.9 49.8 14.9 108.6-6.9-6.2-8.5-8.3-26.9-8.3-26.9z"/>
					<path id="&lt;Path&gt;" class="s9" d="m2149.5 1182.9l0.6 17.4-43.8-18.4 5.3-14.1z"/>
				</g>
			</g>
			<g id="&lt;Group&gt;">
				<g id="&lt;Group&gt;">
					<g id="&lt;Group&gt;">
						<g id="&lt;Group&gt;">
							<g id="&lt;Group&gt;">
								<path id="&lt;Path&gt;" class="s5" d="m2322.3 1200.1c8.7-8.8 3-17.8 3-17.8 4.8-1 30 37.2 40.9 61.5 19-19.2 52.4-45 61.4-46.5 0 0 12.2-3.3 16.6 11.5 3.9 13.1-11.3 22.5-11.3 22.5 0 0-65.3 46-74.9 41.9-15-6.4-28.6-61.2-35.7-73.1z"/>
							</g>
						</g>
					</g>
					<g id="&lt;Group&gt;">
						<g id="&lt;Group&gt;">
							<g id="&lt;Group&gt;">
								<g id="&lt;Group&gt;">
									<path id="&lt;Path&gt;" class="s5" d="m2308.7 1199c5.3 0.3 12.3-2.3 14.4 2.5l10.1-5.2 0.6-6.3c-9-14.5-31-18.6-33.2-18.7-5.7-0.5-8.3-1.1-8.7-0.4-0.5 0.8-1.9 5.8 6.3 6.8 10.4 1.2 3.5 9.5-17.4 1.6-5.2-1.9-15.1 0.6-11.5 4.5 3.9 4.2 15.2 13.7 39.4 15.2z"/>
								</g>
							</g>
						</g>
					</g>
				</g>
				<path id="&lt;Path&gt;" class="s2" d="m2468.1 1079c14.2-14.5 43-16.8 48.4 4.4 5.3 21.1 4.7 35.4 31.1 30.5 21-3.9 43.9 13.8 45.7 43.7 2.2 38.2-25.1 24.9-17.9 43.4 7.3 18.5 12.4 37.4-14.9 39.6-27.3 2.3-49.9-19.3-48.5-50.6 1.4-31.2-17.9-18.7-24.5-33.7-9.6-21.3-19.4-77.3-19.4-77.3z"/>
				<g id="&lt;Group&gt;">
					<path id="&lt;Path&gt;" class="s5" d="m2401.9 1657.2l-12.3-48.4 30.6-4.2c1 22.9 2.7 45.5 2.6 51.6z"/>
					<path id="&lt;Path&gt;" class="s5" d="m2474.8 1604.3h31.8c-1 7.6-5.2 49-5.2 49-2.7 6.1-26.4 4.7-26.4 1.3 1.8-7.5-0.1-49.3-0.2-50.3z"/>
					<path id="&lt;Path&gt;" class="s11" d="m2422.7 1623.2l-31.5 4.7-21.8-130.3c4.5-49.5 48.1-154.7 48.1-154.7l49 17.2 1.2 46.4-59.1 100c7.7 19.4 13 82 14.1 116.7z"/>
					<path id="&lt;Path&gt;" class="s6" d="m2446.9 1346.4c0.5-3.1 0.6-4 3.2-5.6l47.1-13.3 11.2 11c10.7 38.6 4.1 92.3-4.3 134.9 12.3 36.8 7.5 112.8 2.5 148.5h-33.5c-1.9-23.9-1.3-68.1-1.5-89.5-4.3-17.2-8.5-35.5-12.2-54.8-4.8-24.7-10.8-48.5-12.5-70.9-1.5-21.2-1.9-43.9 0-60.3z"/>
				</g>
				<path id="&lt;Path&gt;" class="s5" d="m2495.3 1133.9c0.2 25.6-16 46.5-36.1 46.6-20.1 0.2-36.6-20.5-36.8-46.1-0.1-25.6 16-46.5 36.2-46.6 20.1-0.2 36.5 20.5 36.7 46.1z"/>
				<path id="&lt;Path&gt;" class="s5" d="m2482.9 1159.4l-29.2 16.6c0 0-2.6 11.8-3.9 15.7-2.7 7.9 7.6 11.4 16.2 6.4 8.7-4.9 14.3-11.5 14.3-11.5z"/>
				<path id="&lt;Path&gt;" class="s4" d="m2421.4 1129.4c7-0.7 45.8-10.7 50.3-17.7-0.3 16.7 24.8 35.7 28.1 30.8 11.8-30.8 3.2-57.2-31.3-64.1-47.2-9.4-47.1 51-47.1 51z"/>
				<path id="&lt;Path&gt;" class="s3" d="m2465.6 1142.4c-1.2 1.9-3.7 2.5-5.6 1.3-1.9-1.2-2.4-3.7-1.3-5.6 1.2-1.9 3.7-2.4 5.6-1.2 1.9 1.1 2.5 3.6 1.3 5.5z"/>
				<path id="&lt;Path&gt;" class="s3" d="m2437.4 1142c-1.1 1.8-3.5 2.3-5.2 1.2-1.8-1.1-2.4-3.4-1.2-5.2 1.1-1.8 3.4-2.3 5.2-1.2 1.8 1.1 2.3 3.5 1.2 5.2z"/>
				<g id="&lt;Group&gt;">
					<path id="&lt;Path&gt;" class="s4" d="m2426.9 1134q-0.2-0.1-0.3-0.2c-0.6-0.6-0.6-1.6 0-2.3 4.5-5.2 10.1-3.7 10.4-3.6 0.7 0.2 1.1 1.1 0.9 1.9-0.3 0.9-1.1 1.4-1.9 1.2-0.2-0.1-4.1-1.1-7.3 2.6-0.5 0.5-1.2 0.7-1.8 0.4z"/>
				</g>
				<g id="&lt;Group&gt;">
					<path id="&lt;Path&gt;" class="s4" d="m2469.5 1134.8q0.2-0.1 0.4-0.3c0.6-0.6 0.6-1.6 0-2.2-4.6-5.3-10.2-3.7-10.4-3.7-0.8 0.2-1.2 1.1-0.9 2 0.2 0.8 1.1 1.3 1.9 1.1 0.2 0 4.1-1 7.3 2.6 0.5 0.6 1.2 0.7 1.7 0.5z"/>
				</g>
				<path id="&lt;Path&gt;" class="s8" d="m2440.2 1144.8c-1.1 2.5-2.1 4.9-3.4 6.6-0.5 0.6-0.4 1.4 0.1 1.9 2.3 2 7.1 2.7 9.9 2.9 0.4 0 0.6-0.6 0.2-0.7-3.3-1.4-4.9-2.7-5.7-3.4-0.4-0.4-0.6-0.9-0.5-1.4 0.2-1.2 0.5-3.7 0.6-5.6 0.1-0.7-0.9-0.9-1.2-0.3z"/>
				<path id="&lt;Path&gt;" class="s5" d="m2485.8 1144.1c-4.2 4.3-4.7 10.6-1.2 14 3.5 3.5 9.8 2.7 14-1.6 4.2-4.3 4.7-10.6 1.2-14-3.5-3.5-9.8-2.7-14 1.6z"/>
				<g id="&lt;Group&gt;">
					<path id="&lt;Path&gt;" class="s8" d="m2488.6 1154.6q-0.2-0.2-0.4-0.5c-1.6-2.6-1.5-5.3 0.3-7.3 1.8-2 4.8-2.7 7.1-1.7 0.7 0.3 1 1.1 0.7 1.8-0.3 0.6-1.1 0.9-1.7 0.6-1.3-0.5-3.1-0.1-4.1 1.1-1 1.1-1 2.6 0 4.2 0.3 0.6 0.1 1.4-0.5 1.8-0.4 0.2-1 0.2-1.4 0z"/>
				</g>
				<path id="&lt;Path&gt;" class="s15" d="m2415.6 1346.4c51.1 19.6 95.7 5.1 95.7 5.1-0.2-6.8 0.8-28.2-9.5-51.6 2.5-19.9 1.5-49.7 2.3-61.2-6.1-30.7-3.2-33.3 2.3-47.7l-19.1-5.7-34.5 12.2-2.5-8.3c0 0-21.5 6.5-26.1 9l-8.2 32.7 1.8 72.3c0 0-0.1 38.8-2.2 43.2z"/>
				<g id="&lt;Group&gt;">
					<path id="&lt;Path&gt;" class="s8" d="m2449.4 1169.5q1.3 0.2 2.6 0c6.3-0.5 10.2-5.3 10.4-5.5 0.5-0.7 0.4-1.6-0.2-2.1-0.7-0.5-1.6-0.4-2.1 0.2-0.1 0-3.4 4.1-8.4 4.5-3.3 0.3-6.6-1-9.9-3.8-0.6-0.5-1.5-0.4-2.1 0.2-0.5 0.6-0.4 1.5 0.2 2q4.7 4.1 9.5 4.5z"/>
				</g>
				<g id="&lt;Group&gt;">
					<path id="&lt;Path&gt;" class="s4" d="m2409.4 1656.5c-3.2-8.4-10.1-9.4-10.1-9.4-13.2 17.7-45.8 6.9-44.7 30.8 49.5-0.3 70.1 0 70.1 0-0.1-5.5-1-18.5-2.2-23.6l-2.6 0.4z"/>
					<path id="&lt;Path&gt;" class="s9" d="m2358.7 1684.3h61.8c2.3 0 4.2-1.9 4.2-4.2v-2.8h-70.1v2.8c0 2.3 1.8 4.2 4.1 4.2z"/>
				</g>
				<g id="&lt;Group&gt;">
					<path id="&lt;Path&gt;" class="s4" d="m2469.3 1678.1c0 0 4-14.8 4.3-16.7 0.4-2.2 1.6-7.3 1.8-9.9 0.1-0.7 6.9-4.8 12.1-4.8 7.1 0 13.5 4.1 13.6 4.8 0.9 5 0.9 10.8 2.3 15.6 1 3.6 3.7 12 3.7 12z"/>
					<g id="&lt;Group&gt;">
						<g id="&lt;Group&gt;">
							<g id="&lt;Group&gt;">
								<g id="&lt;Group&gt;">
									<path id="&lt;Path&gt;" class="s9" d="m2469.3 1677c0.9 2.9 12.3-0.5 20.7-0.5 7 0 16.1 2.8 17.1 1.7 1.7 3.1 0.3 9.5 0.3 9.5 0 0-7.3 0.4-16.1 0-8.7-0.4-18.8 0.2-22.6-0.9-2.4-4.1 0.6-9.8 0.6-9.8z"/>
								</g>
							</g>
						</g>
					</g>
				</g>
				<path id="&lt;Path&gt;" class="s2" d="m2489.6 1186c-7.4 11.9-23.1 44.6-21.5 87.5 1.6 42.8 12.3 94.9 7.4 142.6 25.1 2.2 49.2-1 49.2-1-2.7-28.1-18.3-224.1-18.3-224.1-7.9-2.3-16.8-5-16.8-5z"/>
				<g id="&lt;Group&gt;">
					<g id="c 2 ">
						<path id="&lt;Path&gt;" class="s5" d="m2528.3 1307.8l-4.7 1.8c0 0-3.4-7.9-8.3-7.6l0.6 7.8c0 0-2.4 8.4-17.3 7.4-12.7 2.9-3.8 8.9-7.4 11.4-5.2 3.5 9.4 12.3 21.7 8.5 16-4.9 26.3-19.9 26.3-19.9z"/>
					</g>
					<path id="&lt;Path&gt;" class="s5" d="m2506.4 1191c0 0 44.9 19.9 70 72-14.7 20.7-30.5 8.4-30.5 8.4l-41.8-32.7c0 0-10-13.8-7.8-29.4 2.2-15 10.1-18.3 10.1-18.3z"/>
					<path id="&lt;Path&gt;" class="s5" d="m2527.6 1308.1l21-37.1c0 0 3.6-16.6 27.8-8 1.1 13 5.3 26.6-37.8 55-5.6-4.3-11-9.9-11-9.9z"/>
				</g>
				<path id="&lt;Path&gt;" class="s14" d="m2480.6 1181.5l13.5 5.7c-1.4 16.2-37.7 25.9-37.7 25.9l-3.6-15.6z"/>
				<path id="&lt;Path&gt;" class="s2" d="m2439.4 1191.6c-6.7 21.2-16.7 50.7-13.9 82.4 2.7 31.7 6 82.8-9.9 136.9-11.8 2.3-27.9 0.5-27.9 0.5 0 0 23.3-79.4 22.2-114.7-1.1-39.1 0.7-74.4 10.3-96.8 7.3-3.1 19.2-8.3 19.2-8.3z"/>
				<path id="&lt;Path&gt;" class="s14" d="m2452.8 1197.5l-10.6 11.8c0 0-9.3-9.5-5.9-15.4 3.3-5.9 15.2-9.9 15.2-9.9z"/>
			</g>
			<g id="&lt;Group&gt;">
				<path id="&lt;Compound Path&gt;" class="s9" d="m2137.8 1470.6c-5 0-9.9-0.1-14.8-0.4-2.2-0.1-3.9-2-3.8-4.2 0.2-2.2 2.1-3.9 4.3-3.8 5.6 0.3 11.3 0.4 17 0.4q0 0 0 0c2.2 0 4 1.7 4 3.9 0.1 2.3-1.7 4.1-3.9 4.1q-1.4 0-2.8 0zm20-0.7c-2.1 0-3.9-1.6-4.1-3.7-0.1-2.3 1.5-4.2 3.8-4.4 5.7-0.4 11.4-1 16.8-1.8 2.2-0.3 4.3 1.2 4.6 3.4 0.3 2.2-1.2 4.3-3.4 4.6-5.7 0.8-11.5 1.4-17.4 1.9q-0.2 0-0.3 0zm216.2-1q-0.1 0-0.2-0.1c-6.4-0.2-12.5-1.3-18.1-3.3-2.1-0.8-3.2-3.1-2.4-5.2 0.7-2.1 3-3.1 5.1-2.4 4.9 1.7 10.1 2.7 15.7 2.9 2.2 0.1 4 2 3.9 4.2-0.1 2.1-1.9 3.9-4 3.9zm-267.9-0.2q-0.3 0-0.5 0c-6-0.7-11.8-1.7-17.4-2.8-2.1-0.5-3.5-2.6-3.1-4.8 0.4-2.2 2.6-3.6 4.8-3.1 5.3 1.1 10.9 2 16.7 2.7 2.2 0.3 3.7 2.3 3.5 4.5-0.3 2-2 3.5-4 3.5zm285-1.6c-1.8 0-3.5-1.2-3.9-3.1-0.5-2.1 0.8-4.3 2.9-4.8 5.5-1.4 10.4-3.5 14.5-6.3 1.9-1.2 4.4-0.7 5.6 1.1 1.2 1.8 0.7 4.3-1.1 5.6-4.9 3.3-10.7 5.8-17 7.4q-0.5 0.1-1 0.1zm-199.2-2.2c-1.9 0-3.5-1.3-3.9-3.2-0.5-2.1 0.8-4.3 3-4.8 5.7-1.3 11.2-2.8 16.2-4.5 2.2-0.7 4.4 0.5 5.1 2.6 0.7 2.1-0.4 4.4-2.5 5.1-5.4 1.8-11.1 3.3-17 4.7q-0.5 0.1-0.9 0.1zm-119.6-3.2q-0.6 0-1.2-0.2c-6-1.9-11.6-4-16.6-6.4-2-0.9-2.9-3.3-1.9-5.3 0.9-2 3.3-2.9 5.3-1.9 4.7 2.2 10 4.2 15.6 5.9 2.1 0.7 3.3 2.9 2.7 5.1-0.6 1.7-2.2 2.8-3.9 2.8zm270.1-4.8c-1 0-2-0.4-2.8-1.1-4.8-4.7-8-10.2-9.7-16.6-0.6-2.2 0.7-4.4 2.9-4.9 2.1-0.6 4.3 0.7 4.9 2.9 1.3 4.9 3.8 9.2 7.5 12.8 1.6 1.5 1.6 4.1 0.1 5.7-0.8 0.8-1.8 1.2-2.9 1.2zm-117.9-3c-1.5 0-2.9-0.9-3.6-2.3-1-2-0.1-4.4 1.9-5.4 5.3-2.5 10-5.4 14.1-8.4 1.8-1.3 4.3-0.9 5.7 0.8 1.3 1.8 0.9 4.3-0.9 5.7-4.5 3.3-9.7 6.4-15.4 9.2q-0.9 0.4-1.8 0.4zm193.9-6.2q-0.9 0-1.8-0.4c-2-1.1-2.8-3.5-1.8-5.5 2.1-3.9 3.1-8.2 3.1-12.9q0-0.8 0-1.7c-0.1-2.2 1.6-4.1 3.8-4.2 2.2-0.1 4.1 1.6 4.2 3.8q0.1 1.1 0.1 2.1c0 6-1.4 11.6-4 16.7-0.7 1.3-2.1 2.1-3.6 2.1zm-377-1c-0.8 0-1.7-0.3-2.4-0.8q-2.2-1.7-4.1-3.4c-2.8-2.7-6-5.7-9-8.5-1.6-1.5-1.7-4.1-0.2-5.7 1.5-1.6 4.1-1.7 5.7-0.2 3 2.9 6.1 5.8 9 8.4q1.6 1.5 3.5 3c1.7 1.3 2.1 3.9 0.7 5.6-0.8 1.1-2 1.6-3.2 1.6zm210.2-13.6c-0.8 0-1.7-0.3-2.4-0.8-1.8-1.4-2.1-3.9-0.8-5.7q0.4-0.6 0.8-1.1c3-4.3 6.7-8.5 11-12.4 1.6-1.5 4.1-1.4 5.7 0.2 1.5 1.6 1.4 4.2-0.3 5.7-3.8 3.5-7.1 7.2-9.7 11.1q-0.5 0.7-1 1.3c-0.8 1.1-2 1.7-3.3 1.7zm81.8-8q-0.2 0-0.4 0c-2.2-0.3-3.8-2.3-3.6-4.5 0.7-6 1.8-11.9 3.4-17.5 0.6-2.2 2.9-3.4 5-2.8 2.1 0.6 3.4 2.8 2.8 5-1.5 5.2-2.6 10.6-3.2 16.2-0.2 2-1.9 3.6-4 3.6zm-317.3-1.8c-1 0-2-0.4-2.8-1.1-4.6-4.3-8.7-8.1-12.7-11.6-1.6-1.5-1.8-4-0.3-5.7 1.5-1.6 4-1.8 5.7-0.3 4 3.6 8.2 7.4 12.8 11.7 1.6 1.5 1.7 4.1 0.2 5.7-0.8 0.8-1.9 1.3-2.9 1.3zm401.6-8.9c-1.5 0-3-0.8-3.7-2.3-2.2-4.6-5.4-8.7-9.5-12.1-1.7-1.4-1.9-4-0.4-5.7 1.4-1.7 3.9-1.9 5.6-0.5 5 4.2 8.9 9.2 11.6 14.9 1 2 0.1 4.4-1.9 5.3q-0.8 0.4-1.7 0.4zm-141.1-4.8c-1.4 0-2.6-0.7-3.4-1.9-1.2-1.9-0.7-4.4 1.2-5.6 4.8-3.1 10-5.9 15.6-8.5 2-1 4.4-0.1 5.3 1.9 1 2 0.1 4.4-1.9 5.3-5.2 2.5-10.2 5.2-14.7 8.1-0.6 0.4-1.4 0.7-2.1 0.7zm-286.4-9.3c-0.9 0-1.8-0.3-2.5-0.9-4.6-3.8-9-7.4-13.4-10.7-1.7-1.4-2.1-3.9-0.7-5.7 1.3-1.7 3.9-2.1 5.6-0.7 4.5 3.4 9 7.1 13.6 10.9 1.7 1.5 2 4 0.5 5.7-0.8 0.9-1.9 1.4-3.1 1.4zm317.5-5.5c-1.7 0-3.3-1.1-3.8-2.7-0.7-2.2 0.4-4.4 2.5-5.2 5.5-1.8 11.3-3.4 17-4.7 2.2-0.5 4.3 0.8 4.8 3 0.5 2.2-0.9 4.3-3 4.8-5.5 1.2-10.9 2.8-16.2 4.6q-0.7 0.2-1.3 0.2zm84.6-2.6q-0.7 0.1-1.5-0.2c-4.7-1.9-10-3.4-15.8-4.3-2.1-0.4-3.6-2.5-3.3-4.7 0.4-2.2 2.5-3.6 4.7-3.3 6.3 1.1 12.1 2.7 17.4 4.8 2.1 0.8 3.1 3.2 2.3 5.2-0.7 1.6-2.2 2.5-3.8 2.5zm-49.3 0q-1 0-1.8-0.5c-1.9-0.9-2.7-3.1-2-5.1-1-0.6-1.8-1.7-1.9-2.9-0.3-2.3 1.3-4.3 3.5-4.5q1.4-0.2 2.7-0.3 2.5-4 5.3-7.8c1.4-1.8 3.9-2.1 5.7-0.8 1.8 1.4 2.1 3.9 0.8 5.7q-0.9 1.1-1.7 2.3 2.5-0.1 5-0.1c2.2 0.1 4 1.9 3.9 4.1 0 2.2-1.8 4-4 4q0 0 0 0-5-0.1-10.2 0.3-0.9 1.7-1.7 3.4c-0.7 1.4-2.2 2.2-3.6 2.2zm-380.1-12.9c-0.8 0-1.6-0.2-2.3-0.7-4.8-3.3-9.6-6.5-14.3-9.3-1.9-1.2-2.5-3.7-1.3-5.5 1.1-2 3.6-2.6 5.5-1.4 4.8 2.9 9.7 6.2 14.7 9.6 1.8 1.2 2.2 3.8 1 5.6-0.8 1.1-2.1 1.7-3.3 1.7zm400.6-14.6c-1 0-2.1-0.4-2.9-1.2-1.5-1.6-1.5-4.2 0.1-5.7 4.2-4 8.8-7.8 13.7-11.4 1.8-1.3 4.3-0.9 5.6 0.9 1.3 1.8 0.9 4.3-0.9 5.6-4.6 3.4-8.9 7-12.8 10.7-0.8 0.7-1.8 1.1-2.8 1.1zm-430.1-3.3q-1 0-1.9-0.4c-5.1-2.7-10.3-5-15.3-7.1-2.1-0.8-3.1-3.2-2.3-5.2 0.9-2.1 3.2-3.1 5.3-2.2 5.2 2.1 10.6 4.5 16 7.3 2 1 2.8 3.4 1.7 5.4-0.7 1.4-2.1 2.2-3.5 2.2zm-115.5-3.8c-1.4 0-2.7-0.8-3.5-2.1-1.1-1.9-0.4-4.4 1.5-5.5 5.3-2.9 10.8-5.5 16.2-7.5 2.1-0.8 4.4 0.3 5.2 2.4 0.8 2-0.3 4.4-2.4 5.1-5 1.9-10.1 4.3-15 7.1-0.6 0.3-1.3 0.5-2 0.5zm83.5-9q-0.6 0-1.1-0.1c-5.5-1.6-11-2.7-16.4-3.5-2.2-0.3-3.7-2.3-3.4-4.5 0.3-2.2 2.3-3.8 4.5-3.4 5.7 0.7 11.6 2 17.4 3.6 2.2 0.6 3.4 2.8 2.8 5-0.5 1.8-2.1 2.9-3.8 2.9zm769.3-1.7c-1.6 0-3-0.9-3.7-2.4-1.5-3.5-5-7-10.3-10.4-1.9-1.2-2.4-3.7-1.2-5.6 1.2-1.9 3.7-2.4 5.6-1.2 6.6 4.3 11.1 9 13.3 14 0.9 2-0.1 4.4-2.1 5.3q-0.8 0.3-1.6 0.3zm-820.6-1.2c-1.9 0-3.5-1.4-3.9-3.3-0.4-2.2 1-4.3 3.2-4.7 5.8-1.1 11.8-1.7 17.8-1.8 2.3 0 4.1 1.8 4.1 4 0 2.2-1.7 4-3.9 4.1-5.6 0.1-11.1 0.6-16.5 1.6q-0.4 0.1-0.8 0.1zm541.2-1.3c-1.4 0-2.8-0.8-3.5-2.1-1.1-1.9-0.5-4.4 1.5-5.5 4.9-2.8 10.2-5.4 15.7-7.9 2-0.9 4.4 0 5.3 2 0.9 2 0 4.4-2 5.3-5.3 2.4-10.3 5-15 7.6-0.7 0.4-1.4 0.6-2 0.6zm31.4-14.3c-1.7 0-3.2-1-3.8-2.6-0.8-2.1 0.3-4.4 2.4-5.2 5.3-1.9 11-3.7 16.7-5.3 2.1-0.6 4.4 0.6 5 2.7 0.6 2.2-0.7 4.4-2.8 5-5.6 1.6-11 3.3-16.2 5.2q-0.6 0.2-1.3 0.2zm220.7-3q-0.7 0-1.4-0.3c-4.8-1.8-10.2-3.6-16-5.1-2.2-0.6-3.5-2.8-2.9-5 0.6-2.1 2.8-3.4 5-2.8 6.1 1.6 11.7 3.5 16.8 5.4 2.1 0.8 3.1 3.2 2.3 5.2-0.6 1.6-2.2 2.6-3.8 2.6zm-187.6-6.5c-1.8 0-3.5-1.3-3.9-3.1-0.5-2.2 0.9-4.4 3-4.8 5.6-1.3 11.4-2.4 17.2-3.4 2.2-0.4 4.3 1.1 4.6 3.3 0.4 2.2-1.1 4.2-3.3 4.6-5.6 1-11.3 2.1-16.7 3.3q-0.4 0.1-0.9 0.1zm154.4-2.7q-0.4 0-0.8 0c-5.3-1.1-11-2-16.8-2.8-2.2-0.3-3.7-2.3-3.4-4.5 0.3-2.2 2.3-3.8 4.5-3.5 5.9 0.8 11.7 1.8 17.3 2.9 2.1 0.4 3.6 2.5 3.1 4.7-0.3 1.9-2 3.2-3.9 3.2zm-120.4-3.1c-2 0-3.7-1.5-3.9-3.6-0.3-2.2 1.3-4.2 3.5-4.5 5.7-0.7 11.5-1.3 17.3-1.7 2.2-0.2 4.2 1.5 4.3 3.7 0.2 2.2-1.4 4.1-3.7 4.3-5.7 0.5-11.4 1-17 1.7q-0.2 0.1-0.5 0.1zm86.2-1.6q-0.2 0-0.3 0c-5.6-0.5-11.4-0.8-17.1-1.1-2.2-0.1-3.9-2-3.8-4.2 0.1-2.2 1.9-3.9 4.2-3.8 5.8 0.2 11.6 0.6 17.4 1.1 2.2 0.2 3.8 2.1 3.6 4.4-0.2 2.1-1.9 3.6-4 3.6zm-51.7-1.2c-2.2 0-4-1.7-4.1-3.9 0-2.2 1.7-4 3.9-4.1 5.4-0.2 10.9-0.3 16.3-0.3h1.1c2.3 0 4.1 1.8 4.1 4-0.1 2.2-1.9 4-4.1 4q0 0 0 0h-1.1c-5.3 0-10.7 0.1-16 0.3q-0.1 0-0.1 0z"/>
			</g>
			<g id="&lt;Group&gt;">
				<path id="&lt;Path&gt;" class="s9" d="m2821.4 1011.2h-93.9c-12.7 0-23-10.3-23-23v-31.6c0-12.6 10.3-22.9 23-22.9h93.9c12.7 0 22.9 10.3 22.9 22.9v31.6c0 12.7-10.2 23-22.9 23z"/>
				<path id="&lt;Path&gt;" class="s9" d="m2753.1 1145.4h-121.9c-16.5 0-29.8-13.4-29.8-29.8v-41.1c0-16.4 13.3-29.7 29.8-29.7h121.9c16.5 0 29.8 13.3 29.8 29.7v41.1c0 16.4-13.3 29.8-29.8 29.8z"/>
				<path id="&lt;Path&gt;" class="s9" d="m2726.7 1011.2v40.2l25.1-40.2z"/>
				<path id="&lt;Path&gt;" class="s9" d="m2757.2 1140.8v37.5c0 3-4 4-5.4 1.3l-19.7-38.8z"/>
				<path id="&lt;Path&gt;" class="s0" d="m2821.7 965.1h-94.5c-4.6 0-8.3-3.7-8.3-8.3 0-4.5 3.7-8.3 8.3-8.3h94.5c4.6 0 8.3 3.8 8.3 8.3 0 4.6-3.7 8.3-8.3 8.3z"/>
				<path id="&lt;Path&gt;" class="s0" d="m2825.1 991.9h-101.3c-2.7 0-4.9-2.2-4.9-4.9v-6.8c0-2.7 2.2-4.9 4.9-4.9h101.3c2.7 0 4.9 2.2 4.9 4.9v6.8c0 2.7-2.2 4.9-4.9 4.9z"/>
				<path id="&lt;Path&gt;" class="s0" d="m2759.3 1076.2h-132.5c-5.1 0-9.3-4.1-9.3-9.2 0-5.1 4.2-9.2 9.3-9.2h132.5c5 0 9.2 4.1 9.2 9.2 0 5.1-4.2 9.2-9.2 9.2z"/>
				<path id="&lt;Path&gt;" class="s0" d="m2759.3 1105.5h-132.5c-5.1 0-9.3-4.2-9.3-9.3 0-5.1 4.2-9.2 9.3-9.2h132.5c5 0 9.2 4.1 9.2 9.2 0 5.1-4.2 9.3-9.2 9.3z"/>
				<path id="&lt;Path&gt;" class="s0" d="m2763 1134.7h-89.8c-3 0-5.5-2.4-5.5-5.4v-7.6c0-3 2.5-5.4 5.5-5.4h89.8c3 0 5.5 2.4 5.5 5.4v7.6c0 3-2.5 5.4-5.5 5.4z"/>
			</g>
			<g id="&lt;Group&gt;">
				<path id="&lt;Compound Path&gt;" class="s9" d="m1522.6 1080.3q-0.1 0-0.2 0c-2.2-0.1-3.9-2-3.8-4.2 0.1-2.6 0.7-9.5 3.1-18 0.6-2.1 2.9-3.3 5-2.7 2.1 0.6 3.4 2.8 2.8 4.9-2.2 7.8-2.8 13.9-2.9 16.2-0.1 2.1-1.9 3.8-4 3.8zm9.4-33q-0.9 0-1.9-0.5c-1.9-1.1-2.7-3.5-1.6-5.5 2.9-5.4 6.3-10.4 10.3-14.9 1.5-1.6 4-1.8 5.7-0.3 1.7 1.4 1.8 4 0.3 5.7-3.5 4-6.6 8.5-9.2 13.3-0.7 1.4-2.1 2.2-3.6 2.2zm22.7-25.6c-1.3 0-2.5-0.6-3.3-1.7-1.3-1.9-0.8-4.4 1-5.6 4.8-3.4 10.2-6.3 15.9-8.6 2-0.9 4.4 0.1 5.2 2.2 0.9 2-0.1 4.4-2.2 5.2-5.1 2.1-10 4.8-14.3 7.8-0.7 0.5-1.5 0.7-2.3 0.7zm31.6-13.2c-1.9 0-3.6-1.3-4-3.2-0.4-2.2 0.9-4.3 3.1-4.8 5.6-1.2 11.5-2 17.6-2.4 2.2-0.2 4.2 1.5 4.3 3.7 0.2 2.2-1.5 4.1-3.7 4.3-5.8 0.4-11.3 1.2-16.5 2.3q-0.4 0.1-0.8 0.1zm47.4-2.1c-2.5 0-5.1-0.1-7.7-0.3q-2.8-0.2-5.6-0.3c-2.2 0-4-1.9-3.9-4.1 0.1-2.2 2-4 4.2-3.9q2.9 0.1 5.9 0.3c3.7 0.3 7.5 0.3 11 0.2 2.2-0.1 4.1 1.6 4.2 3.8 0.1 2.2-1.6 4.1-3.9 4.2q-2.1 0.1-4.2 0.1zm21.1-2.4c-1.8 0-3.4-1.3-3.9-3.1-0.5-2.2 0.8-4.3 3-4.9 5.4-1.3 10.5-3.2 15.1-5.7 2-1 4.4-0.3 5.5 1.7 1 1.9 0.3 4.4-1.7 5.4-5.2 2.8-11 5-17 6.5q-0.5 0.1-1 0.1zm30.1-16.1c-1.1 0-2.2-0.4-3-1.3-1.5-1.6-1.4-4.1 0.2-5.7 3.9-3.6 7.3-7.8 10.3-12.5 1.1-1.9 3.6-2.4 5.5-1.3 1.9 1.2 2.5 3.7 1.3 5.6-3.3 5.2-7.2 10-11.6 14.1-0.7 0.7-1.7 1.1-2.7 1.1zm18.4-28.8q-0.7 0-1.4-0.3c-2.1-0.7-3.2-3-2.4-5.1 1.8-5.1 3.1-10.4 4-16 0.4-2.2 2.4-3.7 4.6-3.3 2.2 0.3 3.7 2.4 3.4 4.6-1 6-2.5 11.9-4.5 17.4-0.5 1.6-2.1 2.7-3.7 2.7zm535.5-6.5c-1.4 0-2.7-0.7-3.4-2-2.9-4.8-6-9.5-9.3-14.1-1.3-1.9-0.9-4.4 0.9-5.7 1.8-1.2 4.3-0.8 5.6 1 3.4 4.8 6.7 9.7 9.7 14.7 1.1 1.9 0.5 4.3-1.4 5.5-0.7 0.4-1.4 0.6-2.1 0.6zm-560-26.7q-0.1 0-0.2 0c-6.3-0.4-12.2-1.2-17.7-2.3-2.2-0.5-3.6-2.6-3.1-4.8 0.4-2.2 2.6-3.6 4.7-3.1 5.2 1.1 10.7 1.8 16.5 2.1 2.2 0.2 3.9 2.1 3.8 4.3-0.1 2.1-1.9 3.8-4 3.8zm17.2-0.1c-2.1 0-3.9-1.6-4-3.8-0.1-2.2 1.6-4.1 3.8-4.2q4.3-0.3 8.9-0.7c-0.2-4.2-0.6-8.4-1.3-12.5-0.4-2.2 1.1-4.2 3.3-4.6 2.2-0.4 4.3 1.1 4.6 3.3q1.1 6.3 1.4 12.8c2.2-0.3 4.2 1.2 4.5 3.4 0.3 2.2-1.2 4.2-3.4 4.5q-1.3 0.2-2.6 0.4c-0.7 0.5-1.5 0.8-2.4 0.8-0.5 0-1-0.1-1.5-0.3q-5.7 0.6-11 0.9-0.2 0-0.3 0zm522.8-1.3c-1.1 0-2.3-0.5-3.1-1.5-3.6-4.3-7.4-8.5-11.3-12.6-1.5-1.6-1.5-4.2 0.1-5.7 1.6-1.6 4.2-1.5 5.7 0.1 4.1 4.2 8 8.6 11.7 13.1 1.4 1.7 1.2 4.2-0.5 5.7-0.8 0.6-1.7 0.9-2.6 0.9zm-488.6-3.5c-1.9 0-3.6-1.3-4-3.2-0.4-2.1 1-4.3 3.1-4.7 5.3-1.2 10.9-2.5 16.6-4 2.2-0.6 4.4 0.7 4.9 2.8 0.6 2.2-0.7 4.4-2.8 5-5.8 1.5-11.5 2.9-17 4q-0.4 0.1-0.8 0.1zm-84.9-2.6q-0.8 0-1.6-0.3c-4.7-2-9.1-4.5-13.2-7.3q-1.2-0.9-2.5-1.8c-1.8-1.3-2.2-3.8-0.9-5.6 1.3-1.8 3.9-2.2 5.7-0.9q1.1 0.8 2.3 1.7c3.7 2.5 7.6 4.7 11.8 6.5 2 0.9 3 3.3 2.1 5.3-0.7 1.5-2.2 2.4-3.7 2.4zm118.2-6.2c-1.7 0-3.3-1.1-3.8-2.8-0.7-2.1 0.5-4.4 2.6-5.1 5.3-1.6 10.8-3.4 16.3-5.3 2.1-0.7 4.4 0.4 5.1 2.5 0.8 2.1-0.3 4.4-2.4 5.1-5.7 2-11.3 3.8-16.6 5.4q-0.6 0.2-1.2 0.2zm32.7-11.2c-1.7 0-3.2-1-3.8-2.6-0.8-2.1 0.3-4.4 2.4-5.2 5.1-1.9 10.5-4 16-6.2 2-0.8 4.4 0.2 5.2 2.2 0.8 2.1-0.2 4.4-2.2 5.3-5.6 2.2-11 4.3-16.2 6.2q-0.7 0.3-1.4 0.3zm398.8-1.4c-1 0-2-0.4-2.7-1.1-4.2-3.8-8.5-7.5-13-11-1.7-1.4-2-3.9-0.6-5.7 1.4-1.7 3.9-2 5.7-0.6 4.5 3.7 9 7.5 13.3 11.4 1.6 1.5 1.7 4 0.2 5.7-0.7 0.8-1.8 1.3-2.9 1.3zm-577.9-0.8c-1 0-2-0.4-2.8-1.2-5.1-5-8.8-9.9-11.2-14.7-1-2-0.2-4.4 1.8-5.4 2-1 4.4-0.2 5.4 1.8 2 4 5.2 8.2 9.7 12.6 1.6 1.5 1.6 4.1 0 5.7-0.8 0.8-1.8 1.2-2.9 1.2zm86-7.5c-1.7 0-3.2-1-3.8-2.7-2-5.4-4.4-10.3-7.2-14.6-1.2-1.9-0.6-4.4 1.2-5.6 1.9-1.2 4.4-0.7 5.6 1.2 3.1 4.8 5.8 10.3 7.9 16.3 0.8 2.1-0.3 4.4-2.4 5.2q-0.7 0.2-1.3 0.2zm125.2-3.1c-1.6 0-3.1-0.9-3.8-2.5-0.8-2 0.1-4.4 2.2-5.2 5-2.1 10.4-4.4 15.8-6.8 2.1-0.9 4.4 0.1 5.3 2.1 0.9 2 0 4.4-2.1 5.3-5.5 2.4-10.8 4.7-15.9 6.8q-0.8 0.3-1.5 0.3zm339.7-10.2c-0.8 0-1.6-0.2-2.3-0.7-4.6-3.2-9.4-6.4-14.2-9.3-1.9-1.2-2.5-3.7-1.3-5.6 1.1-1.9 3.6-2.5 5.5-1.3 5 3 9.9 6.3 14.7 9.6 1.8 1.3 2.2 3.8 0.9 5.6-0.7 1.1-2 1.7-3.3 1.7zm-308.1-3.5c-1.5 0-3-0.9-3.6-2.4-1-2 0-4.4 2-5.3 4.9-2.2 10-4.5 15.7-7.1 2-0.9 4.4 0 5.3 2 1 2 0.1 4.4-2 5.3-5.6 2.6-10.8 4.9-15.7 7.1q-0.8 0.4-1.7 0.4zm-254.6-6q-0.8 0-1.6-0.3c-2-0.9-3-3.3-2.1-5.3 2.4-5.6 7.4-10.2 14.4-13.5 2-0.9 4.4 0 5.4 2 0.9 2 0 4.4-2 5.3-5.2 2.4-8.8 5.7-10.4 9.4-0.6 1.5-2.1 2.4-3.7 2.4zm78.7-5.4c-0.8 0-1.7-0.3-2.4-0.9-2.8-2.1-5.8-3.7-8.8-4.8q-2.7-0.9-5.4-1.7c-2.1-0.6-3.4-2.8-2.8-5 0.6-2.1 2.8-3.3 5-2.7q2.9 0.8 5.8 1.8c3.9 1.3 7.6 3.4 11.1 6 1.7 1.4 2.1 3.9 0.7 5.7-0.8 1-2 1.6-3.2 1.6zm207.4-2.9c-1.6 0-3-0.9-3.7-2.3-0.9-2 0-4.4 2-5.4q5.4-2.5 10.8-4.9l4.9-2.3c2-0.9 4.4 0 5.3 2 0.9 2 0.1 4.4-2 5.3l-4.9 2.3q-5.3 2.5-10.8 5-0.8 0.3-1.6 0.3zm247.2-0.2q-0.9 0-1.8-0.5c-5-2.7-10.2-5.2-15.3-7.6-2-0.9-2.9-3.3-2-5.3 1-2 3.4-2.9 5.4-2 5.3 2.4 10.5 5.1 15.6 7.8 2 1 2.7 3.5 1.7 5.4-0.7 1.4-2.1 2.2-3.6 2.2zm-504.3-7.3c-2 0-3.7-1.5-4-3.5-0.2-2.2 1.4-4.2 3.6-4.5 5.7-0.6 11.8-0.6 18-0.1 2.3 0.3 3.9 2.2 3.7 4.4-0.3 2.3-2.2 3.9-4.4 3.7-5.7-0.6-11.3-0.6-16.4 0q-0.3 0-0.5 0zm288.5-6.9c-1.6 0-3-0.9-3.7-2.3-0.9-2.1 0-4.4 2-5.4q2.7-1.2 5.4-2.4c3.5-1.6 7.1-3.1 10.7-4.5 2.1-0.8 4.4 0.3 5.2 2.4 0.8 2.1-0.3 4.4-2.4 5.2-3.4 1.3-6.9 2.7-10.2 4.2q-2.7 1.2-5.4 2.5-0.8 0.3-1.6 0.3zm184.5-0.3q-0.7 0.1-1.4-0.2c-5.3-2.1-10.7-4-16.1-5.7-2.1-0.7-3.3-3-2.6-5.1 0.7-2.1 3-3.3 5.1-2.6 5.5 1.8 11.1 3.8 16.5 5.9 2.1 0.8 3.1 3.1 2.3 5.2-0.7 1.6-2.2 2.5-3.8 2.5zm-32.8-10.5q-0.5 0-1-0.2c-5.5-1.4-11.1-2.6-16.6-3.7-2.2-0.4-3.6-2.5-3.2-4.7 0.4-2.2 2.5-3.6 4.7-3.2 5.7 1.1 11.4 2.4 17.1 3.8 2.1 0.6 3.4 2.8 2.9 4.9-0.5 1.8-2.1 3.1-3.9 3.1zm-119.5-1.3c-1.8 0-3.4-1.2-3.9-3-0.5-2.1 0.7-4.3 2.9-4.9 5.5-1.5 11.3-2.8 17.1-3.9 2.2-0.4 4.3 1.1 4.7 3.3 0.4 2.2-1 4.3-3.2 4.7-5.6 1-11.2 2.2-16.5 3.7q-0.6 0.1-1.1 0.1zm85.6-5.2q-0.2 0-0.5 0c-5.6-0.7-11.3-1.2-16.9-1.6-2.2-0.1-3.9-2-3.8-4.2 0.1-2.2 2-3.9 4.2-3.8 5.8 0.3 11.7 0.8 17.5 1.6 2.2 0.2 3.8 2.3 3.5 4.5-0.3 2-2 3.5-4 3.5zm-51.7-0.9c-2 0-3.8-1.6-4-3.7-0.2-2.2 1.4-4.1 3.7-4.3 5.7-0.6 11.6-0.9 17.5-1 2.2-0.1 4.1 1.7 4.1 3.9 0 2.3-1.7 4.1-4 4.1-5.6 0.1-11.3 0.4-16.9 1q-0.2 0-0.4 0z"/>
			</g>
			<g id="&lt;Group&gt;">
				<path id="&lt;Path&gt;" class="s21" d="m2242.2 924.8l-13 21.4 112.2 76.6z"/>
				<path id="&lt;Path&gt;" class="s21" d="m2217.6 971.8l6.8 24.5 112.1 22.9z"/>
				<path id="&lt;Path&gt;" class="s9" d="m2341.4 1022.8l-189.2-64.5 65.4-23.1z"/>
				<path id="&lt;Path&gt;" class="s9" d="m2242.2 924.8l99.2 98-58-115.3z"/>
			</g>
			<g id="&lt;Group&gt;">
				<path id="&lt;Compound Path&gt;" class="s9" d="m2914 773.6c-2.3 0-4.1-1.8-4.1-4 0-2.2 1.8-4 4-4 5.8 0 11.3-0.7 16.1-1.9 2.2-0.6 4.4 0.7 4.9 2.8 0.6 2.2-0.7 4.4-2.9 5-5.5 1.4-11.6 2.1-18 2.1zm-17.2-1.5q-0.3 0-0.7-0.1c-5.5-0.9-11.3-2.3-17.2-4-2.2-0.6-3.4-2.9-2.8-5 0.7-2.1 2.9-3.4 5-2.7 5.7 1.6 11.2 2.9 16.4 3.8 2.2 0.4 3.6 2.4 3.3 4.6-0.4 2-2.1 3.4-4 3.4zm49.9-7.5c-1.3 0-2.5-0.6-3.3-1.8-1.3-1.8-0.8-4.3 1.1-5.5 3.8-2.6 7.2-5.9 10.1-9.7 1.3-1.7 3.9-2.1 5.6-0.7 1.8 1.3 2.1 3.8 0.8 5.6-3.5 4.5-7.5 8.3-12 11.4-0.7 0.5-1.5 0.7-2.3 0.7zm-278.3-0.9c-0.8 0-1.7-0.2-2.4-0.7-1.8-1.3-2.2-3.8-0.9-5.6 3.2-4.6 7.1-9.2 11.5-13.7 1.6-1.6 4.1-1.6 5.7-0.1 1.6 1.6 1.6 4.1 0.1 5.7-4.1 4.2-7.7 8.5-10.8 12.7-0.7 1.1-2 1.7-3.2 1.7zm195.3-1.1q-0.8 0-1.5-0.3c-5.2-2.1-10.7-4.4-16.1-7-2-0.9-2.9-3.3-1.9-5.3 0.9-2 3.3-2.9 5.3-2 5.3 2.5 10.6 4.8 15.6 6.8 2.1 0.8 3.1 3.1 2.3 5.2-0.6 1.6-2.1 2.6-3.7 2.6zm-31.3-14.7q-1 0-1.9-0.5c-5-2.7-10.1-5.7-15.1-8.7-1.9-1.2-2.5-3.7-1.3-5.6 1.1-1.9 3.6-2.5 5.5-1.3 4.9 3 9.8 5.9 14.8 8.5 1.9 1.1 2.6 3.5 1.6 5.5-0.8 1.3-2.1 2.1-3.6 2.1zm-140.1-8.9c-1.2 0-2.4-0.5-3.2-1.5-1.3-1.8-1.1-4.3 0.7-5.7 4.6-3.7 9.5-7.1 14.5-10.2 1.9-1.1 4.4-0.5 5.6 1.4 1.1 1.9 0.5 4.3-1.4 5.5-4.7 2.9-9.3 6.1-13.7 9.6-0.7 0.6-1.6 0.9-2.5 0.9zm110.7-9.1c-0.8 0-1.6-0.2-2.3-0.7q-2.7-1.9-5.3-3.7c-2.8-2-5.8-3.8-8.7-5.3-2-1-2.8-3.5-1.8-5.5 1-1.9 3.4-2.7 5.4-1.7 3.3 1.7 6.6 3.7 9.8 5.9q2.5 1.8 5.2 3.6c1.8 1.3 2.3 3.8 1 5.6-0.8 1.2-2 1.8-3.3 1.8zm-81.3-8.8c-1.5 0-3-0.9-3.7-2.4-0.8-2 0.1-4.4 2.1-5.3 5.7-2.4 11.4-4.3 17-5.7 2.2-0.5 4.4 0.8 4.9 3 0.5 2.1-0.8 4.3-3 4.8-5.2 1.3-10.4 3.1-15.7 5.3q-0.8 0.3-1.6 0.3zm50.6-6.3q-0.5 0-0.9-0.1c-5.2-1.1-10.6-1.6-16.2-1.4-2.2 0.1-4-1.7-4.1-3.9-0.1-2.3 1.7-4.1 3.9-4.2 6.2-0.2 12.3 0.4 18.1 1.7 2.2 0.4 3.6 2.6 3.1 4.7-0.4 1.9-2.1 3.2-3.9 3.2z"/>
			</g>
			<g id="&lt;Group&gt;">
				<path id="&lt;Path&gt;" class="s21" d="m2664.5 747.4l5.8 18.3-97.8 36.6z"/>
				<path id="&lt;Path&gt;" class="s21" d="m2674.2 787l-9.5 17-87.8-3.4z"/>
				<path id="&lt;Path&gt;" class="s9" d="m2572.5 802.3l153-13.4-44.6-29.2z"/>
				<path id="&lt;Path&gt;" class="s9" d="m2664.5 747.4l-92 54.9 64.5-75.4z"/>
			</g>
			<g id="&lt;Group&gt;">
				<path id="&lt;Compound Path&gt;" class="s9" d="m2539.3 958.8q7.2-5.4 17.2-5.4c14.3 0 21.9 7.8 21.9 18.8 0 6.4-3 12.8-9.3 19.3-7.9 8.3-13.6 12.4-17.2 12.4-3.5 0-6-2.7-6-6 0-2.9 2.7-5.9 7.5-10.2 0.3-0.4 0.6-0.7 0.8-0.8 5.4-4.9 7.1-7.7 7.1-11.1 0-4.2-2.8-6.5-7-6.5-1.9 0-4.1 0.4-6.7 1.2q-4 1.3-5.7 1.3c-3 0-6.4-2.5-6.4-6.7 0-2.3 1.3-4.4 3.8-6.3zm14.5 70.5c-6.4 0-10.8-4.9-10.8-10.8 0-5.1 4.4-9.9 10.8-9.9 5.6 0 9.9 4.8 9.9 9.9 0 5.8-4.1 10.8-9.9 10.8z"/>
			</g>
			<g id="&lt;Group&gt;">
				<path id="&lt;Compound Path&gt;" class="s9" d="m1920.5 676.7q5.7-4.3 13.5-4.3c11.4 0 17.4 6.2 17.4 14.9 0 5-2.4 10.1-7.3 15.2-6.3 6.6-10.8 9.9-13.6 9.9-2.8 0-4.8-2.2-4.8-4.8 0-2.3 2.2-4.6 5.9-8.1 0.3-0.2 0.5-0.5 0.7-0.6 4.3-3.9 5.6-6.1 5.6-8.7 0-3.4-2.3-5.2-5.5-5.2-1.5 0-3.3 0.3-5.4 1q-3.1 1-4.5 1c-2.3 0-5-2-5-5.4 0-1.7 1-3.4 3-4.9zm11.5 55.8c-5.1 0-8.6-3.9-8.6-8.6 0-4 3.5-7.8 8.6-7.8 4.4 0 7.8 3.8 7.8 7.8 0 4.6-3.2 8.6-7.8 8.6z"/>
			</g>
			<g id="&lt;Group&gt;">
				<path id="&lt;Path&gt;" class="s22" d="m1744.5 719.7l-33.8 62.6c-1.3 2.4-4.3 3.3-6.6 2l-108.9-58.8c-2.3-1.3-3.2-4.2-1.9-6.6l33.8-62.6c1.3-2.4 4.3-3.3 6.7-2l108.8 58.8c2.3 1.3 3.2 4.3 1.9 6.6z"/>
				<path id="&lt;Path&gt;" class="s9" d="m1744.5 719.7l-1.8 3.5-68.9 8.8c-6.7 1-13.3-2.5-16.3-8.7l-31.5-65.1 1.1-1.9c1.3-2.4 4.3-3.3 6.7-2l108.8 58.8c2.3 1.3 3.2 4.3 1.9 6.6z"/>
			</g>
			<g id="&lt;Group&gt;">
				<path id="&lt;Compound Path&gt;" class="s9" d="m2396.1 845c-17.2 0-31.3-14-31.3-31.3 0-17.3 14.1-31.3 31.3-31.3 17.3 0 31.4 14 31.4 31.3 0 17.3-14.1 31.3-31.4 31.3zm0-54c-12.5 0-22.7 10.2-22.7 22.7 0 12.5 10.2 22.7 22.7 22.7 12.6 0 22.7-10.2 22.7-22.7 0-12.5-10.1-22.7-22.7-22.7z"/>
			</g>
			<g id="&lt;Group&gt;">
				<path id="&lt;Compound Path&gt;" class="s0" d="m3055.2 1066.9c-17.2 0-31.3-14.1-31.3-31.3 0-17.3 14.1-31.4 31.3-31.4 17.3 0 31.4 14.1 31.4 31.4 0 17.2-14.1 31.3-31.4 31.3zm0-54c-12.5 0-22.7 10.1-22.7 22.7 0 12.5 10.2 22.7 22.7 22.7 12.6 0 22.7-10.2 22.7-22.7 0-12.6-10.1-22.7-22.7-22.7z"/>
			</g>
			<path id="&lt;Path&gt;" class="s9" d="m2466.4 763.8c0 9.9-8 17.9-17.9 17.9-9.9 0-17.9-8-17.9-17.9 0-9.8 8-17.8 17.9-17.8 9.9 0 17.9 8 17.9 17.8z"/>
			<path id="&lt;Path&gt;" class="s0" d="m3074.5 965.1c0 9.9-8 17.9-17.8 17.9-9.9 0-17.9-8-17.9-17.9 0-9.9 8-17.9 17.9-17.9 9.8 0 17.8 8 17.8 17.9z"/>
		</g>
	</g>
</svg>