<svg version="1.2" xmlns="http://www.w3.org/2000/svg" viewBox="1283 557 1841 1150" width="1841" height="1150">
	<title>7090</title>
	<style>
		.s0 { fill: #000000 } 
		.s1 { fill: #95a6db } 
		.s2 { fill: #060534 } 
		.s3 { fill: #08074d } 
		.s4 { fill: #f37a50 } 
		.s5 { fill: #fd7166 } 
		.s6 { fill: #2d2c61 } 
		.s7 { fill: #de623c } 
		.s8 { fill: #ffffff } 
		.s9 { fill: #768fdb } 
		.s10 { fill: #d66056 } 
		.s11 { fill: #ffd0b7 } 
		.s12 { fill: #4661b3 } 
		.s13 { fill: #6a86ce } 
		.s14 { fill: #7c9af2 } 
		.s15 { fill: #55ab65 } 
		.s16 { fill: #070635 } 
		.s17 { fill: #809df2 } 
		.s18 { fill: #b4c2f0 } 
		.s19 { fill: #9eb7ff } 
		.s20 { fill: #dde8fd } 
		.s21 { fill: #bdcdff } 
		.s22 { fill: #cdd8fa } 
	</style>
	<g id="Слой 1">
		<g id="&lt;Group&gt;">
			<g id="&lt;Group&gt;">
			</g>
			<g id="&lt;Group&gt;">
				<g id="&lt;Group&gt;">
				</g>
			</g>
			<g id="&lt;Group&gt;">
			</g>
			<g id="&lt;Group&gt;">
			</g>
			<g id="&lt;Group&gt;">
			</g>
			<g id="&lt;Group&gt;">
			</g>
			<g id="&lt;Group&gt;">
			</g>
			<g id="&lt;Group&gt;">
				<path id="&lt;Compound Path&gt;" class="s0" d="m1111.4 966.2v3.7h-14.1v-3.7z"/>
			</g>
		</g>
		<g id="&lt;Group&gt;">
			<path id="&lt;Path&gt;" fill-rule="evenodd" class="s1" d="m3108.3 1653.1h-1791.5c-3.5 0-6.4-2.9-6.4-6.4 0-3.6 2.9-6.4 6.4-6.4h1791.5c3.5 0 6.4 2.8 6.4 6.4 0 3.5-2.9 6.4-6.4 6.4z"/>
			<g id="&lt;Group&gt;">
				<g id="&lt;Group&gt;">
					<path id="&lt;Path&gt;" fill-rule="evenodd" class="s2" d="m2907.5 1163.9c-15.3 5.2-65.2 94.8-65.2 94.8l38.5 2.5 41.1-41.7z"/>
					<path id="&lt;Path&gt;" fill-rule="evenodd" class="s0" d="m2958.8 1607.3c-14.2 19-49.1 7.3-47.9 33 53.1-0.3 75.1 0 75.1 0 0-5.9-1.1-19.9-2.3-25.3z"/>
					<path id="&lt;Path&gt;" fill-rule="evenodd" class="s0" d="m3038.3 1607.8c-14.2 19-49.2 7.3-48 33 53.1-0.3 75.2 0 75.2 0-0.1-5.9-1.2-19.9-2.4-25.4z"/>
					<path id="&lt;Path&gt;" fill-rule="evenodd" class="s2" d="m2928.3 1317.1c0 0-8.5 122.1-5 149.1 3.5 27 21.7 61.9 20.3 151.2 17.4 4.2 42.4 0 42.4 0 0 0 3.7-101-14.6-146.2 7.5-43.8 31.4-144.2 31.4-144.2z"/>
					<path id="&lt;Path&gt;" fill-rule="evenodd" class="s3" d="m2981 1321.3c0 0 0.8 134.9 9.3 160.8 8.5 25.9 25 44.3 40.5 132.3 17.8 0.9 43.4 1.3 43.4 1.3 0 0-9.1-113.2-36.8-138.6-1-44.4 10.4-156.6 10.4-156.6z"/>
					<path id="&lt;Path&gt;" fill-rule="evenodd" class="s1" d="m2938.2 1145.4l23-7.5 24.2 1.1-19.6 32.2z"/>
					<path id="&lt;Path&gt;" fill-rule="evenodd" class="s4" d="m2946.5 1160.4c11.3 5.7 25.6 4.2 35.6-4.9l-4.6-36.3-33.7 5z"/>
					<path id="&lt;Path&gt;" fill-rule="evenodd" class="s1" d="m2994.3 1150.2l-7.6-1.2-1.3-10-15.8 19.9-5.2 2.1-5.6-0.6-20.6-15 1.5 10.1-5.9 2.6-21.3 8.7 25.5 123.5 0.8 41c31.6 3.1 65.1 0.8 96.4-11.1l-10.7-41.7-4.6-125.4z"/>
					<path id="&lt;Path&gt;" fill-rule="evenodd" class="s5" d="m2960.2 1174.6l3.8 97.3 9.7 9.3 8.7-9.7-14.7-97.5z"/>
					<path id="&lt;Path&gt;" fill-rule="evenodd" class="s5" d="m2953.1 1163.4l8.6-2.9 10.1 1-4.1 12.7-7.5 0.7z"/>
					<g id="&lt;Group&gt;">
						<path id="&lt;Path&gt;" fill-rule="evenodd" class="s3" d="m2936.8 1150.1l13 108.9 11 76.5c0 0-21.1 10.3-38.8-0.3l-14.8-171.3z"/>
						<path id="&lt;Path&gt;" fill-rule="evenodd" class="s6" d="m2937.2 1148.9l13.7 117.7-27.6-89.4z"/>
					</g>
					<g id="&lt;Group&gt;">
						<path id="&lt;Path&gt;" fill-rule="evenodd" class="s3" d="m2986.2 1140l16 193.8c0 0 40.5 2.5 55.5-10l-15.7-60.1-23.5-124z"/>
						<path id="&lt;Path&gt;" fill-rule="evenodd" class="s6" d="m2985.7 1139.7l10.2 118.5 10.1-95.4z"/>
					</g>
					<g id="&lt;Group&gt;">
						<g id="&lt;Group&gt;">
							<path id="&lt;Path&gt;" fill-rule="evenodd" class="s4" d="m2986.2 1092c-2.5 25.2-20.7 44.1-40.6 42-19.8-2-33.8-24.1-31.2-49.4 2.6-25.2 20.8-44.1 40.6-42 19.9 2 33.8 24.1 31.2 49.4z"/>
							<path id="&lt;Path&gt;" fill-rule="evenodd" class="s0" d="m2924.8 1094.1c-1.9 0.8-4.1-0.1-4.9-2-0.8-1.9 0.1-4.1 2-4.9 1.9-0.8 4.1 0 4.9 1.9 0.8 1.9-0.1 4.1-2 5z"/>
							<path id="&lt;Path&gt;" fill-rule="evenodd" class="s0" d="m2953.2 1090.6c-0.8 1.9-2.9 2.8-4.9 2-1.9-0.7-2.8-2.9-2.1-4.8 0.8-2 3-2.9 4.9-2.1 2 0.7 2.9 2.9 2.1 4.9z"/>
							<path id="&lt;Path&gt;" fill-rule="evenodd" class="s7" d="m2933.3 1089.2c-2 6.3-4.6 14.1-4.6 14.1 0 0 3.5 5.2 11.2 3.3-3.6-0.5-7.4-1.8-7.2-6.4 0.2-4.6 0.6-11 0.6-11z"/>
							<g id="&lt;Group&gt;">
								<path id="&lt;Path&gt;" fill-rule="evenodd" class="s3" d="m2957.5 1083.8c-0.7 0.4-1.6 0.3-2.2-0.3-0.1-0.2-3.4-3.5-6.7-1.5-0.9 0.4-1.9 0.2-2.4-0.7-0.5-0.8-0.2-1.9 0.6-2.3 4.6-2.7 9.2 0.2 11 2.1 0.7 0.7 0.7 1.8 0 2.4q-0.2 0.2-0.3 0.3z"/>
							</g>
							<g id="&lt;Group&gt;">
								<path id="&lt;Path&gt;" fill-rule="evenodd" class="s3" d="m2916.4 1087.7c0.8 0.2 1.6-0.1 2-0.8 0.1-0.1 2.6-4.1 6.3-3 0.9 0.3 1.9-0.2 2.1-1.1 0.3-0.9-0.2-1.9-1.1-2.2-5.1-1.5-8.9 2.3-10.3 4.5-0.4 0.9-0.2 1.9 0.6 2.4q0.2 0.1 0.4 0.2z"/>
							</g>
							<path id="&lt;Path&gt;" fill-rule="evenodd" class="s3" d="m2982.6 1093.4c-2.1-9-9.5-5.3-13-16.9-3.6-11.7-6.8-20.4-17.5-15.9-10.8 4.5-14.1 2.5-19.3 0.9-15.5-4.9-18.1 20.8-18.1 20.8 0 0-12.9-19-3.2-31.2 10.9-13.6 15.4-5.7 25.8-15.8 10.4-10.2 28.9-9.2 34.1-2.6 5.5 6.9 7.5 12.3 19.2 15.4 11.8 3 19.1 10.9 11.9 24.4-7.3 13.5 10.8 18-3.3 32.1-5.5 5.5-16.3 8.9-18.6 7-3.1-2.5 3.3-12.4 2-18.2z"/>
							<path id="&lt;Path&gt;" fill-rule="evenodd" class="s3" d="m2914.6 1098.3c0 0 3.3 12 6.4 15.4 0.3-5.8 9.2-1.5 13.3-2.2 9.9-1.8 23.2-10.6 29.4 3.2 12.8-0.1 16.4-28 16.4-28 9.5 27.6-4.3 49.1-35.1 53.8-20.2 3.1-32.8-21.5-30.4-42.2z"/>
							<g id="&lt;Group&gt;">
								<path id="&lt;Path&gt;" fill-rule="evenodd" class="s4" d="m2978 1087.7c-3.7 4.9-3.4 11.4 0.7 14.4 4 3 10.3 1.4 14-3.5 3.7-5 3.4-11.5-0.7-14.5-4.1-3-10.3-1.4-14 3.6z"/>
								<g id="&lt;Group&gt;">
									<path id="&lt;Path&gt;" fill-rule="evenodd" class="s7" d="m2984.1 1099.4q-0.3-0.1-0.5-0.3c-2.5-1.9-3.4-4.5-2.5-7.1 1-2.6 3.6-4.4 6.2-4.2 0.8 0 1.3 0.6 1.3 1.4 0 0.7-0.7 1.3-1.4 1.3-1.5-0.1-3 1-3.6 2.5-0.5 1.4 0.1 2.8 1.6 4 0.6 0.4 0.7 1.3 0.3 1.9-0.4 0.4-0.9 0.6-1.4 0.5z"/>
								</g>
							</g>
							<g id="&lt;Group&gt;">
								<path id="&lt;Path&gt;" fill-rule="evenodd" class="s7" d="m2941.1 1120.3q-1.2 0.4-2.4 0.6c-6.3 0.8-11.2-3-11.4-3.1-0.6-0.5-0.7-1.5-0.2-2.1 0.5-0.6 1.4-0.7 2-0.2 0.1 0 4.2 3.2 9.2 2.5 3.3-0.5 6.2-2.4 8.8-5.9 0.5-0.7 1.4-0.8 2-0.3 0.7 0.5 0.8 1.4 0.3 2q-3.6 5-8.3 6.5z"/>
							</g>
						</g>
					</g>
					<path id="&lt;Path&gt;" fill-rule="evenodd" class="s8" d="m2961.7 1160.5l18.8 13.3 10-28.1-5.1-6.7z"/>
					<path id="&lt;Path&gt;" fill-rule="evenodd" class="s8" d="m2961.7 1160.5l-11.5 15.5-15.1-22.8 3.1-7.8z"/>
				</g>
				<g id="с 2 ">
					<path id="с 16 " fill-rule="evenodd" class="s9" d="m2724.9 1643.3h-6.8c-2.8 0-5-2.2-5-5v-141.5h16.8v141.5c0 2.8-2.3 5-5 5z"/>
					<path id="с 15 " fill-rule="evenodd" class="s9" d="m2783.6 1643.3h-6.8c-2.7 0-4.9-2.2-4.9-5v-141.5h16.7v141.5c0 2.8-2.2 5-5 5z"/>
					<path id="с 8 " fill-rule="evenodd" class="s9" d="m2865.7 1635.5c0 4.3-3.8 7.8-8.4 7.8-4.6 0-8.4-3.5-8.4-7.8v-138.7h16.8z"/>
					<path id="с 7 " fill-rule="evenodd" class="s9" d="m2919.4 1643.3h-6.8c-2.7 0-4.9-2.2-4.9-5v-141.5h16.7v141.5c0 2.8-2.2 5-5 5z"/>
					<path id="с 6 " fill-rule="evenodd" class="s1" d="m2823.4 1276.7v176.5c0 2-1.6 3.6-3.6 3.6h-109.4c-11.1 0-20 8.9-20 20 0 11 8.9 20 20 20h113 20c11 0 20-9 20-20v-20-180.1c0-11.1-9-20-20-20-11 0-20 8.9-20 20z"/>
					<path id="с 5 " fill-rule="evenodd" class="s1" d="m2929.9 1256.7v203.3h-86.5v-203.3z"/>
					<path id="с 3 " fill-rule="evenodd" class="s9" d="m2909.9 1276.7v176.5c0 2-1.6 3.6-3.6 3.6h-109.4c-11.1 0-20 8.9-20 20 0 11 8.9 20 20 20h113 20c11.1 0 20-9 20-20v-20-180.1c0-11.1-8.9-20-20-20-11 0-20 8.9-20 20z"/>
				</g>
				<g id="c 4 ">
					<path id="&lt;Path&gt;" fill-rule="evenodd" class="s10" d="m2773.4 1249.2c-22 6.7-33 53.1-42.4 101.7-12.7 16.7-26.3 25.8-46.1 45.5 13.4 3 27.7-0.6 27.7-0.6 0 0 36.6 0.3 52.5-34.3 3.6-7.9 4.9-23.9 6.9-30.9 0.9-22.3 1.4-81.4 1.4-81.4z"/>
					<path id="&lt;Path&gt;" fill-rule="evenodd" class="s4" d="m2644.5 1619.3l-19.9 5.1-8.1-17.7c0.8-0.6 2.1-12.4 2.9-21.3l32.1 4.4c-1.6 9-4.2 20.8-7 29.5z"/>
					<g id="&lt;Group&gt;">
						<g id="&lt;Group&gt;">
							<path id="&lt;Path&gt;" fill-rule="evenodd" class="s2" d="m2609.4 1629.8c0 0-6.9-11.6-15.6-12.3 0 0-16.4 0.9-22.1 7.9-1.9 2.1-1.2 6.7-0.4 9.7 0.4 1.9 2 3.9 6.8 5.4 7.2 2.3 16.9 3.6 34.7-1 21.3-5.5 24.8-3.2 32.7-5.8 8.1-2.6 5.5-12.6 3.3-22.4 0 0-6 12-39.4 18.5z"/>
						</g>
						<g id="&lt;Group&gt;">
							<g id="&lt;Group&gt;">
								<path id="&lt;Path&gt;" fill-rule="evenodd" class="s3" d="m2615.9 1605c0 0-9.5 5.7-22 8.6-6.9 1.6-25.5 5.2-22.5 17.6 0.4 1.9 2 3.9 6.8 5.4 7.2 2.2 16.9 3.6 34.7-1 21.3-5.5 24.8-3.2 32.7-5.8 8.1-2.6 4.4-14 2.1-23.7-0.2 2.4-1.3 8.9-16.2 14.7-4.4 1.8-0.8-17.8-15.6-15.8z"/>
							</g>
						</g>
						<g id="&lt;Group&gt;">
							<path id="&lt;Path&gt;" fill-rule="evenodd" class="s6" d="m2618.7 1619.9c-0.7 0-1.3-0.5-1.5-1.3-1.5-6-7.8-6.5-8-6.5-1 0-1.7-0.8-1.6-1.8 0-0.9 0.8-1.6 1.7-1.6 3.1 0.2 9.5 2.3 11.2 9.1 0.2 0.9-0.4 1.8-1.3 2.1q-0.2 0-0.5 0z"/>
						</g>
						<g id="&lt;Group&gt;">
							<path id="&lt;Path&gt;" fill-rule="evenodd" class="s6" d="m2610.9 1623c-0.7 0-1.4-0.5-1.5-1.2-1.5-6.1-7.8-6.5-8.1-6.5-0.9-0.1-1.6-0.9-1.6-1.8 0.1-1 0.9-1.7 1.8-1.6 3.1 0.1 9.4 2.2 11.1 9 0.3 1-0.3 1.9-1.2 2.1q-0.3 0.1-0.5 0z"/>
						</g>
					</g>
					<path id="&lt;Path&gt;" fill-rule="evenodd" class="s4" d="m2722 1626.8l-19.4 6.4-9.4-17c0.8-0.7 3.6-13.1 3.8-22.1l30 2.7c-1 9.2-2.8 21.1-5 30z"/>
					<path id="&lt;Path&gt;" fill-rule="evenodd" class="s2" d="m2754.3 1405.3c-44.3 8.1-107.3 36.9-113.5 43.4-12.9 13.5-19.2 60-25.2 142.7l38.8 2.6c14.3-64.7 27.8-92.8 30-119.1 0 0 34 2.4 85.2-17.4 25.3-9.7 51.6-21.1 44-43.9-6-18.1-17-16-59.3-8.3z"/>
					<path id="&lt;Path&gt;" fill-rule="evenodd" class="s3" d="m2803.9 1409.2c-36.8 3.8-86 46-92.2 52.5-12.8 13.5-14.4 59.6-20.5 142.3l38.6 3.6c6.3-42.8 24.6-91.9 24.5-123.4 0 0 34.6-7.5 88.1-19.5 29.3-6.6 38.1-11.2 43.7-30.3 1.9-6.5 4.5-21.6 1.6-24.9-12.9-14.9-48.9-3.9-83.8-0.3z"/>
					<g id="&lt;Group&gt;">
						<g id="&lt;Group&gt;">
							<path id="&lt;Path&gt;" fill-rule="evenodd" class="s2" d="m2687.8 1639.7c0 0-7.7-11-16.4-11.1 0 0-16.3 2-21.6 9.3-1.6 2.3-0.6 6.9 0.3 9.8 0.6 1.8 2.3 3.7 7.3 4.9 7.3 1.7 17 2.4 34.5-3.4 20.9-7.1 24.4-5 32.1-8.1 8-3.2 4.7-13 1.8-22.6 0 0-5.1 12.3-38 21.2z"/>
						</g>
						<g id="&lt;Group&gt;">
							<g id="&lt;Group&gt;">
								<path id="&lt;Path&gt;" fill-rule="evenodd" class="s3" d="m2692.6 1614.5c0 0-9.1 6.4-21.4 10.1-6.8 2.1-25.1 7-21.2 19.2 0.5 1.8 2.2 3.7 7.2 4.9 7.3 1.7 17 2.4 34.5-3.4 20.9-7.1 24.5-5 32.2-8.1 7.9-3.2 3.4-14.3 0.5-23.8-0.1 2.4-0.7 9-15.1 15.8-4.3 2.1-2.1-17.7-16.7-14.7z"/>
							</g>
						</g>
						<g id="&lt;Group&gt;">
							<path id="&lt;Path&gt;" fill-rule="evenodd" class="s6" d="m2699.7 1629.8c-0.7 0-1.4-0.5-1.6-1.2-1.5-6.1-7.7-6.5-8-6.6-0.9 0-1.6-0.8-1.6-1.7 0.1-1 0.8-1.7 1.8-1.6 3.1 0.1 9.4 2.2 11.1 9 0.2 0.9-0.3 1.9-1.2 2.1q-0.3 0.1-0.5 0z"/>
						</g>
						<g id="&lt;Group&gt;">
							<path id="&lt;Path&gt;" fill-rule="evenodd" class="s6" d="m2691.8 1633c-0.7-0.1-1.3-0.6-1.5-1.3-1.5-6.1-7.8-6.5-8-6.5-1-0.1-1.7-0.9-1.6-1.8 0-0.9 0.8-1.6 1.7-1.6 3.2 0.2 9.5 2.3 11.2 9.1 0.2 0.9-0.3 1.8-1.2 2q-0.3 0.1-0.6 0.1z"/>
						</g>
					</g>
					<g id="&lt;Group&gt;">
						<path id="v-2 1 " fill-rule="evenodd" class="s4" d="m2828.3 1212.1h-14.7l-3.4 34.8 17.2 9 18.3-8.9-3-34.9z"/>
						<g id="&lt;Group&gt;">
							<g id="&lt;Group&gt;">
								<path id="&lt;Path&gt;" fill-rule="evenodd" class="s3" d="m2829.7 1207.3c12.9 3.6 22.5-12.2 22.5-12.2 8.2 0 8.1-8.3 8.1-8.3 4.1-0.6 9.8-3.9 9.3-11.4-0.4-6.4-6.5-7.1-6.2-14.5 0.3-5.9 6.7-19.5-11.7-23.5 0 0 1.3-10.9-9.5-15.2-13.2-5.3-17.8 2.3-24.1 2.9-6.9 0.6-20.3-7.8-24.7 7.4 0 0-9.5-1.3-15 5-5.1 5.8-4 14.5-1.8 17.9 0 0-8 1.4-10.9 8.4-2 4.7-1.1 11.3 3.3 15.1 2.8 2.4 5.7 3.1 5.7 3.1 3 1 1.9 9.4 4.4 11.5 4 3.2 8.6 5.8 13.2 8.1z"/>
								<path id="&lt;Path&gt;" fill-rule="evenodd" class="s4" d="m2853.8 1186.8c-0.9 24.3-19.9 45.3-39.1 44.6-19.1-0.6-31-22.7-30.2-47 0.9-24.4 17.1-43.6 36.2-42.9 19.1 0.7 33.9 20.9 33.1 45.3z"/>
								<path id="&lt;Path&gt;" fill-rule="evenodd" class="s0" d="m2795.7 1193.2c-0.5 1.8-2.3 2.8-4.1 2.4-1.8-0.5-2.8-2.3-2.4-4.1 0.5-1.8 2.3-2.8 4.1-2.4 1.8 0.5 2.9 2.3 2.4 4.1z"/>
								<path id="&lt;Path&gt;" fill-rule="evenodd" class="s0" d="m2823.2 1192.2c-0.5 1.9-2.5 3.1-4.4 2.5-2-0.5-3.1-2.4-2.6-4.4 0.5-1.9 2.5-3 4.4-2.5 2 0.5 3.1 2.5 2.6 4.4z"/>
								<path id="&lt;Path&gt;" fill-rule="evenodd" class="s7" d="m2806.3 1193.1c-3 4.9-6.9 10.8-6.9 10.8 0 0 1.8 5.1 8.6 5.2-2.9-1.2-5.7-3.1-4.6-6.9 1.2-3.9 2.9-9.1 2.9-9.1z"/>
								<g id="&lt;Group&gt;">
									<path id="&lt;Path&gt;" fill-rule="evenodd" class="s3" d="m2826.6 1187.6q0.2-0.1 0.4-0.2c0.7-0.5 1-1.6 0.4-2.3-1.3-2.1-5.2-5.6-10-3.9-0.8 0.3-1.3 1.2-1 2.1 0.3 0.8 1.3 1.3 2.2 1 3.5-1.3 6 2.6 6.1 2.6 0.4 0.7 1.2 0.9 1.9 0.7z"/>
								</g>
								<g id="&lt;Group&gt;">
									<path id="&lt;Path&gt;" fill-rule="evenodd" class="s3" d="m2794.8 1185.8q0.3-0.1 0.6-0.4c0.5-0.6 0.4-1.4-0.2-1.9-0.1-0.1-2.3-1.9-5.1-1.4q-2.8 0.4-4.8 3.6c-0.4 0.7-0.2 1.5 0.5 1.9 0.6 0.4 1.5 0.2 1.9-0.4q1.3-2.1 2.9-2.4c1.5-0.3 2.8 0.8 2.8 0.8 0.4 0.3 0.9 0.4 1.4 0.2z"/>
								</g>
								<path id="&lt;Path&gt;" fill-rule="evenodd" class="s3" d="m2778.5 1160.1l40.9-26.9 42.4 30.4-10.7 32.2c1.2-15.5-8.9-11.9-13.1-17.1-4.2-5.3-5.3-12.7-17.8-8.2 0 0-8.4-7.9-14.6 0.5-4.7 6.5-9.6 4.4-14.7 4-6-0.5-5.4 5.5-9 4.8z"/>
								<g id="&lt;Group&gt;">
									<path id="&lt;Path&gt;" fill-rule="evenodd" class="s4" d="m2848.4 1184.9c-3.7 4.3-3.9 10.3-0.4 13.4 3.6 3 9.5 2 13.2-2.3 3.8-4.4 4-10.4 0.4-13.4-3.5-3.1-9.4-2.1-13.2 2.3z"/>
									<g id="&lt;Group&gt;">
										<path id="&lt;Path&gt;" fill-rule="evenodd" class="s7" d="m2853.3 1196.1q-0.3-0.1-0.5-0.3c-2.2-1.9-2.9-4.4-1.8-6.7 1-2.3 3.6-3.8 6-3.5 0.7 0.1 1.2 0.7 1.1 1.4-0.1 0.7-0.7 1.2-1.4 1.1-1.3-0.2-2.8 0.7-3.4 2.1-0.6 1.2-0.2 2.6 1.1 3.8 0.6 0.4 0.6 1.2 0.1 1.7-0.3 0.4-0.8 0.5-1.2 0.4z"/>
									</g>
								</g>
								<path id="&lt;Path&gt;" fill-rule="evenodd" class="s8" d="m2800.5 1218.3c-0.7-0.7-0.2-1.8 0.8-1.8 2.5 0 6.6-0.1 10.4-0.5 3.8-0.5 7.8-1.3 10.2-1.9 1-0.2 1.7 0.8 1.2 1.7-1.5 2.5-4.7 6.6-10.6 7.2-5.9 0.7-10-2.5-12-4.7z"/>
							</g>
						</g>
					</g>
					<g id="v 1 ">
						<path id="v-25 1 " fill-rule="evenodd" class="s11" d="m2859.2 1255.5c-10.7-3.6-22-5.2-33.2-4.9-38.2 0-44 9.6-44 9.4l28.3 77.8 15.7 7.7 17.1-5.1c0 0 22.3-82.5 16.1-84.9z"/>
						<path id="&lt;Path&gt;" fill-rule="evenodd" class="s5" d="m2887.7 1410.1c0 0-30.8 3.2-59.6 3.4-28.9-0.2-59.6-5.8-59.6-5.8 0 0 3.8-53 3.4-73.3-0.5-23.3 1.5-54.3 1.5-85.2 0 0 20.5-3.3 32-4.7 1.9-0.2 3.5-0.4 4.8-0.5 0 0 6.6 13.8 35.2 0 1.5-0.2 3.4-0.2 5.5 0 12 0.7 31.4 5.2 31.4 5.2 0 30.8 1.3 61 0.8 84.3 1.3 20.9 4.6 76.6 4.6 76.6z"/>
					</g>
					<g id="c 5 ">
						<path id="&lt;Path&gt;" fill-rule="evenodd" class="s4" d="m2811.8 1315.9l-7-4c0 0-1.9-9.9-13.1-10.1 1.3 4.1 3.1 10.1 3.1 10.1 0 0-5.5 4.3-18.6-3-12.8-2.9-7.3 6.4-11.6 7.1-6.2 1 4.6 13.3 17.4 15.1 16.5 2.5 18.5-0.9 18.5-0.9l9.3 3.3z"/>
						<path id="c 6 " fill-rule="evenodd" class="s10" d="m2876.4 1326.5c-23.3-1.6-63.1-13.1-63.1-13.1-6.4 9.7-4.6 22.7-4.6 22.7 36.2 31.8 90.7 42.1 107.5 34.4 15.3-7 4.5-100-33.9-121.3l-1.3 0.2c-13.2 22.2-4.6 77.1-4.6 77.1z"/>
					</g>
					<path id="&lt;Path&gt;" fill-rule="evenodd" class="s10" d="m2850.9 1244c-2 3.3-4.8 5.8-8.8 7.8-6.3 3.2-14.8 4.5-20.1 4.1-4.2-0.3-8.8-2-11.8-4.4-3.1-2.5-4.5-5.6-4.8-7 1.9-0.2 3.8-0.5 5.1-0.6 0 0 6.3 13.9 34.9 0.1 1.5-0.2 3.4-0.2 5.5 0z"/>
				</g>
				<g id="&lt;Group&gt;">
					<path id="&lt;Path&gt;" fill-rule="evenodd" class="s12" d="m3019.9 1413.5h-491.7c-5.9 0-10.7-4.8-10.7-10.7 0-5.9 4.8-10.7 10.7-10.7h491.7c6 0 10.7 4.8 10.7 10.7 0 5.9-4.7 10.7-10.7 10.7z"/>
					<path id="&lt;Path&gt;" fill-rule="evenodd" class="s12" d="m2544.5 1643.3h-7.6c-3 0-5.5-2.5-5.5-5.5v-225.1c0-3.1 2.5-5.6 5.5-5.6h7.6c3.1 0 5.6 2.5 5.6 5.6v225.1c0 3-2.5 5.5-5.6 5.5z"/>
					<path id="&lt;Path&gt;" fill-rule="evenodd" class="s12" d="m3012.4 1643.3h-7.7c-3 0-5.5-2.5-5.5-5.5v-225.1c0-3.1 2.5-5.6 5.5-5.6h7.7c3 0 5.5 2.5 5.5 5.6v225.1c0 3-2.5 5.5-5.5 5.5z"/>
				</g>
				<g id="&lt;Group&gt;">
					<path id="&lt;Path&gt;" fill-rule="evenodd" class="s13" d="m2756.5 1392.3h-123.4l-24.3-77.4c-1.1-3.6 1.5-7.2 5.3-7.2h111.7c2.4 0 4.6 1.5 5.3 3.8z"/>
					<path id="&lt;Path&gt;" fill-rule="evenodd" class="s14" d="m2747.1 1392.3h-123.3l-24.4-77.4c-1.1-3.6 1.6-7.2 5.3-7.2h111.7c2.5 0 4.6 1.5 5.3 3.8z"/>
					<path id="&lt;Path&gt;" fill-rule="evenodd" class="s15" d="m2674.5 1351.5c1.4 4.8-1.1 9.7-5.4 10.9-4.3 1.2-9-1.7-10.3-6.4-1.4-4.8 1-9.7 5.4-10.9 4.3-1.3 9 1.6 10.3 6.4z"/>
					<path id="&lt;Path&gt;" fill-rule="evenodd" class="s13" d="m2826.6 1384.2h-79.5v7.9h87.3c0-4.4-3.5-7.9-7.8-7.9z"/>
				</g>
				<g id="&lt;Group&gt;">
					<path id="&lt;Path&gt;" fill-rule="evenodd" class="s1" d="m2602.6 1392.1h-43.2v-44.3c0-4.9 4.1-8.9 9-8.9h25.2c4.9 0 9 4 9 8.9z"/>
					<g id="&lt;Group&gt;">
						<path id="&lt;Path&gt;" fill-rule="evenodd" class="s1" d="m2562.7 1387.1h-9.7c-5 0-9.1-4.1-9.1-9.1v-17.5c0-5 4.1-9.1 9.1-9.1h8c2.2 0 4 1.8 4 4.1 0 2.2-1.8 4-4 4h-8c-0.6 0-1 0.4-1 1v17.5c0 0.6 0.4 1 1 1h9.7c2.2 0 4 1.8 4 4 0 2.3-1.8 4.1-4 4.1z"/>
					</g>
				</g>
				<g id="&lt;Group&gt;">
					<path id="&lt;Path&gt;" fill-rule="evenodd" class="s4" d="m2911.3 1312.3c5.5-2.7 11.7-4.2 13.5-12.1 0 0 15-4 30.6-7.4 0 0-19-17.5-19-17.5-6.2 2.1-17.6 9.8-24.6 10-1.9 0-3.7 0-5.5 0-4.4 0-9.1-0.5-13.8 3-18.4 13.5-25.6 11.2-26.4 12.8-0.6 2.4 4.4 7.1 13.7 2.4 9.1-4.6 13.9-4.6 13.9-4.6 0 0-0.1 7.9 3 10.2 1.4 1 8.1 6.2 14.6 3.2z"/>
					<path id="&lt;Path&gt;" fill-rule="evenodd" class="s2" d="m2929.3 1274.7c0 0 48.8-23.6 85.9-31.2-5.1-18.6 3.3-104.4 3.3-104.4 0 0 25 6.2 37.5 52.7 12.4 46.4-16.1 93.7-16.1 93.7 0 0-77 21.4-104.5 13.6-4.3-1.2-6.1-24.4-6.1-24.4z"/>
				</g>
			</g>
			<g id="&lt;Group&gt;">
				<g id="&lt;Group&gt;">
					<path id="&lt;Path&gt;" fill-rule="evenodd" class="s0" d="m1405.6 1605.8c-13 17.4-45.6 9.7-44.6 33.2 48.7-0.3 69.9 0.2 69.9 0.2-0.1-5.4-1.4-25.6-2.5-30.7z"/>
				</g>
				<g id="&lt;Group&gt;">
					<path id="&lt;Path&gt;" fill-rule="evenodd" class="s0" d="m1489.8 1605.8c13 17.4 45.6 9.7 44.6 33.2-48.7-0.3-69.9 0.2-69.9 0.2 0-5.4 1.4-25.6 2.5-30.7z"/>
				</g>
				<g id="&lt;Group&gt;">
					<path id="&lt;Path&gt;" fill-rule="evenodd" class="s2" d="m1376.6 1131.6c0 0-39.5 21.4-64.8 41.3l-13.6 41.3c26.3-3.1 91.5-31.7 91.5-31.7z"/>
					<path id="&lt;Path&gt;" fill-rule="evenodd" class="s4" d="m1290.4 1086.9c1.2 6.3 1.1 13 8.7 17 0 0-3 20.4-3.6 37.2 0 0 20.8-19.7 20.8-19.7-0.5-6.8-0.3-19.7 1.4-26.9 0.4-1.8 1-3.7 1.4-5.5 1.2-4.5 3-9.1 0.7-14.9-8.9-22.3-4.7-29-6.1-30.2-2.3-1.3-8.3 2.5-6.1 13.3 2.3 10.5 1.1 15.4 1.1 15.4 0 0-8.1-2.3-11.2 0.3-1.4 1.2-8.6 6.6-7.1 14z"/>
					<path id="&lt;Path&gt;" fill-rule="evenodd" class="s2" d="m1293.1 1107.6l26.2 3.9 12.8 73.9-33.9 28.8c-7.3-14.5-13.6-74.4-5.1-106.6z"/>
				</g>
				<path id="&lt;Path&gt;" fill-rule="evenodd" class="s2" d="m1497.1 1290.8c-33.5 4-67.4 4.1-101.7 0.2l-7.8 167.6c0 0 4.4 111 10.2 149.9l36.9-0.1c-2.4-45.3 4.6-149.9 4.6-149.9l7.3-95.6 7.4 95.6c0 0 7.2 104.6 5 149.9l38.4-0.1c5.7-39 8.1-149.9 8.1-149.9z"/>
				<path id="&lt;Path&gt;" fill-rule="evenodd" class="s2" d="m1509.2 1132.1c0 0 22.6 45.6 36.3 74.6l-12.5 40.3c-22.2-14.6-58.3-75.1-58.3-75.1z"/>
				<path id="&lt;Path&gt;" fill-rule="evenodd" class="s1" d="m1464.6 1121.2l-45.8 2.1-4.7 44.8 5 128 48.4-0.6 12.6-143.3z"/>
				<path id="&lt;Path&gt;" fill-rule="evenodd" class="s3" d="m1414.3 1052.2c6.4-7.4 11.4-0.3 20.5-9.3 9.1-9.1 16.4-15.7 24.2-6.1 7.8 9.6 11.8 10.9 17.5 10.4 5.7-0.6 5.6 22.8 5.6 22.8 0 0 22.3-5.6 19.4-21.9-3.4-18.1-11.6-12.9-16.2-27.5-4.6-14.6-22.3-22.9-30.4-19.4-8.6 3.7-13.1 7.8-25.5 4.8-12.5-3.1-23.2 0.6-23.2 16.8 0 16.1-19 11.3-12.9 31.5 2.4 7.8 9 15 12 14.4 4.2-0.9 4.9-11.8 9-16.5z"/>
				<path id="&lt;Path&gt;" fill-rule="evenodd" class="s6" d="m1466.7 1290.2v13.4h-45v-13.4z"/>
				<path id="&lt;Path&gt;" fill-rule="evenodd" class="s7" d="m1426.3 1132.5l15.9 12.6 16.2-12.6 2.1-30.8h-36.4z"/>
				<g id="&lt;Group&gt;">
					<path id="&lt;Path&gt;" fill-rule="evenodd" class="s3" d="m1376.5 1131.6l0.8 200.5c15.6 12.8 46.2 16.3 46.2 16.3l-5.5-222.1z"/>
					<path id="&lt;Path&gt;" fill-rule="evenodd" class="s3" d="m1509.3 1131.6l-0.9 200.5c-15.6 12.8-46.2 16.3-46.2 16.3l5.6-222.1z"/>
				</g>
				<path id="&lt;Path&gt;" fill-rule="evenodd" class="s6" d="m1395.6 1152.6l26.3 113.7-4-142z"/>
				<path id="&lt;Path&gt;" fill-rule="evenodd" class="s6" d="m1491.6 1144.8l-27 122.8 3.2-141.3z"/>
				<path id="&lt;Path&gt;" fill-rule="evenodd" class="s4" d="m1445.9 1021.3c-47-1.1-36.3 62.2-32.9 72.1 1.9 5.5 13.8 26.3 33 26.6 19.2-0.3 30.9-21.1 32.7-26.6 3.5-9.9 15.8-71.4-32.8-72.1z"/>
				<g id="&lt;Group&gt;">
					<path id="&lt;Path&gt;" fill-rule="evenodd" class="s3" d="m1440.3 1063.2c0.4-0.3 0.8-0.7 1-1.3 0.4-1.1-0.3-2.3-1.4-2.7-0.3-0.1-8.5-2.7-15.9 2.6-1 0.7-1.2 2.1-0.5 3 0.7 1 2.1 1.2 3.1 0.5 5.6-4 11.9-2 12-2 0.5 0.2 1.2 0.1 1.7-0.1z"/>
				</g>
				<g id="&lt;Group&gt;">
					<path id="&lt;Path&gt;" fill-rule="evenodd" class="s3" d="m1460.7 1062.6c-0.5-0.3-0.9-0.7-1.1-1.3-0.3-1.1 0.3-2.3 1.4-2.7 0.4-0.1 8.5-2.7 15.9 2.6 1 0.7 1.2 2.1 0.5 3-0.7 1-2 1.2-3 0.5-5.6-4-11.9-2-12-2-0.6 0.2-1.2 0.1-1.7-0.1z"/>
				</g>
				<path id="&lt;Path&gt;" fill-rule="evenodd" class="s0" d="m1466.4 1074.4c-2.1 0-3.9-1.8-3.9-3.9 0-2.1 1.8-3.8 3.9-3.8 2.1 0 3.8 1.7 3.8 3.8 0 2.1-1.7 3.9-3.8 3.9z"/>
				<path id="&lt;Path&gt;" fill-rule="evenodd" class="s0" d="m1433.5 1074.4c-2.1 0-3.8-1.8-3.8-3.9 0-2.1 1.7-3.8 3.8-3.8 2.1 0 3.8 1.7 3.8 3.8 0 2.1-1.7 3.9-3.8 3.9z"/>
				<path id="&lt;Path&gt;" fill-rule="evenodd" class="s7" d="m1453 1074.2c3.1 4.9 7 10.9 7 10.9 0 0-1.8 5.1-8.6 5.2 2.9-1.2 5.7-3.1 4.5-7-1.1-3.8-2.9-9.1-2.9-9.1z"/>
				<g id="&lt;Group&gt;">
					<path id="&lt;Path&gt;" fill-rule="evenodd" class="s5" d="m1446.4 1156.9l8 108-12 14.2-12.1-14.2 8.2-107.7z"/>
					<path id="&lt;Path&gt;" fill-rule="evenodd" class="s5" d="m1450.8 1145.3l-8-2.1-8.2 2.5 3.9 11.7 7.9-0.1z"/>
					<path id="&lt;Path&gt;" fill-rule="evenodd" class="s8" d="m1442.4 1143.2c0 0-5.3 7.8-14.8 12.2l-15.8-24 7-8.1z"/>
					<path id="&lt;Path&gt;" fill-rule="evenodd" class="s8" d="m1442.4 1143.2c0 0 7.7 9 15.1 11.7l14.3-25.9-6.7-7.8z"/>
				</g>
				<path id="&lt;Path&gt;" fill-rule="evenodd" class="s2" d="m1604.2 1198.5l-6.2-24-61.2 26.8-3.8 45.7c16.1-1.6 48.7-24 71.2-48.5z"/>
				<path id="&lt;Path&gt;" fill-rule="evenodd" class="s8" d="m1462.1 1098.8c0.7-1 0.1-2.5-0.9-2.4-2.4 0.3-6.5 0.7-10.4 0.5-3.9-0.2-8-0.9-10.4-1.4-1-0.2-1.7 1.3-1.1 2.3 1.6 3.4 5.1 8.5 11.1 8.7 5.9 0.3 9.8-4.5 11.7-7.7z"/>
				<path id="&lt;Path&gt;" fill-rule="evenodd" class="s3" d="m1408.7 1063.6c5.3 1.7 6.8-36.3 27.5-22.5 14.5 9.7 41.3 12.1 35.9-1 4.3 3.2 9.3 8.3 9.3 8.3l-7.7-25.4c0 0-39.4-12.4-53.4 0.2-14 12.5-11.6 40.4-11.6 40.4z"/>
				<path id="&lt;Path&gt;" fill-rule="evenodd" class="s4" d="m1418.5 1067.9c3.1 6.1 1.3 13.3-4.1 16-5.3 2.8-12.2 0-15.3-6.1-3.2-6.2-1.3-13.4 4-16.1 5.4-2.7 12.3 0 15.4 6.2z"/>
				<g id="&lt;Group&gt;">
					<path id="&lt;Path&gt;" fill-rule="evenodd" class="s7" d="m1410.4 1080.7q-0.2 0-0.4 0c-0.8-0.3-1.2-1.1-1-1.8 1.2-3.8 1.1-6.6-0.3-8.2-1.8-2.2-5.4-1.8-5.4-1.8-0.8 0.1-1.5-0.5-1.6-1.3-0.1-0.8 0.5-1.4 1.2-1.5 0.3-0.1 5.2-0.6 8 2.8 2 2.4 2.3 6 0.8 10.8-0.2 0.6-0.7 1-1.3 1z"/>
				</g>
				<g id="&lt;Group&gt;">
					<g id="&lt;Group&gt;">
						<g id="&lt;Group&gt;">
							<path id="&lt;Path&gt;" fill-rule="evenodd" class="s5" d="m1646.8 1159.6l-3.2 13.1-4.6 18.3-3.5 14-27.6-3.2-0.1-14.4-0.3-18.9-0.1-13.5z"/>
						</g>
						<path id="&lt;Path&gt;" fill-rule="evenodd" class="s10" d="m1603.4 1154.5l47.4 5.5-0.2-5-45.8-5.4z"/>
						<path id="&lt;Path&gt;" fill-rule="evenodd" class="s10" d="m1647 1154.6l-38.6-4.6 1.3-4.7 37 4.3z"/>
						<path id="&lt;Path&gt;" fill-rule="evenodd" class="s10" d="m1635.5 1205l-1.3 4.9-26.2-3.1-0.1-5z"/>
						<path id="&lt;Path&gt;" fill-rule="evenodd" class="s10" d="m1643.6 1172.7l-4.6 18.3-31.2-3.6-0.3-18.9z"/>
					</g>
					<path id="c 3 " fill-rule="evenodd" class="s4" d="m1634.3 1188.5q0.4-0.3 0.9-0.5 0 0-0.1-0.1c-2.1-2.9-2.1-6.5 0-8q0.5-0.4 1.1-0.6c-0.6-2.2-0.2-4.3 1.3-5.4 0.6-0.4 1.3-0.6 2-0.6-0.7-2.2-0.3-4.5 1.4-5.7 2.1-1.5 5.2-0.7 7 1.8 1.8 2.5 1.6 5.7-0.5 7.2q-0.8 0.6-1.7 0.7c1.5 2.8 1.3 5.8-0.6 7.2q-0.5 0.4-1.1 0.5c0.6 2.2 0.2 4.4-1.3 5.4q-0.8 0.6-1.8 0.7c0.7 1.9 0.4 3.9-1.1 5-1.8 1.3-4.4 0.6-6-1.5-1.5-2.1-1.3-4.8 0.5-6.1z"/>
					<path id="&lt;Path&gt;" fill-rule="evenodd" class="s4" d="m1608 1179.4c2-0.8 4.6-3.4 5.9-8 1.4-4.7 12.3-7.7 8.4-10.2-3.9-2.5-16-0.4-20.6 10.1-2.5 2.6-3.7 3.2-3.7 3.2l5.5 21.6 4.4-0.9z"/>
				</g>
			</g>
			<g id="&lt;Group&gt;">
				<g id="&lt;Group&gt;">
					<path id="&lt;Path&gt;" fill-rule="evenodd" class="s0" d="m1814.8 1043.8c-28.6-8-89.7 17.8-73.1 121.9 16.7 104 95.4 86.9 95.4 86.9 0 0 34.4-10.8 37.5-76.9 3-66.1-11.7-118.3-59.8-131.9z"/>
					<path id="&lt;Path&gt;" fill-rule="evenodd" class="s10" d="m1791 1170.2c0 0-5.8 59.3-55 89.8-8.6-2.3-16.9-22.5-16.9-22.5l26.9-65c0 0 9.6-14 26.6-13.8 14.8 0.2 18.4 11.5 18.4 11.5z"/>
					<g id="&lt;Group&gt;">
						<g id="&lt;Group&gt;">
							<g id="&lt;Group&gt;">
								<path id="&lt;Path&gt;" fill-rule="evenodd" class="s4" d="m1790 1138.3l21.3-3.2-1.7 19.8c0 0-10.8 19.5-21 16.1-10.3-3.3-5.3-11.9-5.3-11.9z"/>
							</g>
						</g>
					</g>
					<g id="&lt;Group&gt;">
						<path id="&lt;Path&gt;" fill-rule="evenodd" class="s4" d="m1828.4 1106.2c-3.5 23.4-21.2 40.2-39.6 37.4-18.3-2.7-30.4-23.8-27-47.2 3.5-23.4 21.2-40.2 39.6-37.4 18.3 2.7 30.4 23.8 27 47.2z"/>
						<g id="&lt;Group&gt;">
							<path id="&lt;Path&gt;" fill-rule="evenodd" class="s0" d="m1804.8 1099.7q-0.4-0.1-0.6-0.4c-2.4-3.5-7.2-3.4-7.3-3.4-0.6 0.1-1.2-0.5-1.2-1.1 0-0.7 0.5-1.3 1.2-1.3 0.2 0 6.1-0.1 9.2 4.4 0.4 0.5 0.3 1.3-0.3 1.7-0.3 0.2-0.7 0.2-1 0.1z"/>
						</g>
						<g id="&lt;Group&gt;">
							<path id="&lt;Path&gt;" fill-rule="evenodd" class="s0" d="m1763.8 1099.1q-0.1-0.1-0.3-0.2c-0.5-0.5-0.6-1.3-0.1-1.8 3.3-3.9 8-2.8 8.2-2.8 0.7 0.2 1.1 0.8 0.9 1.5-0.2 0.6-0.8 1-1.5 0.9-0.1-0.1-3.4-0.8-5.8 2-0.3 0.4-0.9 0.5-1.4 0.4z"/>
						</g>
						<path id="&lt;Path&gt;" fill-rule="evenodd" class="s7" d="m1780.8 1109c-1.5 1.8-2.8 3.7-4.4 4.9-0.5 0.4-0.6 1.1-0.2 1.7 1.5 2.1 5.4 3.7 7.8 4.5 0.4 0.1 0.6-0.4 0.3-0.6-2.5-1.8-3.6-3.3-4.1-4.1-0.3-0.4-0.3-0.8-0.1-1.3 0.4-1 1.1-3 1.7-4.6 0.1-0.6-0.6-1-1-0.5z"/>
						<path id="&lt;Path&gt;" fill-rule="evenodd" class="s8" d="m1796.2 1126.6c0.5-0.7-0.1-1.6-1-1.5-2.1 0.4-5.7 1-9.1 1.2-3.4 0.2-6.9 0-9.1-0.1-0.9 0-1.3 1-0.8 1.6 1.7 2 5.1 5 10.3 4.7 5.2-0.3 8.3-3.7 9.7-5.9z"/>
						<path id="&lt;Path&gt;" fill-rule="evenodd" class="s0" d="m1835.8 1104.1c-21.7-1-50.3-21-53.7-32.1 3-13.8 13.9-21.6 26.9-16.5 13.1 5.2 34.4 30.8 26.8 48.6z"/>
						<path id="&lt;Path&gt;" fill-rule="evenodd" class="s0" d="m1787 1077.6c0 0-12.9 13.1-26 16.1 4.6-15.3 7.9-26.9 15.7-30.7 7.9-3.7 16.6-4.4 16.6-4.4z"/>
						<g id="&lt;Group&gt;">
							<path id="&lt;Path&gt;" fill-rule="evenodd" class="s4" d="m1823.3 1102.6c-4.1 3.8-4.9 9.5-1.8 12.9 3.1 3.3 8.9 2.9 13-0.8 4.1-3.8 4.9-9.6 1.8-12.9-3.1-3.4-9-3-13 0.8z"/>
							<g id="&lt;Group&gt;">
								<path id="&lt;Path&gt;" fill-rule="evenodd" class="s7" d="m1826.8 1114q-0.3-0.1-0.5-0.4c-1.8-2-2.2-4.5-1-6.6 1.3-2.2 3.9-3.3 6.2-2.8 0.7 0.2 1.1 0.8 0.9 1.5-0.1 0.6-0.8 1-1.4 0.9-1.3-0.3-2.9 0.4-3.6 1.6-0.7 1.2-0.4 2.5 0.7 3.8 0.5 0.5 0.4 1.3-0.1 1.7-0.3 0.4-0.8 0.4-1.2 0.3z"/>
							</g>
						</g>
						<path id="&lt;Path&gt;" fill-rule="evenodd" class="s0" d="m1798.7 1107c-2 0-3.7-1.6-3.7-3.7 0-2.1 1.7-3.7 3.7-3.7 2.1 0 3.8 1.6 3.8 3.7 0 2.1-1.7 3.7-3.8 3.7z"/>
						<path id="&lt;Path&gt;" fill-rule="evenodd" class="s0" d="m1771.5 1107c-2 0-3.7-1.6-3.7-3.7 0-2.1 1.7-3.7 3.7-3.7 2.1 0 3.8 1.6 3.8 3.7 0 2.1-1.7 3.7-3.8 3.7z"/>
					</g>
					<g id="&lt;Group&gt;">
						<path id="&lt;Path&gt;" fill-rule="evenodd" class="s4" d="m1770 1586.5c1.4-14.2-5.9-122.6-5.9-122.6-20.8-95.3-12.6-163.5-12.6-163.5l35.7 2.5 14.1 53.9-6.7 89.9c0 0 2.5 6.9 3.8 12.4 7.2 30 0 65.9-4.4 89.8-2 11.1-5.2 34.4-5.3 39.7l9 11.6c0 0-32.5 35.9-37.5 36.1-9.7 0.5-6.8-9.1-6.8-9.1 13.3-13.7 16.2-36.6 16.6-40.7z"/>
						<path id="&lt;Path&gt;" fill-rule="evenodd" class="s5" d="m1798.2 1612.9l-1.7 23.1-4.2 0.2-2.1-21.5c-11 2.9-19 22.9-19 22.9-7.6 2.7-26.9 4.6-33.8 1.1-1.6-6.8 16-11.5 16-11.5 1.6 1.9 11 3.3 14.4 1.3 12.3-10.5 18.3-25.7 20.9-39.9 0 0 19.5 1.3 9.5 24.3z"/>
					</g>
					<g id="&lt;Group&gt;">
						<path id="&lt;Path&gt;" fill-rule="evenodd" class="s4" d="m1782.1 1307.3l50.3-6.9c19.2 43.5 25.5 119.4 30.7 146.4 21 35.1 27.7 141.8 27.7 141.8l9 11.6c0 0-32.5 35.9-37.5 36.1-9.7 0.5-6.9-9.1-6.9-9.1 13.4-13.7 16-32 16.8-36 1.3-6-40.7-124.3-40.7-124.3l-4.5-11.2c-51.3-84.8-59.7-148.9-59.7-148.9z"/>
						<path id="&lt;Path&gt;" fill-rule="evenodd" class="s5" d="m1900.3 1612.9l-1.8 23.1-4.1 0.2-2.1-21.5c-11.1 2.9-19 22.9-19 22.9-7.6 2.7-26.9 4.6-33.8 1.1-1.7-6.8 16-11.5 16-11.5 1.6 1.9 11 3.3 14.3 1.3 12.3-10.5 18.4-25.7 21-39.9 0 0 19.4 1.3 9.5 24.3z"/>
					</g>
					<g id="&lt;Group&gt;">
						<g id="&lt;Group&gt;">
							<g id="&lt;Group&gt;">
								<g id="&lt;Group&gt;">
									<path id="&lt;Path&gt;" fill-rule="evenodd" class="s16" d="m1875.6 1441.8c-5-16.8-2.8-137.1-47.2-169.8l-76.3 8c-17.6 28.6-11.2 102.8-5.2 164 35.9 12.8 64.4 17.9 128.7-2.2z"/>
								</g>
							</g>
						</g>
					</g>
					<g id="&lt;Group&gt;">
						<g id="&lt;Group&gt;">
							<g id="&lt;Group&gt;">
								<path id="&lt;Path&gt;" fill-rule="evenodd" class="s5" d="m1751.2 1261.2c0-16.7-14.5-41.8-7.6-58.7 5.1-13.5 15-44.2 25.9-46.2 4.3-0.9 9.2 0 15.3-1.7 0 0-3.2 14.2 3.9 14.7 13.8 1.1 21-16.5 21-16.5 7.5-0.7 33.3 7 33.3 9.8-0.1 21.9-6.6 52.3-12.4 76-1.1 12 1.7 21.8 2.9 28.6 2.2 7.1 5.8 14.9 5.8 16.5 0 0-56.9 18.2-89.4 0.3 0 0 1.3-11.5 1.3-22.8z"/>
							</g>
						</g>
					</g>
					<path id="&lt;Path&gt;" fill-rule="evenodd" class="s8" d="m1788.7 1169.3c-1.2 5.8 2.1 12.6 11.7 9.4 11.5-3.8 16.9-25.4 16.9-25.4l-7.2-3.9c0 0-5.5 14.9-21.4 19.9z"/>
					<path id="&lt;Path&gt;" fill-rule="evenodd" class="s8" d="m1788.7 1169.3c-1.4 3-9.5 10.6-13.3 6-3.8-4.5 1.9-19.6 1.9-19.6l7.6-2.1c0 0-3.6 11.6 3.8 15.7z"/>
					<path id="&lt;Path&gt;" fill-rule="evenodd" class="s10" d="m1842.6 1161.7c0 0 43.5 53.7 36.6 80.8-19 14-28.7-2.3-28.7-2.3l-25.3-41.5c0 0-10.5-14.4-2.5-28.6 6.9-12.4 19.9-8.4 19.9-8.4z"/>
					<g id="&lt;Group&gt;">
						<path id="&lt;Path&gt;" fill-rule="evenodd" class="s8" d="m1783.9 1283.4h-19.3c-1.6 0-2.9-1.2-3-2.8l-2.8-44.4c0-1.1 0.8-2 1.8-2h27.3c1.1 0 1.9 0.9 1.8 2l-2.9 44.4c-0.1 1.6-1.4 2.8-2.9 2.8z"/>
						<path id="&lt;Path&gt;" fill-rule="evenodd" class="s17" d="m1787.6 1246.3l-2.1 33.1c-0.1 1.4-1.3 2.6-2.7 2.6h-17c-1.4 0-2.6-1.2-2.7-2.6l-1.9-32.3c3.5-1.2 8.3-2 13.1 0.5 4.5 2.4 10.7-0.1 13.3-1.3z"/>
					</g>
					<g id="&lt;Group&gt;">
						<path id="&lt;Path&gt;" fill-rule="evenodd" class="s4" d="m1800.6 1258.2c0 0 30-14.4 39.8-19.9 10.3-5.8 22.6-13.4 38.8 4.2-5 19.4-28.9 30.4-79 29.7 0.8-7.3 0.4-14 0.4-14z"/>
						<path id="&lt;Path&gt;" fill-rule="evenodd" class="s4" d="m1800.6 1258.2c-6-2.7-7-13.5-11.6-11.1-0.3 4.9-0.5 6.9-0.6 9.6-0.1 3.5-22.3 1.3-28.5-0.5-5 4.8-4.9 10.5-0.6 17.7 3.5 5.9 15.8 13.3 40.9-1.7 2-8.3 0.4-14 0.4-14z"/>
					</g>
					<g id="&lt;Group&gt;">
						<path id="&lt;Path&gt;" fill-rule="evenodd" class="s4" d="m1663 1275.1c0 0 46.8-35.6 57.9-37.6 4.9-0.9 10.2 10.2 15.1 22.5-16.1 13.9-39.5 24.6-71.3 28.9-0.3-7.2-1.7-13.8-1.7-13.8z"/>
						<g id="&lt;Group&gt;">
							<g id="&lt;Group&gt;">
								<g id="&lt;Group&gt;">
									<g id="&lt;Group&gt;">
										<path id="&lt;Path&gt;" fill-rule="evenodd" class="s4" d="m1655.4 1298.7c3.8-3.7 6.1-9.6 11.7-10.1l2.6-9.6-4.3-4.6c-16.5-3-34.1 10.4-35.7 11.9-4.1 3.8-6.3 5.4-6 6.2 0.2 0.8 3 5.2 9.2-0.2 7.7-6.7 9.2 3.7-10.4 13.9-4.9 2.5-9.5 11.4-4.4 11.3 5.7-0.1 20.2-2 37.3-18.8z"/>
									</g>
								</g>
							</g>
						</g>
					</g>
				</g>
			</g>
			<g id="&lt;Group&gt;">
				<g id="&lt;Group&gt;">
					<path id="&lt;Path&gt;" fill-rule="evenodd" class="s17" d="m2038.9 1329.5h-66.8c-26.7 0-48.4-21.7-48.4-48.4v-124.3c0-26.8 21.7-48.5 48.4-48.5h66.8c26.8 0 48.5 21.7 48.5 48.5v124.3c0 26.7-21.7 48.4-48.5 48.4z"/>
					<g id="&lt;Group&gt;">
						<path id="&lt;Path&gt;" fill-rule="evenodd" class="s9" d="m2086.7 1156.3h-162.4c-2.9 0-5.3-2.4-5.3-5.4 0-3 2.4-5.4 5.3-5.4h162.4c3 0 5.4 2.4 5.4 5.4 0 3-2.4 5.4-5.4 5.4z"/>
						<path id="&lt;Path&gt;" fill-rule="evenodd" class="s9" d="m2086.7 1292.3h-162.4c-2.9 0-5.3-2.4-5.3-5.4 0-2.9 2.4-5.3 5.3-5.3h162.4c3 0 5.4 2.4 5.4 5.3 0 3-2.4 5.4-5.4 5.4z"/>
					</g>
					<path id="&lt;Path&gt;" fill-rule="evenodd" class="s17" d="m2027.6 1327.9v8.2h-44.2v-8.2z"/>
				</g>
				<g id="&lt;Group&gt;">
					<path id="&lt;Path&gt;" fill-rule="evenodd" class="s18" d="m2057 1638.8h-100.8c-16.7 0-30.2-13.5-30.2-30.3v-242.1c0-16.7 13.5-30.3 30.2-30.3h100.8c16.7 0 30.2 13.6 30.2 30.3v242.1c0 16.8-13.5 30.3-30.2 30.3z"/>
					<path id="&lt;Path&gt;" fill-rule="evenodd" class="s9" d="m2052.5 1479.5h-90.5c-9.4 0-17-7.6-17-16.9v-76.7c0-9.4 7.6-17 17-17h90.5c9.4 0 17 7.6 17 17v76.7c0 9.3-7.6 16.9-17 16.9z"/>
					<path id="&lt;Path&gt;" fill-rule="evenodd" class="s18" d="m2060.6 1384.4v79.6c0 4.3-3.4 7.7-7.6 7.7h-91.5c-4.3 0-7.7-3.4-7.7-7.7v-79.6c0-4.2 3.4-7.7 7.7-7.7h91.5c4.2 0 7.6 3.5 7.6 7.7z"/>
					<g id="&lt;Group&gt;">
						<path id="&lt;Path&gt;" fill-rule="evenodd" class="s3" d="m1981.8 1416.5c-5.6 0-10.1-4.5-10.1-10.1 0-5.6 4.5-10.1 10.1-10.1 5.6 0 10.1 4.5 10.1 10.1 0 5.6-4.5 10.1-10.1 10.1z"/>
						<path id="&lt;Path&gt;" fill-rule="evenodd" class="s3" d="m1981.8 1425.4c-2.1 0-3.7-1.7-3.7-3.8v-9c0-2.1 1.6-3.8 3.7-3.8 2.1 0 3.7 1.7 3.7 3.8v9c0 2.1-1.6 3.8-3.7 3.8z"/>
						<path id="&lt;Path&gt;" fill-rule="evenodd" class="s8" d="m1986.4 1385.6v12.3c0 2.1-1.6 3.7-3.7 3.7h-1.8c-2 0-3.7-1.6-3.7-3.7v-12.3c0-2 1.7-3.7 3.7-3.7h1.8c2.1 0 3.7 1.7 3.7 3.7z"/>
						<path id="&lt;Path&gt;" fill-rule="evenodd" class="s5" d="m1986.4 1385.6v4.5h-9.2v-4.5c0-2 1.7-3.7 3.7-3.7h1.8c2.1 0 3.7 1.7 3.7 3.7z"/>
					</g>
					<g id="&lt;Group&gt;">
						<path id="&lt;Path&gt;" fill-rule="evenodd" class="s3" d="m2025.8 1416.5c-5.5 0-10-4.5-10-10.1 0-5.6 4.5-10.1 10-10.1 5.6 0 10.1 4.5 10.1 10.1 0 5.6-4.5 10.1-10.1 10.1z"/>
						<path id="&lt;Path&gt;" fill-rule="evenodd" class="s3" d="m2025.8 1425.4c-2 0-3.7-1.7-3.7-3.8v-9c0-2.1 1.7-3.8 3.7-3.8 2.1 0 3.8 1.7 3.8 3.8v9c0 2.1-1.7 3.8-3.8 3.8z"/>
						<path id="&lt;Path&gt;" fill-rule="evenodd" class="s8" d="m2030.4 1385.6v12.3c0 2.1-1.6 3.7-3.6 3.7h-1.9c-2 0-3.7-1.6-3.7-3.7v-12.3c0-2 1.7-3.7 3.7-3.7h1.9c2 0 3.6 1.7 3.6 3.7z"/>
						<path id="&lt;Path&gt;" fill-rule="evenodd" class="s17" d="m2030.4 1385.6v4.5h-9.2v-4.5c0-2 1.7-3.7 3.7-3.7h1.9c2 0 3.6 1.7 3.6 3.7z"/>
					</g>
					<path id="&lt;Path&gt;" fill-rule="evenodd" class="s3" d="m2060.6 1464c0 4.3-3.4 7.7-7.6 7.7h-91.5c-4.3 0-7.7-3.4-7.7-7.7z"/>
					<path id="&lt;Path&gt;" fill-rule="evenodd" class="s9" d="m2064.8 1512.2h-116c-2.6 0-4.8-2.1-4.8-4.8 0-2.6 2.2-4.7 4.8-4.7h116c2.6 0 4.7 2.1 4.7 4.7 0 2.7-2.1 4.8-4.7 4.8z"/>
				</g>
				<path id="&lt;Path&gt;" fill-rule="evenodd" class="s19" d="m1982.4 1257.6c2.2 2.2 2.2 5.9 0 8.1-2.2 2.3-5.9 2.3-8.1 0-2.3-2.2-2.3-5.9 0-8.1 2.2-2.2 5.9-2.2 8.1 0z"/>
				<path id="&lt;Compound Path&gt;" fill-rule="evenodd" class="s19" d="m1968.4 1237c-1.2 0-2.4 0.5-3.3 1.4-1.9 1.9-1.9 4.9 0 6.7 0.9 1 2.1 1.4 3.3 1.4 1.3 0 2.5-0.4 3.4-1.4 1.9-1.8 1.9-4.8 0-6.7-0.9-0.9-2.1-1.4-3.4-1.4zm0 1.9c0.8 0 1.5 0.3 2.1 0.8 1.1 1.2 1.1 3 0 4.1-0.6 0.6-1.3 0.9-2.1 0.9-0.7 0-1.5-0.3-2-0.9-1.1-1.1-1.1-2.9 0-4.1 0.5-0.5 1.3-0.8 2-0.8z"/>
				<path id="&lt;Path&gt;" fill-rule="evenodd" class="s19" d="m2018 1230c2.3 2.2 2.3 5.8 0 8.1-2.2 2.2-5.8 2.2-8.1 0-2.2-2.3-2.2-5.9 0-8.1 2.3-2.3 5.9-2.3 8.1 0z"/>
				<path id="&lt;Path&gt;" fill-rule="evenodd" class="s19" d="m2038 1187.4c2.2 2.2 2.2 5.9 0 8.1-2.3 2.2-5.9 2.2-8.1 0-2.3-2.2-2.3-5.9 0-8.1 2.2-2.3 5.8-2.3 8.1 0z"/>
				<path id="&lt;Path&gt;" fill-rule="evenodd" class="s19" d="m2022.8 1313.2c1.6 1.6 1.6 4.1 0 5.7-1.5 1.6-4.1 1.6-5.7 0-1.6-1.6-1.6-4.1 0-5.7 1.6-1.6 4.2-1.6 5.7 0z"/>
				<path id="&lt;Path&gt;" fill-rule="evenodd" class="s19" d="m2031.3 1298.1c1.5 1.6 1.5 4.2 0 5.7-1.6 1.6-4.2 1.6-5.8 0-1.5-1.5-1.5-4.1 0-5.7 1.6-1.6 4.2-1.6 5.8 0z"/>
				<path id="&lt;Path&gt;" fill-rule="evenodd" class="s19" d="m1987.3 1132.3c1.6 1.5 1.6 4.1 0 5.7-1.6 1.5-4.1 1.5-5.7 0-1.6-1.6-1.6-4.2 0-5.7 1.6-1.6 4.1-1.6 5.7 0z"/>
			</g>
			<g id="&lt;Group&gt;">
				<g id="&lt;Group&gt;">
					<path id="&lt;Path&gt;" fill-rule="evenodd" class="s13" d="m2236.7 1598.2c9.3 39.3 42.8 17.7 35.8 42.6-0.5 1.8-2.2 3-4.1 3.1l-19.7 0.7c-1.9 0.1-3.8-0.4-5.3-1.5-10.4-7.1-17.4-17.1-39.8-18.3 0.1-9.6-0.3-23.2 2.9-28.1z"/>
					<path id="&lt;Path&gt;" fill-rule="evenodd" class="s2" d="m2184.9 1322.2c0 0 57.1 87.2 65 114.3 7.9 27.1-8.6 73.1-5.6 165.7-17.9 4.7-41.7 0.7-41.7 0.7 0 0-14.3-116.2 2.5-143.6-25.2-38.6-88.7-122.8-88.7-122.8z"/>
				</g>
				<g id="&lt;Group&gt;">
					<path id="&lt;Path&gt;" fill-rule="evenodd" class="s13" d="m2153.2 1610.9c14.5 19.8 50.8 8.1 49.4 34.6-55.1-0.8-77.9-0.7-77.9-0.7 0.1-6.1 1.3-20.6 2.6-26.3z"/>
					<path id="&lt;Path&gt;" fill-rule="evenodd" class="s3" d="m2170.2 1304.6c0 0 18.2 142.2 14 170.2-4.2 27.9-17.2 49.8-17.7 142.4-18 4-45.5 7.6-45.5 7.6 0 0-11.7-111.8 12.2-142.6-6.7-45.6-39-160.3-39-160.3z"/>
				</g>
				<g id="&lt;Group&gt;">
					<path id="&lt;Path&gt;" fill-rule="evenodd" class="s10" d="m2263.6 1242l22.2-25c0.5-0.5 1.2-0.8 1.9-0.8l18.3-0.1c0.6 0 2.2 2.8 1.8 3.2l-15.7 14q-0.1 0.1-0.2 0.1l-26.9 10c-0.6 0.2-1.8-1-1.4-1.4z"/>
					<path id="&lt;Path&gt;" fill-rule="evenodd" class="s5" d="m2265.3 1243.6l21.2-23.5c0.5-0.5 1.2-0.8 1.9-0.8l18.8-0.4c0.6 0 0.8 0.6 0.5 1l-14.9 16.5q-0.1 0.1-0.3 0.1l-26.6 8.1c-0.6 0.2-1-0.5-0.6-1z"/>
					<path id="&lt;Path&gt;" fill-rule="evenodd" class="s4" d="m2223.5 1265.1l15.3-7.6c0 0 15.1-15.2 17.3-18.7 3.4-1.7 9.8-5.9 11.2-6.1 1.4-0.2 4.3 0.3 4.3 0.3l-7.1 8c0 0 3.4 0.7 7.7-2 4.3-2.7 11.9-10.1 15.6-8.6 1.3 1.1 1.3 1.1 1.3 1.1 0 0 2.4-2.5 4.6-1.6 2.2 1-2.2 12-14.7 23.7-0.8 3.1-4.9 8.6-4.9 8.6l-25.3 8.9z"/>
					<path id="&lt;Path&gt;" fill-rule="evenodd" class="s10" d="m2289.9 1223.7c-0.9 0.9-2.2 1-2.8 0.3-0.7-0.7-0.6-1.9 0.3-2.8 0.9-0.9 2.2-1.1 2.9-0.4 0.7 0.7 0.5 2-0.4 2.9z"/>
					<path id="&lt;Path&gt;" fill-rule="evenodd" class="s4" d="m2152.2 1152.5c4.5 5.8-31.1 12.2-35.8 0-4.8-12.2 3.4-45.9 3.4-45.9l32.4 6.9c0 0-5.9 31.3 0 39z"/>
					<g id="&lt;Group&gt;">
						<path id="&lt;Path&gt;" fill-rule="evenodd" class="s4" d="m2112.7 1079.1c-2.8 26.1 11.6 48.9 32.1 51.1 20.4 2.1 39.2-17.3 41.9-43.3 2.8-26-11.6-48.9-32.1-51-20.4-2.2-39.2 17.2-41.9 43.2z"/>
						<path id="&lt;Path&gt;" fill-rule="evenodd" class="s0" d="m2174.6 1094.6c0.8 2 3 3 5 2.3 2-0.7 3.1-2.9 2.3-5-0.7-2-2.9-3-4.9-2.3-2 0.7-3.1 3-2.4 5z"/>
						<path id="&lt;Path&gt;" fill-rule="evenodd" class="s0" d="m2149.2 1089c0.8 2.2 3.2 3.3 5.4 2.5 2.2-0.7 3.3-3.1 2.5-5.3-0.8-2.2-3.2-3.3-5.3-2.5-2.2 0.7-3.3 3.1-2.6 5.3z"/>
						<path id="&lt;Path&gt;" fill-rule="evenodd" class="s7" d="m2167.2 1093.8c0.9 6.1 2 13.6 2 13.6 0 0-4 4.2-10.7 1.3 3.4 0.1 7-0.5 7.5-4.8 0.6-4.3 1.2-10.1 1.2-10.1z"/>
						<g id="&lt;Group&gt;">
							<path id="&lt;Path&gt;" fill-rule="evenodd" class="s2" d="m2175.8 1085.7c0.4 0.3 1 0.3 1.5 0.1 0-0.1 1.6-0.9 3.1-0.3q1.6 0.6 2.6 3.1c0.2 0.8 1.1 1.2 1.9 0.9 0.7-0.3 1.1-1.2 0.8-1.9q-1.4-3.8-4.3-4.9c-2.8-1.1-5.5 0.4-5.6 0.4-0.7 0.4-1 1.3-0.6 2.1q0.2 0.3 0.6 0.5z"/>
						</g>
						<g id="&lt;Group&gt;">
							<path id="&lt;Path&gt;" fill-rule="evenodd" class="s2" d="m2156.4 1081.5c-0.4 0.1-1-0.1-1.4-0.5 0 0-1.2-1.3-2.9-1.3q-1.7 0.1-3.4 2.1c-0.5 0.7-1.4 0.8-2.1 0.2-0.6-0.5-0.7-1.4-0.2-2.1q2.6-3.1 5.7-3.1c3-0.1 5.1 2.1 5.1 2.2 0.6 0.6 0.6 1.6-0.1 2.1q-0.3 0.3-0.7 0.4z"/>
						</g>
						<path id="&lt;Path&gt;" fill-rule="evenodd" class="s2" d="m2120.3 1095.7c13.5-11.3 9.7-28.5 9.7-28.5 6.6 0.4 8.4 3.2 8.4 3.2 5.2-6 4-11.7 4-11.7 14.1-1.6 18.3 8.4 29.1 14.4 14.8 8 36 7 43.1-11.8 1-2.8-1.6-5.4-4.4-4.5-2.5 0.9-5.7 1.3-9.3 0.2 0 0 4.4-2.8 5.9-7.9 0.9-2.9-2.1-5.3-4.7-4.1-4.1 1.9-10.9 2.8-21.2-2.2-6.9-3.3-20.3-19.3-31.3-19.8-8.9-0.5-17.6 4.9-23.2 14.4 0 0-21.4-3.4-29.6 18.9-8.1 21.9 22.2 55.7 22.2 55.7 0 0-2.3-12.9 1.3-16.3z"/>
						<path id="&lt;Path&gt;" fill-rule="evenodd" class="s8" d="m2165.6 1118.6c0.8-0.5 0.6-1.8-0.3-2-2.5-0.6-6.6-1.7-10.3-3.1-3.8-1.4-7.6-3.3-9.8-4.5-0.9-0.4-1.9 0.4-1.7 1.4 0.9 2.9 3.1 7.8 8.9 9.9 5.7 2.2 10.6 0 13.2-1.7z"/>
						<g id="&lt;Group&gt;">
							<path id="&lt;Path&gt;" fill-rule="evenodd" class="s4" d="m2129.9 1080.3c4.4 4.4 5 10.8 1.5 14.4-3.5 3.5-10 2.9-14.3-1.4-4.4-4.3-5.1-10.7-1.6-14.3 3.6-3.6 10-3 14.4 1.3z"/>
							<g id="&lt;Group&gt;">
								<path id="&lt;Path&gt;" fill-rule="evenodd" class="s7" d="m2125.6 1092.8q0.3-0.1 0.5-0.3c2.2-2.3 2.7-5 1.4-7.4-1.4-2.4-4.2-3.8-6.8-3.2-0.7 0.1-1.2 0.8-1 1.6 0.1 0.7 0.8 1.1 1.5 1 1.5-0.3 3.2 0.6 3.9 1.9 0.7 1.3 0.4 2.8-0.9 4.2-0.5 0.5-0.5 1.4 0 1.9 0.4 0.4 0.9 0.5 1.4 0.3z"/>
							</g>
						</g>
					</g>
					<path id="&lt;Path&gt;" fill-rule="evenodd" class="s14" d="m2191.7 1332.7c-25.4 5.1-71 14.1-95.1 4.7-9.2-13.2-11.5-87.3-11.5-87.3-2.6-76.3 6.5-87.7 27.2-113.2 8.6 4 30.3 7.3 39.8 7.4 0 0 21.6 30 25.9 51.8 4.2 22.1 4.7 61.3 5.1 83.8 0.5 25 5.4 37 8.6 52.8z"/>
					<path id="&lt;Path&gt;" fill-rule="evenodd" class="s13" d="m2109.3 1160c-14.9 28.9-11.5 61 31.7 124 30.2-2.7 36.1-27.9 36.1-27.9 0 0-8.3-31.3-19.1-70.6-10.8-39.4-42.2-38.1-48.7-25.5z"/>
					<path id="&lt;Path&gt;" fill-rule="evenodd" class="s13" d="m2241.2 1250.1l-64.7 5.2c0 0-27.7-5.1-35.5 28.7 13.8 10.8 49.7 14.8 108.5-7-6.2-8.5-8.3-26.9-8.3-26.9z"/>
					<path id="&lt;Path&gt;" fill-rule="evenodd" class="s8" d="m2152 1142.2l0.6 17.4-43.8-18.4 5.3-14.1z"/>
				</g>
			</g>
			<g id="&lt;Group&gt;">
				<g id="&lt;Group&gt;">
					<g id="&lt;Group&gt;">
						<g id="&lt;Group&gt;">
							<g id="&lt;Group&gt;">
								<path id="&lt;Path&gt;" fill-rule="evenodd" class="s4" d="m2324.8 1159.4c8.7-8.8 3-17.8 3-17.8 4.8-1 30 37.2 40.9 61.5 18.9-19.2 52.3-45 61.4-46.5 0 0 12.2-3.3 16.6 11.5 3.9 13.1-11.4 22.5-11.4 22.5 0 0-65.2 46-74.9 41.9-15-6.3-28.6-61.2-35.6-73.1z"/>
							</g>
						</g>
					</g>
					<g id="&lt;Group&gt;">
						<g id="&lt;Group&gt;">
							<g id="&lt;Group&gt;">
								<g id="&lt;Group&gt;">
									<path id="&lt;Path&gt;" fill-rule="evenodd" class="s4" d="m2311.2 1158.3c5.3 0.3 12.3-2.3 14.3 2.5l10.1-5.1 0.7-6.4c-9.1-14.4-31.1-18.5-33.3-18.7-5.6-0.5-8.2-1.1-8.7-0.4-0.4 0.8-1.8 5.8 6.4 6.8 10.3 1.3 3.5 9.5-17.5 1.7-5.2-2-15 0.5-11.5 4.4 3.9 4.2 15.2 13.7 39.5 15.2z"/>
								</g>
							</g>
						</g>
					</g>
				</g>
				<path id="&lt;Path&gt;" fill-rule="evenodd" class="s2" d="m2470.6 1038.3c14.1-14.5 43-16.7 48.3 4.4 5.3 21.1 4.8 35.4 31.2 30.5 21-3.9 43.9 13.8 45.6 43.7 2.3 38.2-25.1 24.9-17.8 43.4 7.2 18.5 12.3 37.4-15 39.7-27.2 2.2-49.8-19.4-48.4-50.7 1.3-31.2-17.9-18.7-24.6-33.7-9.5-21.3-19.3-77.3-19.3-77.3z"/>
				<g id="&lt;Group&gt;">
					<path id="&lt;Path&gt;" fill-rule="evenodd" class="s4" d="m2404.4 1616.6l-12.3-48.5 30.5-4.2c1.1 22.9 2.8 45.5 2.6 51.6z"/>
					<path id="&lt;Path&gt;" fill-rule="evenodd" class="s4" d="m2477.2 1563.6h31.9c-1.1 7.7-5.2 49-5.2 49-2.7 6.1-26.5 4.7-26.5 1.3 1.8-7.5 0-49.3-0.2-50.3z"/>
					<path id="&lt;Path&gt;" fill-rule="evenodd" class="s10" d="m2425.1 1582.6l-31.4 4.6-21.8-130.3c4.5-49.5 48-154.7 48-154.7l49.1 17.2 1.2 46.4-59.1 100.1c7.7 19.3 13 81.9 14 116.7z"/>
					<path id="&lt;Path&gt;" fill-rule="evenodd" class="s5" d="m2449.4 1305.7c0.4-3.1 0.6-4 3.1-5.5l47.2-13.4 11.2 11.1c10.6 38.5 4 92.2-4.4 134.8 12.3 36.8 7.5 112.8 2.6 148.5h-33.5c-2-23.9-1.4-68.1-1.5-89.5-4.4-17.2-8.5-35.5-12.3-54.8-4.8-24.7-10.8-48.5-12.4-70.9-1.5-21.2-1.9-43.9 0-60.3z"/>
				</g>
				<path id="&lt;Path&gt;" fill-rule="evenodd" class="s4" d="m2461.3 1139.8c-20.1 0-36.4-20.7-36.4-46.3 0-25.7 16.3-46.4 36.4-46.4 20.2 0 36.5 20.7 36.5 46.4 0 25.6-16.3 46.3-36.5 46.3z"/>
				<path id="&lt;Path&gt;" fill-rule="evenodd" class="s4" d="m2485.4 1118.7l-29.3 16.6c0 0-2.6 11.9-3.9 15.7-2.6 7.9 7.6 11.4 16.3 6.5 8.6-5 14.2-11.6 14.2-11.6z"/>
				<path id="&lt;Path&gt;" fill-rule="evenodd" class="s3" d="m2423.9 1088.7c7-0.6 45.8-10.7 50.3-17.7-0.4 16.7 24.7 35.7 28.1 30.8 11.7-30.8 3.2-57.2-31.3-64-47.3-9.5-47.1 50.9-47.1 50.9z"/>
				<path id="&lt;Path&gt;" fill-rule="evenodd" class="s0" d="m2468 1101.7c-1.2 1.9-3.6 2.5-5.5 1.3-1.9-1.2-2.5-3.7-1.3-5.6 1.2-1.8 3.7-2.4 5.6-1.2 1.8 1.2 2.4 3.6 1.2 5.5z"/>
				<path id="&lt;Path&gt;" fill-rule="evenodd" class="s0" d="m2439.8 1101.4c-1.1 1.7-3.4 2.3-5.2 1.1-1.8-1.1-2.3-3.4-1.2-5.2 1.1-1.7 3.5-2.3 5.2-1.2 1.8 1.1 2.3 3.5 1.2 5.3z"/>
				<g id="&lt;Group&gt;">
					<path id="&lt;Path&gt;" fill-rule="evenodd" class="s3" d="m2429.4 1093.4q-0.2-0.1-0.4-0.3c-0.6-0.6-0.6-1.6 0-2.3 4.6-5.2 10.2-3.7 10.4-3.6 0.8 0.2 1.2 1.1 0.9 1.9-0.2 0.9-1.1 1.4-1.9 1.2-0.1 0-4.1-1-7.3 2.6-0.5 0.5-1.1 0.7-1.7 0.5z"/>
				</g>
				<g id="&lt;Group&gt;">
					<path id="&lt;Path&gt;" fill-rule="evenodd" class="s3" d="m2472 1094.1q0.2-0.1 0.4-0.3c0.5-0.6 0.5-1.6-0.1-2.2-4.5-5.2-10.1-3.7-10.4-3.7-0.7 0.3-1.1 1.1-0.9 2 0.3 0.8 1.1 1.4 1.9 1.1 0.2 0 4.1-1 7.3 2.7 0.5 0.5 1.2 0.6 1.8 0.4z"/>
				</g>
				<path id="&lt;Path&gt;" fill-rule="evenodd" class="s7" d="m2442.7 1104.1c-1.2 2.5-2.1 4.9-3.5 6.6-0.5 0.6-0.4 1.4 0.2 1.9 2.2 2 7 2.7 9.9 2.9 0.4 0 0.5-0.5 0.1-0.7-3.2-1.4-4.9-2.6-5.7-3.4-0.3-0.3-0.5-0.9-0.4-1.4 0.1-1.2 0.5-3.6 0.6-5.6 0-0.7-0.9-0.9-1.2-0.3z"/>
				<path id="&lt;Path&gt;" fill-rule="evenodd" class="s4" d="m2488.3 1103.4c-4.2 4.3-4.8 10.6-1.2 14 3.5 3.5 9.8 2.8 14-1.6 4.2-4.3 4.7-10.6 1.2-14-3.6-3.4-9.8-2.7-14 1.6z"/>
				<g id="&lt;Group&gt;">
					<path id="&lt;Path&gt;" fill-rule="evenodd" class="s7" d="m2491.1 1113.9q-0.3-0.2-0.4-0.5c-1.6-2.6-1.5-5.3 0.2-7.3 1.8-2 4.8-2.7 7.2-1.7 0.6 0.3 0.9 1.1 0.6 1.8-0.2 0.6-1 0.9-1.7 0.7-1.3-0.6-3.1-0.2-4.1 1-1 1.1-1 2.6 0 4.2 0.4 0.6 0.2 1.4-0.4 1.8-0.5 0.3-1 0.2-1.4 0z"/>
				</g>
				<path id="&lt;Path&gt;" fill-rule="evenodd" class="s14" d="m2418 1305.7c51.2 19.7 95.7 5.1 95.7 5.1-0.1-6.8 0.9-28.2-9.5-51.6 2.5-19.9 1.6-49.7 2.3-61.1-6-30.7-3.2-33.3 2.3-47.8l-19.1-5.7-34.4 12.2-2.6-8.3c0 0-21.5 6.5-26 9l-8.3 32.7 1.8 72.3c0 0-0.1 38.8-2.2 43.2z"/>
				<g id="&lt;Group&gt;">
					<path id="&lt;Path&gt;" fill-rule="evenodd" class="s7" d="m2451.9 1128.9q1.3 0.1 2.5 0c6.3-0.6 10.3-5.4 10.4-5.6 0.5-0.7 0.4-1.6-0.2-2.1-0.6-0.5-1.6-0.4-2.1 0.2 0 0.1-3.3 4.1-8.4 4.5-3.2 0.3-6.6-1-9.8-3.8-0.7-0.5-1.6-0.4-2.1 0.2-0.5 0.6-0.5 1.5 0.1 2.1q4.7 4 9.6 4.5z"/>
				</g>
				<g id="&lt;Group&gt;">
					<path id="&lt;Path&gt;" fill-rule="evenodd" class="s3" d="m2411.8 1615.8c-3.2-8.4-10-9.3-10-9.3-13.3 17.7-45.8 6.8-44.8 30.7 49.6-0.3 70.2 0 70.2 0-0.1-5.5-1.1-18.5-2.2-23.6l-2.6 0.4z"/>
					<path id="&lt;Path&gt;" fill-rule="evenodd" class="s8" d="m2361.2 1643.6h61.8c2.3 0 4.2-1.9 4.2-4.2v-2.8h-70.2v2.8c0 2.3 1.9 4.2 4.2 4.2z"/>
				</g>
				<g id="&lt;Group&gt;">
					<path id="&lt;Path&gt;" fill-rule="evenodd" class="s3" d="m2471.7 1637.5c0 0 4-14.9 4.4-16.8 0.4-2.1 1.5-7.3 1.8-9.9 0-0.6 6.9-4.8 12.1-4.8 7 0 13.5 4.1 13.6 4.9 0.8 4.9 0.9 10.7 2.2 15.6 1 3.5 3.7 11.9 3.7 11.9z"/>
					<g id="&lt;Group&gt;">
						<g id="&lt;Group&gt;">
							<g id="&lt;Group&gt;">
								<g id="&lt;Group&gt;">
									<path id="&lt;Path&gt;" fill-rule="evenodd" class="s8" d="m2471.7 1636.3c1 2.9 12.4-0.4 20.7-0.4 7 0 16.1 2.7 17.1 1.6 1.8 3.1 0.3 9.5 0.3 9.5 0 0-7.3 0.4-16 0-8.8-0.4-18.9 0.2-22.7-0.9-2.4-4.1 0.6-9.8 0.6-9.8z"/>
								</g>
							</g>
						</g>
					</g>
				</g>
				<path id="&lt;Path&gt;" fill-rule="evenodd" class="s2" d="m2492 1145.3c-7.4 11.9-23 44.6-21.4 87.5 1.5 42.8 12.3 94.9 7.3 142.6 25.2 2.3 49.2-1 49.2-1-2.7-28.1-18.3-224.1-18.3-224.1-7.8-2.3-16.8-5-16.8-5z"/>
				<g id="&lt;Group&gt;">
					<g id="c 2 ">
						<path id="&lt;Path&gt;" fill-rule="evenodd" class="s4" d="m2530.8 1267.1l-4.7 1.9c0 0-3.4-8-8.4-7.7l0.7 7.8c0 0-2.4 8.4-17.3 7.4-12.8 2.9-3.9 8.9-7.4 11.4-5.2 3.5 9.4 12.3 21.7 8.5 15.9-4.9 26.3-19.9 26.3-19.9z"/>
					</g>
					<path id="&lt;Path&gt;" fill-rule="evenodd" class="s4" d="m2508.8 1150.3c0 0 44.9 19.9 70 72.1-14.6 20.6-30.4 8.3-30.4 8.3l-41.9-32.6c0 0-9.9-13.9-7.7-29.4 2.1-15.1 10-18.4 10-18.4z"/>
					<path id="&lt;Path&gt;" fill-rule="evenodd" class="s4" d="m2530 1267.4l21-37.1c0 0 3.7-16.6 27.8-7.9 1.2 12.9 5.3 26.5-37.8 55-5.6-4.4-11-10-11-10z"/>
				</g>
				<path id="&lt;Path&gt;" fill-rule="evenodd" class="s13" d="m2483.1 1140.8l13.5 5.7c-1.5 16.2-37.7 25.9-37.7 25.9l-3.6-15.6z"/>
				<path id="&lt;Path&gt;" fill-rule="evenodd" class="s2" d="m2441.8 1150.9c-6.6 21.2-16.6 50.7-13.9 82.4 2.8 31.7 6 82.8-9.9 136.9-11.8 2.3-27.9 0.6-27.9 0.6 0 0 23.3-79.4 22.3-114.7-1.2-39.2 0.6-74.4 10.3-96.9 7.2-3.1 19.1-8.3 19.1-8.3z"/>
				<path id="&lt;Path&gt;" fill-rule="evenodd" class="s13" d="m2455.3 1156.8l-10.7 11.9c0 0-9.2-9.6-5.9-15.5 3.4-5.9 15.3-9.9 15.3-9.9z"/>
			</g>
			<g id="&lt;Group&gt;">
				<path id="&lt;Compound Path&gt;" fill-rule="evenodd" class="s8" d="m2140.2 1429.9c-4.9 0-9.8-0.1-14.7-0.3-2.2-0.2-3.9-2.1-3.8-4.3 0.1-2.2 2-3.9 4.2-3.8 5.6 0.3 11.4 0.4 17 0.4q0 0 0.1 0c2.2 0 4 1.8 4 4 0 2.2-1.8 4-4 4q-1.4 0-2.8 0zm20-0.7c-2.1 0-3.8-1.6-4-3.7-0.2-2.2 1.5-4.2 3.7-4.3 5.7-0.5 11.4-1.1 16.9-1.9 2.2-0.3 4.2 1.2 4.6 3.4 0.3 2.2-1.3 4.3-3.5 4.6-5.6 0.8-11.5 1.4-17.4 1.9q-0.1 0-0.3 0zm216.2-1q0 0-0.1 0c-6.4-0.3-12.5-1.4-18.1-3.4-2.1-0.7-3.2-3.1-2.5-5.1 0.8-2.1 3.1-3.2 5.2-2.5 4.8 1.7 10.1 2.7 15.7 2.9 2.2 0.1 3.9 2 3.9 4.2-0.1 2.2-1.9 3.9-4.1 3.9zm-267.9-0.2q-0.2 0-0.5 0c-5.9-0.7-11.8-1.7-17.3-2.8-2.2-0.5-3.6-2.6-3.1-4.8 0.4-2.2 2.5-3.6 4.7-3.1 5.3 1.1 11 2 16.7 2.7 2.2 0.3 3.8 2.3 3.5 4.5-0.2 2-2 3.5-4 3.5zm285-1.6c-1.8 0-3.4-1.2-3.9-3-0.5-2.2 0.8-4.4 3-4.9 5.4-1.4 10.3-3.5 14.5-6.3 1.8-1.2 4.3-0.7 5.6 1.1 1.2 1.9 0.7 4.4-1.1 5.6-5 3.3-10.7 5.8-17.1 7.4q-0.5 0.1-1 0.1zm-199.2-2.2c-1.8 0-3.5-1.3-3.9-3.1-0.5-2.2 0.9-4.4 3-4.9 5.7-1.2 11.2-2.8 16.3-4.4 2.1-0.7 4.4 0.4 5.1 2.5 0.7 2.1-0.5 4.4-2.6 5.1-5.3 1.8-11 3.3-17 4.7q-0.4 0.1-0.9 0.1zm-119.5-3.2q-0.6 0-1.2-0.2c-6-1.8-11.6-4-16.6-6.3-2.1-1-2.9-3.4-2-5.4 1-2 3.4-2.9 5.4-1.9 4.7 2.2 9.9 4.2 15.6 5.9 2.1 0.7 3.3 2.9 2.6 5.1-0.5 1.7-2.1 2.8-3.8 2.8zm270.1-4.8c-1 0-2.1-0.4-2.8-1.1-4.8-4.7-8.1-10.2-9.8-16.6-0.5-2.1 0.8-4.3 2.9-4.9 2.2-0.6 4.4 0.7 4.9 2.9 1.3 4.9 3.8 9.2 7.6 12.8 1.6 1.5 1.6 4.1 0.1 5.7-0.8 0.8-1.9 1.2-2.9 1.2zm-117.9-3c-1.5 0-3-0.8-3.7-2.3-0.9-2-0.1-4.4 1.9-5.4 5.3-2.5 10.1-5.4 14.2-8.4 1.8-1.3 4.3-0.9 5.6 0.9 1.3 1.7 1 4.3-0.8 5.6-4.5 3.3-9.7 6.4-15.5 9.2q-0.8 0.4-1.7 0.4zm193.9-6.2q-1 0-1.9-0.4c-2-1.1-2.7-3.5-1.7-5.5 2-3.9 3.1-8.2 3.1-12.9q0-0.8-0.1-1.7c-0.1-2.2 1.6-4.1 3.8-4.2 2.3-0.1 4.2 1.6 4.3 3.8q0 1.1 0 2.1c0 6-1.3 11.6-4 16.7-0.7 1.3-2.1 2.1-3.5 2.1zm-377-1c-0.9 0-1.7-0.2-2.5-0.8q-2.1-1.7-4-3.4c-2.9-2.7-6.1-5.6-9.1-8.5-1.6-1.5-1.7-4.1-0.1-5.7 1.5-1.6 4-1.7 5.7-0.1 3 2.8 6.1 5.8 8.9 8.4q1.7 1.5 3.5 2.9c1.8 1.4 2.1 3.9 0.8 5.7-0.8 1-2 1.5-3.2 1.5zm210.2-13.6c-0.9 0-1.7-0.3-2.4-0.8-1.8-1.4-2.2-3.9-0.8-5.7q0.4-0.5 0.8-1.1c3-4.3 6.7-8.5 10.9-12.4 1.7-1.5 4.2-1.4 5.7 0.2 1.5 1.6 1.4 4.2-0.2 5.7-3.9 3.5-7.1 7.3-9.8 11.1q-0.5 0.7-1 1.4c-0.8 1-2 1.6-3.2 1.6zm81.8-8q-0.2 0-0.4 0c-2.2-0.3-3.8-2.2-3.6-4.5 0.6-6 1.8-11.9 3.4-17.5 0.6-2.2 2.8-3.4 5-2.8 2.1 0.6 3.3 2.9 2.7 5-1.5 5.2-2.5 10.6-3.1 16.2-0.2 2.1-2 3.6-4 3.6zm-317.4-1.8c-1 0-2-0.4-2.7-1.1-4.6-4.3-8.8-8-12.7-11.6-1.7-1.4-1.8-4-0.4-5.7 1.5-1.6 4.1-1.8 5.7-0.3 4 3.6 8.2 7.4 12.9 11.7 1.6 1.5 1.7 4.1 0.2 5.7-0.8 0.9-1.9 1.3-3 1.3zm401.6-8.9c-1.5 0-2.9-0.8-3.6-2.2-2.2-4.7-5.4-8.7-9.5-12.2-1.7-1.4-1.9-4-0.5-5.7 1.4-1.7 4-1.9 5.7-0.4 4.9 4.1 8.8 9.1 11.5 14.8 1 2 0.2 4.4-1.8 5.3q-0.9 0.4-1.8 0.4zm-141.1-4.8c-1.3 0-2.6-0.7-3.4-1.9-1.2-1.8-0.6-4.3 1.2-5.5 4.8-3.1 10.1-6 15.6-8.6 2-1 4.4-0.1 5.4 1.9 0.9 2 0.1 4.4-2 5.4-5.2 2.4-10.1 5.1-14.6 8-0.7 0.5-1.4 0.7-2.2 0.7zm-286.3-9.2c-0.9 0-1.8-0.4-2.6-1-4.5-3.8-9-7.4-13.3-10.7-1.8-1.4-2.1-3.9-0.8-5.7 1.4-1.7 3.9-2 5.7-0.7 4.4 3.4 9 7.1 13.6 10.9 1.7 1.5 1.9 4 0.5 5.7-0.8 1-2 1.5-3.1 1.5zm317.4-5.6c-1.6 0-3.2-1.1-3.8-2.7-0.7-2.1 0.4-4.4 2.5-5.1 5.6-1.9 11.3-3.5 17.1-4.8 2.1-0.5 4.3 0.8 4.8 3 0.5 2.2-0.9 4.3-3.1 4.8-5.4 1.3-10.9 2.8-16.2 4.6q-0.6 0.2-1.3 0.2zm84.7-2.5q-0.8 0-1.5-0.3c-4.8-1.9-10.1-3.4-15.8-4.3-2.2-0.4-3.7-2.4-3.3-4.6 0.3-2.2 2.4-3.7 4.6-3.4 6.3 1.1 12.2 2.7 17.5 4.8 2 0.8 3 3.2 2.2 5.2-0.6 1.6-2.1 2.6-3.7 2.6zm-49.4-0.1q-0.9 0-1.8-0.4c-1.9-1-2.7-3.2-1.9-5.1-1.1-0.7-1.8-1.7-1.9-3-0.3-2.2 1.3-4.2 3.5-4.5q1.3-0.1 2.7-0.3 2.4-4 5.3-7.8c1.3-1.7 3.9-2.1 5.6-0.7 1.8 1.3 2.2 3.8 0.8 5.6q-0.8 1.1-1.7 2.3 2.6-0.1 5 0c2.2 0 4 1.8 4 4 0 2.2-1.8 4-4 4q0 0-0.1 0-4.9 0-10.1 0.3-0.9 1.7-1.8 3.4c-0.7 1.4-2.1 2.2-3.6 2.2zm-380.1-12.9c-0.8 0-1.6-0.2-2.3-0.7-4.8-3.3-9.6-6.5-14.2-9.3-1.9-1.2-2.5-3.6-1.4-5.5 1.2-1.9 3.7-2.5 5.6-1.4 4.8 2.9 9.7 6.2 14.6 9.6 1.8 1.3 2.3 3.8 1 5.6-0.8 1.1-2 1.7-3.3 1.7zm400.7-14.6c-1.1 0-2.1-0.4-2.9-1.2-1.6-1.6-1.5-4.2 0.1-5.7 4.1-4 8.7-7.8 13.6-11.4 1.8-1.3 4.4-0.9 5.7 0.9 1.3 1.8 0.9 4.3-0.9 5.6-4.6 3.4-9 7-12.8 10.7-0.8 0.8-1.8 1.1-2.8 1.1zm-430.2-3.3q-0.9 0-1.8-0.4c-5.2-2.7-10.4-5-15.4-7.1-2-0.8-3-3.1-2.2-5.2 0.8-2.1 3.2-3.1 5.2-2.2 5.3 2.1 10.7 4.6 16 7.3 2 1 2.8 3.5 1.8 5.4-0.7 1.4-2.1 2.2-3.6 2.2zm-115.4-3.8c-1.4 0-2.8-0.7-3.5-2.1-1.1-1.9-0.4-4.3 1.5-5.4 5.3-3 10.7-5.6 16.2-7.6 2.1-0.8 4.4 0.3 5.2 2.4 0.7 2.1-0.3 4.4-2.4 5.1-5.1 1.9-10.1 4.3-15 7.1-0.7 0.3-1.3 0.5-2 0.5zm83.4-9q-0.5 0-1.1-0.1c-5.5-1.5-11-2.7-16.3-3.5-2.2-0.3-3.8-2.3-3.5-4.5 0.4-2.2 2.4-3.7 4.6-3.4 5.7 0.8 11.5 2 17.4 3.6 2.1 0.6 3.4 2.9 2.8 5-0.5 1.8-2.1 2.9-3.9 2.9zm769.4-1.7c-1.6 0-3.1-0.9-3.7-2.4-1.6-3.5-5-7-10.3-10.4-1.9-1.2-2.5-3.7-1.3-5.6 1.2-1.8 3.7-2.4 5.6-1.2 6.7 4.3 11.2 9 13.3 14 0.9 2 0 4.4-2 5.3q-0.8 0.3-1.6 0.3zm-820.6-1.2c-1.9 0-3.6-1.4-4-3.3-0.4-2.2 1.1-4.3 3.3-4.7 5.8-1.1 11.8-1.7 17.8-1.8 2.2 0 4 1.8 4.1 4 0 2.2-1.8 4-4 4.1-5.6 0.1-11.1 0.6-16.5 1.6q-0.3 0.1-0.7 0.1zm541.1-1.3c-1.4 0-2.7-0.7-3.5-2-1.1-2-0.4-4.4 1.5-5.5 5-2.8 10.3-5.5 15.8-8 2-0.9 4.4 0 5.3 2 0.9 2.1 0 4.4-2 5.3-5.3 2.4-10.4 5-15.1 7.7-0.6 0.3-1.3 0.5-2 0.5zm31.4-14.2c-1.6 0-3.2-1.1-3.8-2.7-0.7-2.1 0.4-4.4 2.5-5.2 5.3-1.9 10.9-3.7 16.6-5.3 2.2-0.6 4.4 0.6 5 2.7 0.6 2.2-0.6 4.4-2.7 5-5.6 1.6-11 3.4-16.2 5.2q-0.7 0.3-1.4 0.3zm220.8-3.1q-0.8 0-1.5-0.3c-4.8-1.8-10.2-3.6-16-5.1-2.1-0.6-3.4-2.8-2.8-5 0.6-2.1 2.8-3.4 4.9-2.8 6.1 1.6 11.8 3.5 16.8 5.4 2.1 0.8 3.1 3.2 2.3 5.2-0.6 1.6-2.1 2.6-3.7 2.6zm-187.6-6.5c-1.9 0-3.5-1.3-3.9-3.1-0.5-2.2 0.8-4.3 3-4.8 5.6-1.3 11.3-2.4 17.1-3.4 2.2-0.4 4.3 1.1 4.7 3.3 0.4 2.2-1.1 4.3-3.3 4.6-5.7 1-11.3 2.1-16.7 3.3q-0.5 0.1-0.9 0.1zm154.3-2.7q-0.3 0-0.7 0c-5.4-1.1-11-2-16.8-2.8-2.2-0.3-3.8-2.3-3.5-4.5 0.3-2.2 2.3-3.8 4.5-3.5 6 0.8 11.8 1.8 17.3 2.9 2.2 0.4 3.6 2.5 3.2 4.7-0.4 1.9-2.1 3.2-4 3.2zm-120.3-3.1c-2 0-3.7-1.5-4-3.6-0.3-2.2 1.3-4.2 3.5-4.4 5.7-0.7 11.5-1.3 17.4-1.8 2.2-0.2 4.1 1.5 4.3 3.7 0.2 2.2-1.5 4.2-3.7 4.3-5.7 0.5-11.4 1.1-17 1.7q-0.3 0.1-0.5 0.1zm86.2-1.5q-0.2 0-0.4-0.1c-5.6-0.4-11.3-0.8-17-1.1-2.3-0.1-4-1.9-3.9-4.2 0.1-2.2 2-3.9 4.2-3.8 5.8 0.2 11.7 0.6 17.4 1.1 2.2 0.2 3.9 2.2 3.7 4.4-0.2 2.1-2 3.7-4 3.7zm-51.8-1.3c-2.1 0-3.9-1.7-4-3.8-0.1-2.3 1.6-4.1 3.9-4.2 5.4-0.2 10.8-0.3 16.2-0.3h1.2c2.2 0 4 1.8 4 4 0 2.2-1.8 4-4 4q0 0 0 0h-1.2c-5.3 0-10.6 0.1-15.9 0.3q-0.1 0-0.2 0z"/>
			</g>
			<g id="&lt;Group&gt;">
				<path id="&lt;Path&gt;" fill-rule="evenodd" class="s8" d="m2823.9 970.5h-94c-12.7 0-22.9-10.3-22.9-23v-31.6c0-12.6 10.2-22.9 22.9-22.9h94c12.6 0 22.9 10.3 22.9 22.9v31.6c0 12.7-10.3 23-22.9 23z"/>
				<path id="&lt;Path&gt;" fill-rule="evenodd" class="s8" d="m2755.6 1104.7h-122c-16.4 0-29.8-13.4-29.8-29.8v-41c0-16.5 13.4-29.8 29.8-29.8h122c16.4 0 29.8 13.3 29.8 29.8v41c0 16.4-13.4 29.8-29.8 29.8z"/>
				<path id="&lt;Path&gt;" fill-rule="evenodd" class="s8" d="m2729.1 970.5v40.3l25.1-40.3z"/>
				<path id="&lt;Path&gt;" fill-rule="evenodd" class="s8" d="m2759.7 1100.2v37.4c0 3-4.1 4-5.4 1.3l-19.7-38.7z"/>
				<path id="&lt;Path&gt;" fill-rule="evenodd" class="s20" d="m2824.2 924.4h-94.6c-4.6 0-8.3-3.7-8.3-8.3 0-4.5 3.7-8.2 8.3-8.2h94.6c4.5 0 8.2 3.7 8.2 8.2 0 4.6-3.7 8.3-8.2 8.3z"/>
				<path id="&lt;Path&gt;" fill-rule="evenodd" class="s20" d="m2827.5 951.2h-101.3c-2.7 0-4.9-2.2-4.9-4.9v-6.7c0-2.8 2.2-5 4.9-5h101.3c2.8 0 4.9 2.2 4.9 5v6.7c0 2.7-2.1 4.9-4.9 4.9z"/>
				<path id="&lt;Path&gt;" fill-rule="evenodd" class="s20" d="m2761.7 1035.5h-132.5c-5.1 0-9.2-4.1-9.2-9.2 0-5.1 4.1-9.2 9.2-9.2h132.5c5.1 0 9.2 4.1 9.2 9.2 0 5.1-4.1 9.2-9.2 9.2z"/>
				<path id="&lt;Path&gt;" fill-rule="evenodd" class="s20" d="m2761.7 1064.8h-132.5c-5.1 0-9.2-4.1-9.2-9.2 0-5.1 4.1-9.3 9.2-9.3h132.5c5.1 0 9.2 4.2 9.2 9.3 0 5.1-4.1 9.2-9.2 9.2z"/>
				<path id="&lt;Path&gt;" fill-rule="evenodd" class="s20" d="m2765.5 1094.1h-89.9c-3 0-5.4-2.5-5.4-5.5v-7.5c0-3.1 2.4-5.5 5.4-5.5h89.9c3 0 5.4 2.4 5.4 5.5v7.5c0 3-2.4 5.5-5.4 5.5z"/>
			</g>
			<g id="&lt;Group&gt;">
				<path id="&lt;Compound Path&gt;" fill-rule="evenodd" class="s8" d="m1525.1 1039.6q-0.2 0-0.3 0c-2.2-0.1-3.9-2-3.8-4.2 0.2-2.6 0.7-9.4 3.2-18 0.6-2.1 2.8-3.3 5-2.7 2.1 0.6 3.3 2.8 2.7 5-2.2 7.7-2.7 13.8-2.8 16.1-0.1 2.1-1.9 3.8-4 3.8zm9.4-33q-1 0-1.9-0.5c-2-1-2.7-3.5-1.7-5.4 2.9-5.5 6.4-10.5 10.4-15 1.4-1.6 4-1.8 5.7-0.3 1.6 1.5 1.8 4 0.3 5.7-3.6 4-6.7 8.5-9.3 13.4-0.7 1.3-2.1 2.1-3.5 2.1zm22.6-25.6c-1.2 0-2.5-0.6-3.3-1.7-1.2-1.8-0.8-4.3 1-5.6 4.9-3.4 10.2-6.3 15.9-8.6 2.1-0.9 4.4 0.1 5.3 2.2 0.8 2-0.2 4.4-2.2 5.2-5.2 2.2-10 4.8-14.4 7.8-0.7 0.5-1.5 0.7-2.3 0.7zm31.6-13.2c-1.8 0-3.5-1.3-3.9-3.2-0.5-2.2 0.9-4.3 3.1-4.8 5.5-1.1 11.4-2 17.6-2.4 2.2-0.2 4.1 1.5 4.3 3.7 0.1 2.2-1.5 4.2-3.8 4.3-5.7 0.4-11.3 1.2-16.4 2.3q-0.5 0.1-0.9 0.1zm47.4-2.1c-2.5 0-5-0.1-7.6-0.2q-2.9-0.2-5.7-0.3c-2.2-0.1-3.9-2-3.8-4.2 0-2.2 1.9-4 4.1-3.9q2.9 0.1 5.9 0.3c3.8 0.3 7.5 0.3 11.1 0.2 2.2-0.1 4.1 1.6 4.1 3.8 0.1 2.3-1.6 4.1-3.8 4.2q-2.1 0.1-4.3 0.1zm21.2-2.4c-1.8 0-3.5-1.2-3.9-3.1-0.6-2.1 0.8-4.3 2.9-4.8 5.4-1.4 10.5-3.3 15.2-5.8 1.9-1 4.4-0.3 5.4 1.7 1.1 2 0.3 4.4-1.7 5.4-5.2 2.8-10.9 5-17 6.5q-0.4 0.1-0.9 0.1zm30-16.1c-1 0-2.1-0.4-2.9-1.3-1.5-1.6-1.4-4.1 0.2-5.7 3.8-3.6 7.3-7.8 10.2-12.5 1.2-1.9 3.7-2.4 5.6-1.2 1.8 1.1 2.4 3.6 1.2 5.5-3.3 5.3-7.2 10-11.5 14.1-0.8 0.7-1.8 1.1-2.8 1.1zm18.4-28.8q-0.7 0-1.4-0.3c-2-0.7-3.1-3-2.4-5.1 1.8-5 3.2-10.4 4.1-16 0.3-2.2 2.4-3.7 4.6-3.3 2.2 0.3 3.7 2.4 3.3 4.6-0.9 6-2.4 11.9-4.4 17.4-0.6 1.7-2.1 2.7-3.8 2.7zm535.6-6.5c-1.4 0-2.7-0.7-3.5-2-2.9-4.8-6-9.5-9.3-14.1-1.3-1.8-0.8-4.4 1-5.6 1.8-1.3 4.3-0.9 5.6 0.9 3.4 4.8 6.6 9.7 9.6 14.7 1.2 1.9 0.5 4.4-1.4 5.5-0.6 0.4-1.3 0.6-2 0.6zm-560.1-26.7q-0.1 0-0.2 0c-6.2-0.4-12.2-1.1-17.7-2.3-2.2-0.5-3.6-2.6-3.1-4.8 0.5-2.2 2.6-3.6 4.8-3.1 5.1 1.1 10.7 1.8 16.5 2.2 2.2 0.1 3.9 2 3.8 4.2-0.2 2.2-1.9 3.8-4.1 3.8zm17.3 0c-2.1 0-3.9-1.7-4-3.8-0.2-2.3 1.5-4.2 3.8-4.3q4.3-0.2 8.8-0.7c-0.1-4.2-0.6-8.4-1.3-12.5-0.3-2.2 1.2-4.2 3.3-4.6 2.2-0.4 4.3 1.1 4.7 3.3q1 6.3 1.4 12.8c2.1-0.3 4.1 1.2 4.4 3.4 0.3 2.2-1.2 4.2-3.4 4.6q-1.3 0.1-2.6 0.3c-0.6 0.5-1.4 0.8-2.3 0.8-0.5 0-1.1-0.1-1.5-0.3q-5.7 0.6-11.1 1-0.1 0-0.2 0zm522.8-1.4c-1.2 0-2.3-0.5-3.1-1.5-3.6-4.3-7.4-8.5-11.3-12.6-1.6-1.6-1.5-4.2 0.1-5.7 1.6-1.5 4.1-1.5 5.7 0.1 4 4.3 8 8.7 11.7 13.1 1.4 1.7 1.2 4.2-0.6 5.7-0.7 0.6-1.6 0.9-2.5 0.9zm-488.7-3.5c-1.8 0-3.5-1.2-3.9-3.1-0.5-2.2 0.9-4.4 3.1-4.8 5.3-1.1 10.9-2.5 16.6-4 2.1-0.6 4.3 0.7 4.9 2.9 0.6 2.1-0.7 4.3-2.9 4.9-5.8 1.5-11.5 2.9-16.9 4.1q-0.5 0-0.9 0zm-84.9-2.6q-0.8 0.1-1.6-0.3c-4.6-2-9.1-4.5-13.1-7.3q-1.3-0.9-2.5-1.8c-1.8-1.3-2.2-3.8-0.9-5.6 1.3-1.8 3.8-2.2 5.6-0.9q1.2 0.8 2.4 1.7c3.6 2.5 7.6 4.7 11.7 6.5 2.1 0.9 3 3.3 2.1 5.3-0.6 1.5-2.1 2.4-3.7 2.4zm118.3-6.2c-1.7 0-3.3-1.1-3.9-2.8-0.6-2.1 0.6-4.4 2.7-5 5.2-1.7 10.7-3.5 16.3-5.4 2.1-0.7 4.4 0.4 5.1 2.5 0.7 2.1-0.4 4.4-2.5 5.1-5.6 2-11.2 3.8-16.5 5.5q-0.6 0.1-1.2 0.1zm32.6-11.2c-1.6 0-3.1-1-3.7-2.6-0.8-2.1 0.2-4.4 2.3-5.2 5.2-1.9 10.5-4 16-6.2 2.1-0.8 4.4 0.2 5.3 2.2 0.8 2.1-0.2 4.5-2.3 5.3-5.5 2.2-11 4.3-16.2 6.2q-0.7 0.3-1.4 0.3zm398.8-1.4c-0.9 0-1.9-0.4-2.7-1.1-4.1-3.7-8.5-7.5-12.9-11-1.7-1.4-2-3.9-0.6-5.7 1.3-1.7 3.9-2 5.6-0.6 4.6 3.7 9.1 7.5 13.3 11.4 1.7 1.5 1.8 4 0.3 5.7-0.8 0.8-1.9 1.3-3 1.3zm-577.8-0.8c-1 0-2-0.4-2.8-1.2-5.1-5-8.9-9.9-11.3-14.7-1-2-0.1-4.4 1.8-5.4 2-1 4.5-0.2 5.4 1.8 2 4 5.3 8.2 9.7 12.6 1.6 1.5 1.6 4.1 0.1 5.7-0.8 0.8-1.9 1.2-2.9 1.2zm85.9-7.5c-1.6 0-3.2-1-3.8-2.7-1.9-5.4-4.3-10.3-7.1-14.6-1.2-1.9-0.7-4.4 1.2-5.6 1.8-1.2 4.3-0.6 5.5 1.2 3.2 4.8 5.8 10.3 8 16.3 0.7 2.1-0.3 4.4-2.4 5.2q-0.7 0.2-1.4 0.2zm125.2-3.1c-1.6 0-3.1-0.9-3.7-2.4-0.9-2.1 0.1-4.5 2.1-5.3 5.1-2.1 10.4-4.4 15.9-6.8 2-0.9 4.4 0.1 5.3 2.1 0.9 2.1-0.1 4.4-2.1 5.3-5.5 2.4-10.9 4.7-15.9 6.8q-0.8 0.3-1.6 0.3zm339.8-10.2c-0.8 0-1.6-0.2-2.3-0.7-4.6-3.2-9.4-6.4-14.2-9.3-1.9-1.2-2.5-3.7-1.4-5.6 1.2-1.9 3.7-2.4 5.6-1.3 4.9 3.1 9.9 6.3 14.6 9.6 1.8 1.3 2.3 3.8 1 5.6-0.8 1.1-2 1.7-3.3 1.7zm-308.1-3.5c-1.6 0-3-0.9-3.7-2.4-0.9-2 0-4.4 2-5.3 5-2.2 10.1-4.5 15.8-7.1 2-0.9 4.4 0 5.3 2 0.9 2 0 4.4-2 5.3-5.7 2.6-10.8 4.9-15.8 7.1q-0.8 0.4-1.6 0.4zm-254.7-6q-0.7 0-1.5-0.3c-2.1-0.9-3-3.2-2.2-5.3 2.4-5.6 7.4-10.2 14.5-13.5 2-0.9 4.4 0 5.3 2 0.9 2 0.1 4.4-2 5.3-5.2 2.4-8.8 5.7-10.3 9.4-0.7 1.5-2.2 2.4-3.8 2.4zm78.8-5.4c-0.9 0-1.7-0.3-2.5-0.9-2.8-2.1-5.7-3.7-8.8-4.8q-2.6-0.9-5.4-1.7c-2.1-0.6-3.3-2.8-2.7-4.9 0.6-2.2 2.8-3.4 4.9-2.8q3 0.8 5.9 1.8c3.8 1.4 7.6 3.4 11 6 1.8 1.4 2.1 3.9 0.8 5.7-0.8 1-2 1.6-3.2 1.6zm207.3-2.9c-1.5 0-3-0.8-3.6-2.3-1-2-0.1-4.4 1.9-5.4q5.5-2.4 10.8-4.9l4.9-2.3c2-0.9 4.4 0 5.4 2 0.9 2 0 4.4-2 5.4l-4.9 2.2q-5.4 2.5-10.8 5-0.8 0.3-1.7 0.3zm247.3-0.2q-1 0-1.9-0.5c-5-2.6-10.1-5.2-15.2-7.6-2.1-0.9-2.9-3.3-2-5.3 0.9-2 3.3-2.9 5.3-2 5.3 2.5 10.6 5.1 15.7 7.8 2 1.1 2.7 3.5 1.7 5.5-0.8 1.3-2.2 2.1-3.6 2.1zm-504.3-7.2c-2 0-3.8-1.6-4-3.6-0.3-2.2 1.3-4.2 3.5-4.5 5.7-0.6 11.9-0.6 18.1 0 2.2 0.2 3.8 2.1 3.6 4.4-0.2 2.2-2.2 3.8-4.4 3.6-5.6-0.6-11.2-0.5-16.4 0q-0.2 0.1-0.4 0.1zm288.4-7c-1.5 0-3-0.8-3.7-2.3-0.9-2 0-4.4 2-5.4q2.8-1.2 5.4-2.4c3.5-1.6 7.1-3.1 10.7-4.5 2.1-0.7 4.4 0.3 5.2 2.4 0.8 2.1-0.2 4.4-2.3 5.2-3.5 1.3-6.9 2.7-10.2 4.2q-2.7 1.2-5.4 2.5-0.8 0.3-1.7 0.3zm184.6-0.2q-0.8 0-1.5-0.3c-5.3-2.1-10.7-4-16-5.7-2.1-0.7-3.3-3-2.6-5.1 0.7-2.1 2.9-3.3 5.1-2.6 5.5 1.8 11 3.8 16.4 5.9 2.1 0.8 3.1 3.1 2.3 5.2-0.6 1.6-2.1 2.6-3.7 2.6zm-32.9-10.6q-0.5 0-1-0.2c-5.5-1.4-11-2.6-16.6-3.7-2.1-0.4-3.6-2.5-3.2-4.7 0.5-2.2 2.6-3.6 4.8-3.2 5.6 1.1 11.4 2.4 17 3.8 2.2 0.6 3.5 2.8 2.9 4.9-0.4 1.9-2.1 3.1-3.9 3.1zm-119.4-1.3c-1.8 0-3.4-1.1-3.9-2.9-0.6-2.2 0.7-4.4 2.8-5 5.6-1.5 11.4-2.8 17.2-3.8 2.2-0.4 4.3 1 4.7 3.2 0.4 2.2-1.1 4.3-3.3 4.7-5.6 1-11.1 2.2-16.5 3.7q-0.5 0.1-1 0.1zm85.6-5.2q-0.3 0-0.5 0c-5.7-0.7-11.4-1.2-16.9-1.5-2.3-0.2-4-2.1-3.8-4.3 0.1-2.2 2-3.9 4.2-3.8 5.8 0.3 11.6 0.9 17.5 1.6 2.2 0.3 3.7 2.3 3.5 4.5-0.3 2-2 3.5-4 3.5zm-51.7-0.9c-2.1 0-3.8-1.6-4-3.6-0.2-2.3 1.4-4.2 3.6-4.4 5.8-0.6 11.7-0.9 17.5-1 2.3 0 4.1 1.7 4.1 3.9 0.1 2.3-1.7 4.1-3.9 4.1-5.7 0.1-11.4 0.5-16.9 1q-0.2 0-0.4 0z"/>
			</g>
			<g id="&lt;Group&gt;">
				<path id="&lt;Path&gt;" fill-rule="evenodd" class="s21" d="m2244.7 884.2l-13 21.3 112.2 76.6z"/>
				<path id="&lt;Path&gt;" fill-rule="evenodd" class="s21" d="m2220.1 931.1l6.8 24.5 112 23z"/>
				<path id="&lt;Path&gt;" fill-rule="evenodd" class="s8" d="m2343.9 982.1l-189.3-64.5 65.5-23z"/>
				<path id="&lt;Path&gt;" fill-rule="evenodd" class="s8" d="m2244.7 884.2l99.2 97.9-58.1-115.3z"/>
			</g>
			<g id="&lt;Group&gt;">
				<path id="&lt;Compound Path&gt;" fill-rule="evenodd" class="s8" d="m2916.4 732.9c-2.2 0-4-1.8-4-4 0-2.2 1.8-4 4-4 5.8 0 11.2-0.7 16.1-1.9 2.1-0.6 4.3 0.7 4.9 2.9 0.5 2.1-0.8 4.3-2.9 4.9-5.5 1.4-11.6 2.1-18.1 2.1zm-17.2-1.5q-0.3 0-0.6-0.1c-5.5-0.9-11.3-2.3-17.3-4-2.1-0.6-3.3-2.9-2.7-5 0.6-2.1 2.8-3.4 5-2.7 5.6 1.6 11.1 2.9 16.3 3.8 2.2 0.4 3.7 2.4 3.3 4.6-0.3 2-2 3.4-4 3.4zm50-7.5c-1.3 0-2.6-0.6-3.4-1.7-1.2-1.9-0.7-4.4 1.1-5.6 3.8-2.6 7.2-5.9 10.1-9.7 1.4-1.7 3.9-2.1 5.7-0.7 1.7 1.3 2.1 3.9 0.7 5.6-3.4 4.5-7.4 8.4-12 11.4-0.7 0.5-1.4 0.7-2.2 0.7zm-278.4-0.9c-0.8 0-1.6-0.2-2.3-0.7-1.8-1.3-2.3-3.8-1-5.6 3.3-4.6 7.2-9.2 11.6-13.7 1.5-1.6 4.1-1.6 5.6-0.1 1.6 1.6 1.7 4.1 0.1 5.7-4.1 4.2-7.7 8.5-10.7 12.7-0.8 1.1-2 1.7-3.3 1.7zm195.3-1.1q-0.7 0-1.4-0.3c-5.3-2.1-10.7-4.4-16.1-7-2.1-0.9-2.9-3.3-2-5.3 1-2 3.4-2.9 5.4-1.9 5.3 2.4 10.5 4.7 15.6 6.7 2.1 0.8 3.1 3.1 2.3 5.2-0.6 1.6-2.2 2.6-3.8 2.6zm-31.2-14.7q-1 0-1.9-0.5c-5.1-2.7-10.2-5.6-15.2-8.7-1.9-1.2-2.5-3.7-1.3-5.5 1.2-1.9 3.6-2.5 5.5-1.4 4.9 3 9.9 5.9 14.8 8.6 2 1 2.7 3.5 1.6 5.4-0.7 1.4-2.1 2.1-3.5 2.1zm-140.2-8.9c-1.1 0-2.3-0.5-3.1-1.5-1.4-1.8-1.1-4.3 0.6-5.7 4.7-3.7 9.6-7.1 14.6-10.2 1.9-1.1 4.4-0.5 5.5 1.4 1.2 1.9 0.6 4.4-1.3 5.5-4.7 2.9-9.3 6.1-13.8 9.6-0.7 0.6-1.6 0.9-2.5 0.9zm110.7-9.1c-0.7 0-1.5-0.2-2.2-0.7q-2.7-1.8-5.3-3.7c-2.9-2-5.8-3.8-8.8-5.3-2-1-2.8-3.5-1.8-5.4 1-2 3.5-2.8 5.4-1.8 3.4 1.7 6.7 3.7 9.8 5.9q2.6 1.9 5.2 3.7c1.9 1.2 2.3 3.7 1.1 5.5-0.8 1.2-2.1 1.8-3.4 1.8zm-81.2-8.7c-1.6 0-3.1-0.9-3.7-2.5-0.9-2 0-4.4 2.1-5.3 5.7-2.4 11.4-4.3 17-5.7 2.1-0.5 4.3 0.8 4.8 3 0.6 2.1-0.8 4.3-2.9 4.8-5.2 1.3-10.5 3.1-15.7 5.3q-0.8 0.4-1.6 0.4zm50.5-6.4q-0.4 0-0.8-0.1c-5.2-1.1-10.7-1.6-16.2-1.4-2.2 0.1-4.1-1.7-4.1-3.9-0.1-2.2 1.6-4.1 3.9-4.2 6.1-0.1 12.2 0.4 18.1 1.7 2.1 0.4 3.5 2.6 3.1 4.8-0.5 1.8-2.1 3.1-4 3.1z"/>
			</g>
			<g id="&lt;Group&gt;">
				<path id="&lt;Path&gt;" fill-rule="evenodd" class="s21" d="m2666.9 706.7l5.8 18.4-97.7 36.5z"/>
				<path id="&lt;Path&gt;" fill-rule="evenodd" class="s21" d="m2676.7 746.3l-9.6 17-87.7-3.4z"/>
				<path id="&lt;Path&gt;" fill-rule="evenodd" class="s8" d="m2575 761.6l153-13.4-44.6-29.2z"/>
				<path id="&lt;Path&gt;" fill-rule="evenodd" class="s8" d="m2666.9 706.7l-91.9 54.9 64.4-75.4z"/>
			</g>
			<g id="&lt;Group&gt;">
				<path id="&lt;Compound Path&gt;" fill-rule="evenodd" class="s8" d="m2541.8 918.1q7.1-5.4 17.1-5.4c14.4 0 22 7.9 22 18.9 0 6.3-3.1 12.7-9.3 19.2-7.9 8.3-13.6 12.4-17.2 12.4-3.5 0-6.1-2.7-6.1-6 0-2.9 2.8-5.9 7.5-10.2 0.4-0.3 0.7-0.7 0.9-0.8 5.4-4.9 7.1-7.7 7.1-11.1 0-4.2-2.9-6.5-7-6.5-1.9 0-4.1 0.4-6.8 1.3q-3.9 1.2-5.7 1.2c-2.9 0-6.3-2.5-6.3-6.7 0-2.3 1.3-4.4 3.8-6.3zm14.5 70.5c-6.5 0-10.8-4.9-10.8-10.8 0-5 4.3-9.9 10.8-9.9 5.6 0 9.9 4.9 9.9 9.9 0 5.8-4.1 10.8-9.9 10.8z"/>
			</g>
			<g id="&lt;Group&gt;">
				<path id="&lt;Compound Path&gt;" fill-rule="evenodd" class="s8" d="m1923 636q5.6-4.2 13.5-4.2c11.4 0 17.4 6.1 17.4 14.8 0 5.1-2.4 10.2-7.4 15.2-6.2 6.7-10.8 9.9-13.6 9.9-2.7 0-4.8-2.2-4.8-4.8 0-2.3 2.2-4.6 6-8.1 0.2-0.2 0.5-0.5 0.6-0.5 4.3-4 5.6-6.1 5.6-8.8 0-3.4-2.2-5.2-5.5-5.2-1.5 0-3.2 0.3-5.3 1q-3.2 1-4.5 1c-2.4 0-5-2-5-5.3 0-1.8 1-3.5 3-5zm11.1 55.8c-4.6 0-8.2-3.7-8.2-8.2 0-4.5 3.6-8.2 8.2-8.2 4.5 0 8.2 3.7 8.2 8.2 0 4.5-3.7 8.2-8.2 8.2z"/>
			</g>
			<g id="&lt;Group&gt;">
				<path id="&lt;Path&gt;" fill-rule="evenodd" class="s22" d="m1747 679.1l-33.8 62.6c-1.3 2.4-4.3 3.2-6.7 2l-108.8-58.9c-2.4-1.3-3.3-4.2-2-6.6l33.9-62.6c1.2-2.4 4.2-3.3 6.6-2l108.8 58.8c2.4 1.3 3.3 4.3 2 6.7z"/>
				<path id="&lt;Path&gt;" fill-rule="evenodd" class="s8" d="m1747 679.1l-1.9 3.4-68.8 8.8c-6.8 1-13.4-2.5-16.4-8.6l-31.4-65.1 1.1-2c1.2-2.4 4.2-3.3 6.6-2l108.8 58.8c2.4 1.3 3.3 4.3 2 6.7z"/>
			</g>
			<g id="&lt;Group&gt;">
				<path id="&lt;Compound Path&gt;" fill-rule="evenodd" class="s8" d="m2398.6 804.3c-17.3 0-31.3-14-31.3-31.3 0-17.3 14-31.3 31.3-31.3 17.3 0 31.3 14 31.3 31.3 0 17.3-14 31.3-31.3 31.3zm0-8.6c-12.6 0-22.7-10.1-22.7-22.7 0-12.5 10.1-22.7 22.7-22.7 12.5 0 22.7 10.2 22.7 22.7 0 12.6-10.2 22.7-22.7 22.7z"/>
			</g>
			<g id="&lt;Group&gt;">
				<path id="&lt;Compound Path&gt;" fill-rule="evenodd" class="s20" d="m3057.7 1026.2c-17.3 0-31.3-14-31.3-31.3 0-17.4 14-31.4 31.3-31.4 17.3 0 31.3 14 31.3 31.4 0 17.3-14 31.3-31.3 31.3zm0-8.6c-12.6 0-22.7-10.2-22.7-22.7 0-12.6 10.1-22.7 22.7-22.7 12.5 0 22.7 10.1 22.7 22.7 0 12.5-10.2 22.7-22.7 22.7z"/>
			</g>
			<path id="&lt;Path&gt;" fill-rule="evenodd" class="s8" d="m2450.9 741c-9.9 0-17.9-8-17.9-17.8 0-9.9 8-17.9 17.9-17.9 9.9 0 17.9 8 17.9 17.9 0 9.8-8 17.8-17.9 17.8z"/>
			<path id="&lt;Path&gt;" fill-rule="evenodd" class="s20" d="m3059.1 942.3c-9.9 0-17.9-8-17.9-17.9 0-9.8 8-17.8 17.9-17.8 9.9 0 17.9 8 17.9 17.8 0 9.9-8 17.9-17.9 17.9z"/>
		</g>
	</g>
</svg>