<svg version="1.2" xmlns="http://www.w3.org/2000/svg" viewBox="0 417 2328 1455" width="2328" height="1455">
	<title>service-cropped-svg-svg</title>
	<style>
		.s0 { fill: #c8dbf4 } 
		.s1 { fill: #d4e4f8 } 
		.s2 { fill: #9fc1f4 } 
		.s3 { fill: #8cb4f4 } 
		.s4 { fill: #9abfe2 } 
		.s5 { fill: #bad4f4 } 
		.s6 { fill: #dfebfd } 
		.s7 { fill: #b7d3f3 } 
		.s8 { fill: #c0d8fb } 
		.s9 { fill: #233862 } 
		.s10 { fill: #ffb27d } 
		.s11 { fill: #0f2549 } 
		.s12 { fill: #dbdbdb } 
		.s13 { fill: #ebebeb } 
		.s14 { fill: #000000 } 
		.s15 { fill: #ed975d } 
		.s16 { fill: #ffffff } 
		.s17 { fill: #ebf3ff } 
		.s18 { fill: #db6258 } 
		.s19 { fill: #ed7d2b } 
		.s20 { fill: #fd7166 } 
		.s21 { fill: #1b3051 } 
		.s22 { fill: #73a2e5 } 
	</style>
	<g id="Слой 1">
		<g id="&lt;Group&gt;">
			<g id="&lt;Group&gt;">
				<g id="&lt;Group&gt;">
					<path id="&lt;Path&gt;" fill-rule="evenodd" class="s0" d="m318 1177.7c0 0-33.9-39.5-2.1-64.6 0 0 23.1-14.1 42.1-12.9 0 0-26.8 44.9-18.2 49.4 8.7 4.5 26.3-52.3 26.3-52.3 0 0 52.9-5.1 70 3.1 0 0-45.3 37-35.7 39.2 9.5 2.2 58.3-34.1 58.3-34.1 0 0 49.3 8.3 46.7 38.4-2.7 29.9-19.6 39.2-27.1 38.4-7.5-0.8-51.1-17.4-52-11.3-1 6.1 25.3 26 43.7 27 0 0-34.7 38.3-57.8 27.2-23.1-11-25.1-28.6-39.4-35.1-14.4-6.6-26.7-6.6-20.8 0.1 6 6.7 32 13.2 40.2 27.8 8.3 14.5 15.6 24.3-8.2 20.8-23.9-3.6-62.6-21.1-64.3-41.1-1.7-20-1.7-20-1.7-20z"/>
					<g id="&lt;Group&gt;">
						<path id="&lt;Path&gt;" fill-rule="evenodd" class="s0" d="m481.2 1144.6c0 0-133.8-5.1-163.2 33.1 0 0-6.6 19.6-26.7 37.4l-3.1 8.5c0 0 23.2-24.4 31.5-25.9 0 0-13-47.4 161.5-53.1z"/>
						<path id="&lt;Path&gt;" fill-rule="evenodd" class="s0" d="m291.3 1215.1c0 0-28.7 21.2-30.7 59.1l5.3 0.5c0 0 9.1-39.2 25.7-54.6 16.6-15.3-0.3-5-0.3-5z"/>
					</g>
				</g>
				<g id="&lt;Group&gt;">
					<path id="&lt;Path&gt;" fill-rule="evenodd" class="s0" d="m199.4 1128c0 0 53.9-30.2 28.8-71.2 0 0-20.2-25.2-41.8-31.7 0 0 11.5 61.2 0 62.6-11.5 1.5-7.9-69-7.9-69 0 0-56.8-27.4-79.1-25.2 0 0 35.2 59.7 23.7 58.3-11.5-1.5-51.1-61.9-51.1-61.9 0 0-58.1-10.8-67.5 23.7-9.3 34.6 5.8 51.8 14.4 54 8.6 2.2 63.9 1.4 62.5 8.6-1.4 7.2-38.8 18.7-59.6 12.3 0 0 23 56.7 53.1 53.9 30.2-2.9 39.6-21.6 58.3-23 18.7-1.4 32.4 3.6 23 8.6-9.3 5.1-41 1.7-56.1 14.5-15.1 12.8-27.3 20.7 0.7 26.4 28.1 5.8 78.4 2.2 88.5-19.4 10.1-21.5 10.1-21.5 10.1-21.5z"/>
					<g id="&lt;Group&gt;">
						<path id="&lt;Path&gt;" fill-rule="evenodd" class="s0" d="m31.1 1024.4c0 0 151 48.9 168.3 103.6 0 0-0.7 24.4 14.4 52.4v10.8c0 0-15.9-36.7-24.5-41.7 0 0 33.8-47.4-158.2-125.1z"/>
						<path id="&lt;Path&gt;" fill-rule="evenodd" class="s0" d="m213.8 1180.4c0 0 23.3 35.4 10 78.5l-6-1.6c0 0 5.8-47.5-6.4-71.3-12.2-23.9 2.4-5.6 2.4-5.6z"/>
					</g>
				</g>
				<g id="&lt;Group&gt;">
					<path id="&lt;Path&gt;" fill-rule="evenodd" class="s1" d="m285.2 1086.4c0 0-71.1-39.9-37.9-93.9 0 0 26.5-33.2 55-41.8 0 0-15.2 80.6 0 82.5 15.2 1.9 10.4-91 10.4-91 0 0 74.8-36 104.2-33.2 0 0-46.4 78.7-31.2 76.8 15.1-1.9 67.3-81.5 67.3-81.5 0 0 76.8-14.3 89.1 31.3 12.4 45.5-7.6 68.2-18.9 71.1-11.4 2.8-84.4 1.9-82.5 11.4 1.9 9.5 51.2 24.6 78.7 16.1 0 0-30.4 74.9-70.2 71.1-39.8-3.8-52.2-28.4-76.8-30.3-24.7-1.9-42.6 4.7-30.4 11.4 12.4 6.6 54.1 2.1 74 19.1 19.9 16.9 36 27.3-0.9 34.9-37 7.5-103.3 2.9-116.6-25.6-13.3-28.4-13.3-28.4-13.3-28.4z"/>
					<g id="&lt;Group&gt;">
						<path id="&lt;Path&gt;" fill-rule="evenodd" class="s1" d="m507 949.8c0 0-199 64.5-221.8 136.6 0 0 1 32.2-18.9 69.1v14.2c0 0 20.8-48.3 32.2-54.9 0 0-44.6-62.6 208.5-165z"/>
						<path id="&lt;Path&gt;" fill-rule="evenodd" class="s1" d="m266.3 1155.5c0 0-30.8 46.6-13.2 103.4l7.9-2.1c0 0-7.7-62.6 8.4-94 16-31.4-3.1-7.3-3.1-7.3z"/>
					</g>
				</g>
				<path id="&lt;Path&gt;" fill-rule="evenodd" class="s1" d="m282.8 1382c76.9 0 139.3-62.4 139.3-139.3h-278.6c0 76.9 62.4 139.3 139.3 139.3z"/>
				<path id="&lt;Path&gt;" fill-rule="evenodd" class="s1" d="m424 1389.1h-282.4c0-9.5 7.7-17.2 17.2-17.2h248c9.5 0 17.2 7.7 17.2 17.2z"/>
				<path id="&lt;Path&gt;" fill-rule="evenodd" class="s2" d="m425.2 1242.7v4.3h-286.3v-4.3z"/>
			</g>
			<g id="&lt;Group&gt;">
				<g id="&lt;Group&gt;">
					<path id="&lt;Path&gt;" fill-rule="evenodd" class="s3" d="m1001.5 1841.4h0.6c5.7-0.1 10-4.7 9.5-10l-37.6-375-32.7 2.9 53.9 377c0.4 3 3.1 5.1 6.3 5.1z"/>
				</g>
				<g id="&lt;Group&gt;">
					<path id="&lt;Path&gt;" fill-rule="evenodd" class="s3" d="m639.9 1841.4h-0.7c-5.6-0.1-9.9-4.7-9.4-10l37.5-375 32.8 2.9-53.9 377c-0.4 3-3.1 5.1-6.3 5.1z"/>
				</g>
				<g id="&lt;Group&gt;">
					<path id="&lt;Path&gt;" fill-rule="evenodd" class="s3" d="m1266.3 1841.4h0.7c5.6-0.1 10-4.7 9.4-10l-37.5-375-32.8 2.9 53.9 377c0.5 3 3.2 5.1 6.3 5.1z"/>
				</g>
				<path id="&lt;Path&gt;" fill-rule="evenodd" class="s3" d="m651.1 1401.9l-66.6-329.1c-8.5-44.5 28.4-85.3 76.3-84.2l128.5 2.9c44.4 1 83 30.7 95.3 73.3l97.4 337.1z"/>
				<path id="&lt;Path&gt;" fill-rule="evenodd" class="s3" d="m691.4 1401.9l-66.6-329.1c-8.5-44.5 28.4-85.3 76.3-84.2l128.6 2.9c44.3 1 82.8 30.7 95.1 73.3l97.5 337.1z"/>
				<path id="&lt;Path&gt;" fill-rule="evenodd" class="s3" d="m669.7 1461.9h508.4c10.3 0 18.6-8.4 18.6-18.6v-22.8c0-10.2-8.3-18.6-18.6-18.6h-527v41.4c0 10.2 8.4 18.6 18.6 18.6z"/>
				<path id="&lt;Path&gt;" fill-rule="evenodd" class="s3" d="m908.3 1461.9h324.1c8.3 0 15-6.8 15-15v-30c0-8.2-6.7-15-15-15h-324.1c-8.2 0-14.9 6.8-14.9 15v30c0 8.2 6.7 15 14.9 15z"/>
			</g>
			<g id="&lt;Group&gt;">
				<path id="&lt;Path&gt;" fill-rule="evenodd" class="s4" d="m499.4 1397.6v11.3c0 3.9-1.2 7.1-2.8 7.1h-409.7c-1.6 0-2.9-3.2-2.9-7.1v-11.3c0-3.9 1.3-7.1 2.9-7.1h409.7c1.6 0 2.8 3.2 2.8 7.1z"/>
				<path id="&lt;Path&gt;" fill-rule="evenodd" class="s5" d="m499.4 1397.6v11.3c0 3.9-1.1 7.1-2.6 7.1h-325.2c-1.5 0-2.6-3.2-2.6-7.1v-11.3c0-3.9 1.1-7.1 2.6-7.1h325.2c1.5 0 2.6 3.2 2.6 7.1z"/>
				<path id="&lt;Path&gt;" fill-rule="evenodd" class="s0" d="m395.7 1416v423.9h-290.9v-423.9z"/>
				<path id="&lt;Path&gt;" fill-rule="evenodd" class="s6" d="m477.2 1416v423.9h-290.8v-423.9z"/>
				<g id="&lt;Group&gt;">
					<g id="&lt;Group&gt;">
						<path id="&lt;Compound Path&gt;" fill-rule="evenodd" class="s7" d="m461.6 1427.9v388.6h-259.6v-388.6zm-2.8 2.9v382.9h-254v-382.9z"/>
					</g>
					<g id="&lt;Group&gt;">
						<path id="&lt;Path&gt;" fill-rule="evenodd" class="s7" d="m460.2 1556.5v2.8h-256.8v-2.8z"/>
					</g>
					<g id="&lt;Group&gt;">
						<path id="&lt;Path&gt;" fill-rule="evenodd" class="s7" d="m460.2 1687.6v2.8h-256.8v-2.8z"/>
					</g>
					<path id="&lt;Path&gt;" fill-rule="evenodd" class="s7" d="m358.1 1453h-47.6c-2.3 0-4.2-1.9-4.2-4.2 0-2.3 1.9-4.2 4.2-4.2h47.6c2.3 0 4.2 1.9 4.2 4.2 0 2.3-1.9 4.2-4.2 4.2z"/>
					<path id="&lt;Path&gt;" fill-rule="evenodd" class="s7" d="m358.1 1581.2h-47.6c-2.3 0-4.2-1.9-4.2-4.2 0-2.3 1.9-4.2 4.2-4.2h47.6c2.3 0 4.2 1.9 4.2 4.2 0 2.3-1.9 4.2-4.2 4.2z"/>
					<path id="&lt;Path&gt;" fill-rule="evenodd" class="s7" d="m358.1 1714.7h-47.6c-2.3 0-4.2-1.9-4.2-4.2 0-2.3 1.9-4.2 4.2-4.2h47.6c2.3 0 4.2 1.9 4.2 4.2 0 2.3-1.9 4.2-4.2 4.2z"/>
				</g>
			</g>
			<g id="&lt;Group&gt;">
				<path id="&lt;Path&gt;" fill-rule="evenodd" class="s8" d="m1641.3 653.7h-184.3c-8.5 0-15.4-6.9-15.4-15.4v-177.9c0-8.5 6.9-15.4 15.4-15.4h184.3c8.5 0 15.4 6.9 15.4 15.4v177.9c0 8.5-6.9 15.4-15.4 15.4z"/>
				<path id="&lt;Path&gt;" fill-rule="evenodd" class="s6" d="m1633.3 644.6h-168.4c-7.7 0-14-6.3-14-14v-162.5c0-7.7 6.3-14.1 14-14.1h168.4c7.8 0 14.1 6.4 14.1 14.1v162.5c0 7.7-6.3 14-14.1 14z"/>
				<g id="&lt;Group&gt;">
					<g id="&lt;Group&gt;">
						<path id="&lt;Path&gt;" fill-rule="evenodd" class="s7" d="m1549.1 477.5c-2.4 0-4.5-2-4.5-4.4 0-2.5 2.1-4.5 4.5-4.5 2.5 0 4.5 2 4.5 4.5 0 2.4-2 4.4-4.5 4.4z"/>
						<path id="&lt;Path&gt;" fill-rule="evenodd" class="s7" d="m1580.6 479.4c1.2-2.2 3.9-2.9 6.1-1.7 2.1 1.1 2.9 3.9 1.7 6-1.2 2.2-3.9 2.9-6.1 1.7-2.1-1.2-2.9-3.9-1.7-6z"/>
						<path id="&lt;Path&gt;" fill-rule="evenodd" class="s7" d="m1611.4 503.9c2.1-1.4 4.9-0.8 6.2 1.3 1.3 2.1 0.7 4.8-1.3 6.2-2.1 1.3-4.9 0.7-6.2-1.4-1.3-2-0.7-4.8 1.3-6.1z"/>
						<path id="&lt;Path&gt;" fill-rule="evenodd" class="s7" d="m1626.7 550.7c-2.4 0-4.5-2-4.5-4.5 0-2.4 2.1-4.4 4.5-4.4 2.5 0 4.5 2 4.5 4.4 0 2.5-2 4.5-4.5 4.5z"/>
						<path id="&lt;Path&gt;" fill-rule="evenodd" class="s7" d="m1618.9 585.6c1.7 1.8 1.7 4.6 0 6.4-1.7 1.7-4.6 1.7-6.3 0-1.7-1.8-1.7-4.6 0-6.4 1.7-1.6 4.6-1.6 6.3 0z"/>
						<path id="&lt;Path&gt;" fill-rule="evenodd" class="s7" d="m1590.9 613.7c1.7 1.8 1.7 4.6 0 6.3-1.7 1.8-4.6 1.8-6.3 0-1.7-1.7-1.7-4.5 0-6.3 1.7-1.7 4.6-1.7 6.3 0z"/>
						<path id="&lt;Path&gt;" fill-rule="evenodd" class="s7" d="m1549.1 632.6c-2.4 0-4.5-2-4.5-4.4 0-2.5 2.1-4.5 4.5-4.5 2.5 0 4.5 2 4.5 4.5 0 2.4-2 4.4-4.5 4.4z"/>
					</g>
					<g id="&lt;Group&gt;">
						<path id="&lt;Path&gt;" fill-rule="evenodd" class="s7" d="m1517.4 479.4c-1.2-2.2-3.9-2.9-6-1.7-2.2 1.1-3 3.9-1.8 6 1.2 2.2 4 2.9 6.1 1.7 2.2-1.2 2.9-3.9 1.7-6z"/>
						<path id="&lt;Path&gt;" fill-rule="evenodd" class="s7" d="m1486.6 503.9c-2.1-1.4-4.8-0.8-6.1 1.3-1.4 2.1-0.8 4.8 1.3 6.2 2.1 1.3 4.8 0.7 6.1-1.4 1.4-2 0.8-4.8-1.3-6.1z"/>
						<path id="&lt;Path&gt;" fill-rule="evenodd" class="s7" d="m1471.4 550.7c-2.5 0-4.5-2-4.5-4.5 0-2.4 2-4.4 4.5-4.4 2.4 0 4.4 2 4.4 4.4 0 2.5-2 4.5-4.4 4.5z"/>
						<path id="&lt;Path&gt;" fill-rule="evenodd" class="s7" d="m1479.1 585.6c-1.7 1.8-1.7 4.6 0 6.4 1.8 1.7 4.6 1.7 6.4 0 1.7-1.8 1.7-4.6 0-6.4-1.8-1.6-4.6-1.6-6.4 0z"/>
						<path id="&lt;Path&gt;" fill-rule="evenodd" class="s7" d="m1507.1 613.7c-1.7 1.8-1.7 4.6 0 6.3 1.8 1.8 4.6 1.8 6.3 0 1.8-1.7 1.8-4.5 0-6.3-1.7-1.7-4.5-1.7-6.3 0z"/>
					</g>
				</g>
				<g id="&lt;Group&gt;">
					<path id="&lt;Path&gt;" fill-rule="evenodd" class="s7" d="m1552.4 550.7c-2.5 0-4.5-2-4.5-4.5 0-2.4 2-4.4 4.5-4.4 2.4 0 4.4 2 4.4 4.4 0 2.5-2 4.5-4.4 4.5z"/>
					<g id="&lt;Group&gt;">
						<path id="&lt;Path&gt;" fill-rule="evenodd" class="s7" d="m1553 490.5v55.7h-1.3v-55.7z"/>
					</g>
					<g id="&lt;Group&gt;">
						<path id="&lt;Path&gt;" fill-rule="evenodd" class="s7" d="m1552.9 547.6l-2.2-2.9 29.5-23.2 2.2 2.9z"/>
					</g>
				</g>
			</g>
			<g id="&lt;Group&gt;">
				<g id="&lt;Group&gt;">
					<path id="&lt;Path&gt;" fill-rule="evenodd" class="s9" d="m1094.1 1333c-27.5 47.9-62.1 66.4-62.1 66.4h-143.9c0 0 227-102.9 206-66.4z"/>
					<g id="&lt;Group&gt;">
						<path id="&lt;Path&gt;" fill-rule="evenodd" class="s10" d="m1271.6 1808.7c-1.5 15.1 19.5 19 43.9 20.4 24.3 1.5 16.9 6.4 50.2 12.8 33.4 6.5 46.9-2.5 49.4-7 2.2-4-13.3-10.4-29.8-17.7q-3.1-1.4-6.2-2.8c-18.6-8.4-28.8-25.2-43.2-40.8-13.6-14.9-26.2-62-26.2-62l-45.3-10.1c0 0 12.3 42.3 16.6 60.5 2.4 10.6-1.5 22.4-5 31.4-1.9 4.9-3.8 9.9-4.4 15.3z"/>
						<path id="&lt;Path&gt;" fill-rule="evenodd" class="s11" d="m1315.5 1829.1c24.3 1.5 16.9 6.4 50.2 12.8 33.4 6.5 46.9-2.5 49.4-7 2.2-4-13.3-10.4-29.8-17.7l-0.3 0.3c0 0-23.5 7.7-50.6 0-22-6.2-43.3-19.6-58.4-24.1-1.9 4.9-3.8 9.9-4.4 15.3-1.5 15.1 19.5 19 43.9 20.4z"/>
						<path id="&lt;Path&gt;" fill-rule="evenodd" class="s12" d="m1203 1284c-24.4-17.1-185.6-47.7-267.8-56.5l-90.9-78.9c0 0-77.4 114.6-78 202.4-0.3 40.9 18.5 44.9 18.5 44.9 0 0 291.5 2.2 304.3 3.5 20.9 2.2 48.5 54.2 55.4 101.7 6.9 47.4 128.4 240.4 128.4 240.4 0 0 25.3 8.1 37.1 7.4 12.6-0.7 18.4-4.9 18.4-4.9 0 0-70.4-421.4-125.4-460z"/>
						<path id="&lt;Path&gt;" fill-rule="evenodd" class="s10" d="m1196.2 1808.7c-1.6 15.1 19.5 19 43.8 20.4 24.4 1.5 17 6.4 50.3 12.8 33.4 6.5 46.9-2.5 49.3-7 2.2-4-13.2-10.4-29.7-17.7q-3.1-1.4-6.2-2.8c-18.6-8.4-28.9-25.2-43.2-40.8-13.6-14.9-26.2-62-26.2-62l-45.3-10.1c0 0 12.3 42.3 16.5 60.5 2.5 10.6-1.4 22.4-5 31.4-1.8 4.9-3.8 9.9-4.3 15.3z"/>
						<path id="&lt;Path&gt;" fill-rule="evenodd" class="s9" d="m1240 1829.1c24.4 1.5 17 6.4 50.3 12.8 33.4 6.5 46.9-2.5 49.3-7 2.2-4-13.2-10.4-29.7-17.7l-0.3 0.3c0 0-23.6 7.7-50.6 0-22-6.2-43.3-19.6-58.5-24.1-1.8 4.9-3.8 9.9-4.3 15.3-1.6 15.1 19.5 19 43.8 20.4z"/>
						<path id="&lt;Path&gt;" fill-rule="evenodd" class="s13" d="m1127 1284c-21.2-14.9-84.9-26.4-155.2-35-19.4-2.3-35.4-16.5-40.1-35.5l-163.5-64.9c0 0-77.4 114.6-78 202.4-0.3 40.9 18.5 44.9 18.5 44.9 0 0 291.5 2.2 304.3 3.5 20.9 2.2 48.5 54.2 55.4 101.7 6.9 47.4 128.4 240.4 128.4 240.4 0 0 25.4 8.1 37.1 7.4 12.6-0.7 18.4-4.9 18.4-4.9 0 0-70.4-421.4-125.3-460z"/>
						<path id="&lt;Compound Path&gt;" fill-rule="evenodd" class="s14" d="m908.1 672.3c-22.3-11.8-56.5-13.4-62.1-14.1-66.5-9-106.5 87.6-108.8 116.9-4.4 54-32.9 62.2-73.1 95.9-80.4 67.7-56.8 146.5-12.9 175.7 26.5 17.6 73 0 73 0 0.7 0.5 127.4-70.8 189.8-105.2 93.7-13.4 51.4-239.1-5.9-269.2z"/>
						<path id="&lt;Path&gt;" fill-rule="evenodd" class="s10" d="m894.4 908.2c0.3 0.2-29.6 13.7-51.1 6.6-20.2-6.6-38.1-37.1-37.8-37.2 8.8-1.3 17.7-9.9 20.2-61.2l3.9 0.9 65.5 16.6c0 0-2.6 20.7-3.7 40.2-0.9 16.5-0.7 32.2 3 34.1z"/>
						<path id="&lt;Path&gt;" fill-rule="evenodd" class="s15" d="m895.1 833.9c0 0 0 4.3-2.5 23.6-37-9.4-53.3-21.7-64.8-35.7z"/>
						<path id="&lt;Path&gt;" fill-rule="evenodd" class="s10" d="m908.9 836.5c0 0-86.4 14.1-94.4-40-7.9-54-24.4-88.6 30.5-99.9 54.8-11.3 68.6 7.8 75.7 25.2 7 17.4 10.6 109.6-11.8 114.7z"/>
						<path id="&lt;Path&gt;" fill-rule="evenodd" class="s14" d="m909 694.4c0 0-39.2 62-74.3 76.7-35.1 14.7-52.3 7.3-52.3 7.3 0 0 15.9-24.2 20.1-56.8 1.2-9.5 7.5-17.8 16.4-21.3 25.2-10.1 73.9-26 90.1-5.9z"/>
						<path id="&lt;Path&gt;" fill-rule="evenodd" class="s14" d="m874.6 700.4c0 0 23 11.8 32.4 22.9 9.2 10.6 19.8 39.6 19 52.7 0 0 11.4-62.4-12.3-83.9-25-22.7-39.1 8.3-39.1 8.3z"/>
						<path id="&lt;Path&gt;" fill-rule="evenodd" class="s16" d="m963.5 1040.3c-2.6 175.8-0.7 139.1-19.9 155.8-4.7 4-17.7 6.4-34.9 7.5-53.8 3.6-148.7-5.3-152.3-15.3-12.4-34.5-3.6-45.1-14-97.9-1.1-5.6-2.5-11.7-4-18.3-8.7-36.3-17.1-48.7 13.6-106.9 27.9-52.8 60.6-95.7 63.2-94.2 73.5 43.6 76 7.1 76 7.1 0 0 73.6 76.3 72.3 162.2z"/>
						<path id="&lt;Path&gt;" fill-rule="evenodd" class="s16" d="m891.2 878.1c0 0 75.1 12.7 84 45.3 8.9 32.5 61.2 223.8 61.2 223.8 0 0-38.5 6.9-56.2-10.7-17.8-17.8-61.8-164.8-61.8-164.8z"/>
						<path id="&lt;Path&gt;" fill-rule="evenodd" class="s17" d="m908.7 1203.6c-53.8 3.6-148.7-5.3-152.3-15.3-12.4-34.5-3.6-45.1-14-97.9l26-73.3c0 0-4.3 81.6 19.8 103.1 24 21.4 98.5 41.3 110.1 59.3 5.6 8.6 9.4 17.2 10.4 24.1z"/>
						<path id="&lt;Path&gt;" fill-rule="evenodd" class="s10" d="m847 1169.3c0 0 53.1-11.9 61.7-7.1 8.6 4.7 29.6 21.9 32.2 27.9 2.7 6-19.1-4.6-26.2-6.5-4.5-1.2-16.6 3-22.5 5-25.1 8.4-40.5 4.1-40.5 4.1z"/>
						<path id="&lt;Path&gt;" fill-rule="evenodd" class="s16" d="m815.2 871c0 0-75.3 4.4-100.1 38.9-34.8 48.6-103.8 255.6-64.3 283.2 44.6 31.1 203 8.1 203 8.1 0 0 5.2-24.6-2.1-36.5-7.3-12-126.5-31.1-132-36.6-5.5-5.5 68.8-107.3 68.8-123.8 0-16.5 26.7-133.3 26.7-133.3z"/>
						<path id="&lt;Path&gt;" fill-rule="evenodd" class="s10" d="m911.3 1177c0 0 11.2 14.4 14.8 16.1 3.7 1.7 6 1.3 6 1.3l-7.5-13.5z"/>
						<path id="&lt;Path&gt;" fill-rule="evenodd" class="s10" d="m908.7 1162.2l32.5 15.7c0 0-1.4 2.3-5.4 2.1-4-0.2-14.1-3.9-14.1-3.9z"/>
					</g>
				</g>
			</g>
			<g id="&lt;Group&gt;">
				<path id="&lt;Path&gt;" fill-rule="evenodd" class="s18" d="m1028.2 1199.5h-150.5c0-6.6 5.4-12 12-12h138.5z"/>
				<path id="&lt;Path&gt;" fill-rule="evenodd" class="s19" d="m1027.8 1035.6h232.7l-55.8 163.9h-234.3z"/>
				<path id="&lt;Path&gt;" fill-rule="evenodd" class="s20" d="m1264 1035.6l-55.9 163.9h-234.3l57.4-163.9z"/>
				<path id="&lt;Path&gt;" fill-rule="evenodd" class="s16" d="m1138.5 1116.1c-1.4 6.2-7.7 11.3-14 11.3-6.2 0-10.1-5.1-8.7-11.3 1.5-6.3 7.7-11.4 14-11.4 6.3 0 10.2 5.1 8.7 11.4z"/>
			</g>
			<g id="&lt;Group&gt;">
				<path id="&lt;Path&gt;" fill-rule="evenodd" class="s5" d="m825.6 1236.4h1020.1c4.3 0 7.8-3.5 7.8-7.8v-21.3c0-4.3-3.5-7.8-7.8-7.8h-1020.1c-4.3 0-7.8 3.5-7.8 7.8v21.3c0 4.3 3.5 7.8 7.8 7.8z"/>
				<g id="&lt;Group&gt;">
					<path id="&lt;Path&gt;" fill-rule="evenodd" class="s5" d="m1870.7 1844.1h0.4c5.3-0.7 9-5.3 8.3-10.5l-90.9-615.3-33.3 0.9 107 618.7c0.7 4 4.4 6.7 8.5 6.2z"/>
				</g>
				<g id="&lt;Group&gt;">
					<path id="&lt;Path&gt;" fill-rule="evenodd" class="s5" d="m791.4 1844.1h-0.4c-5.2-0.7-8.9-5.3-8.3-10.5l91-615.3 33.2 0.9-106.9 618.7c-0.7 4-4.5 6.7-8.6 6.2z"/>
				</g>
				<g id="&lt;Group&gt;">
					<path id="&lt;Path&gt;" fill-rule="evenodd" class="s5" d="m1001.9 1844.1h-0.5c-5.2-0.7-8.9-5.3-8.2-10.5l90.9-615.3 33.3 0.9-107 618.7c-0.7 4-4.4 6.7-8.5 6.2z"/>
				</g>
			</g>
			<g id="&lt;Group&gt;">
				<path id="&lt;Path&gt;" fill-rule="evenodd" class="s9" d="m1538.2 1843.6h180.4c8.7-10.6 5.5-49.7 4.2-62.4-0.3-2.6-0.5-4.1-0.5-4.1 0 0-61.6-49.3-70-11.5q-0.4 1.7-1 3.5c-10.6 35.3-58.5 51.3-86.1 55.8-17.9 2.9-24.6 12.2-27 18.7z"/>
				<path id="&lt;Path&gt;" fill-rule="evenodd" class="s12" d="m2030.4 1257.5c-6.5 0-308.9 56.8-359 118.7-25 31-28.7 388.2-28.7 388.2 0 0 30.9 38.4 97.6 16.1 0 0 49-244.4 45.4-318.6-1-20.5 206.7-3 244.7-12.8 38-9.9 130.9-92.5 110.4-132.8-20.4-40.3-110.4-58.8-110.4-58.8z"/>
				<path id="&lt;Path&gt;" fill-rule="evenodd" class="s10" d="m1672.7 1169.9c0 0-61 0.9-75.5 7-14.4 6.2-43.7 20.4-35.8 22.6 7.8 2.2 45.2-0.9 53.3 0.3 8 1.3 18-0.3 22.9-0.3 5 0 28.1 0 28.1 0z"/>
				<path id="&lt;Path&gt;" fill-rule="evenodd" class="s10" d="m1601.3 1023.5c0 0-20.8-14.8-41-17.7-11.5-1.7-22.7-3.7-29.5-6.1-18.6-6.6-55.9-40.1-53.1-44 9-12.7 52.6 14 60.2 11.2 7.6-2.9-14.6-18.7-6.9-24.3 4-2.9 13.5 11.7 21.2 13.1 10.4 2 18.6 16.8 21.7 17.5 6.2 1.5 33 21.5 33 21.5z"/>
				<path id="&lt;Path&gt;" fill-rule="evenodd" class="s18" d="m2000.3 850c0 0-46.4 14.4-92.2 140.4-45.8 126-63.2 132.8-79.8 137.8-16.7 4.9-162.6 33.9-162.6 33.9v37.4h224.9c0 0 84.4-80.2 109.7-134.2 25.2-54.1 0-215.3 0-215.3z"/>
				<path id="&lt;Path&gt;" fill-rule="evenodd" class="s21" d="m1458.4 1843.6h180.5c8.7-10.6 5.5-49.7 4.1-62.4-0.2-2.6-0.4-4.1-0.4-4.1 0 0-61.6-49.3-70.1-11.5q-0.4 1.7-0.9 3.5c-10.7 35.3-58.5 51.3-86.1 55.8-18 2.9-24.6 12.2-27.1 18.7z"/>
				<path id="&lt;Path&gt;" fill-rule="evenodd" class="s13" d="m1941.3 1257.5c-6.5 0-309 56.8-359.1 118.7-25 31-28.7 388.2-28.7 388.2 0 0 31 38.4 97.8 16.1 0 0 48.9-244.4 45.3-318.6-1-20.5 206.7-3 244.7-12.8 38-9.9 130.8-92.5 110.4-132.8-20.5-40.3-110.4-58.8-110.4-58.8z"/>
				<path id="&lt;Path&gt;" fill-rule="evenodd" class="s10" d="m1960.2 889.8c21.8-1.8 44.6-7.6 64.3-14 24.6-8 44.5-19.6 31.7-42.1-11.8-20.8-30.9-67.2-29.6-105.6l-45.8 37-31.2 25.1c0 0 0.1 14.8 3.5 40.7q1 7.1 2.3 15.3c0.6 4.4-1.4 8.8-5.2 11.2q-0.3 0.2-0.7 0.4c-15.5 9.7-7.5 33.5 10.7 32z"/>
				<path id="&lt;Path&gt;" fill-rule="evenodd" class="s15" d="m1949.6 784.1c0 0-1.6 5.4 1.2 25.2 27.7-4.5 53.7-26.7 53.7-26.7-14.1-3.9-19.3-19.2-29.8-17.7z"/>
				<path id="&lt;Path&gt;" fill-rule="evenodd" class="s10" d="m1923.9 788.6c0 0 106.8 17.8 116.8-49 10.1-66.7 30.6-109.4-37.1-123.5-67.8-14.2-84.9 9.3-93.7 30.8-8.8 21.4-13.5 135.4 14 141.7z"/>
				<path id="&lt;Path&gt;" fill-rule="evenodd" class="s14" d="m1894.2 617.3c-4.6 16.1 7.7 35.7 28.3 42.1 30.6 9.6 23.8 47.1 37.6 46.6 13.8-0.5 19.3-21.6 31.6-4.7 10.5 14.3-8.7 31.3-7.4 39.2 2.3 13.5 23.5 41.2 42.5 39.8 19-1.4 54.7-92.1 47.6-120.1-7.1-28.1-35.7-57.7-62.6-61.8-27.1-4-64.6 7.6-73.3 7.6-8.7 0-41.9 2.6-44.3 11.3z"/>
				<path id="&lt;Path&gt;" fill-rule="evenodd" class="s20" d="m2142.2 942.5c-15.4-62.2-58.1-127.3-87-127.3-49.1 0.1-119.8 13.1-148.3 83.5-21.1 51.8-49.1 350.2-17.4 371.4 72.5 48.5 240.3 147.5 270.2 46.5 27.3-92.5 9.4-266.2-17.5-374.1z"/>
				<path id="&lt;Path&gt;" fill-rule="evenodd" class="s20" d="m2022.8 880.6c-14-36.4-59.2-49-90.1-25-16.7 12.9-37.2 31.4-61.9 57.7-91.8 97.8-110.4 97.2-127.7 95.1-17.1-2-162.8-32.9-162.8-32.9 0 0-7.4 5.5-11.8 14.4-5.9 11.9-2.9 20-2.9 20-5.8-3.7 51.6 35.8 80.1 51.6 37.7 20.8 94.4 40.3 117.1 47.7 6.4 2.1 13.3 2 19.6-0.3 33.6-12.1 146.4-56.2 238.1-132.7 24.2-20.2 15.3-61.7 2.3-95.6z"/>
				<path id="&lt;Path&gt;" fill-rule="evenodd" class="s16" d="m2060.2 815.8l-11.2-25.1c0 0-99.6 8.2-116.3 64.9 0 0 77.3-38.5 127.5-39.8z"/>
			</g>
			<g id="&lt;Group&gt;">
				<g id="&lt;Group&gt;">
					<path id="&lt;Path&gt;" fill-rule="evenodd" class="s3" d="m2302.1 1841.4h0.7c5.7-0.1 10-4.7 9.5-10l-37.5-375-32.8 2.9 54 377c0.4 3 3 5.1 6.1 5.1z"/>
				</g>
				<g id="&lt;Group&gt;">
					<path id="&lt;Path&gt;" fill-rule="evenodd" class="s3" d="m2108.9 1841.4h0.7c5.7-0.1 10-4.7 9.5-10l-37.6-375-32.8 2.9 54 377c0.4 3 3.1 5.1 6.2 5.1z"/>
				</g>
				<g id="&lt;Group&gt;">
					<path id="&lt;Path&gt;" fill-rule="evenodd" class="s22" d="m1746.1 1841.4h-0.7c-5.6-0.1-9.8-4.7-9.3-10l37.5-375 32.7 2.9-53.9 377c-0.4 3-3.1 5.1-6.3 5.1z"/>
				</g>
				<path id="&lt;Path&gt;" fill-rule="evenodd" class="s3" d="m2291.6 1403.4l35.6-313.2c4.6-45.1-10.5-89.3-75.5-92.8l-114.6-6.9c-67.9-2.9-98.6 53.7-107.2 97.2l-67.9 344.2z"/>
				<path id="&lt;Path&gt;" fill-rule="evenodd" class="s22" d="m2272.5 1461.9h-508.6c-10.2 0-18.6-8.4-18.6-18.6v-22.8c0-10.2 8.4-18.6 18.6-18.6h527.2v41.4c0 10.2-8.4 18.6-18.6 18.6z"/>
				<path id="&lt;Path&gt;" fill-rule="evenodd" class="s3" d="m2276.6 1461.9h-300.2c-8 0-14.4-6.5-14.4-14.5v-31c0-8 6.4-14.5 14.4-14.5h314.7v45.5c0 8-6.5 14.5-14.5 14.5z"/>
			</g>
		</g>
	</g>
</svg>