<svg xmlns="http://www.w3.org/2000/svg" version="1.2" viewBox="350.18 399.5 2327.29 1399.68">
	<title>7566</title>
	<style>
		.s0 { fill: #c8dbf4 } 
		.s1 { fill: #d4e4f8 } 
		.s2 { fill: #9fc1f4 } 
		.s3 { fill: #8cb4f4 } 
		.s4 { fill: #9abfe2 } 
		.s5 { fill: #bad4f4 } 
		.s6 { fill: #dfebfd } 
		.s7 { fill: #b7d3f3 } 
		.s8 { fill: #c0d8fb } 
		.s9 { fill: #233862 } 
		.s10 { fill: #ffb27d } 
		.s11 { fill: #0f2549 } 
		.s12 { fill: #dbdbdb } 
		.s13 { fill: #ebebeb } 
		.s14 { fill: #000000 } 
		.s15 { fill: #ed975d } 
		.s16 { fill: #ffffff } 
		.s17 { fill: #ebf3ff } 
		.s18 { fill: #db6258 } 
		.s19 { fill: #ed7d2b } 
		.s20 { fill: #fd7166 } 
		.s21 { fill: #1b3051 } 
		.s22 { fill: #73a2e5 } 
	</style>
	<g id="Слой 1">
		<g id="&lt;Group&gt;">
			<g id="&lt;Group&gt;">
				<g id="&lt;Group&gt;">
					<path id="&lt;Path&gt;" class="s0" d="m666.7 1132.5c0 0-33.9-39.6-2.1-64.7 0 0 23.2-14.1 42.2-12.9 0 0-26.9 45-18.2 49.5 8.7 4.5 26.3-52.4 26.3-52.4 0 0 52.9-5.1 70 3.1 0 0-45.3 37-35.7 39.2 9.5 2.2 58.3-34.1 58.3-34.1 0 0 49.3 8.3 46.7 38.4-2.7 30-19.6 39.3-27.1 38.5-7.5-0.8-51.1-17.4-52-11.3-1 6.1 25.3 26 43.7 27 0 0-34.7 38.3-57.8 27.2-23.1-11-25.1-28.6-39.4-35.1-14.4-6.6-26.7-6.6-20.8 0.1 6 6.7 32 13.2 40.2 27.8 8.3 14.5 15.6 24.3-8.2 20.8-23.9-3.6-62.7-21.1-64.4-41.1-1.7-20-1.7-20-1.7-20z"/>
					<g id="&lt;Group&gt;">
						<path id="&lt;Path&gt;" class="s0" d="m830 1099.4c0 0-133.8-5.2-163.3 33.1 0 0-6.6 19.6-26.7 37.4l-3.1 8.5c0 0 23.2-24.4 31.5-25.9 0 0-13-47.4 161.6-53.1z"/>
						<path id="&lt;Path&gt;" class="s0" d="m640 1169.9c0 0-28.7 21.2-30.7 59.1l5.3 0.5c0 0 9.1-39.2 25.7-54.6 16.6-15.3-0.3-5-0.3-5z"/>
					</g>
				</g>
				<g id="&lt;Group&gt;">
					<path id="&lt;Path&gt;" class="s0" d="m548.1 1082.7c0 0 53.9-30.2 28.8-71.2 0 0-20.2-25.2-41.8-31.7 0 0 11.5 61.2 0 62.6-11.5 1.5-7.9-69-7.9-69 0 0-56.8-27.4-79.1-25.2 0 0 35.2 59.7 23.7 58.3-11.5-1.5-51.1-61.9-51.1-61.9 0 0-58.2-10.8-67.6 23.7-9.3 34.6 5.8 51.8 14.4 54 8.6 2.2 64 1.4 62.6 8.6-1.4 7.2-38.9 18.7-59.7 12.3 0 0 23 56.8 53.2 53.9 30.2-2.9 39.6-21.6 58.3-23 18.7-1.4 32.4 3.6 23 8.6-9.3 5.1-41 1.7-56.1 14.5-15.1 12.9-27.3 20.8 0.7 26.5 28.1 5.8 78.4 2.2 88.5-19.4 10.1-21.6 10.1-21.6 10.1-21.6z"/>
					<g id="&lt;Group&gt;">
						<path id="&lt;Path&gt;" class="s0" d="m379.7 979.1c0 0 151.1 48.9 168.4 103.6 0 0-0.7 24.5 14.4 52.5v10.8c0 0-15.9-36.7-24.5-41.7 0 0 33.8-47.5-158.3-125.2z"/>
						<path id="&lt;Path&gt;" class="s0" d="m562.5 1135.2c0 0 23.3 35.4 10 78.5l-6-1.6c0 0 5.8-47.5-6.4-71.3-12.2-23.9 2.4-5.6 2.4-5.6z"/>
					</g>
				</g>
				<g id="&lt;Group&gt;">
					<path id="&lt;Path&gt;" class="s1" d="m633.9 1041.1c0 0-71.1-39.9-37.9-93.9 0 0 26.5-33.2 55-41.8 0 0-15.2 80.6 0 82.5 15.2 1.9 10.4-91 10.4-91 0 0 74.9-36 104.3-33.2 0 0-46.4 78.7-31.2 76.8 15.1-1.9 67.3-81.5 67.3-81.5 0 0 76.8-14.3 89.1 31.3 12.4 45.5-7.6 68.2-18.9 71.1-11.4 2.8-84.4 1.9-82.5 11.4 1.9 9.5 51.2 24.6 78.7 16.1 0 0-30.4 74.9-70.2 71.1-39.8-3.8-52.2-28.4-76.8-30.3-24.7-1.9-42.7 4.7-30.4 11.4 12.4 6.6 54.1 2.1 74 19.1 19.9 16.9 36 27.3-0.9 34.9-37 7.6-103.4 2.9-116.7-25.6-13.3-28.4-13.3-28.4-13.3-28.4z"/>
					<g id="&lt;Group&gt;">
						<path id="&lt;Path&gt;" class="s1" d="m855.8 904.5c0 0-199.1 64.5-221.9 136.6 0 0 1 32.2-18.9 69.2v14.2c0 0 20.8-48.4 32.2-55 0 0-44.6-62.6 208.6-165z"/>
						<path id="&lt;Path&gt;" class="s1" d="m615 1110.3c0 0-30.8 46.6-13.2 103.4l7.9-2.1c0 0-7.7-62.6 8.4-94 16-31.5-3.1-7.3-3.1-7.3z"/>
					</g>
				</g>
				<path id="&lt;Path&gt;" class="s1" d="m631.5 1336.8c77 0 139.4-62.4 139.4-139.3h-278.7c0 76.9 62.4 139.3 139.3 139.3z"/>
				<path id="&lt;Path&gt;" class="s1" d="m772.8 1343.9h-282.5c0-9.5 7.7-17.2 17.2-17.2h248.1c9.5 0 17.2 7.7 17.2 17.2z"/>
				<path id="&lt;Path&gt;" class="s2" d="m774 1201.8h-286.4v-4.3h286.4z"/>
			</g>
			<g id="&lt;Group&gt;">
				<g id="&lt;Group&gt;">
					<path id="&lt;Path&gt;" class="s3" d="m1350.5 1796.4h0.6c5.7-0.1 10-4.7 9.5-10l-37.6-375.1-32.7 2.9 53.9 377.1c0.4 3 3.1 5.1 6.3 5.1z"/>
				</g>
				<g id="&lt;Group&gt;">
					<path id="&lt;Path&gt;" class="s3" d="m988.8 1796.4h-0.7c-5.6-0.1-9.9-4.7-9.4-10l37.5-375.1 32.8 2.9-53.9 377.1c-0.4 3-3.1 5.1-6.3 5.1z"/>
				</g>
				<g id="&lt;Group&gt;">
					<path id="&lt;Path&gt;" class="s3" d="m1615.4 1796.4h0.7c5.6-0.1 10-4.7 9.4-10l-37.5-375.1-32.8 2.9 53.9 377.1c0.5 3 3.2 5.1 6.3 5.1z"/>
				</g>
				<path id="&lt;Path&gt;" class="s3" d="m1000 1356.7l-66.7-329.2c-8.5-44.5 28.4-85.3 76.4-84.2l128.5 2.9c44.4 1 83 30.7 95.3 73.3l97.5 337.2z"/>
				<path id="&lt;Path&gt;" class="s3" d="m1040.3 1356.7l-66.6-329.2c-8.6-44.5 28.4-85.3 76.3-84.2l128.6 2.9c44.3 1 82.9 30.7 95.2 73.3l97.5 337.2z"/>
				<path id="&lt;Path&gt;" class="s3" d="m1018.6 1416.8h508.6c10.3 0 18.6-8.4 18.6-18.6v-22.9c0-10.2-8.3-18.6-18.6-18.6h-527.2v41.5c0 10.2 8.4 18.6 18.6 18.6z"/>
				<path id="&lt;Path&gt;" class="s3" d="m1257.3 1416.8h324.2c8.3 0 15-6.8 15-15v-30.1c0-8.2-6.7-15-15-15h-324.2c-8.2 0-15 6.8-15 15v30.1c0 8.2 6.8 15 15 15z"/>
			</g>
			<g id="&lt;Group&gt;">
				<path id="&lt;Path&gt;" class="s4" d="m848.2 1352.4v11.3c0 3.9-1.2 7.1-2.8 7.1h-409.8c-1.6 0-2.9-3.2-2.9-7.1v-11.3c0-3.9 1.3-7.1 2.9-7.1h409.8c1.6 0 2.8 3.2 2.8 7.1z"/>
				<path id="&lt;Path&gt;" class="s5" d="m848.2 1352.4v11.3c0 3.9-1.1 7.1-2.6 7.1h-325.3c-1.5 0-2.6-3.2-2.6-7.1v-11.3c0-3.9 1.1-7.1 2.6-7.1h325.3c1.5 0 2.6 3.2 2.6 7.1z"/>
				<path id="&lt;Path&gt;" class="s0" d="m744.5 1794.9h-291v-424.1h291z"/>
				<path id="&lt;Path&gt;" class="s6" d="m826 1794.9h-290.9v-424.1h290.9z"/>
				<g id="&lt;Group&gt;">
					<g id="&lt;Group&gt;">
						<path id="&lt;Compound Path&gt;" class="s7" d="m810.4 1771.5h-259.7v-388.7h259.7zm-256.9-2.8h254.1v-383.1h-254.1z"/>
					</g>
					<g id="&lt;Group&gt;">
						<path id="&lt;Path&gt;" class="s7" d="m809 1514.2h-256.9v-2.8h256.9z"/>
					</g>
					<g id="&lt;Group&gt;">
						<path id="&lt;Path&gt;" class="s7" d="m809 1645.3h-256.9v-2.8h256.9z"/>
					</g>
					<path id="&lt;Path&gt;" class="s7" d="m706.9 1407.9h-47.7c-2.3 0-4.2-1.9-4.2-4.2 0-2.3 1.9-4.2 4.2-4.2h47.7c2.3 0 4.2 1.9 4.2 4.2 0 2.3-1.9 4.2-4.2 4.2z"/>
					<path id="&lt;Path&gt;" class="s7" d="m706.9 1536.1h-47.7c-2.3 0-4.2-1.9-4.2-4.2 0-2.3 1.9-4.2 4.2-4.2h47.7c2.3 0 4.2 1.9 4.2 4.2 0 2.3-1.9 4.2-4.2 4.2z"/>
					<path id="&lt;Path&gt;" class="s7" d="m706.9 1669.7h-47.7c-2.3 0-4.2-1.9-4.2-4.2 0-2.3 1.9-4.2 4.2-4.2h47.7c2.3 0 4.2 1.9 4.2 4.2 0 2.3-1.9 4.2-4.2 4.2z"/>
				</g>
			</g>
			<g id="&lt;Group&gt;">
				<path id="&lt;Path&gt;" class="s8" d="m1990.5 608.3h-184.4c-8.5 0-15.4-6.9-15.4-15.4v-178c0-8.5 6.9-15.4 15.4-15.4h184.4c8.5 0 15.4 6.9 15.4 15.4v178c0 8.5-6.9 15.4-15.4 15.4z"/>
				<path id="&lt;Path&gt;" class="s6" d="m1982.5 599.2h-168.4c-7.8 0-14.1-6.3-14.1-14v-162.6c0-7.7 6.3-14.1 14.1-14.1h168.4c7.8 0 14.1 6.4 14.1 14.1v162.6c0 7.7-6.3 14-14.1 14z"/>
				<g id="&lt;Group&gt;">
					<g id="&lt;Group&gt;">
						<path id="&lt;Path&gt;" class="s7" d="m1893.8 427.6c0-2.5 2-4.5 4.5-4.5 2.5 0 4.5 2 4.5 4.5 0 2.4-2 4.4-4.5 4.4-2.5 0-4.5-2-4.5-4.4z"/>
						<path id="&lt;Path&gt;" class="s7" d="m1929.8 433.9c1.2-2.2 3.9-2.9 6.1-1.7 2.1 1.1 2.9 3.9 1.7 6-1.2 2.2-3.9 2.9-6.1 1.7-2.1-1.2-2.9-3.9-1.7-6z"/>
						<path id="&lt;Path&gt;" class="s7" d="m1960.6 458.4c2.1-1.4 4.9-0.8 6.2 1.3 1.3 2.1 0.7 4.8-1.3 6.2-2.1 1.3-4.9 0.7-6.2-1.4-1.3-2-0.7-4.8 1.3-6.1z"/>
						<path id="&lt;Path&gt;" class="s7" d="m1975.9 496.3c2.5 0 4.5 2 4.5 4.4 0 2.5-2 4.5-4.5 4.5-2.5 0-4.5-2-4.5-4.5 0-2.4 2-4.4 4.5-4.4z"/>
						<path id="&lt;Path&gt;" class="s7" d="m1968.1 540.2c1.7 1.8 1.7 4.6 0 6.4-1.7 1.7-4.6 1.7-6.3 0-1.7-1.8-1.7-4.6 0-6.4 1.7-1.7 4.6-1.7 6.3 0z"/>
						<path id="&lt;Path&gt;" class="s7" d="m1940.1 568.3c1.7 1.8 1.7 4.6 0 6.3-1.7 1.8-4.6 1.8-6.3 0-1.7-1.7-1.7-4.5 0-6.3 1.7-1.7 4.6-1.7 6.3 0z"/>
						<path id="&lt;Path&gt;" class="s7" d="m1893.8 582.8c0-2.5 2-4.5 4.5-4.5 2.5 0 4.5 2 4.5 4.5 0 2.4-2 4.4-4.5 4.4-2.5 0-4.5-2-4.5-4.4z"/>
					</g>
					<g id="&lt;Group&gt;">
						<path id="&lt;Path&gt;" class="s7" d="m1866.6 433.9c-1.2-2.2-3.9-2.9-6-1.7-2.2 1.1-3 3.9-1.8 6 1.2 2.2 4 2.9 6.1 1.7 2.2-1.2 2.9-3.9 1.7-6z"/>
						<path id="&lt;Path&gt;" class="s7" d="m1835.8 458.4c-2.1-1.4-4.8-0.8-6.1 1.3-1.4 2.1-0.8 4.8 1.3 6.2 2.1 1.3 4.8 0.7 6.1-1.4 1.4-2 0.8-4.8-1.3-6.1z"/>
						<path id="&lt;Path&gt;" class="s7" d="m1820.6 496.3c-2.5 0-4.5 2-4.5 4.4 0 2.5 2 4.5 4.5 4.5 2.4 0 4.4-2 4.4-4.5 0-2.4-2-4.4-4.4-4.4z"/>
						<path id="&lt;Path&gt;" class="s7" d="m1828.3 540.2c-1.7 1.8-1.7 4.6 0 6.4 1.8 1.7 4.6 1.7 6.4 0 1.7-1.8 1.7-4.6 0-6.4-1.8-1.7-4.6-1.7-6.4 0z"/>
						<path id="&lt;Path&gt;" class="s7" d="m1856.3 568.3c-1.7 1.8-1.7 4.6 0 6.3 1.8 1.8 4.6 1.8 6.3 0 1.8-1.7 1.8-4.5 0-6.3-1.7-1.7-4.5-1.7-6.3 0z"/>
					</g>
				</g>
				<g id="&lt;Group&gt;">
					<path id="&lt;Path&gt;" class="s7" d="m1897.1 500.7c0-2.4 2-4.4 4.5-4.4 2.4 0 4.4 2 4.4 4.4 0 2.5-2 4.5-4.4 4.5-2.5 0-4.5-2-4.5-4.5z"/>
					<g id="&lt;Group&gt;">
						<path id="&lt;Path&gt;" class="s7" d="m1902.2 500.7h-1.3v-55.7h1.3z"/>
					</g>
					<g id="&lt;Group&gt;">
						<path id="&lt;Path&gt;" class="s7" d="m1902.1 502.1l-2.2-2.9 29.5-23.2 2.2 2.9z"/>
					</g>
				</g>
			</g>
			<g id="&lt;Group&gt;">
				<g id="&lt;Group&gt;">
					<path id="&lt;Path&gt;" class="s9" d="m1443.1 1287.8c-27.5 47.9-62.1 66.4-62.1 66.4h-144c0 0 227.1-102.9 206.1-66.4z"/>
					<g id="&lt;Group&gt;">
						<path id="&lt;Path&gt;" class="s10" d="m1620.7 1763.7c-1.5 15.1 19.5 19 43.9 20.4 24.3 1.5 16.9 6.4 50.2 12.8 33.4 6.5 46.9-2.5 49.4-7 2.2-4-13.3-10.4-29.8-17.7q-3.1-1.4-6.2-2.8c-18.6-8.4-28.8-25.2-43.2-40.8-13.6-14.9-26.2-62-26.2-62l-45.3-10.2c0 0 12.3 42.4 16.6 60.6 2.4 10.6-1.5 22.4-5 31.4-1.9 4.9-3.8 9.9-4.4 15.3z"/>
						<path id="&lt;Path&gt;" class="s11" d="m1664.6 1784.1c24.3 1.5 16.9 6.4 50.2 12.8 33.4 6.5 46.9-2.5 49.4-7 2.2-4-13.3-10.4-29.8-17.7l-0.3 0.3c0 0-23.5 7.7-50.6 0-22-6.2-43.3-19.6-58.4-24.1-1.9 4.9-3.8 9.9-4.4 15.3-1.5 15.1 19.5 19 43.9 20.4z"/>
						<path id="&lt;Path&gt;" class="s12" d="m1552.1 1238.8c-24.4-17.1-185.7-47.7-267.9-56.5l-91-78.9c0 0-77.4 114.6-78 202.4-0.3 40.9 18.5 44.9 18.5 44.9 0 0 291.6 2.2 304.4 3.5 20.9 2.2 48.5 54.3 55.4 101.8 6.9 47.4 128.5 240.5 128.5 240.5 0 0 25.3 8.1 37.1 7.4 12.6-0.7 18.4-4.9 18.4-4.9 0 0-70.4-421.6-125.4-460.2z"/>
						<path id="&lt;Path&gt;" class="s10" d="m1545.3 1763.7c-1.6 15.1 19.5 19 43.8 20.4 24.4 1.5 17 6.4 50.3 12.8 33.4 6.5 46.9-2.5 49.3-7 2.2-4-13.2-10.4-29.7-17.7q-3.1-1.4-6.2-2.8c-18.6-8.4-28.9-25.2-43.2-40.8-13.6-14.9-26.2-62-26.2-62l-45.3-10.2c0 0 12.3 42.4 16.5 60.6 2.5 10.6-1.4 22.4-5 31.4-1.8 4.9-3.8 9.9-4.3 15.3z"/>
						<path id="&lt;Path&gt;" class="s9" d="m1589.1 1784.1c24.4 1.5 17 6.4 50.3 12.8 33.4 6.5 46.9-2.5 49.3-7 2.2-4-13.2-10.4-29.7-17.7l-0.3 0.3c0 0-23.6 7.7-50.6 0-22-6.2-43.3-19.6-58.5-24.1-1.8 4.9-3.8 9.9-4.3 15.3-1.6 15.1 19.5 19 43.8 20.4z"/>
						<path id="&lt;Path&gt;" class="s13" d="m1476 1238.8c-21.2-14.9-84.9-26.4-155.2-35-19.4-2.3-35.4-16.5-40.1-35.5l-163.6-64.9c0 0-77.4 114.6-78 202.4-0.3 40.9 18.5 44.9 18.5 44.9 0 0 291.6 2.2 304.4 3.5 20.9 2.2 48.5 54.3 55.4 101.8 6.9 47.4 128.5 240.5 128.5 240.5 0 0 25.4 8.1 37.1 7.4 12.6-0.7 18.4-4.9 18.4-4.9 0 0-70.4-421.6-125.4-460.2z"/>
						<path id="&lt;Compound Path&gt;" class="s14" d="m1257.1 626.9c-22.4-11.8-56.6-13.4-62.2-14.1-66.5-9-106.5 87.6-108.8 116.9-4.4 54-32.9 62.2-73.1 96-80.5 67.7-56.9 146.5-12.9 175.7 26.5 17.6 73 0 73 0 0.7 0.5 127.4-70.8 189.9-105.2 93.7-13.4 51.4-239.2-5.9-269.3z"/>
						<path id="&lt;Path&gt;" class="s10" d="m1243.3 862.9c0.3 0.2-29.6 13.7-51.1 6.6-20.2-6.6-38.1-37.1-37.8-37.2 8.8-1.3 17.7-9.9 20.2-61.3l3.9 0.9 65.5 16.6c0 0-2.6 20.7-3.7 40.3-0.9 16.5-0.7 32.2 3 34.1z"/>
						<path id="&lt;Path&gt;" class="s15" d="m1244 788.5c0 0 0 4.3-2.5 23.6-37-9.4-53.3-21.7-64.8-35.7z"/>
						<path id="&lt;Path&gt;" fill-rule="evenodd" class="s10" d="m1257.9 791.1c0 0-86.5 14.1-94.5-40-7.9-54-24.4-88.6 30.5-99.9 54.9-11.3 68.7 7.8 75.8 25.2 7 17.4 10.6 109.6-11.8 114.7z"/>
						<path id="&lt;Path&gt;" class="s14" d="m1258 649c0 0-39.3 62-74.4 76.7-35.1 14.7-52.3 7.3-52.3 7.3 0 0 15.9-24.2 20.1-56.8 1.2-9.5 7.5-17.8 16.4-21.3 25.2-10.1 73.9-26 90.2-5.9z"/>
						<path id="&lt;Path&gt;" class="s14" d="m1223.5 655c0 0 23 11.8 32.5 22.9 9.2 10.6 19.8 39.6 19 52.7 0 0 11.4-62.4-12.3-83.9-25.1-22.7-39.2 8.3-39.2 8.3z"/>
						<path id="&lt;Path&gt;" class="s16" d="m1312.5 995c-2.6 175.9-0.7 139.2-19.9 155.9-4.7 4-17.7 6.4-34.9 7.5-53.9 3.6-148.8-5.3-152.4-15.3-12.4-34.5-3.6-45.2-14-98-1.1-5.6-2.5-11.7-4-18.3-8.7-36.3-17.1-48.7 13.6-106.9 27.9-52.8 60.6-95.7 63.2-94.2 73.5 43.6 76 7.1 76 7.1 0 0 73.7 76.3 72.4 162.2z"/>
						<path id="&lt;Path&gt;" class="s16" d="m1240.1 832.8c0 0 75.2 12.7 84.1 45.3 8.9 32.5 61.2 223.9 61.2 223.9 0 0-38.5 6.9-56.2-10.8-17.8-17.8-61.8-164.8-61.8-164.8z"/>
						<path id="&lt;Path&gt;" class="s17" d="m1257.7 1158.4c-53.9 3.6-148.8-5.3-152.4-15.3-12.4-34.5-3.6-45.2-14-98l26-73.3c0 0-4.3 81.6 19.8 103.1 24 21.4 98.5 41.4 110.2 59.4 5.6 8.6 9.4 17.2 10.4 24.1z"/>
						<path id="&lt;Path&gt;" class="s10" d="m1195.9 1124.1c0 0 53.2-11.9 61.8-7.1 8.6 4.7 29.6 21.9 32.2 27.9 2.7 6-19.1-4.6-26.2-6.5-4.5-1.2-16.6 3-22.6 5-25.1 8.4-40.5 4.1-40.5 4.1z"/>
						<path id="&lt;Path&gt;" class="s16" d="m1164.1 825.7c0 0-75.3 4.4-100.1 38.9-34.8 48.6-103.9 255.7-64.3 283.3 44.6 31.1 203 8.1 203 8.1 0 0 5.2-24.6-2.1-36.5-7.3-12-126.5-31.2-132-36.7-5.5-5.5 68.8-107.3 68.8-123.8 0-16.5 26.7-133.3 26.7-133.3z"/>
						<path id="&lt;Path&gt;" class="s10" d="m1260.3 1131.8c0 0 11.2 14.4 14.8 16.1 3.7 1.7 6 1.3 6 1.3l-7.5-13.5z"/>
						<path id="&lt;Path&gt;" class="s10" d="m1257.7 1117l32.5 15.7c0 0-1.4 2.3-5.4 2.1-4-0.2-14.1-3.9-14.1-3.9z"/>
					</g>
				</g>
			</g>
			<g id="&lt;Group&gt;">
				<path id="&lt;Path&gt;" class="s18" d="m1377.2 1154.3h-150.6c0-6.6 5.4-12 12-12h138.6z"/>
				<path id="&lt;Path&gt;" class="s19" d="m1376.8 990.3h232.8l-55.8 164h-234.4z"/>
				<path id="&lt;Path&gt;" class="s20" d="m1613.1 990.3l-55.9 164h-234.4l57.4-164z"/>
				<path id="&lt;Path&gt;" class="s16" d="m1487.5 1070.8c-1.4 6.2-7.7 11.3-14 11.3-6.2 0-10.1-5.1-8.7-11.3 1.5-6.3 7.7-11.4 14-11.4 6.3 0 10.2 5.1 8.7 11.4z"/>
			</g>
			<g id="&lt;Group&gt;">
				<path id="&lt;Path&gt;" class="s5" d="m1174.5 1191.2h1020.5c4.3 0 7.8-3.5 7.8-7.8v-21.3c0-4.3-3.5-7.8-7.8-7.8h-1020.5c-4.3 0-7.8 3.5-7.8 7.8v21.3c0 4.3 3.5 7.8 7.8 7.8z"/>
				<g id="&lt;Group&gt;">
					<path id="&lt;Path&gt;" class="s5" d="m2220 1799.1h0.4c5.3-0.7 9-5.3 8.3-10.5l-90.9-615.5-33.3 0.9 107 618.9c0.7 4 4.4 6.7 8.5 6.2z"/>
				</g>
				<g id="&lt;Group&gt;">
					<path id="&lt;Path&gt;" class="s5" d="m1140.3 1799.1h-0.4c-5.2-0.7-8.9-5.3-8.3-10.5l91-615.5 33.3 0.9-107 618.9c-0.7 4-4.5 6.7-8.6 6.2z"/>
				</g>
				<g id="&lt;Group&gt;">
					<path id="&lt;Path&gt;" class="s5" d="m1350.9 1799.1h-0.5c-5.2-0.7-8.9-5.3-8.2-10.5l90.9-615.5 33.3 0.9-107 618.9c-0.7 4-4.4 6.7-8.5 6.2z"/>
				</g>
			</g>
			<g id="&lt;Group&gt;">
				<path id="&lt;Path&gt;" class="s9" d="m1887.4 1798.6h180.4c8.7-10.6 5.5-49.7 4.2-62.4-0.3-2.6-0.5-4.1-0.5-4.1 0 0-61.6-49.3-70-11.5q-0.4 1.7-1 3.5c-10.6 35.3-58.5 51.3-86.1 55.8-17.9 2.9-24.6 12.2-27 18.7z"/>
				<path id="&lt;Path&gt;" class="s12" d="m2379.8 1212.3c-6.5 0-309.1 56.8-359.2 118.7-25 31-28.7 388.4-28.7 388.4 0 0 30.9 38.4 97.7 16.1 0 0 49-244.5 45.4-318.7-1-20.5 206.7-3 244.8-12.8 38-9.9 130.9-92.6 110.4-132.9-20.4-40.3-110.4-58.8-110.4-58.8z"/>
				<path id="&lt;Path&gt;" class="s10" d="m2021.9 1124.7c0 0-61 0.9-75.5 7-14.4 6.2-43.7 20.4-35.8 22.6 7.8 2.2 45.2-0.9 53.3 0.3 8 1.3 18-0.3 22.9-0.3 5 0 28.1 0 28.1 0z"/>
				<path id="&lt;Path&gt;" class="s10" d="m1950.5 978.2c0 0-20.8-14.8-41-17.7-11.5-1.7-22.7-3.7-29.5-6.1-18.6-6.6-55.9-40.1-53.1-44 9-12.7 52.6 14 60.2 11.2 7.6-2.9-14.6-18.7-6.9-24.3 4-2.9 13.5 11.7 21.2 13.1 10.4 2 18.6 16.8 21.7 17.5 6.2 1.5 33 21.5 33 21.5z"/>
				<path id="&lt;Path&gt;" class="s18" d="m2349.6 804.6c0 0-46.4 14.4-92.2 140.5-45.8 126-63.2 132.8-79.8 137.8-16.7 4.9-162.7 34-162.7 34v37.4h225c0 0 84.4-80.3 109.7-134.3 25.3-54.1 0-215.4 0-215.4z"/>
				<path id="&lt;Path&gt;" class="s21" d="m1807.6 1798.6h180.5c8.7-10.6 5.5-49.7 4.1-62.4-0.2-2.6-0.4-4.1-0.4-4.1 0 0-61.6-49.3-70.1-11.5q-0.4 1.7-0.9 3.5c-10.7 35.3-58.5 51.3-86.1 55.8-18 2.9-24.6 12.2-27.1 18.7z"/>
				<path id="&lt;Path&gt;" class="s13" d="m2290.6 1212.3c-6.5 0-309.1 56.8-359.2 118.7-25 31-28.7 388.4-28.7 388.4 0 0 31 38.4 97.8 16.1 0 0 48.9-244.5 45.3-318.7-1-20.5 206.8-3 244.8-12.8 38-9.9 130.9-92.6 110.5-132.9-20.5-40.3-110.5-58.8-110.5-58.8z"/>
				<path id="&lt;Path&gt;" class="s10" d="m2309.5 844.5c21.8-1.8 44.6-7.6 64.4-14 24.6-8 44.5-19.7 31.7-42.2-11.8-20.8-30.9-67.2-29.6-105.6l-45.9 37-31.2 25.1c0 0 0.1 14.8 3.5 40.7q1 7.1 2.3 15.3c0.6 4.4-1.4 8.8-5.2 11.2q-0.3 0.2-0.7 0.4c-15.5 9.8-7.5 33.6 10.7 32.1z"/>
				<path id="&lt;Path&gt;" class="s15" d="m2298.9 738.7c0 0-1.6 5.4 1.2 25.2 27.7-4.5 53.7-26.7 53.7-26.7-14.1-3.9-19.3-19.2-29.8-17.7z"/>
				<path id="&lt;Path&gt;" class="s10" d="m2273.2 743.2c0 0 106.9 17.8 116.9-49 10.1-66.7 30.6-109.4-37.2-123.5-67.8-14.2-84.9 9.3-93.7 30.8-8.8 21.4-13.5 135.4 14 141.7z"/>
				<path id="&lt;Path&gt;" class="s14" d="m2243.5 571.9c-4.6 16.1 7.7 35.7 28.3 42.1 30.6 9.6 23.8 47.1 37.6 46.6 13.8-0.5 19.3-21.6 31.6-4.7 10.5 14.3-8.7 31.3-7.4 39.2 2.3 13.5 23.5 41.2 42.6 39.8 19-1.4 54.7-92.1 47.6-120.1-7.1-28.1-35.7-57.7-62.7-61.8-27.1-4-64.6 7.6-73.3 7.6-8.7 0-41.9 2.6-44.3 11.3z"/>
				<path id="&lt;Path&gt;" class="s20" d="m2491.6 897.2c-15.4-62.2-58.1-127.4-87-127.4-49.2 0.1-119.9 13.1-148.4 83.6-21.1 51.8-49.1 350.3-17.4 371.5 72.5 48.5 240.4 147.5 270.3 46.5 27.3-92.5 9.4-266.3-17.5-374.2z"/>
				<path id="&lt;Path&gt;" class="s20" d="m2372.2 835.3c-14.1-36.5-59.3-49.1-90.2-25.1-16.7 13-37.2 31.5-61.9 57.8-91.8 97.8-110.4 97.2-127.7 95.1-17.2-2-162.9-32.9-162.9-32.9 0 0-7.4 5.5-11.8 14.4-5.9 11.9-2.9 20-2.9 20-5.8-3.7 51.6 35.8 80.1 51.6 37.7 20.8 94.5 40.3 117.2 47.7 6.4 2.1 13.3 2 19.6-0.3 33.6-12.1 146.4-56.2 238.2-132.7 24.2-20.2 15.3-61.7 2.3-95.6z"/>
				<path id="&lt;Path&gt;" class="s16" d="m2409.6 770.4l-11.2-25.1c0 0-99.7 8.2-116.4 64.9 0 0 77.3-38.5 127.6-39.8z"/>
			</g>
			<g id="&lt;Group&gt;">
				<g id="&lt;Group&gt;">
					<path id="&lt;Path&gt;" class="s3" d="m2651.6 1796.4h0.7c5.7-0.1 10-4.7 9.5-10l-37.6-375.1-32.8 2.9 54 377.1c0.4 3 3.1 5.1 6.2 5.1z"/>
				</g>
				<g id="&lt;Group&gt;">
					<path id="&lt;Path&gt;" class="s3" d="m2458.3 1796.4h0.7c5.7-0.1 10-4.7 9.5-10l-37.6-375.1-32.8 2.9 54 377.1c0.4 3 3.1 5.1 6.2 5.1z"/>
				</g>
				<g id="&lt;Group&gt;">
					<path id="&lt;Path&gt;" class="s22" d="m2095.4 1796.4h-0.7c-5.6-0.1-9.9-4.7-9.4-10l37.6-375.1 32.7 2.9-53.9 377.1c-0.4 3-3.1 5.1-6.3 5.1z"/>
				</g>
				<path id="&lt;Path&gt;" class="s3" d="m2641 1358.2l35.7-313.3c4.6-45.1-10.5-89.3-75.6-92.8l-114.6-6.9c-67.9-2.9-98.6 53.7-107.2 97.2l-68 344.4z"/>
				<path id="&lt;Path&gt;" class="s22" d="m2621.9 1416.8h-508.7c-10.2 0-18.6-8.4-18.6-18.6v-22.9c0-10.2 8.4-18.6 18.6-18.6h527.3v41.5c0 10.2-8.4 18.6-18.6 18.6z"/>
				<path id="&lt;Path&gt;" class="s3" d="m2626 1416.8h-300.3c-8 0-14.4-6.5-14.4-14.5v-31.1c0-8 6.4-14.5 14.4-14.5h314.8v45.6c0 8-6.5 14.5-14.5 14.5z"/>
			</g>
		</g>
	</g>
</svg>